%TF.GenerationSoftware,KiCad,Pcbnew,8.0.5*%
%TF.CreationDate,2024-11-05T23:16:52+01:00*%
%TF.ProjectId,Leveller,4c657665-6c6c-4657-922e-6b696361645f,rev?*%
%TF.SameCoordinates,Original*%
%TF.FileFunction,Copper,L2,Bot*%
%TF.FilePolarity,Positive*%
%FSLAX46Y46*%
G04 Gerber Fmt 4.6, Leading zero omitted, Abs format (unit mm)*
G04 Created by KiCad (PCBNEW 8.0.5) date 2024-11-05 23:16:52*
%MOMM*%
%LPD*%
G01*
G04 APERTURE LIST*
%TA.AperFunction,ComponentPad*%
%ADD10R,1.700000X1.700000*%
%TD*%
%TA.AperFunction,ComponentPad*%
%ADD11O,1.700000X1.700000*%
%TD*%
%TA.AperFunction,ViaPad*%
%ADD12C,0.800000*%
%TD*%
%TA.AperFunction,Conductor*%
%ADD13C,0.250000*%
%TD*%
%TA.AperFunction,Conductor*%
%ADD14C,0.750000*%
%TD*%
%TA.AperFunction,Conductor*%
%ADD15C,0.600000*%
%TD*%
G04 APERTURE END LIST*
D10*
%TO.P,J10,1,Pin_1*%
%TO.N,GND*%
X56896000Y-74803000D03*
D11*
%TO.P,J10,2,Pin_2*%
%TO.N,+12V*%
X56896000Y-72263000D03*
%TO.P,J10,3,Pin_3*%
%TO.N,N/C*%
X56896000Y-69723000D03*
%TO.P,J10,4,Pin_4*%
X56896000Y-67183000D03*
%TO.P,J10,5,Pin_5*%
X56896000Y-64643000D03*
%TO.P,J10,6,Pin_6*%
X56896000Y-62103000D03*
%TD*%
D10*
%TO.P,J8,1,Pin_1*%
%TO.N,N/C*%
X40640000Y-64643000D03*
D11*
%TO.P,J8,2,Pin_2*%
X40640000Y-67183000D03*
%TO.P,J8,3,Pin_3*%
X40640000Y-69723000D03*
%TO.P,J8,4,Pin_4*%
X40640000Y-72263000D03*
%TO.P,J8,5,Pin_5*%
X40640000Y-74803000D03*
%TD*%
D10*
%TO.P,J6,1,Pin_1*%
%TO.N,N/C*%
X43668000Y-38805000D03*
D11*
%TO.P,J6,2,Pin_2*%
X43668000Y-41345000D03*
%TO.P,J6,3,Pin_3*%
%TO.N,GND*%
X46208000Y-38805000D03*
%TO.P,J6,4,Pin_4*%
X46208000Y-41345000D03*
%TO.P,J6,5,Pin_5*%
X48748000Y-38805000D03*
%TO.P,J6,6,Pin_6*%
X48748000Y-41345000D03*
%TO.P,J6,7,Pin_7*%
X51288000Y-38805000D03*
%TO.P,J6,8,Pin_8*%
X51288000Y-41345000D03*
%TO.P,J6,9,Pin_9*%
%TO.N,N/C*%
X53828000Y-38805000D03*
%TO.P,J6,10,Pin_10*%
X53828000Y-41345000D03*
%TD*%
D12*
%TO.N,-12V*%
X39993000Y-54080000D03*
%TO.N,+12V*%
X54864000Y-59563000D03*
%TO.N,*%
X42926000Y-76364000D03*
%TO.N,+12V*%
X57150000Y-54991000D03*
%TO.N,*%
X42249000Y-62865000D03*
%TO.N,-12V*%
X44154000Y-77634000D03*
%TO.N,GND*%
X52693000Y-48641000D03*
%TO.N,-12V*%
X44154000Y-59600000D03*
%TD*%
D13*
%TO.N,GND*%
X58420000Y-54368000D02*
X52693000Y-48641000D01*
X56896000Y-74803000D02*
X58420000Y-73279000D01*
D14*
%TO.N,-12V*%
X44154000Y-59600000D02*
X44154000Y-77634000D01*
X44154000Y-59600000D02*
X44154000Y-58241000D01*
X44154000Y-58241000D02*
X39993000Y-54080000D01*
%TO.N,+12V*%
X54864000Y-59563000D02*
X54864000Y-70231000D01*
D13*
%TO.N,GND*%
X58420000Y-73279000D02*
X58420000Y-54368000D01*
D14*
%TO.N,+12V*%
X57150000Y-54991000D02*
X54864000Y-57277000D01*
X54864000Y-70231000D02*
X56896000Y-72263000D01*
X54864000Y-57277000D02*
X54864000Y-59563000D01*
D15*
%TO.N,*%
X42249000Y-62865000D02*
X42926000Y-63542000D01*
X42926000Y-63542000D02*
X42926000Y-76364000D01*
%TD*%
%TA.AperFunction,NonConductor*%
G36*
X39522049Y-53486685D02*
G01*
X39567804Y-53539489D01*
X39577748Y-53608647D01*
X39553386Y-53666486D01*
X39468464Y-53777157D01*
X39407956Y-53923237D01*
X39407955Y-53923239D01*
X39387318Y-54079998D01*
X39387318Y-54080001D01*
X39407955Y-54236760D01*
X39407956Y-54236762D01*
X39468464Y-54382841D01*
X39564718Y-54508282D01*
X39690159Y-54604536D01*
X39690405Y-54604638D01*
X39690854Y-54604937D01*
X39697199Y-54608601D01*
X39696959Y-54609016D01*
X39730641Y-54631521D01*
X43542181Y-58443061D01*
X43575666Y-58504384D01*
X43578500Y-58530742D01*
X43578500Y-59395530D01*
X43570598Y-59435259D01*
X43571060Y-59435383D01*
X43569171Y-59442431D01*
X43569063Y-59442978D01*
X43568956Y-59443235D01*
X43548318Y-59599998D01*
X43548318Y-59600001D01*
X43568955Y-59756759D01*
X43568955Y-59756761D01*
X43568956Y-59756762D01*
X43569060Y-59757014D01*
X43569166Y-59757545D01*
X43571060Y-59764613D01*
X43570596Y-59764737D01*
X43578500Y-59804467D01*
X43578500Y-77429530D01*
X43570598Y-77469259D01*
X43571060Y-77469383D01*
X43569171Y-77476431D01*
X43569063Y-77476978D01*
X43568956Y-77477235D01*
X43548318Y-77633998D01*
X43548318Y-77634001D01*
X43568955Y-77790760D01*
X43568956Y-77790762D01*
X43629464Y-77936841D01*
X43725718Y-78062282D01*
X43851159Y-78158536D01*
X43997238Y-78219044D01*
X44075619Y-78229363D01*
X44153999Y-78239682D01*
X44154000Y-78239682D01*
X44154001Y-78239682D01*
X44206254Y-78232802D01*
X44310762Y-78219044D01*
X44456841Y-78158536D01*
X44582282Y-78062282D01*
X44678536Y-77936841D01*
X44739044Y-77790762D01*
X44759682Y-77634000D01*
X44739044Y-77477238D01*
X44739043Y-77477235D01*
X44738937Y-77476978D01*
X44738828Y-77476431D01*
X44736940Y-77469383D01*
X44737401Y-77469259D01*
X44729500Y-77429530D01*
X44729500Y-59804467D01*
X44737403Y-59764737D01*
X44736940Y-59764613D01*
X44738833Y-59757545D01*
X44738939Y-59757015D01*
X44739044Y-59756762D01*
X44759682Y-59600000D01*
X44739044Y-59443238D01*
X44739043Y-59443235D01*
X44738937Y-59442978D01*
X44738828Y-59442431D01*
X44736940Y-59435383D01*
X44737401Y-59435259D01*
X44729500Y-59395530D01*
X44729500Y-58165236D01*
X44729500Y-58165234D01*
X44690281Y-58018865D01*
X44614515Y-57887635D01*
X44507365Y-57780485D01*
X40544521Y-53817641D01*
X40522016Y-53783959D01*
X40521601Y-53784199D01*
X40517937Y-53777854D01*
X40517637Y-53777404D01*
X40517536Y-53777159D01*
X40432614Y-53666486D01*
X40407420Y-53601317D01*
X40421458Y-53532872D01*
X40470272Y-53482883D01*
X40530990Y-53467000D01*
X54994000Y-53467000D01*
X55061039Y-53486685D01*
X55106794Y-53539489D01*
X55118000Y-53591000D01*
X55118000Y-56157757D01*
X55098315Y-56224796D01*
X55081681Y-56245438D01*
X54493193Y-56833925D01*
X54493194Y-56833926D01*
X54403485Y-56923635D01*
X54327719Y-57054863D01*
X54288500Y-57201234D01*
X54288500Y-59358530D01*
X54280598Y-59398259D01*
X54281060Y-59398383D01*
X54279171Y-59405431D01*
X54279063Y-59405978D01*
X54278956Y-59406235D01*
X54258318Y-59562998D01*
X54258318Y-59563001D01*
X54278955Y-59719759D01*
X54278955Y-59719761D01*
X54278956Y-59719762D01*
X54279060Y-59720014D01*
X54279166Y-59720545D01*
X54281060Y-59727613D01*
X54280596Y-59727737D01*
X54288500Y-59767467D01*
X54288500Y-70306765D01*
X54327719Y-70453136D01*
X54337115Y-70469410D01*
X54403485Y-70584365D01*
X54403487Y-70584367D01*
X55081681Y-71262561D01*
X55115166Y-71323884D01*
X55118000Y-71350242D01*
X55118000Y-76835000D01*
X58550000Y-76835000D01*
X58617039Y-76854685D01*
X58662794Y-76907489D01*
X58674000Y-76959000D01*
X58674000Y-83311000D01*
X58654315Y-83378039D01*
X58601511Y-83423794D01*
X58550000Y-83435000D01*
X38986000Y-83435000D01*
X38918961Y-83415315D01*
X38873206Y-83362511D01*
X38862000Y-83311000D01*
X38862000Y-74803000D01*
X39584417Y-74803000D01*
X39604699Y-75008932D01*
X39604700Y-75008934D01*
X39664768Y-75206954D01*
X39762315Y-75389450D01*
X39762317Y-75389452D01*
X39893589Y-75549410D01*
X39990209Y-75628702D01*
X40053550Y-75680685D01*
X40236046Y-75778232D01*
X40434066Y-75838300D01*
X40434065Y-75838300D01*
X40452529Y-75840118D01*
X40640000Y-75858583D01*
X40845934Y-75838300D01*
X41043954Y-75778232D01*
X41226450Y-75680685D01*
X41386410Y-75549410D01*
X41517685Y-75389450D01*
X41615232Y-75206954D01*
X41675300Y-75008934D01*
X41695583Y-74803000D01*
X41675300Y-74597066D01*
X41615232Y-74399046D01*
X41517685Y-74216550D01*
X41465702Y-74153209D01*
X41386410Y-74056589D01*
X41226452Y-73925317D01*
X41226453Y-73925317D01*
X41226450Y-73925315D01*
X41043954Y-73827768D01*
X40845934Y-73767700D01*
X40845932Y-73767699D01*
X40845934Y-73767699D01*
X40640000Y-73747417D01*
X40434067Y-73767699D01*
X40236043Y-73827769D01*
X40148114Y-73874769D01*
X40053550Y-73925315D01*
X40053548Y-73925316D01*
X40053547Y-73925317D01*
X39893589Y-74056589D01*
X39762317Y-74216547D01*
X39664769Y-74399043D01*
X39604699Y-74597067D01*
X39584417Y-74803000D01*
X38862000Y-74803000D01*
X38862000Y-72263000D01*
X39584417Y-72263000D01*
X39604699Y-72468932D01*
X39604700Y-72468934D01*
X39664768Y-72666954D01*
X39762315Y-72849450D01*
X39762317Y-72849452D01*
X39893589Y-73009410D01*
X39990209Y-73088702D01*
X40053550Y-73140685D01*
X40236046Y-73238232D01*
X40434066Y-73298300D01*
X40434065Y-73298300D01*
X40452529Y-73300118D01*
X40640000Y-73318583D01*
X40845934Y-73298300D01*
X41043954Y-73238232D01*
X41226450Y-73140685D01*
X41386410Y-73009410D01*
X41517685Y-72849450D01*
X41615232Y-72666954D01*
X41675300Y-72468934D01*
X41695583Y-72263000D01*
X41675300Y-72057066D01*
X41615232Y-71859046D01*
X41517685Y-71676550D01*
X41465702Y-71613209D01*
X41386410Y-71516589D01*
X41226452Y-71385317D01*
X41226453Y-71385317D01*
X41226450Y-71385315D01*
X41043954Y-71287768D01*
X40845934Y-71227700D01*
X40845932Y-71227699D01*
X40845934Y-71227699D01*
X40640000Y-71207417D01*
X40434067Y-71227699D01*
X40236043Y-71287769D01*
X40168478Y-71323884D01*
X40053550Y-71385315D01*
X40053548Y-71385316D01*
X40053547Y-71385317D01*
X39893589Y-71516589D01*
X39762317Y-71676547D01*
X39664769Y-71859043D01*
X39604699Y-72057067D01*
X39584417Y-72263000D01*
X38862000Y-72263000D01*
X38862000Y-69723000D01*
X39584417Y-69723000D01*
X39604699Y-69928932D01*
X39604700Y-69928934D01*
X39664768Y-70126954D01*
X39762315Y-70309450D01*
X39762317Y-70309452D01*
X39893589Y-70469410D01*
X39990209Y-70548702D01*
X40053550Y-70600685D01*
X40236046Y-70698232D01*
X40434066Y-70758300D01*
X40434065Y-70758300D01*
X40452529Y-70760118D01*
X40640000Y-70778583D01*
X40845934Y-70758300D01*
X41043954Y-70698232D01*
X41226450Y-70600685D01*
X41386410Y-70469410D01*
X41517685Y-70309450D01*
X41615232Y-70126954D01*
X41675300Y-69928934D01*
X41695583Y-69723000D01*
X41675300Y-69517066D01*
X41615232Y-69319046D01*
X41517685Y-69136550D01*
X41465702Y-69073209D01*
X41386410Y-68976589D01*
X41226452Y-68845317D01*
X41226453Y-68845317D01*
X41226450Y-68845315D01*
X41043954Y-68747768D01*
X40845934Y-68687700D01*
X40845932Y-68687699D01*
X40845934Y-68687699D01*
X40640000Y-68667417D01*
X40434067Y-68687699D01*
X40236043Y-68747769D01*
X40125898Y-68806643D01*
X40053550Y-68845315D01*
X40053548Y-68845316D01*
X40053547Y-68845317D01*
X39893589Y-68976589D01*
X39762317Y-69136547D01*
X39664769Y-69319043D01*
X39604699Y-69517067D01*
X39584417Y-69723000D01*
X38862000Y-69723000D01*
X38862000Y-63745155D01*
X39290000Y-63745155D01*
X39290000Y-64393000D01*
X40206988Y-64393000D01*
X40174075Y-64450007D01*
X40140000Y-64577174D01*
X40140000Y-64708826D01*
X40174075Y-64835993D01*
X40206988Y-64893000D01*
X39290000Y-64893000D01*
X39290000Y-65540844D01*
X39296401Y-65600372D01*
X39296403Y-65600379D01*
X39346645Y-65735086D01*
X39346649Y-65735093D01*
X39432809Y-65850187D01*
X39432812Y-65850190D01*
X39547906Y-65936350D01*
X39547913Y-65936354D01*
X39682620Y-65986596D01*
X39682627Y-65986598D01*
X39742155Y-65992999D01*
X39742172Y-65993000D01*
X40142813Y-65993000D01*
X40209852Y-66012685D01*
X40255607Y-66065489D01*
X40265551Y-66134647D01*
X40236526Y-66198203D01*
X40201267Y-66226357D01*
X40053550Y-66305315D01*
X40053548Y-66305316D01*
X40053547Y-66305317D01*
X39893589Y-66436589D01*
X39762317Y-66596547D01*
X39664769Y-66779043D01*
X39604699Y-66977067D01*
X39584417Y-67183000D01*
X39604699Y-67388932D01*
X39604700Y-67388934D01*
X39664768Y-67586954D01*
X39762315Y-67769450D01*
X39762317Y-67769452D01*
X39893589Y-67929410D01*
X39990209Y-68008702D01*
X40053550Y-68060685D01*
X40236046Y-68158232D01*
X40434066Y-68218300D01*
X40434065Y-68218300D01*
X40452529Y-68220118D01*
X40640000Y-68238583D01*
X40845934Y-68218300D01*
X41043954Y-68158232D01*
X41226450Y-68060685D01*
X41386410Y-67929410D01*
X41517685Y-67769450D01*
X41615232Y-67586954D01*
X41675300Y-67388934D01*
X41695583Y-67183000D01*
X41675300Y-66977066D01*
X41615232Y-66779046D01*
X41517685Y-66596550D01*
X41465702Y-66533209D01*
X41386410Y-66436589D01*
X41226452Y-66305317D01*
X41226453Y-66305317D01*
X41226450Y-66305315D01*
X41078732Y-66226357D01*
X41028889Y-66177395D01*
X41013429Y-66109257D01*
X41037261Y-66043578D01*
X41092819Y-66001209D01*
X41137187Y-65993000D01*
X41537828Y-65993000D01*
X41537844Y-65992999D01*
X41597372Y-65986598D01*
X41597379Y-65986596D01*
X41732086Y-65936354D01*
X41732093Y-65936350D01*
X41847187Y-65850190D01*
X41847190Y-65850187D01*
X41933350Y-65735093D01*
X41933354Y-65735086D01*
X41983596Y-65600379D01*
X41983598Y-65600372D01*
X41989999Y-65540844D01*
X41990000Y-65540827D01*
X41990000Y-64893000D01*
X41073012Y-64893000D01*
X41105925Y-64835993D01*
X41140000Y-64708826D01*
X41140000Y-64577174D01*
X41105925Y-64450007D01*
X41073012Y-64393000D01*
X41990000Y-64393000D01*
X41990000Y-63745172D01*
X41989999Y-63745155D01*
X41983598Y-63685627D01*
X41983596Y-63685620D01*
X41933354Y-63550913D01*
X41933350Y-63550906D01*
X41847190Y-63435812D01*
X41847187Y-63435809D01*
X41732093Y-63349649D01*
X41732086Y-63349645D01*
X41597379Y-63299403D01*
X41597372Y-63299401D01*
X41537844Y-63293000D01*
X40890000Y-63293000D01*
X40890000Y-64209988D01*
X40832993Y-64177075D01*
X40705826Y-64143000D01*
X40574174Y-64143000D01*
X40447007Y-64177075D01*
X40390000Y-64209988D01*
X40390000Y-63293000D01*
X39742155Y-63293000D01*
X39682627Y-63299401D01*
X39682620Y-63299403D01*
X39547913Y-63349645D01*
X39547906Y-63349649D01*
X39432812Y-63435809D01*
X39432809Y-63435812D01*
X39346649Y-63550906D01*
X39346645Y-63550913D01*
X39296403Y-63685620D01*
X39296401Y-63685627D01*
X39290000Y-63745155D01*
X38862000Y-63745155D01*
X38862000Y-53591000D01*
X38881685Y-53523961D01*
X38934489Y-53478206D01*
X38986000Y-53467000D01*
X39455010Y-53467000D01*
X39522049Y-53486685D01*
G37*
%TD.AperFunction*%
%TA.AperFunction,Conductor*%
%TO.N,GND*%
G36*
X48282075Y-41152007D02*
G01*
X48248000Y-41279174D01*
X48248000Y-41410826D01*
X48282075Y-41537993D01*
X48314988Y-41595000D01*
X46641012Y-41595000D01*
X46673925Y-41537993D01*
X46708000Y-41410826D01*
X46708000Y-41279174D01*
X46673925Y-41152007D01*
X46641012Y-41095000D01*
X48314988Y-41095000D01*
X48282075Y-41152007D01*
G37*
%TD.AperFunction*%
%TA.AperFunction,Conductor*%
G36*
X50822075Y-41152007D02*
G01*
X50788000Y-41279174D01*
X50788000Y-41410826D01*
X50822075Y-41537993D01*
X50854988Y-41595000D01*
X49181012Y-41595000D01*
X49213925Y-41537993D01*
X49248000Y-41410826D01*
X49248000Y-41279174D01*
X49213925Y-41152007D01*
X49181012Y-41095000D01*
X50854988Y-41095000D01*
X50822075Y-41152007D01*
G37*
%TD.AperFunction*%
%TA.AperFunction,Conductor*%
G36*
X46458000Y-40911988D02*
G01*
X46400993Y-40879075D01*
X46273826Y-40845000D01*
X46142174Y-40845000D01*
X46015007Y-40879075D01*
X45958000Y-40911988D01*
X45958000Y-39238012D01*
X46015007Y-39270925D01*
X46142174Y-39305000D01*
X46273826Y-39305000D01*
X46400993Y-39270925D01*
X46458000Y-39238012D01*
X46458000Y-40911988D01*
G37*
%TD.AperFunction*%
%TA.AperFunction,Conductor*%
G36*
X48998000Y-40911988D02*
G01*
X48940993Y-40879075D01*
X48813826Y-40845000D01*
X48682174Y-40845000D01*
X48555007Y-40879075D01*
X48498000Y-40911988D01*
X48498000Y-39238012D01*
X48555007Y-39270925D01*
X48682174Y-39305000D01*
X48813826Y-39305000D01*
X48940993Y-39270925D01*
X48998000Y-39238012D01*
X48998000Y-40911988D01*
G37*
%TD.AperFunction*%
%TA.AperFunction,Conductor*%
G36*
X51538000Y-40911988D02*
G01*
X51480993Y-40879075D01*
X51353826Y-40845000D01*
X51222174Y-40845000D01*
X51095007Y-40879075D01*
X51038000Y-40911988D01*
X51038000Y-39238012D01*
X51095007Y-39270925D01*
X51222174Y-39305000D01*
X51353826Y-39305000D01*
X51480993Y-39270925D01*
X51538000Y-39238012D01*
X51538000Y-40911988D01*
G37*
%TD.AperFunction*%
%TA.AperFunction,Conductor*%
G36*
X48282075Y-38612007D02*
G01*
X48248000Y-38739174D01*
X48248000Y-38870826D01*
X48282075Y-38997993D01*
X48314988Y-39055000D01*
X46641012Y-39055000D01*
X46673925Y-38997993D01*
X46708000Y-38870826D01*
X46708000Y-38739174D01*
X46673925Y-38612007D01*
X46641012Y-38555000D01*
X48314988Y-38555000D01*
X48282075Y-38612007D01*
G37*
%TD.AperFunction*%
%TA.AperFunction,Conductor*%
G36*
X50822075Y-38612007D02*
G01*
X50788000Y-38739174D01*
X50788000Y-38870826D01*
X50822075Y-38997993D01*
X50854988Y-39055000D01*
X49181012Y-39055000D01*
X49213925Y-38997993D01*
X49248000Y-38870826D01*
X49248000Y-38739174D01*
X49213925Y-38612007D01*
X49181012Y-38555000D01*
X50854988Y-38555000D01*
X50822075Y-38612007D01*
G37*
%TD.AperFunction*%
%TA.AperFunction,Conductor*%
G36*
X58617039Y-35279685D02*
G01*
X58662794Y-35332489D01*
X58674000Y-35384000D01*
X58674000Y-76457000D01*
X58654315Y-76524039D01*
X58601511Y-76569794D01*
X58550000Y-76581000D01*
X55496000Y-76581000D01*
X55428961Y-76561315D01*
X55383206Y-76508511D01*
X55372000Y-76457000D01*
X55372000Y-75958518D01*
X55391685Y-75891479D01*
X55444489Y-75845724D01*
X55513647Y-75835780D01*
X55577203Y-75864805D01*
X55596429Y-75888664D01*
X55597331Y-75887989D01*
X55688809Y-76010187D01*
X55688812Y-76010190D01*
X55803906Y-76096350D01*
X55803913Y-76096354D01*
X55938620Y-76146596D01*
X55938627Y-76146598D01*
X55998155Y-76152999D01*
X55998172Y-76153000D01*
X56646000Y-76153000D01*
X56646000Y-75236012D01*
X56703007Y-75268925D01*
X56830174Y-75303000D01*
X56961826Y-75303000D01*
X57088993Y-75268925D01*
X57146000Y-75236012D01*
X57146000Y-76153000D01*
X57793828Y-76153000D01*
X57793844Y-76152999D01*
X57853372Y-76146598D01*
X57853379Y-76146596D01*
X57988086Y-76096354D01*
X57988093Y-76096350D01*
X58103187Y-76010190D01*
X58103190Y-76010187D01*
X58189350Y-75895093D01*
X58189354Y-75895086D01*
X58239596Y-75760379D01*
X58239598Y-75760372D01*
X58245999Y-75700844D01*
X58246000Y-75700827D01*
X58246000Y-75053000D01*
X57329012Y-75053000D01*
X57361925Y-74995993D01*
X57396000Y-74868826D01*
X57396000Y-74737174D01*
X57361925Y-74610007D01*
X57329012Y-74553000D01*
X58246000Y-74553000D01*
X58246000Y-73905172D01*
X58245999Y-73905155D01*
X58239598Y-73845627D01*
X58239596Y-73845620D01*
X58189354Y-73710913D01*
X58189350Y-73710906D01*
X58103190Y-73595812D01*
X58103187Y-73595809D01*
X57988093Y-73509649D01*
X57988086Y-73509645D01*
X57853379Y-73459403D01*
X57853372Y-73459401D01*
X57793844Y-73453000D01*
X57393187Y-73453000D01*
X57326148Y-73433315D01*
X57280393Y-73380511D01*
X57270449Y-73311353D01*
X57299474Y-73247797D01*
X57334733Y-73219642D01*
X57482450Y-73140685D01*
X57642410Y-73009410D01*
X57773685Y-72849450D01*
X57871232Y-72666954D01*
X57931300Y-72468934D01*
X57951583Y-72263000D01*
X57931300Y-72057066D01*
X57871232Y-71859046D01*
X57773685Y-71676550D01*
X57721702Y-71613209D01*
X57642410Y-71516589D01*
X57482452Y-71385317D01*
X57482453Y-71385317D01*
X57482450Y-71385315D01*
X57299954Y-71287768D01*
X57101934Y-71227700D01*
X57101932Y-71227699D01*
X57101934Y-71227699D01*
X56914463Y-71209235D01*
X56896000Y-71207417D01*
X56895999Y-71207417D01*
X56734331Y-71223339D01*
X56665685Y-71210320D01*
X56634497Y-71187617D01*
X56337833Y-70890953D01*
X56304348Y-70829630D01*
X56309332Y-70759938D01*
X56351204Y-70704005D01*
X56416668Y-70679588D01*
X56483969Y-70693915D01*
X56492042Y-70698230D01*
X56492046Y-70698232D01*
X56690066Y-70758300D01*
X56690065Y-70758300D01*
X56706697Y-70759938D01*
X56896000Y-70778583D01*
X57101934Y-70758300D01*
X57299954Y-70698232D01*
X57482450Y-70600685D01*
X57642410Y-70469410D01*
X57773685Y-70309450D01*
X57871232Y-70126954D01*
X57931300Y-69928934D01*
X57951583Y-69723000D01*
X57931300Y-69517066D01*
X57871232Y-69319046D01*
X57773685Y-69136550D01*
X57721702Y-69073209D01*
X57642410Y-68976589D01*
X57482452Y-68845317D01*
X57482453Y-68845317D01*
X57482450Y-68845315D01*
X57299954Y-68747768D01*
X57101934Y-68687700D01*
X57101932Y-68687699D01*
X57101934Y-68687699D01*
X56896000Y-68667417D01*
X56690067Y-68687699D01*
X56492043Y-68747769D01*
X56381898Y-68806643D01*
X56309550Y-68845315D01*
X56309548Y-68845316D01*
X56309547Y-68845317D01*
X56149589Y-68976589D01*
X56018317Y-69136547D01*
X55920769Y-69319043D01*
X55860699Y-69517067D01*
X55840417Y-69723000D01*
X55860699Y-69928932D01*
X55920769Y-70126957D01*
X55925086Y-70135033D01*
X55939327Y-70203436D01*
X55914326Y-70268679D01*
X55858021Y-70310049D01*
X55788287Y-70314411D01*
X55728046Y-70281166D01*
X55475819Y-70028939D01*
X55442334Y-69967616D01*
X55439500Y-69941258D01*
X55439500Y-67183000D01*
X55840417Y-67183000D01*
X55860699Y-67388932D01*
X55860700Y-67388934D01*
X55920768Y-67586954D01*
X56018315Y-67769450D01*
X56018317Y-67769452D01*
X56149589Y-67929410D01*
X56246209Y-68008702D01*
X56309550Y-68060685D01*
X56492046Y-68158232D01*
X56690066Y-68218300D01*
X56690065Y-68218300D01*
X56708529Y-68220118D01*
X56896000Y-68238583D01*
X57101934Y-68218300D01*
X57299954Y-68158232D01*
X57482450Y-68060685D01*
X57642410Y-67929410D01*
X57773685Y-67769450D01*
X57871232Y-67586954D01*
X57931300Y-67388934D01*
X57951583Y-67183000D01*
X57931300Y-66977066D01*
X57871232Y-66779046D01*
X57773685Y-66596550D01*
X57721702Y-66533209D01*
X57642410Y-66436589D01*
X57482452Y-66305317D01*
X57482453Y-66305317D01*
X57482450Y-66305315D01*
X57299954Y-66207768D01*
X57101934Y-66147700D01*
X57101932Y-66147699D01*
X57101934Y-66147699D01*
X56896000Y-66127417D01*
X56690067Y-66147699D01*
X56492043Y-66207769D01*
X56381898Y-66266643D01*
X56309550Y-66305315D01*
X56309548Y-66305316D01*
X56309547Y-66305317D01*
X56149589Y-66436589D01*
X56018317Y-66596547D01*
X55920769Y-66779043D01*
X55860699Y-66977067D01*
X55840417Y-67183000D01*
X55439500Y-67183000D01*
X55439500Y-64643000D01*
X55840417Y-64643000D01*
X55860699Y-64848932D01*
X55860700Y-64848934D01*
X55920768Y-65046954D01*
X56018315Y-65229450D01*
X56018317Y-65229452D01*
X56149589Y-65389410D01*
X56246209Y-65468702D01*
X56309550Y-65520685D01*
X56492046Y-65618232D01*
X56690066Y-65678300D01*
X56690065Y-65678300D01*
X56708529Y-65680118D01*
X56896000Y-65698583D01*
X57101934Y-65678300D01*
X57299954Y-65618232D01*
X57482450Y-65520685D01*
X57642410Y-65389410D01*
X57773685Y-65229450D01*
X57871232Y-65046954D01*
X57931300Y-64848934D01*
X57951583Y-64643000D01*
X57931300Y-64437066D01*
X57871232Y-64239046D01*
X57773685Y-64056550D01*
X57721702Y-63993209D01*
X57642410Y-63896589D01*
X57482452Y-63765317D01*
X57482453Y-63765317D01*
X57482450Y-63765315D01*
X57299954Y-63667768D01*
X57101934Y-63607700D01*
X57101932Y-63607699D01*
X57101934Y-63607699D01*
X56896000Y-63587417D01*
X56690067Y-63607699D01*
X56492043Y-63667769D01*
X56404114Y-63714769D01*
X56309550Y-63765315D01*
X56309548Y-63765316D01*
X56309547Y-63765317D01*
X56149589Y-63896589D01*
X56018317Y-64056547D01*
X55920769Y-64239043D01*
X55860699Y-64437067D01*
X55840417Y-64643000D01*
X55439500Y-64643000D01*
X55439500Y-62103000D01*
X55840417Y-62103000D01*
X55860699Y-62308932D01*
X55860700Y-62308934D01*
X55920768Y-62506954D01*
X56018315Y-62689450D01*
X56018317Y-62689452D01*
X56149589Y-62849410D01*
X56246209Y-62928702D01*
X56309550Y-62980685D01*
X56492046Y-63078232D01*
X56690066Y-63138300D01*
X56690065Y-63138300D01*
X56708529Y-63140118D01*
X56896000Y-63158583D01*
X57101934Y-63138300D01*
X57299954Y-63078232D01*
X57482450Y-62980685D01*
X57642410Y-62849410D01*
X57773685Y-62689450D01*
X57871232Y-62506954D01*
X57931300Y-62308934D01*
X57951583Y-62103000D01*
X57931300Y-61897066D01*
X57871232Y-61699046D01*
X57773685Y-61516550D01*
X57721702Y-61453209D01*
X57642410Y-61356589D01*
X57482452Y-61225317D01*
X57482453Y-61225317D01*
X57482450Y-61225315D01*
X57299954Y-61127768D01*
X57101934Y-61067700D01*
X57101932Y-61067699D01*
X57101934Y-61067699D01*
X56896000Y-61047417D01*
X56690067Y-61067699D01*
X56492043Y-61127769D01*
X56381898Y-61186643D01*
X56309550Y-61225315D01*
X56309548Y-61225316D01*
X56309547Y-61225317D01*
X56149589Y-61356589D01*
X56018317Y-61516547D01*
X55920769Y-61699043D01*
X55860699Y-61897067D01*
X55840417Y-62103000D01*
X55439500Y-62103000D01*
X55439500Y-59767467D01*
X55447403Y-59727737D01*
X55446940Y-59727613D01*
X55448833Y-59720545D01*
X55448939Y-59720015D01*
X55449044Y-59719762D01*
X55469682Y-59563000D01*
X55449044Y-59406238D01*
X55449043Y-59406235D01*
X55448937Y-59405978D01*
X55448828Y-59405431D01*
X55446940Y-59398383D01*
X55447401Y-59398259D01*
X55439500Y-59358530D01*
X55439500Y-57566740D01*
X55459185Y-57499701D01*
X55475814Y-57479064D01*
X57412358Y-55542519D01*
X57446042Y-55520014D01*
X57445803Y-55519599D01*
X57452144Y-55515937D01*
X57452591Y-55515639D01*
X57452841Y-55515536D01*
X57578282Y-55419282D01*
X57674536Y-55293841D01*
X57735044Y-55147762D01*
X57755682Y-54991000D01*
X57735044Y-54834238D01*
X57674536Y-54688159D01*
X57578282Y-54562718D01*
X57452841Y-54466464D01*
X57306762Y-54405956D01*
X57306760Y-54405955D01*
X57150001Y-54385318D01*
X57149999Y-54385318D01*
X56993239Y-54405955D01*
X56993237Y-54405956D01*
X56847160Y-54466463D01*
X56721716Y-54562719D01*
X56625466Y-54688156D01*
X56625461Y-54688164D01*
X56625355Y-54688421D01*
X56625047Y-54688880D01*
X56621399Y-54695200D01*
X56620984Y-54694960D01*
X56598478Y-54728641D01*
X55583681Y-55743438D01*
X55522358Y-55776923D01*
X55452666Y-55771939D01*
X55396733Y-55730067D01*
X55372316Y-55664603D01*
X55372000Y-55655757D01*
X55372000Y-53213000D01*
X38986000Y-53213000D01*
X38918961Y-53193315D01*
X38873206Y-53140511D01*
X38862000Y-53089000D01*
X38862000Y-47499038D01*
X47167500Y-47499038D01*
X47167500Y-47750961D01*
X47206910Y-47999785D01*
X47284760Y-48239383D01*
X47399132Y-48463848D01*
X47547201Y-48667649D01*
X47547205Y-48667654D01*
X47725345Y-48845794D01*
X47725350Y-48845798D01*
X47903117Y-48974952D01*
X47929155Y-48993870D01*
X48072184Y-49066747D01*
X48153616Y-49108239D01*
X48153618Y-49108239D01*
X48153621Y-49108241D01*
X48393215Y-49186090D01*
X48642038Y-49225500D01*
X48642039Y-49225500D01*
X48893961Y-49225500D01*
X48893962Y-49225500D01*
X49142785Y-49186090D01*
X49382379Y-49108241D01*
X49606845Y-48993870D01*
X49810656Y-48845793D01*
X49988793Y-48667656D01*
X50136870Y-48463845D01*
X50251241Y-48239379D01*
X50329090Y-47999785D01*
X50368500Y-47750962D01*
X50368500Y-47499038D01*
X50329090Y-47250215D01*
X50251241Y-47010621D01*
X50251239Y-47010618D01*
X50251239Y-47010616D01*
X50209747Y-46929184D01*
X50136870Y-46786155D01*
X50117952Y-46760117D01*
X49988798Y-46582350D01*
X49988794Y-46582345D01*
X49810654Y-46404205D01*
X49810649Y-46404201D01*
X49606848Y-46256132D01*
X49606847Y-46256131D01*
X49606845Y-46256130D01*
X49536747Y-46220413D01*
X49382383Y-46141760D01*
X49142785Y-46063910D01*
X48893962Y-46024500D01*
X48642038Y-46024500D01*
X48517626Y-46044205D01*
X48393214Y-46063910D01*
X48153616Y-46141760D01*
X47929151Y-46256132D01*
X47725350Y-46404201D01*
X47725345Y-46404205D01*
X47547205Y-46582345D01*
X47547201Y-46582350D01*
X47399132Y-46786151D01*
X47284760Y-47010616D01*
X47206910Y-47250214D01*
X47167500Y-47499038D01*
X38862000Y-47499038D01*
X38862000Y-41345000D01*
X42612417Y-41345000D01*
X42632699Y-41550932D01*
X42632700Y-41550934D01*
X42692768Y-41748954D01*
X42790315Y-41931450D01*
X42790317Y-41931452D01*
X42921589Y-42091410D01*
X43018209Y-42170702D01*
X43081550Y-42222685D01*
X43264046Y-42320232D01*
X43462066Y-42380300D01*
X43462065Y-42380300D01*
X43480529Y-42382118D01*
X43668000Y-42400583D01*
X43873934Y-42380300D01*
X44071954Y-42320232D01*
X44254450Y-42222685D01*
X44414410Y-42091410D01*
X44545685Y-41931450D01*
X44643232Y-41748954D01*
X44663406Y-41682446D01*
X44701702Y-41624010D01*
X44765514Y-41595553D01*
X44834581Y-41606112D01*
X44886975Y-41652336D01*
X44901841Y-41686349D01*
X44934567Y-41808486D01*
X44934570Y-41808492D01*
X45034399Y-42022578D01*
X45169894Y-42216082D01*
X45336917Y-42383105D01*
X45530421Y-42518600D01*
X45744507Y-42618429D01*
X45744516Y-42618433D01*
X45958000Y-42675634D01*
X45958000Y-41778012D01*
X46015007Y-41810925D01*
X46142174Y-41845000D01*
X46273826Y-41845000D01*
X46400993Y-41810925D01*
X46458000Y-41778012D01*
X46458000Y-42675633D01*
X46671483Y-42618433D01*
X46671492Y-42618429D01*
X46885578Y-42518600D01*
X47079082Y-42383105D01*
X47246105Y-42216082D01*
X47376425Y-42029968D01*
X47431002Y-41986344D01*
X47500501Y-41979151D01*
X47562855Y-42010673D01*
X47579575Y-42029968D01*
X47709894Y-42216082D01*
X47876917Y-42383105D01*
X48070421Y-42518600D01*
X48284507Y-42618429D01*
X48284516Y-42618433D01*
X48498000Y-42675634D01*
X48498000Y-41778012D01*
X48555007Y-41810925D01*
X48682174Y-41845000D01*
X48813826Y-41845000D01*
X48940993Y-41810925D01*
X48998000Y-41778012D01*
X48998000Y-42675633D01*
X49211483Y-42618433D01*
X49211492Y-42618429D01*
X49425578Y-42518600D01*
X49619082Y-42383105D01*
X49786105Y-42216082D01*
X49916425Y-42029968D01*
X49971002Y-41986344D01*
X50040501Y-41979151D01*
X50102855Y-42010673D01*
X50119575Y-42029968D01*
X50249894Y-42216082D01*
X50416917Y-42383105D01*
X50610421Y-42518600D01*
X50824507Y-42618429D01*
X50824516Y-42618433D01*
X51038000Y-42675634D01*
X51038000Y-41778012D01*
X51095007Y-41810925D01*
X51222174Y-41845000D01*
X51353826Y-41845000D01*
X51480993Y-41810925D01*
X51538000Y-41778012D01*
X51538000Y-42675633D01*
X51751483Y-42618433D01*
X51751492Y-42618429D01*
X51965578Y-42518600D01*
X52159082Y-42383105D01*
X52326105Y-42216082D01*
X52461600Y-42022578D01*
X52561429Y-41808492D01*
X52561433Y-41808483D01*
X52594158Y-41686350D01*
X52630522Y-41626690D01*
X52693369Y-41596160D01*
X52762745Y-41604454D01*
X52816623Y-41648939D01*
X52832593Y-41682447D01*
X52852768Y-41748954D01*
X52950315Y-41931450D01*
X52950317Y-41931452D01*
X53081589Y-42091410D01*
X53178209Y-42170702D01*
X53241550Y-42222685D01*
X53424046Y-42320232D01*
X53622066Y-42380300D01*
X53622065Y-42380300D01*
X53640529Y-42382118D01*
X53828000Y-42400583D01*
X54033934Y-42380300D01*
X54231954Y-42320232D01*
X54414450Y-42222685D01*
X54574410Y-42091410D01*
X54705685Y-41931450D01*
X54803232Y-41748954D01*
X54863300Y-41550934D01*
X54883583Y-41345000D01*
X54863300Y-41139066D01*
X54803232Y-40941046D01*
X54705685Y-40758550D01*
X54624833Y-40660031D01*
X54574410Y-40598589D01*
X54456677Y-40501969D01*
X54414450Y-40467315D01*
X54231954Y-40369768D01*
X54033934Y-40309700D01*
X54033932Y-40309699D01*
X54033934Y-40309699D01*
X53828000Y-40289417D01*
X53622067Y-40309699D01*
X53424043Y-40369769D01*
X53313898Y-40428643D01*
X53241550Y-40467315D01*
X53241548Y-40467316D01*
X53241547Y-40467317D01*
X53081589Y-40598589D01*
X52950317Y-40758547D01*
X52852767Y-40941046D01*
X52832593Y-41007552D01*
X52794296Y-41065990D01*
X52730483Y-41094447D01*
X52661416Y-41083886D01*
X52609023Y-41037661D01*
X52594158Y-41003649D01*
X52561433Y-40881516D01*
X52561429Y-40881507D01*
X52461600Y-40667422D01*
X52461599Y-40667420D01*
X52326113Y-40473926D01*
X52326108Y-40473920D01*
X52159082Y-40306894D01*
X51972968Y-40176575D01*
X51929344Y-40121998D01*
X51922151Y-40052499D01*
X51953673Y-39990145D01*
X51972968Y-39973425D01*
X52159082Y-39843105D01*
X52326105Y-39676082D01*
X52461600Y-39482578D01*
X52561429Y-39268492D01*
X52561433Y-39268483D01*
X52594158Y-39146350D01*
X52630522Y-39086690D01*
X52693369Y-39056160D01*
X52762745Y-39064454D01*
X52816623Y-39108939D01*
X52832593Y-39142447D01*
X52852768Y-39208954D01*
X52950315Y-39391450D01*
X52950317Y-39391452D01*
X53081589Y-39551410D01*
X53178209Y-39630702D01*
X53241550Y-39682685D01*
X53424046Y-39780232D01*
X53622066Y-39840300D01*
X53622065Y-39840300D01*
X53640529Y-39842118D01*
X53828000Y-39860583D01*
X54033934Y-39840300D01*
X54231954Y-39780232D01*
X54414450Y-39682685D01*
X54574410Y-39551410D01*
X54705685Y-39391450D01*
X54803232Y-39208954D01*
X54863300Y-39010934D01*
X54883583Y-38805000D01*
X54863300Y-38599066D01*
X54803232Y-38401046D01*
X54705685Y-38218550D01*
X54624833Y-38120031D01*
X54574410Y-38058589D01*
X54424121Y-37935252D01*
X54414450Y-37927315D01*
X54231954Y-37829768D01*
X54033934Y-37769700D01*
X54033932Y-37769699D01*
X54033934Y-37769699D01*
X53828000Y-37749417D01*
X53622067Y-37769699D01*
X53424043Y-37829769D01*
X53336114Y-37876769D01*
X53241550Y-37927315D01*
X53241548Y-37927316D01*
X53241547Y-37927317D01*
X53081589Y-38058589D01*
X52950317Y-38218547D01*
X52852767Y-38401046D01*
X52832593Y-38467552D01*
X52794296Y-38525990D01*
X52730483Y-38554447D01*
X52661416Y-38543886D01*
X52609023Y-38497661D01*
X52594158Y-38463649D01*
X52561433Y-38341516D01*
X52561429Y-38341507D01*
X52461600Y-38127422D01*
X52461599Y-38127420D01*
X52326113Y-37933926D01*
X52326108Y-37933920D01*
X52159082Y-37766894D01*
X51965578Y-37631399D01*
X51751492Y-37531570D01*
X51751486Y-37531567D01*
X51538000Y-37474364D01*
X51538000Y-38371988D01*
X51480993Y-38339075D01*
X51353826Y-38305000D01*
X51222174Y-38305000D01*
X51095007Y-38339075D01*
X51038000Y-38371988D01*
X51038000Y-37474364D01*
X51037999Y-37474364D01*
X50824513Y-37531567D01*
X50824507Y-37531570D01*
X50610422Y-37631399D01*
X50610420Y-37631400D01*
X50416926Y-37766886D01*
X50416920Y-37766891D01*
X50249891Y-37933920D01*
X50249890Y-37933922D01*
X50119575Y-38120031D01*
X50064998Y-38163655D01*
X49995499Y-38170848D01*
X49933145Y-38139326D01*
X49916425Y-38120031D01*
X49786109Y-37933922D01*
X49786108Y-37933920D01*
X49619082Y-37766894D01*
X49425578Y-37631399D01*
X49211492Y-37531570D01*
X49211486Y-37531567D01*
X48998000Y-37474364D01*
X48998000Y-38371988D01*
X48940993Y-38339075D01*
X48813826Y-38305000D01*
X48682174Y-38305000D01*
X48555007Y-38339075D01*
X48498000Y-38371988D01*
X48498000Y-37474364D01*
X48497999Y-37474364D01*
X48284513Y-37531567D01*
X48284507Y-37531570D01*
X48070422Y-37631399D01*
X48070420Y-37631400D01*
X47876926Y-37766886D01*
X47876920Y-37766891D01*
X47709891Y-37933920D01*
X47709890Y-37933922D01*
X47579575Y-38120031D01*
X47524998Y-38163655D01*
X47455499Y-38170848D01*
X47393145Y-38139326D01*
X47376425Y-38120031D01*
X47246109Y-37933922D01*
X47246108Y-37933920D01*
X47079082Y-37766894D01*
X46885578Y-37631399D01*
X46671492Y-37531570D01*
X46671486Y-37531567D01*
X46458000Y-37474364D01*
X46458000Y-38371988D01*
X46400993Y-38339075D01*
X46273826Y-38305000D01*
X46142174Y-38305000D01*
X46015007Y-38339075D01*
X45958000Y-38371988D01*
X45958000Y-37474364D01*
X45957999Y-37474364D01*
X45744513Y-37531567D01*
X45744507Y-37531570D01*
X45530422Y-37631399D01*
X45530420Y-37631400D01*
X45336926Y-37766886D01*
X45336920Y-37766891D01*
X45169891Y-37933920D01*
X45169886Y-37933926D01*
X45034400Y-38127420D01*
X45034399Y-38127422D01*
X44954882Y-38297948D01*
X44908710Y-38350387D01*
X44841516Y-38369539D01*
X44774635Y-38349323D01*
X44729300Y-38296158D01*
X44718500Y-38245543D01*
X44718500Y-37935249D01*
X44718499Y-37935247D01*
X44706868Y-37876770D01*
X44706867Y-37876769D01*
X44662552Y-37810447D01*
X44596230Y-37766132D01*
X44596229Y-37766131D01*
X44537752Y-37754500D01*
X44537748Y-37754500D01*
X42798252Y-37754500D01*
X42798247Y-37754500D01*
X42739770Y-37766131D01*
X42739769Y-37766132D01*
X42673447Y-37810447D01*
X42629132Y-37876769D01*
X42629131Y-37876770D01*
X42617500Y-37935247D01*
X42617500Y-39674752D01*
X42629131Y-39733229D01*
X42629132Y-39733230D01*
X42673447Y-39799552D01*
X42739769Y-39843867D01*
X42739770Y-39843868D01*
X42798247Y-39855499D01*
X42798250Y-39855500D01*
X42798252Y-39855500D01*
X44537750Y-39855500D01*
X44537751Y-39855499D01*
X44552568Y-39852552D01*
X44596229Y-39843868D01*
X44596229Y-39843867D01*
X44596231Y-39843867D01*
X44662552Y-39799552D01*
X44706867Y-39733231D01*
X44706867Y-39733229D01*
X44706868Y-39733229D01*
X44716922Y-39682682D01*
X44718500Y-39674748D01*
X44718500Y-39364456D01*
X44738185Y-39297417D01*
X44790989Y-39251662D01*
X44860147Y-39241718D01*
X44923703Y-39270743D01*
X44954882Y-39312051D01*
X45034400Y-39482578D01*
X45169894Y-39676082D01*
X45336917Y-39843105D01*
X45523031Y-39973425D01*
X45566656Y-40028003D01*
X45573848Y-40097501D01*
X45542326Y-40159856D01*
X45523031Y-40176575D01*
X45336922Y-40306890D01*
X45336920Y-40306891D01*
X45169891Y-40473920D01*
X45169886Y-40473926D01*
X45034400Y-40667420D01*
X45034399Y-40667422D01*
X44934570Y-40881507D01*
X44934567Y-40881514D01*
X44901841Y-41003650D01*
X44865476Y-41063310D01*
X44802629Y-41093839D01*
X44733253Y-41085544D01*
X44679375Y-41041059D01*
X44663406Y-41007552D01*
X44643232Y-40941046D01*
X44545685Y-40758550D01*
X44464833Y-40660031D01*
X44414410Y-40598589D01*
X44296677Y-40501969D01*
X44254450Y-40467315D01*
X44071954Y-40369768D01*
X43873934Y-40309700D01*
X43873932Y-40309699D01*
X43873934Y-40309699D01*
X43668000Y-40289417D01*
X43462067Y-40309699D01*
X43264043Y-40369769D01*
X43153898Y-40428643D01*
X43081550Y-40467315D01*
X43081548Y-40467316D01*
X43081547Y-40467317D01*
X42921589Y-40598589D01*
X42790317Y-40758547D01*
X42692769Y-40941043D01*
X42632699Y-41139067D01*
X42612417Y-41345000D01*
X38862000Y-41345000D01*
X38862000Y-35384000D01*
X38881685Y-35316961D01*
X38934489Y-35271206D01*
X38986000Y-35260000D01*
X58550000Y-35260000D01*
X58617039Y-35279685D01*
G37*
%TD.AperFunction*%
%TD*%
M02*
