%TF.GenerationSoftware,KiCad,Pcbnew,8.0.5*%
%TF.CreationDate,2024-11-05T23:16:52+01:00*%
%TF.ProjectId,Leveller,4c657665-6c6c-4657-922e-6b696361645f,rev?*%
%TF.SameCoordinates,Original*%
%TF.FileFunction,Legend,Top*%
%TF.FilePolarity,Positive*%
%FSLAX46Y46*%
G04 Gerber Fmt 4.6, Leading zero omitted, Abs format (unit mm)*
G04 Created by KiCad (PCBNEW 8.0.5) date 2024-11-05 23:16:52*
%MOMM*%
%LPD*%
G01*
G04 APERTURE LIST*
G04 Aperture macros list*
%AMRoundRect*
0 Rectangle with rounded corners*
0 $1 Rounding radius*
0 $2 $3 $4 $5 $6 $7 $8 $9 X,Y pos of 4 corners*
0 Add a 4 corners polygon primitive as box body*
4,1,4,$2,$3,$4,$5,$6,$7,$8,$9,$2,$3,0*
0 Add four circle primitives for the rounded corners*
1,1,$1+$1,$2,$3*
1,1,$1+$1,$4,$5*
1,1,$1+$1,$6,$7*
1,1,$1+$1,$8,$9*
0 Add four rect primitives between the rounded corners*
20,1,$1+$1,$2,$3,$4,$5,0*
20,1,$1+$1,$4,$5,$6,$7,0*
20,1,$1+$1,$6,$7,$8,$9,0*
20,1,$1+$1,$8,$9,$2,$3,0*%
G04 Aperture macros list end*
%ADD10C,0.150000*%
%ADD11C,0.120000*%
%ADD12C,0.127000*%
%ADD13C,0.200000*%
%ADD14RoundRect,0.200000X-0.275000X0.200000X-0.275000X-0.200000X0.275000X-0.200000X0.275000X0.200000X0*%
%ADD15C,2.700000*%
%ADD16RoundRect,0.200000X0.200000X0.275000X-0.200000X0.275000X-0.200000X-0.275000X0.200000X-0.275000X0*%
%ADD17RoundRect,0.225000X0.375000X-0.225000X0.375000X0.225000X-0.375000X0.225000X-0.375000X-0.225000X0*%
%ADD18RoundRect,0.225000X-0.250000X0.225000X-0.250000X-0.225000X0.250000X-0.225000X0.250000X0.225000X0*%
%ADD19RoundRect,0.200000X-0.200000X-0.275000X0.200000X-0.275000X0.200000X0.275000X-0.200000X0.275000X0*%
%ADD20RoundRect,0.225000X0.225000X0.250000X-0.225000X0.250000X-0.225000X-0.250000X0.225000X-0.250000X0*%
%ADD21R,1.700000X1.700000*%
%ADD22O,1.700000X1.700000*%
%ADD23RoundRect,0.225000X0.250000X-0.225000X0.250000X0.225000X-0.250000X0.225000X-0.250000X-0.225000X0*%
%ADD24RoundRect,0.250000X1.050000X0.550000X-1.050000X0.550000X-1.050000X-0.550000X1.050000X-0.550000X0*%
%ADD25RoundRect,0.200000X0.275000X-0.200000X0.275000X0.200000X-0.275000X0.200000X-0.275000X-0.200000X0*%
%ADD26RoundRect,0.225000X-0.375000X0.225000X-0.375000X-0.225000X0.375000X-0.225000X0.375000X0.225000X0*%
%ADD27RoundRect,0.120600X0.966400X0.281400X-0.966400X0.281400X-0.966400X-0.281400X0.966400X-0.281400X0*%
%ADD28RoundRect,0.225000X-0.225000X-0.250000X0.225000X-0.250000X0.225000X0.250000X-0.225000X0.250000X0*%
G04 APERTURE END LIST*
D10*
X56056819Y-81568857D02*
X55580628Y-81902190D01*
X56056819Y-82140285D02*
X55056819Y-82140285D01*
X55056819Y-82140285D02*
X55056819Y-81759333D01*
X55056819Y-81759333D02*
X55104438Y-81664095D01*
X55104438Y-81664095D02*
X55152057Y-81616476D01*
X55152057Y-81616476D02*
X55247295Y-81568857D01*
X55247295Y-81568857D02*
X55390152Y-81568857D01*
X55390152Y-81568857D02*
X55485390Y-81616476D01*
X55485390Y-81616476D02*
X55533009Y-81664095D01*
X55533009Y-81664095D02*
X55580628Y-81759333D01*
X55580628Y-81759333D02*
X55580628Y-82140285D01*
X55152057Y-81187904D02*
X55104438Y-81140285D01*
X55104438Y-81140285D02*
X55056819Y-81045047D01*
X55056819Y-81045047D02*
X55056819Y-80806952D01*
X55056819Y-80806952D02*
X55104438Y-80711714D01*
X55104438Y-80711714D02*
X55152057Y-80664095D01*
X55152057Y-80664095D02*
X55247295Y-80616476D01*
X55247295Y-80616476D02*
X55342533Y-80616476D01*
X55342533Y-80616476D02*
X55485390Y-80664095D01*
X55485390Y-80664095D02*
X56056819Y-81235523D01*
X56056819Y-81235523D02*
X56056819Y-80616476D01*
X55056819Y-79711714D02*
X55056819Y-80187904D01*
X55056819Y-80187904D02*
X55533009Y-80235523D01*
X55533009Y-80235523D02*
X55485390Y-80187904D01*
X55485390Y-80187904D02*
X55437771Y-80092666D01*
X55437771Y-80092666D02*
X55437771Y-79854571D01*
X55437771Y-79854571D02*
X55485390Y-79759333D01*
X55485390Y-79759333D02*
X55533009Y-79711714D01*
X55533009Y-79711714D02*
X55628247Y-79664095D01*
X55628247Y-79664095D02*
X55866342Y-79664095D01*
X55866342Y-79664095D02*
X55961580Y-79711714D01*
X55961580Y-79711714D02*
X56009200Y-79759333D01*
X56009200Y-79759333D02*
X56056819Y-79854571D01*
X56056819Y-79854571D02*
X56056819Y-80092666D01*
X56056819Y-80092666D02*
X56009200Y-80187904D01*
X56009200Y-80187904D02*
X55961580Y-80235523D01*
X51243142Y-67631819D02*
X50909809Y-67155628D01*
X50671714Y-67631819D02*
X50671714Y-66631819D01*
X50671714Y-66631819D02*
X51052666Y-66631819D01*
X51052666Y-66631819D02*
X51147904Y-66679438D01*
X51147904Y-66679438D02*
X51195523Y-66727057D01*
X51195523Y-66727057D02*
X51243142Y-66822295D01*
X51243142Y-66822295D02*
X51243142Y-66965152D01*
X51243142Y-66965152D02*
X51195523Y-67060390D01*
X51195523Y-67060390D02*
X51147904Y-67108009D01*
X51147904Y-67108009D02*
X51052666Y-67155628D01*
X51052666Y-67155628D02*
X50671714Y-67155628D01*
X51624095Y-66727057D02*
X51671714Y-66679438D01*
X51671714Y-66679438D02*
X51766952Y-66631819D01*
X51766952Y-66631819D02*
X52005047Y-66631819D01*
X52005047Y-66631819D02*
X52100285Y-66679438D01*
X52100285Y-66679438D02*
X52147904Y-66727057D01*
X52147904Y-66727057D02*
X52195523Y-66822295D01*
X52195523Y-66822295D02*
X52195523Y-66917533D01*
X52195523Y-66917533D02*
X52147904Y-67060390D01*
X52147904Y-67060390D02*
X51576476Y-67631819D01*
X51576476Y-67631819D02*
X52195523Y-67631819D01*
X53052666Y-66965152D02*
X53052666Y-67631819D01*
X52814571Y-66584200D02*
X52576476Y-67298485D01*
X52576476Y-67298485D02*
X53195523Y-67298485D01*
X46417142Y-69282819D02*
X46083809Y-68806628D01*
X45845714Y-69282819D02*
X45845714Y-68282819D01*
X45845714Y-68282819D02*
X46226666Y-68282819D01*
X46226666Y-68282819D02*
X46321904Y-68330438D01*
X46321904Y-68330438D02*
X46369523Y-68378057D01*
X46369523Y-68378057D02*
X46417142Y-68473295D01*
X46417142Y-68473295D02*
X46417142Y-68616152D01*
X46417142Y-68616152D02*
X46369523Y-68711390D01*
X46369523Y-68711390D02*
X46321904Y-68759009D01*
X46321904Y-68759009D02*
X46226666Y-68806628D01*
X46226666Y-68806628D02*
X45845714Y-68806628D01*
X46798095Y-68378057D02*
X46845714Y-68330438D01*
X46845714Y-68330438D02*
X46940952Y-68282819D01*
X46940952Y-68282819D02*
X47179047Y-68282819D01*
X47179047Y-68282819D02*
X47274285Y-68330438D01*
X47274285Y-68330438D02*
X47321904Y-68378057D01*
X47321904Y-68378057D02*
X47369523Y-68473295D01*
X47369523Y-68473295D02*
X47369523Y-68568533D01*
X47369523Y-68568533D02*
X47321904Y-68711390D01*
X47321904Y-68711390D02*
X46750476Y-69282819D01*
X46750476Y-69282819D02*
X47369523Y-69282819D01*
X47702857Y-68282819D02*
X48321904Y-68282819D01*
X48321904Y-68282819D02*
X47988571Y-68663771D01*
X47988571Y-68663771D02*
X48131428Y-68663771D01*
X48131428Y-68663771D02*
X48226666Y-68711390D01*
X48226666Y-68711390D02*
X48274285Y-68759009D01*
X48274285Y-68759009D02*
X48321904Y-68854247D01*
X48321904Y-68854247D02*
X48321904Y-69092342D01*
X48321904Y-69092342D02*
X48274285Y-69187580D01*
X48274285Y-69187580D02*
X48226666Y-69235200D01*
X48226666Y-69235200D02*
X48131428Y-69282819D01*
X48131428Y-69282819D02*
X47845714Y-69282819D01*
X47845714Y-69282819D02*
X47750476Y-69235200D01*
X47750476Y-69235200D02*
X47702857Y-69187580D01*
X56086476Y-76587819D02*
X56086476Y-77302104D01*
X56086476Y-77302104D02*
X56038857Y-77444961D01*
X56038857Y-77444961D02*
X55943619Y-77540200D01*
X55943619Y-77540200D02*
X55800762Y-77587819D01*
X55800762Y-77587819D02*
X55705524Y-77587819D01*
X57086476Y-77587819D02*
X56515048Y-77587819D01*
X56800762Y-77587819D02*
X56800762Y-76587819D01*
X56800762Y-76587819D02*
X56705524Y-76730676D01*
X56705524Y-76730676D02*
X56610286Y-76825914D01*
X56610286Y-76825914D02*
X56515048Y-76873533D01*
X57705524Y-76587819D02*
X57800762Y-76587819D01*
X57800762Y-76587819D02*
X57896000Y-76635438D01*
X57896000Y-76635438D02*
X57943619Y-76683057D01*
X57943619Y-76683057D02*
X57991238Y-76778295D01*
X57991238Y-76778295D02*
X58038857Y-76968771D01*
X58038857Y-76968771D02*
X58038857Y-77206866D01*
X58038857Y-77206866D02*
X57991238Y-77397342D01*
X57991238Y-77397342D02*
X57943619Y-77492580D01*
X57943619Y-77492580D02*
X57896000Y-77540200D01*
X57896000Y-77540200D02*
X57800762Y-77587819D01*
X57800762Y-77587819D02*
X57705524Y-77587819D01*
X57705524Y-77587819D02*
X57610286Y-77540200D01*
X57610286Y-77540200D02*
X57562667Y-77492580D01*
X57562667Y-77492580D02*
X57515048Y-77397342D01*
X57515048Y-77397342D02*
X57467429Y-77206866D01*
X57467429Y-77206866D02*
X57467429Y-76968771D01*
X57467429Y-76968771D02*
X57515048Y-76778295D01*
X57515048Y-76778295D02*
X57562667Y-76683057D01*
X57562667Y-76683057D02*
X57610286Y-76635438D01*
X57610286Y-76635438D02*
X57705524Y-76587819D01*
X42826333Y-55639580D02*
X42778714Y-55687200D01*
X42778714Y-55687200D02*
X42635857Y-55734819D01*
X42635857Y-55734819D02*
X42540619Y-55734819D01*
X42540619Y-55734819D02*
X42397762Y-55687200D01*
X42397762Y-55687200D02*
X42302524Y-55591961D01*
X42302524Y-55591961D02*
X42254905Y-55496723D01*
X42254905Y-55496723D02*
X42207286Y-55306247D01*
X42207286Y-55306247D02*
X42207286Y-55163390D01*
X42207286Y-55163390D02*
X42254905Y-54972914D01*
X42254905Y-54972914D02*
X42302524Y-54877676D01*
X42302524Y-54877676D02*
X42397762Y-54782438D01*
X42397762Y-54782438D02*
X42540619Y-54734819D01*
X42540619Y-54734819D02*
X42635857Y-54734819D01*
X42635857Y-54734819D02*
X42778714Y-54782438D01*
X42778714Y-54782438D02*
X42826333Y-54830057D01*
X43683476Y-54734819D02*
X43493000Y-54734819D01*
X43493000Y-54734819D02*
X43397762Y-54782438D01*
X43397762Y-54782438D02*
X43350143Y-54830057D01*
X43350143Y-54830057D02*
X43254905Y-54972914D01*
X43254905Y-54972914D02*
X43207286Y-55163390D01*
X43207286Y-55163390D02*
X43207286Y-55544342D01*
X43207286Y-55544342D02*
X43254905Y-55639580D01*
X43254905Y-55639580D02*
X43302524Y-55687200D01*
X43302524Y-55687200D02*
X43397762Y-55734819D01*
X43397762Y-55734819D02*
X43588238Y-55734819D01*
X43588238Y-55734819D02*
X43683476Y-55687200D01*
X43683476Y-55687200D02*
X43731095Y-55639580D01*
X43731095Y-55639580D02*
X43778714Y-55544342D01*
X43778714Y-55544342D02*
X43778714Y-55306247D01*
X43778714Y-55306247D02*
X43731095Y-55211009D01*
X43731095Y-55211009D02*
X43683476Y-55163390D01*
X43683476Y-55163390D02*
X43588238Y-55115771D01*
X43588238Y-55115771D02*
X43397762Y-55115771D01*
X43397762Y-55115771D02*
X43302524Y-55163390D01*
X43302524Y-55163390D02*
X43254905Y-55211009D01*
X43254905Y-55211009D02*
X43207286Y-55306247D01*
X54326333Y-55639580D02*
X54278714Y-55687200D01*
X54278714Y-55687200D02*
X54135857Y-55734819D01*
X54135857Y-55734819D02*
X54040619Y-55734819D01*
X54040619Y-55734819D02*
X53897762Y-55687200D01*
X53897762Y-55687200D02*
X53802524Y-55591961D01*
X53802524Y-55591961D02*
X53754905Y-55496723D01*
X53754905Y-55496723D02*
X53707286Y-55306247D01*
X53707286Y-55306247D02*
X53707286Y-55163390D01*
X53707286Y-55163390D02*
X53754905Y-54972914D01*
X53754905Y-54972914D02*
X53802524Y-54877676D01*
X53802524Y-54877676D02*
X53897762Y-54782438D01*
X53897762Y-54782438D02*
X54040619Y-54734819D01*
X54040619Y-54734819D02*
X54135857Y-54734819D01*
X54135857Y-54734819D02*
X54278714Y-54782438D01*
X54278714Y-54782438D02*
X54326333Y-54830057D01*
X55183476Y-55068152D02*
X55183476Y-55734819D01*
X54945381Y-54687200D02*
X54707286Y-55401485D01*
X54707286Y-55401485D02*
X55326333Y-55401485D01*
X41183328Y-57075872D02*
X41230948Y-57123491D01*
X41230948Y-57123491D02*
X41278567Y-57266348D01*
X41278567Y-57266348D02*
X41278567Y-57361586D01*
X41278567Y-57361586D02*
X41230948Y-57504443D01*
X41230948Y-57504443D02*
X41135709Y-57599681D01*
X41135709Y-57599681D02*
X41040471Y-57647300D01*
X41040471Y-57647300D02*
X40849995Y-57694919D01*
X40849995Y-57694919D02*
X40707138Y-57694919D01*
X40707138Y-57694919D02*
X40516662Y-57647300D01*
X40516662Y-57647300D02*
X40421424Y-57599681D01*
X40421424Y-57599681D02*
X40326186Y-57504443D01*
X40326186Y-57504443D02*
X40278567Y-57361586D01*
X40278567Y-57361586D02*
X40278567Y-57266348D01*
X40278567Y-57266348D02*
X40326186Y-57123491D01*
X40326186Y-57123491D02*
X40373805Y-57075872D01*
X41278567Y-56123491D02*
X41278567Y-56694919D01*
X41278567Y-56409205D02*
X40278567Y-56409205D01*
X40278567Y-56409205D02*
X40421424Y-56504443D01*
X40421424Y-56504443D02*
X40516662Y-56599681D01*
X40516662Y-56599681D02*
X40564281Y-56694919D01*
X40278567Y-55790157D02*
X40278567Y-55171110D01*
X40278567Y-55171110D02*
X40659519Y-55504443D01*
X40659519Y-55504443D02*
X40659519Y-55361586D01*
X40659519Y-55361586D02*
X40707138Y-55266348D01*
X40707138Y-55266348D02*
X40754757Y-55218729D01*
X40754757Y-55218729D02*
X40849995Y-55171110D01*
X40849995Y-55171110D02*
X41088090Y-55171110D01*
X41088090Y-55171110D02*
X41183328Y-55218729D01*
X41183328Y-55218729D02*
X41230948Y-55266348D01*
X41230948Y-55266348D02*
X41278567Y-55361586D01*
X41278567Y-55361586D02*
X41278567Y-55647300D01*
X41278567Y-55647300D02*
X41230948Y-55742538D01*
X41230948Y-55742538D02*
X41183328Y-55790157D01*
X39417666Y-61684819D02*
X39417666Y-62399104D01*
X39417666Y-62399104D02*
X39370047Y-62541961D01*
X39370047Y-62541961D02*
X39274809Y-62637200D01*
X39274809Y-62637200D02*
X39131952Y-62684819D01*
X39131952Y-62684819D02*
X39036714Y-62684819D01*
X40036714Y-62113390D02*
X39941476Y-62065771D01*
X39941476Y-62065771D02*
X39893857Y-62018152D01*
X39893857Y-62018152D02*
X39846238Y-61922914D01*
X39846238Y-61922914D02*
X39846238Y-61875295D01*
X39846238Y-61875295D02*
X39893857Y-61780057D01*
X39893857Y-61780057D02*
X39941476Y-61732438D01*
X39941476Y-61732438D02*
X40036714Y-61684819D01*
X40036714Y-61684819D02*
X40227190Y-61684819D01*
X40227190Y-61684819D02*
X40322428Y-61732438D01*
X40322428Y-61732438D02*
X40370047Y-61780057D01*
X40370047Y-61780057D02*
X40417666Y-61875295D01*
X40417666Y-61875295D02*
X40417666Y-61922914D01*
X40417666Y-61922914D02*
X40370047Y-62018152D01*
X40370047Y-62018152D02*
X40322428Y-62065771D01*
X40322428Y-62065771D02*
X40227190Y-62113390D01*
X40227190Y-62113390D02*
X40036714Y-62113390D01*
X40036714Y-62113390D02*
X39941476Y-62161009D01*
X39941476Y-62161009D02*
X39893857Y-62208628D01*
X39893857Y-62208628D02*
X39846238Y-62303866D01*
X39846238Y-62303866D02*
X39846238Y-62494342D01*
X39846238Y-62494342D02*
X39893857Y-62589580D01*
X39893857Y-62589580D02*
X39941476Y-62637200D01*
X39941476Y-62637200D02*
X40036714Y-62684819D01*
X40036714Y-62684819D02*
X40227190Y-62684819D01*
X40227190Y-62684819D02*
X40322428Y-62637200D01*
X40322428Y-62637200D02*
X40370047Y-62589580D01*
X40370047Y-62589580D02*
X40417666Y-62494342D01*
X40417666Y-62494342D02*
X40417666Y-62303866D01*
X40417666Y-62303866D02*
X40370047Y-62208628D01*
X40370047Y-62208628D02*
X40322428Y-62161009D01*
X40322428Y-62161009D02*
X40227190Y-62113390D01*
X47956095Y-56769819D02*
X47956095Y-57579342D01*
X47956095Y-57579342D02*
X48003714Y-57674580D01*
X48003714Y-57674580D02*
X48051333Y-57722200D01*
X48051333Y-57722200D02*
X48146571Y-57769819D01*
X48146571Y-57769819D02*
X48337047Y-57769819D01*
X48337047Y-57769819D02*
X48432285Y-57722200D01*
X48432285Y-57722200D02*
X48479904Y-57674580D01*
X48479904Y-57674580D02*
X48527523Y-57579342D01*
X48527523Y-57579342D02*
X48527523Y-56769819D01*
X48956095Y-56865057D02*
X49003714Y-56817438D01*
X49003714Y-56817438D02*
X49098952Y-56769819D01*
X49098952Y-56769819D02*
X49337047Y-56769819D01*
X49337047Y-56769819D02*
X49432285Y-56817438D01*
X49432285Y-56817438D02*
X49479904Y-56865057D01*
X49479904Y-56865057D02*
X49527523Y-56960295D01*
X49527523Y-56960295D02*
X49527523Y-57055533D01*
X49527523Y-57055533D02*
X49479904Y-57198390D01*
X49479904Y-57198390D02*
X48908476Y-57769819D01*
X48908476Y-57769819D02*
X49527523Y-57769819D01*
X48638095Y-74063819D02*
X48638095Y-74873342D01*
X48638095Y-74873342D02*
X48685714Y-74968580D01*
X48685714Y-74968580D02*
X48733333Y-75016200D01*
X48733333Y-75016200D02*
X48828571Y-75063819D01*
X48828571Y-75063819D02*
X49019047Y-75063819D01*
X49019047Y-75063819D02*
X49114285Y-75016200D01*
X49114285Y-75016200D02*
X49161904Y-74968580D01*
X49161904Y-74968580D02*
X49209523Y-74873342D01*
X49209523Y-74873342D02*
X49209523Y-74063819D01*
X50209523Y-75063819D02*
X49638095Y-75063819D01*
X49923809Y-75063819D02*
X49923809Y-74063819D01*
X49923809Y-74063819D02*
X49828571Y-74206676D01*
X49828571Y-74206676D02*
X49733333Y-74301914D01*
X49733333Y-74301914D02*
X49638095Y-74349533D01*
X51243142Y-69441580D02*
X51195523Y-69489200D01*
X51195523Y-69489200D02*
X51052666Y-69536819D01*
X51052666Y-69536819D02*
X50957428Y-69536819D01*
X50957428Y-69536819D02*
X50814571Y-69489200D01*
X50814571Y-69489200D02*
X50719333Y-69393961D01*
X50719333Y-69393961D02*
X50671714Y-69298723D01*
X50671714Y-69298723D02*
X50624095Y-69108247D01*
X50624095Y-69108247D02*
X50624095Y-68965390D01*
X50624095Y-68965390D02*
X50671714Y-68774914D01*
X50671714Y-68774914D02*
X50719333Y-68679676D01*
X50719333Y-68679676D02*
X50814571Y-68584438D01*
X50814571Y-68584438D02*
X50957428Y-68536819D01*
X50957428Y-68536819D02*
X51052666Y-68536819D01*
X51052666Y-68536819D02*
X51195523Y-68584438D01*
X51195523Y-68584438D02*
X51243142Y-68632057D01*
X52195523Y-69536819D02*
X51624095Y-69536819D01*
X51909809Y-69536819D02*
X51909809Y-68536819D01*
X51909809Y-68536819D02*
X51814571Y-68679676D01*
X51814571Y-68679676D02*
X51719333Y-68774914D01*
X51719333Y-68774914D02*
X51624095Y-68822533D01*
X53052666Y-68870152D02*
X53052666Y-69536819D01*
X52814571Y-68489200D02*
X52576476Y-69203485D01*
X52576476Y-69203485D02*
X53195523Y-69203485D01*
D11*
%TO.C,R9*%
X44393500Y-80703742D02*
X44393500Y-81178258D01*
X45438500Y-80703742D02*
X45438500Y-81178258D01*
%TO.C,R18*%
X52902500Y-65844742D02*
X52902500Y-66319258D01*
X53947500Y-65844742D02*
X53947500Y-66319258D01*
%TO.C,R5*%
X41089258Y-79148500D02*
X40614742Y-79148500D01*
X41089258Y-80193500D02*
X40614742Y-80193500D01*
%TO.C,R25*%
X53649500Y-80688742D02*
X53649500Y-81163258D01*
X54694500Y-80688742D02*
X54694500Y-81163258D01*
%TO.C,R19*%
X51122258Y-64543500D02*
X50647742Y-64543500D01*
X51122258Y-65588500D02*
X50647742Y-65588500D01*
%TO.C,D4*%
X55993000Y-46340000D02*
X55993000Y-42330000D01*
X55993000Y-46340000D02*
X57993000Y-46340000D01*
X57993000Y-46340000D02*
X57993000Y-42330000D01*
%TO.C,C12*%
X53024400Y-59375820D02*
X53024400Y-59656980D01*
X54044400Y-59375820D02*
X54044400Y-59656980D01*
%TO.C,R24*%
X51648742Y-68084500D02*
X52123258Y-68084500D01*
X51648742Y-69129500D02*
X52123258Y-69129500D01*
%TO.C,C8*%
X47088580Y-71541000D02*
X46807420Y-71541000D01*
X47088580Y-72561000D02*
X46807420Y-72561000D01*
%TO.C,R7*%
X43496888Y-74022557D02*
X43496888Y-74497073D01*
X44541888Y-74022557D02*
X44541888Y-74497073D01*
%TO.C,R23*%
X46822742Y-69735500D02*
X47297258Y-69735500D01*
X46822742Y-70780500D02*
X47297258Y-70780500D01*
%TO.C,J10*%
X55566000Y-73533000D02*
X55566000Y-60773000D01*
X58226000Y-60773000D02*
X55566000Y-60773000D01*
X58226000Y-73533000D02*
X55566000Y-73533000D01*
X58226000Y-73533000D02*
X58226000Y-60773000D01*
X58226000Y-74803000D02*
X58226000Y-76133000D01*
X58226000Y-76133000D02*
X56896000Y-76133000D01*
%TO.C,R17*%
X56415500Y-57183342D02*
X56415500Y-57657858D01*
X57460500Y-57183342D02*
X57460500Y-57657858D01*
%TO.C,C7*%
X54693000Y-56570580D02*
X54693000Y-56289420D01*
X55713000Y-56570580D02*
X55713000Y-56289420D01*
%TO.C,R8*%
X53076258Y-71640500D02*
X52601742Y-71640500D01*
X53076258Y-72685500D02*
X52601742Y-72685500D01*
%TO.C,C2*%
X55313000Y-81066580D02*
X55313000Y-80785420D01*
X56333000Y-81066580D02*
X56333000Y-80785420D01*
%TO.C,C6*%
X40733000Y-49820000D02*
X40733000Y-51020000D01*
X40733000Y-54340000D02*
X40733000Y-53140000D01*
X44188563Y-49820000D02*
X40733000Y-49820000D01*
X44188563Y-54340000D02*
X40733000Y-54340000D01*
X45253000Y-50884437D02*
X44188563Y-49820000D01*
X45253000Y-50884437D02*
X45253000Y-51020000D01*
X45253000Y-53275563D02*
X44188563Y-54340000D01*
X45253000Y-53275563D02*
X45253000Y-53140000D01*
X45743000Y-53890000D02*
X45743000Y-53390000D01*
X45993000Y-53640000D02*
X45493000Y-53640000D01*
%TO.C,R13*%
X53029500Y-56667258D02*
X53029500Y-56192742D01*
X54074500Y-56667258D02*
X54074500Y-56192742D01*
%TO.C,C4*%
X52233000Y-49820000D02*
X52233000Y-51020000D01*
X52233000Y-54340000D02*
X52233000Y-53140000D01*
X55688563Y-49820000D02*
X52233000Y-49820000D01*
X55688563Y-54340000D02*
X52233000Y-54340000D01*
X56753000Y-50884437D02*
X55688563Y-49820000D01*
X56753000Y-50884437D02*
X56753000Y-51020000D01*
X56753000Y-53275563D02*
X55688563Y-54340000D01*
X56753000Y-53275563D02*
X56753000Y-53140000D01*
X57243000Y-53890000D02*
X57243000Y-53390000D01*
X57493000Y-53640000D02*
X56993000Y-53640000D01*
%TO.C,C13*%
X41743748Y-56573595D02*
X41743748Y-56292435D01*
X42763748Y-56573595D02*
X42763748Y-56292435D01*
%TO.C,D1*%
X39493000Y-41620000D02*
X39493000Y-45630000D01*
X41493000Y-41620000D02*
X39493000Y-41620000D01*
X41493000Y-41620000D02*
X41493000Y-45630000D01*
%TO.C,R12*%
X56951500Y-81163258D02*
X56951500Y-80688742D01*
X57996500Y-81163258D02*
X57996500Y-80688742D01*
%TO.C,C3*%
X47169008Y-64557763D02*
X46887848Y-64557763D01*
X47169008Y-65577763D02*
X46887848Y-65577763D01*
%TO.C,R16*%
X40067220Y-56664643D02*
X40067220Y-56190127D01*
X41112220Y-56664643D02*
X41112220Y-56190127D01*
%TO.C,R10*%
X41089258Y-80799500D02*
X40614742Y-80799500D01*
X41089258Y-81844500D02*
X40614742Y-81844500D01*
%TO.C,FB1*%
X39970500Y-39417742D02*
X39970500Y-39892258D01*
X41015500Y-39417742D02*
X41015500Y-39892258D01*
%TO.C,C9*%
X42755000Y-81081580D02*
X42755000Y-80800420D01*
X43775000Y-81081580D02*
X43775000Y-80800420D01*
%TO.C,R15*%
X48488742Y-53494500D02*
X48963258Y-53494500D01*
X48488742Y-54539500D02*
X48963258Y-54539500D01*
%TO.C,R6*%
X48965500Y-71178742D02*
X48965500Y-71653258D01*
X50010500Y-71178742D02*
X50010500Y-71653258D01*
%TO.C,C5*%
X42148580Y-77124000D02*
X41867420Y-77124000D01*
X42148580Y-78144000D02*
X41867420Y-78144000D01*
%TO.C,C11*%
X41739000Y-60239420D02*
X41739000Y-60520580D01*
X42759000Y-60239420D02*
X42759000Y-60520580D01*
%TO.C,C10*%
X52901789Y-63058199D02*
X52901789Y-62777039D01*
X53921789Y-63058199D02*
X53921789Y-62777039D01*
%TO.C,J8*%
X39310000Y-63313000D02*
X40640000Y-63313000D01*
X39310000Y-64643000D02*
X39310000Y-63313000D01*
X39310000Y-65913000D02*
X39310000Y-76133000D01*
X39310000Y-65913000D02*
X41970000Y-65913000D01*
X39310000Y-76133000D02*
X41970000Y-76133000D01*
X41970000Y-65913000D02*
X41970000Y-76133000D01*
%TO.C,R22*%
X43504500Y-67462258D02*
X43504500Y-66987742D01*
X44549500Y-67462258D02*
X44549500Y-66987742D01*
D12*
%TO.C,U2*%
X49886280Y-55275000D02*
X47546280Y-55275000D01*
X49886280Y-63925000D02*
X47546280Y-63925000D01*
D13*
X52866280Y-63700000D02*
G75*
G02*
X52666280Y-63700000I-100000J0D01*
G01*
X52666280Y-63700000D02*
G75*
G02*
X52866280Y-63700000I100000J0D01*
G01*
D11*
%TO.C,FB2*%
X56470500Y-39417742D02*
X56470500Y-39892258D01*
X57515500Y-39417742D02*
X57515500Y-39892258D01*
%TO.C,R14*%
X43377500Y-56192742D02*
X43377500Y-56667258D01*
X44422500Y-56192742D02*
X44422500Y-56667258D01*
%TO.C,C1*%
X55622700Y-77886000D02*
X55903860Y-77886000D01*
X55622700Y-78906000D02*
X55903860Y-78906000D01*
D12*
%TO.C,U1*%
X50720000Y-73309000D02*
X48380000Y-73309000D01*
X50720000Y-81959000D02*
X48380000Y-81959000D01*
D13*
X53700000Y-81734000D02*
G75*
G02*
X53500000Y-81734000I-100000J0D01*
G01*
X53500000Y-81734000D02*
G75*
G02*
X53700000Y-81734000I100000J0D01*
G01*
D11*
%TO.C,R20*%
X50647742Y-66194500D02*
X51122258Y-66194500D01*
X50647742Y-67239500D02*
X51122258Y-67239500D01*
%TO.C,R21*%
X43504500Y-63144258D02*
X43504500Y-62669742D01*
X44549500Y-63144258D02*
X44549500Y-62669742D01*
%TO.C,C14*%
X51745420Y-70002000D02*
X52026580Y-70002000D01*
X51745420Y-71022000D02*
X52026580Y-71022000D01*
%TD*%
%LPC*%
D14*
%TO.C,R9*%
X44916000Y-80116000D03*
X44916000Y-81766000D03*
%TD*%
D15*
%TO.C,MOUNT1*%
X48768000Y-47625000D03*
%TD*%
D14*
%TO.C,R18*%
X53425000Y-65257000D03*
X53425000Y-66907000D03*
%TD*%
D16*
%TO.C,R5*%
X41677000Y-79671000D03*
X40027000Y-79671000D03*
%TD*%
D14*
%TO.C,R25*%
X54172000Y-80101000D03*
X54172000Y-81751000D03*
%TD*%
D16*
%TO.C,R19*%
X51710000Y-65066000D03*
X50060000Y-65066000D03*
%TD*%
D17*
%TO.C,D4*%
X56993000Y-45630000D03*
X56993000Y-42330000D03*
%TD*%
D18*
%TO.C,C12*%
X53534400Y-58741400D03*
X53534400Y-60291400D03*
%TD*%
D19*
%TO.C,R24*%
X51061000Y-68607000D03*
X52711000Y-68607000D03*
%TD*%
D20*
%TO.C,C8*%
X47723000Y-72051000D03*
X46173000Y-72051000D03*
%TD*%
D14*
%TO.C,R7*%
X44019388Y-73434815D03*
X44019388Y-75084815D03*
%TD*%
D19*
%TO.C,R23*%
X46235000Y-70258000D03*
X47885000Y-70258000D03*
%TD*%
D21*
%TO.C,J10*%
X56896000Y-74803000D03*
D22*
X56896000Y-72263000D03*
X56896000Y-69723000D03*
X56896000Y-67183000D03*
X56896000Y-64643000D03*
X56896000Y-62103000D03*
%TD*%
D14*
%TO.C,R17*%
X56938000Y-56595600D03*
X56938000Y-58245600D03*
%TD*%
D23*
%TO.C,C7*%
X55203000Y-57205000D03*
X55203000Y-55655000D03*
%TD*%
D16*
%TO.C,R8*%
X53664000Y-72163000D03*
X52014000Y-72163000D03*
%TD*%
D23*
%TO.C,C2*%
X55823000Y-81701000D03*
X55823000Y-80151000D03*
%TD*%
D24*
%TO.C,C6*%
X44793000Y-52080000D03*
X41193000Y-52080000D03*
%TD*%
D25*
%TO.C,R13*%
X53552000Y-57255000D03*
X53552000Y-55605000D03*
%TD*%
D24*
%TO.C,C4*%
X56293000Y-52080000D03*
X52693000Y-52080000D03*
%TD*%
D23*
%TO.C,C13*%
X42253748Y-57208015D03*
X42253748Y-55658015D03*
%TD*%
D26*
%TO.C,D1*%
X40493000Y-42330000D03*
X40493000Y-45630000D03*
%TD*%
D25*
%TO.C,R12*%
X57474000Y-81751000D03*
X57474000Y-80101000D03*
%TD*%
D20*
%TO.C,C3*%
X47803428Y-65067763D03*
X46253428Y-65067763D03*
%TD*%
D25*
%TO.C,R16*%
X40589720Y-57252385D03*
X40589720Y-55602385D03*
%TD*%
D16*
%TO.C,R10*%
X41677000Y-81322000D03*
X40027000Y-81322000D03*
%TD*%
D14*
%TO.C,FB1*%
X40493000Y-38830000D03*
X40493000Y-40480000D03*
%TD*%
D23*
%TO.C,C9*%
X43265000Y-81716000D03*
X43265000Y-80166000D03*
%TD*%
D19*
%TO.C,R15*%
X47901000Y-54017000D03*
X49551000Y-54017000D03*
%TD*%
D14*
%TO.C,R6*%
X49488000Y-70591000D03*
X49488000Y-72241000D03*
%TD*%
D20*
%TO.C,C5*%
X42783000Y-77634000D03*
X41233000Y-77634000D03*
%TD*%
D18*
%TO.C,C11*%
X42249000Y-59605000D03*
X42249000Y-61155000D03*
%TD*%
D23*
%TO.C,C10*%
X53411789Y-63692619D03*
X53411789Y-62142619D03*
%TD*%
D21*
%TO.C,J8*%
X40640000Y-64643000D03*
D22*
X40640000Y-67183000D03*
X40640000Y-69723000D03*
X40640000Y-72263000D03*
X40640000Y-74803000D03*
%TD*%
D25*
%TO.C,R22*%
X44027000Y-68050000D03*
X44027000Y-66400000D03*
%TD*%
D27*
%TO.C,U2*%
X51191280Y-63410000D03*
X51191280Y-62140000D03*
X51191280Y-60870000D03*
X51191280Y-59600000D03*
X51191280Y-58330000D03*
X51191280Y-57060000D03*
X51191280Y-55790000D03*
X46241280Y-55790000D03*
X46241280Y-57060000D03*
X46241280Y-58330000D03*
X46241280Y-59600000D03*
X46241280Y-60870000D03*
X46241280Y-62140000D03*
X46241280Y-63410000D03*
%TD*%
D14*
%TO.C,FB2*%
X56993000Y-38830000D03*
X56993000Y-40480000D03*
%TD*%
%TO.C,R14*%
X43900000Y-55605000D03*
X43900000Y-57255000D03*
%TD*%
D21*
%TO.C,J6*%
X43668000Y-38805000D03*
D22*
X43668000Y-41345000D03*
X46208000Y-38805000D03*
X46208000Y-41345000D03*
X48748000Y-38805000D03*
X48748000Y-41345000D03*
X51288000Y-38805000D03*
X51288000Y-41345000D03*
X53828000Y-38805000D03*
X53828000Y-41345000D03*
%TD*%
D28*
%TO.C,C1*%
X54988280Y-78396000D03*
X56538280Y-78396000D03*
%TD*%
D27*
%TO.C,U1*%
X52025000Y-81444000D03*
X52025000Y-80174000D03*
X52025000Y-78904000D03*
X52025000Y-77634000D03*
X52025000Y-76364000D03*
X52025000Y-75094000D03*
X52025000Y-73824000D03*
X47075000Y-73824000D03*
X47075000Y-75094000D03*
X47075000Y-76364000D03*
X47075000Y-77634000D03*
X47075000Y-78904000D03*
X47075000Y-80174000D03*
X47075000Y-81444000D03*
%TD*%
D19*
%TO.C,R20*%
X50060000Y-66717000D03*
X51710000Y-66717000D03*
%TD*%
D25*
%TO.C,R21*%
X44027000Y-63732000D03*
X44027000Y-62082000D03*
%TD*%
D28*
%TO.C,C14*%
X51111000Y-70512000D03*
X52661000Y-70512000D03*
%TD*%
%LPD*%
M02*
