%TF.GenerationSoftware,KiCad,Pcbnew,8.0.5*%
%TF.CreationDate,2024-11-05T23:16:52+01:00*%
%TF.ProjectId,Leveller,4c657665-6c6c-4657-922e-6b696361645f,rev?*%
%TF.SameCoordinates,Original*%
%TF.FileFunction,Copper,L1,Top*%
%TF.FilePolarity,Positive*%
%FSLAX46Y46*%
G04 Gerber Fmt 4.6, Leading zero omitted, Abs format (unit mm)*
G04 Created by KiCad (PCBNEW 8.0.5) date 2024-11-05 23:16:52*
%MOMM*%
%LPD*%
G01*
G04 APERTURE LIST*
G04 Aperture macros list*
%AMRoundRect*
0 Rectangle with rounded corners*
0 $1 Rounding radius*
0 $2 $3 $4 $5 $6 $7 $8 $9 X,Y pos of 4 corners*
0 Add a 4 corners polygon primitive as box body*
4,1,4,$2,$3,$4,$5,$6,$7,$8,$9,$2,$3,0*
0 Add four circle primitives for the rounded corners*
1,1,$1+$1,$2,$3*
1,1,$1+$1,$4,$5*
1,1,$1+$1,$6,$7*
1,1,$1+$1,$8,$9*
0 Add four rect primitives between the rounded corners*
20,1,$1+$1,$2,$3,$4,$5,0*
20,1,$1+$1,$4,$5,$6,$7,0*
20,1,$1+$1,$6,$7,$8,$9,0*
20,1,$1+$1,$8,$9,$2,$3,0*%
G04 Aperture macros list end*
%TA.AperFunction,SMDPad,CuDef*%
%ADD10RoundRect,0.200000X-0.275000X0.200000X-0.275000X-0.200000X0.275000X-0.200000X0.275000X0.200000X0*%
%TD*%
%TA.AperFunction,SMDPad,CuDef*%
%ADD11RoundRect,0.200000X0.200000X0.275000X-0.200000X0.275000X-0.200000X-0.275000X0.200000X-0.275000X0*%
%TD*%
%TA.AperFunction,SMDPad,CuDef*%
%ADD12RoundRect,0.225000X0.375000X-0.225000X0.375000X0.225000X-0.375000X0.225000X-0.375000X-0.225000X0*%
%TD*%
%TA.AperFunction,SMDPad,CuDef*%
%ADD13RoundRect,0.225000X-0.250000X0.225000X-0.250000X-0.225000X0.250000X-0.225000X0.250000X0.225000X0*%
%TD*%
%TA.AperFunction,SMDPad,CuDef*%
%ADD14RoundRect,0.200000X-0.200000X-0.275000X0.200000X-0.275000X0.200000X0.275000X-0.200000X0.275000X0*%
%TD*%
%TA.AperFunction,SMDPad,CuDef*%
%ADD15RoundRect,0.225000X0.225000X0.250000X-0.225000X0.250000X-0.225000X-0.250000X0.225000X-0.250000X0*%
%TD*%
%TA.AperFunction,ComponentPad*%
%ADD16R,1.700000X1.700000*%
%TD*%
%TA.AperFunction,ComponentPad*%
%ADD17O,1.700000X1.700000*%
%TD*%
%TA.AperFunction,SMDPad,CuDef*%
%ADD18RoundRect,0.225000X0.250000X-0.225000X0.250000X0.225000X-0.250000X0.225000X-0.250000X-0.225000X0*%
%TD*%
%TA.AperFunction,SMDPad,CuDef*%
%ADD19RoundRect,0.250000X1.050000X0.550000X-1.050000X0.550000X-1.050000X-0.550000X1.050000X-0.550000X0*%
%TD*%
%TA.AperFunction,SMDPad,CuDef*%
%ADD20RoundRect,0.200000X0.275000X-0.200000X0.275000X0.200000X-0.275000X0.200000X-0.275000X-0.200000X0*%
%TD*%
%TA.AperFunction,SMDPad,CuDef*%
%ADD21RoundRect,0.225000X-0.375000X0.225000X-0.375000X-0.225000X0.375000X-0.225000X0.375000X0.225000X0*%
%TD*%
%TA.AperFunction,SMDPad,CuDef*%
%ADD22RoundRect,0.090000X0.895000X0.210000X-0.895000X0.210000X-0.895000X-0.210000X0.895000X-0.210000X0*%
%TD*%
%TA.AperFunction,SMDPad,CuDef*%
%ADD23RoundRect,0.225000X-0.225000X-0.250000X0.225000X-0.250000X0.225000X0.250000X-0.225000X0.250000X0*%
%TD*%
%TA.AperFunction,ViaPad*%
%ADD24C,0.800000*%
%TD*%
%TA.AperFunction,Conductor*%
%ADD25C,1.000000*%
%TD*%
%TA.AperFunction,Conductor*%
%ADD26C,0.600000*%
%TD*%
%TA.AperFunction,Conductor*%
%ADD27C,0.250000*%
%TD*%
%TA.AperFunction,Conductor*%
%ADD28C,0.750000*%
%TD*%
%TA.AperFunction,Conductor*%
%ADD29C,0.400000*%
%TD*%
%TA.AperFunction,Conductor*%
%ADD30C,0.500000*%
%TD*%
G04 APERTURE END LIST*
D10*
%TO.P,R9,1*%
%TO.N,Net-(U1D--)*%
X44916000Y-80116000D03*
%TO.P,R9,2*%
%TO.N,Net-(C9-Pad1)*%
X44916000Y-81766000D03*
%TD*%
%TO.P,R18,1*%
%TO.N,Net-(U2A--)*%
X53425000Y-65257000D03*
%TO.P,R18,2*%
%TO.N,N/C*%
X53425000Y-66907000D03*
%TD*%
D11*
%TO.P,R5,1*%
%TO.N,Net-(U1D--)*%
X41677000Y-79671000D03*
%TO.P,R5,2*%
%TO.N,N/C*%
X40027000Y-79671000D03*
%TD*%
D10*
%TO.P,R25,1*%
%TO.N,Net-(U1A--)*%
X54172000Y-80101000D03*
%TO.P,R25,2*%
%TO.N,N/C*%
X54172000Y-81751000D03*
%TD*%
D11*
%TO.P,R19,1*%
%TO.N,Net-(C10-Pad1)*%
X51710000Y-65066000D03*
%TO.P,R19,2*%
%TO.N,Net-(U2A--)*%
X50060000Y-65066000D03*
%TD*%
D12*
%TO.P,D4,1,K*%
%TO.N,+12V*%
X56993000Y-45630000D03*
%TO.P,D4,2,A*%
%TO.N,N/C*%
X56993000Y-42330000D03*
%TD*%
D13*
%TO.P,C12,1*%
%TO.N,N/C*%
X53534400Y-58741400D03*
%TO.P,C12,2*%
%TO.N,+12V*%
X53534400Y-60291400D03*
%TD*%
D14*
%TO.P,R24,1*%
%TO.N,Net-(U1B--)*%
X51061000Y-68607000D03*
%TO.P,R24,2*%
%TO.N,N/C*%
X52711000Y-68607000D03*
%TD*%
D15*
%TO.P,C8,1*%
%TO.N,Net-(U1C--)*%
X47723000Y-72051000D03*
%TO.P,C8,2*%
%TO.N,N/C*%
X46173000Y-72051000D03*
%TD*%
D10*
%TO.P,R7,1*%
%TO.N,N/C*%
X44019388Y-73434815D03*
%TO.P,R7,2*%
%TO.N,Net-(U1C--)*%
X44019388Y-75084815D03*
%TD*%
D14*
%TO.P,R23,1*%
%TO.N,Net-(U1C--)*%
X46235000Y-70258000D03*
%TO.P,R23,2*%
%TO.N,N/C*%
X47885000Y-70258000D03*
%TD*%
D16*
%TO.P,J10,1,Pin_1*%
%TO.N,GND*%
X56896000Y-74803000D03*
D17*
%TO.P,J10,2,Pin_2*%
%TO.N,+12V*%
X56896000Y-72263000D03*
%TO.P,J10,3,Pin_3*%
%TO.N,N/C*%
X56896000Y-69723000D03*
%TO.P,J10,4,Pin_4*%
X56896000Y-67183000D03*
%TO.P,J10,5,Pin_5*%
X56896000Y-64643000D03*
%TO.P,J10,6,Pin_6*%
X56896000Y-62103000D03*
%TD*%
D10*
%TO.P,R17,1*%
%TO.N,Net-(U2B--)*%
X56938000Y-56595600D03*
%TO.P,R17,2*%
%TO.N,N/C*%
X56938000Y-58245600D03*
%TD*%
D18*
%TO.P,C7,1*%
%TO.N,Net-(U2B--)*%
X55203000Y-57205000D03*
%TO.P,C7,2*%
%TO.N,Net-(C7-Pad2)*%
X55203000Y-55655000D03*
%TD*%
D11*
%TO.P,R8,1*%
%TO.N,N/C*%
X53664000Y-72163000D03*
%TO.P,R8,2*%
X52014000Y-72163000D03*
%TD*%
D18*
%TO.P,C2,1*%
%TO.N,N/C*%
X55823000Y-81701000D03*
%TO.P,C2,2*%
%TO.N,Net-(U1A--)*%
X55823000Y-80151000D03*
%TD*%
D19*
%TO.P,C6,1*%
%TO.N,GND*%
X44793000Y-52080000D03*
%TO.P,C6,2*%
%TO.N,-12V*%
X41193000Y-52080000D03*
%TD*%
D20*
%TO.P,R13,1*%
%TO.N,Net-(U2B--)*%
X53552000Y-57255000D03*
%TO.P,R13,2*%
%TO.N,Net-(C7-Pad2)*%
X53552000Y-55605000D03*
%TD*%
D19*
%TO.P,C4,1*%
%TO.N,+12V*%
X56293000Y-52080000D03*
%TO.P,C4,2*%
%TO.N,GND*%
X52693000Y-52080000D03*
%TD*%
D18*
%TO.P,C13,1*%
%TO.N,Net-(U2C--)*%
X42253748Y-57208015D03*
%TO.P,C13,2*%
%TO.N,N/C*%
X42253748Y-55658015D03*
%TD*%
D21*
%TO.P,D1,1,K*%
%TO.N,N/C*%
X40493000Y-42330000D03*
%TO.P,D1,2,A*%
%TO.N,-12V*%
X40493000Y-45630000D03*
%TD*%
D20*
%TO.P,R12,1*%
%TO.N,N/C*%
X57474000Y-81751000D03*
%TO.P,R12,2*%
X57474000Y-80101000D03*
%TD*%
D15*
%TO.P,C3,1*%
%TO.N,Net-(U2D--)*%
X47803428Y-65067763D03*
%TO.P,C3,2*%
%TO.N,Net-(C3-Pad2)*%
X46253428Y-65067763D03*
%TD*%
D20*
%TO.P,R16,1*%
%TO.N,N/C*%
X40589720Y-57252385D03*
%TO.P,R16,2*%
X40589720Y-55602385D03*
%TD*%
D11*
%TO.P,R10,1*%
%TO.N,Net-(C9-Pad1)*%
X41677000Y-81322000D03*
%TO.P,R10,2*%
%TO.N,Net-(U1A--)*%
X40027000Y-81322000D03*
%TD*%
D10*
%TO.P,FB1,1*%
%TO.N,N/C*%
X40493000Y-38830000D03*
%TO.P,FB1,2*%
X40493000Y-40480000D03*
%TD*%
D18*
%TO.P,C9,1*%
%TO.N,Net-(C9-Pad1)*%
X43265000Y-81716000D03*
%TO.P,C9,2*%
%TO.N,Net-(U1D--)*%
X43265000Y-80166000D03*
%TD*%
D14*
%TO.P,R15,1*%
%TO.N,Net-(U2C--)*%
X47901000Y-54017000D03*
%TO.P,R15,2*%
%TO.N,Net-(C7-Pad2)*%
X49551000Y-54017000D03*
%TD*%
D10*
%TO.P,R6,1*%
%TO.N,N/C*%
X49488000Y-70591000D03*
%TO.P,R6,2*%
%TO.N,Net-(U1B--)*%
X49488000Y-72241000D03*
%TD*%
D15*
%TO.P,C5,1*%
%TO.N,-12V*%
X42783000Y-77634000D03*
%TO.P,C5,2*%
%TO.N,N/C*%
X41233000Y-77634000D03*
%TD*%
D13*
%TO.P,C11,1*%
%TO.N,-12V*%
X42249000Y-59605000D03*
%TO.P,C11,2*%
%TO.N,N/C*%
X42249000Y-61155000D03*
%TD*%
D18*
%TO.P,C10,1*%
%TO.N,Net-(C10-Pad1)*%
X53411789Y-63692619D03*
%TO.P,C10,2*%
%TO.N,Net-(U2A--)*%
X53411789Y-62142619D03*
%TD*%
D16*
%TO.P,J8,1,Pin_1*%
%TO.N,N/C*%
X40640000Y-64643000D03*
D17*
%TO.P,J8,2,Pin_2*%
X40640000Y-67183000D03*
%TO.P,J8,3,Pin_3*%
X40640000Y-69723000D03*
%TO.P,J8,4,Pin_4*%
X40640000Y-72263000D03*
%TO.P,J8,5,Pin_5*%
X40640000Y-74803000D03*
%TD*%
D20*
%TO.P,R22,1*%
%TO.N,N/C*%
X44027000Y-68050000D03*
%TO.P,R22,2*%
%TO.N,Net-(C3-Pad2)*%
X44027000Y-66400000D03*
%TD*%
D22*
%TO.P,U2,1*%
%TO.N,Net-(C10-Pad1)*%
X51191280Y-63410000D03*
%TO.P,U2,2,-*%
%TO.N,Net-(U2A--)*%
X51191280Y-62140000D03*
%TO.P,U2,3,+*%
%TO.N,N/C*%
X51191280Y-60870000D03*
%TO.P,U2,4,V+*%
%TO.N,+12V*%
X51191280Y-59600000D03*
%TO.P,U2,5,+*%
%TO.N,N/C*%
X51191280Y-58330000D03*
%TO.P,U2,6,-*%
%TO.N,Net-(U2B--)*%
X51191280Y-57060000D03*
%TO.P,U2,7*%
%TO.N,Net-(C7-Pad2)*%
X51191280Y-55790000D03*
%TO.P,U2,8*%
%TO.N,N/C*%
X46241280Y-55790000D03*
%TO.P,U2,9,-*%
%TO.N,Net-(U2C--)*%
X46241280Y-57060000D03*
%TO.P,U2,10,+*%
%TO.N,N/C*%
X46241280Y-58330000D03*
%TO.P,U2,11,V-*%
%TO.N,-12V*%
X46241280Y-59600000D03*
%TO.P,U2,12,+*%
%TO.N,N/C*%
X46241280Y-60870000D03*
%TO.P,U2,13,-*%
%TO.N,Net-(U2D--)*%
X46241280Y-62140000D03*
%TO.P,U2,14*%
%TO.N,Net-(C3-Pad2)*%
X46241280Y-63410000D03*
%TD*%
D10*
%TO.P,FB2,1*%
%TO.N,N/C*%
X56993000Y-38830000D03*
%TO.P,FB2,2*%
X56993000Y-40480000D03*
%TD*%
%TO.P,R14,1*%
%TO.N,N/C*%
X43900000Y-55605000D03*
%TO.P,R14,2*%
%TO.N,Net-(U2C--)*%
X43900000Y-57255000D03*
%TD*%
D16*
%TO.P,J6,1,Pin_1*%
%TO.N,N/C*%
X43668000Y-38805000D03*
D17*
%TO.P,J6,2,Pin_2*%
X43668000Y-41345000D03*
%TO.P,J6,3,Pin_3*%
%TO.N,GND*%
X46208000Y-38805000D03*
%TO.P,J6,4,Pin_4*%
X46208000Y-41345000D03*
%TO.P,J6,5,Pin_5*%
X48748000Y-38805000D03*
%TO.P,J6,6,Pin_6*%
X48748000Y-41345000D03*
%TO.P,J6,7,Pin_7*%
X51288000Y-38805000D03*
%TO.P,J6,8,Pin_8*%
X51288000Y-41345000D03*
%TO.P,J6,9,Pin_9*%
%TO.N,N/C*%
X53828000Y-38805000D03*
%TO.P,J6,10,Pin_10*%
X53828000Y-41345000D03*
%TD*%
D23*
%TO.P,C1,1*%
%TO.N,N/C*%
X54988280Y-78396000D03*
%TO.P,C1,2*%
%TO.N,+12V*%
X56538280Y-78396000D03*
%TD*%
D22*
%TO.P,U1,1*%
%TO.N,N/C*%
X52025000Y-81444000D03*
%TO.P,U1,2,-*%
%TO.N,Net-(U1A--)*%
X52025000Y-80174000D03*
%TO.P,U1,3,+*%
%TO.N,N/C*%
X52025000Y-78904000D03*
%TO.P,U1,4,V+*%
%TO.N,+12V*%
X52025000Y-77634000D03*
%TO.P,U1,5,+*%
%TO.N,N/C*%
X52025000Y-76364000D03*
%TO.P,U1,6,-*%
%TO.N,Net-(U1B--)*%
X52025000Y-75094000D03*
%TO.P,U1,7*%
%TO.N,N/C*%
X52025000Y-73824000D03*
%TO.P,U1,8*%
X47075000Y-73824000D03*
%TO.P,U1,9,-*%
%TO.N,Net-(U1C--)*%
X47075000Y-75094000D03*
%TO.P,U1,10,+*%
%TO.N,N/C*%
X47075000Y-76364000D03*
%TO.P,U1,11,V-*%
%TO.N,-12V*%
X47075000Y-77634000D03*
%TO.P,U1,12,+*%
%TO.N,N/C*%
X47075000Y-78904000D03*
%TO.P,U1,13,-*%
%TO.N,Net-(U1D--)*%
X47075000Y-80174000D03*
%TO.P,U1,14*%
%TO.N,Net-(C9-Pad1)*%
X47075000Y-81444000D03*
%TD*%
D14*
%TO.P,R20,1*%
%TO.N,Net-(U2D--)*%
X50060000Y-66717000D03*
%TO.P,R20,2*%
%TO.N,Net-(C10-Pad1)*%
X51710000Y-66717000D03*
%TD*%
D20*
%TO.P,R21,1*%
%TO.N,Net-(C3-Pad2)*%
X44027000Y-63732000D03*
%TO.P,R21,2*%
%TO.N,Net-(U2D--)*%
X44027000Y-62082000D03*
%TD*%
D23*
%TO.P,C14,1*%
%TO.N,Net-(U1B--)*%
X51111000Y-70512000D03*
%TO.P,C14,2*%
%TO.N,N/C*%
X52661000Y-70512000D03*
%TD*%
D24*
%TO.N,-12V*%
X39993000Y-54080000D03*
%TO.N,+12V*%
X54864000Y-59563000D03*
%TO.N,*%
X42926000Y-76364000D03*
%TO.N,+12V*%
X57150000Y-54991000D03*
%TO.N,*%
X42249000Y-62865000D03*
%TO.N,-12V*%
X44154000Y-77634000D03*
%TO.N,GND*%
X52693000Y-48641000D03*
%TO.N,-12V*%
X44154000Y-59600000D03*
%TD*%
D25*
%TO.N,GND*%
X46208000Y-38805000D02*
X51288000Y-38805000D01*
X48748000Y-38805000D02*
X48748000Y-41345000D01*
X44793000Y-42760000D02*
X44793000Y-52080000D01*
X52693000Y-52080000D02*
X44793000Y-52080000D01*
X51288000Y-41345000D02*
X52693000Y-42750000D01*
X46208000Y-38805000D02*
X46208000Y-41345000D01*
X51288000Y-38805000D02*
X51288000Y-41345000D01*
X52693000Y-48641000D02*
X52693000Y-52080000D01*
X52693000Y-42750000D02*
X52693000Y-48641000D01*
X46208000Y-41345000D02*
X44793000Y-42760000D01*
D26*
%TO.N,*%
X48218000Y-70591000D02*
X47885000Y-70258000D01*
D27*
X46186000Y-72813000D02*
X46173000Y-72800000D01*
D26*
X47075000Y-73824000D02*
X46186000Y-72935000D01*
X49488000Y-70591000D02*
X48218000Y-70591000D01*
X46173000Y-72051000D02*
X45155000Y-71033000D01*
X47885000Y-70258000D02*
X47885000Y-68924000D01*
X47885000Y-68924000D02*
X47568000Y-68607000D01*
X45790000Y-68607000D02*
X47568000Y-68607000D01*
%TO.N,Net-(U1B--)*%
X49488000Y-72241000D02*
X49903000Y-72241000D01*
D28*
%TO.N,-12V*%
X39993000Y-53280000D02*
X41193000Y-52080000D01*
D26*
%TO.N,Net-(U1B--)*%
X51040001Y-75094000D02*
X50235000Y-74288999D01*
%TO.N,Net-(U1D--)*%
X41677000Y-79671000D02*
X42770000Y-79671000D01*
%TO.N,*%
X55074000Y-81701000D02*
X55823000Y-81701000D01*
X53346000Y-81751000D02*
X54172000Y-81751000D01*
%TO.N,Net-(U1B--)*%
X51111000Y-71033000D02*
X51111000Y-70512000D01*
%TO.N,*%
X55823000Y-81701000D02*
X57424000Y-81701000D01*
D27*
X54998000Y-81751000D02*
X55061000Y-81688000D01*
D26*
X54172000Y-81751000D02*
X54998000Y-81751000D01*
D28*
%TO.N,-12V*%
X40493000Y-45630000D02*
X40493000Y-51380000D01*
D26*
X46241280Y-59600000D02*
X44154000Y-59600000D01*
D28*
X39993000Y-54080000D02*
X39993000Y-53280000D01*
D27*
X40493000Y-51380000D02*
X41193000Y-52080000D01*
D26*
%TO.N,Net-(U1D--)*%
X42770000Y-79671000D02*
X43265000Y-80166000D01*
X43265000Y-80166000D02*
X44866000Y-80166000D01*
%TO.N,*%
X53039000Y-81444000D02*
X53346000Y-81751000D01*
%TO.N,Net-(U1B--)*%
X51111000Y-70512000D02*
X51111000Y-68657000D01*
X50235000Y-74288999D02*
X50235000Y-72988000D01*
%TO.N,-12V*%
X44154000Y-59600000D02*
X42254000Y-59600000D01*
D28*
X42757000Y-77634000D02*
X44154000Y-77634000D01*
D26*
%TO.N,Net-(U1B--)*%
X50235000Y-72988000D02*
X49488000Y-72241000D01*
%TO.N,Net-(U1A--)*%
X48688000Y-82630000D02*
X51144000Y-80174000D01*
%TO.N,Net-(C3-Pad2)*%
X44027000Y-66400000D02*
X44027000Y-63732000D01*
X44147237Y-65067763D02*
X44027000Y-65188000D01*
X46253428Y-65067763D02*
X44147237Y-65067763D01*
X46253428Y-65067763D02*
X46253428Y-63422148D01*
%TO.N,Net-(U1D--)*%
X44916000Y-80116000D02*
X47017000Y-80116000D01*
D27*
%TO.N,*%
X52025000Y-81444000D02*
X53039000Y-81444000D01*
D26*
%TO.N,Net-(U1B--)*%
X49903000Y-72241000D02*
X51111000Y-71033000D01*
D27*
X52025000Y-75094000D02*
X51040001Y-75094000D01*
%TO.N,*%
X55061000Y-81688000D02*
X55074000Y-81701000D01*
D26*
%TO.N,+12V*%
X57150000Y-52937000D02*
X57150000Y-54991000D01*
D28*
X52715280Y-60081280D02*
X52234000Y-59600000D01*
X53534400Y-60291400D02*
X54135600Y-60291400D01*
X53806000Y-77634000D02*
X54094000Y-77346000D01*
X55963280Y-77346000D02*
X56538280Y-77921000D01*
X54094000Y-77346000D02*
X55963280Y-77346000D01*
D26*
X56293000Y-52080000D02*
X57150000Y-52937000D01*
D28*
X52898680Y-60291400D02*
X52715280Y-60108000D01*
X54135600Y-60291400D02*
X54864000Y-59563000D01*
D26*
X54094000Y-75065000D02*
X54094000Y-77346000D01*
D27*
X56993000Y-51380000D02*
X56293000Y-52080000D01*
D28*
X52234000Y-59600000D02*
X51191280Y-59600000D01*
D26*
X56896000Y-72263000D02*
X54094000Y-75065000D01*
D28*
%TO.N,-12V*%
X44154000Y-77634000D02*
X46293000Y-77634000D01*
%TO.N,*%
X40493000Y-38830000D02*
X43643000Y-38830000D01*
X43668000Y-41345000D02*
X43668000Y-38805000D01*
%TO.N,+12V*%
X52715280Y-60108000D02*
X52715280Y-60081280D01*
X56538280Y-77921000D02*
X56538280Y-78396000D01*
%TO.N,*%
X40493000Y-40480000D02*
X40493000Y-42330000D01*
%TO.N,+12V*%
X53806000Y-77634000D02*
X52025000Y-77634000D01*
X56993000Y-45630000D02*
X56993000Y-51380000D01*
X53534400Y-60291400D02*
X52898680Y-60291400D01*
D26*
%TO.N,*%
X47075000Y-78904000D02*
X52025000Y-78904000D01*
X45155000Y-71033000D02*
X45155000Y-69242000D01*
D27*
X46186000Y-72935000D02*
X46186000Y-72813000D01*
D26*
X41233000Y-77634000D02*
X42503000Y-76364000D01*
X46241280Y-58330000D02*
X48514000Y-58330000D01*
X42249000Y-62865000D02*
X42249000Y-63034000D01*
X42926000Y-76364000D02*
X47075000Y-76364000D01*
X53123000Y-58330000D02*
X53534400Y-58741400D01*
X42503000Y-76364000D02*
X42926000Y-76364000D01*
X46241280Y-60870000D02*
X48514000Y-60870000D01*
X42503000Y-78904000D02*
X47075000Y-78904000D01*
X48514000Y-58330000D02*
X48514000Y-60870000D01*
X52025000Y-78904000D02*
X54480280Y-78904000D01*
X44079280Y-60870000D02*
X46241280Y-60870000D01*
X47075000Y-76364000D02*
X52025000Y-76364000D01*
X45155000Y-69242000D02*
X45790000Y-68607000D01*
X48514000Y-58330000D02*
X51191280Y-58330000D01*
X43794280Y-61155000D02*
X44079280Y-60870000D01*
X42249000Y-61155000D02*
X42249000Y-62865000D01*
X41233000Y-77634000D02*
X42503000Y-78904000D01*
X42249000Y-63034000D02*
X41233000Y-64050000D01*
X51191280Y-58330000D02*
X53123000Y-58330000D01*
X54480280Y-78904000D02*
X54988280Y-78396000D01*
X42249000Y-61155000D02*
X43794280Y-61155000D01*
X46173000Y-72800000D02*
X46173000Y-72051000D01*
X48514000Y-60870000D02*
X51191280Y-60870000D01*
X42312000Y-68051000D02*
X40640000Y-69723000D01*
X41811815Y-73434815D02*
X40640000Y-72263000D01*
X52014000Y-72163000D02*
X52521000Y-71656000D01*
X40027000Y-75416000D02*
X40640000Y-74803000D01*
X39253280Y-66204000D02*
X40232280Y-67183000D01*
X52025000Y-73824000D02*
X52025000Y-72492000D01*
X40589720Y-57252385D02*
X39253280Y-58588825D01*
X42312000Y-68051000D02*
X43900000Y-68051000D01*
X52661000Y-70512000D02*
X52661000Y-68657000D01*
X52521000Y-71656000D02*
X52521000Y-70652000D01*
D27*
X46056280Y-55605000D02*
X46241280Y-55790000D01*
D26*
X42253748Y-55658015D02*
X40645350Y-55658015D01*
X43900000Y-55605000D02*
X46056280Y-55605000D01*
X43900000Y-55605000D02*
X42306763Y-55605000D01*
X44019388Y-73434815D02*
X41811815Y-73434815D01*
X40027000Y-79671000D02*
X40027000Y-75416000D01*
X39253280Y-58588825D02*
X39253280Y-66204000D01*
%TO.N,Net-(C10-Pad1)*%
X51710000Y-66717000D02*
X51710000Y-65066000D01*
%TO.N,Net-(U2D--)*%
X44027000Y-62082000D02*
X46183280Y-62082000D01*
D29*
%TO.N,*%
X58303280Y-77037490D02*
X58303280Y-71130280D01*
X56054280Y-67183000D02*
X56896000Y-67183000D01*
D26*
%TO.N,Net-(U2D--)*%
X47889280Y-62803001D02*
X47226279Y-62140000D01*
D29*
%TO.N,*%
X54632000Y-66907000D02*
X56896000Y-64643000D01*
D26*
%TO.N,Net-(C10-Pad1)*%
X51710000Y-63928720D02*
X51191280Y-63410000D01*
%TO.N,Net-(U2D--)*%
X47889280Y-64378720D02*
X47889280Y-62803001D01*
D29*
%TO.N,*%
X53664000Y-72163000D02*
X53664000Y-69573280D01*
D26*
%TO.N,Net-(U2D--)*%
X47803428Y-65067763D02*
X47803428Y-65794428D01*
D29*
%TO.N,*%
X57474000Y-80101000D02*
X57474000Y-77866770D01*
X53664000Y-69573280D02*
X56054280Y-67183000D01*
D26*
%TO.N,Net-(U2D--)*%
X47803428Y-65794428D02*
X48726000Y-66717000D01*
X47803428Y-64464572D02*
X47889280Y-64378720D01*
D27*
X47226279Y-62140000D02*
X46241280Y-62140000D01*
D30*
%TO.N,Net-(C10-Pad1)*%
X51191280Y-63410000D02*
X53129170Y-63410000D01*
D26*
%TO.N,Net-(U2C--)*%
X43900000Y-57255000D02*
X42300733Y-57255000D01*
D30*
%TO.N,Net-(C10-Pad1)*%
X53129170Y-63410000D02*
X53411789Y-63692619D01*
D26*
%TO.N,Net-(U2D--)*%
X48726000Y-66717000D02*
X50060000Y-66717000D01*
D29*
%TO.N,*%
X53425000Y-66907000D02*
X54632000Y-66907000D01*
X57474000Y-77866770D02*
X58303280Y-77037490D01*
X58303280Y-71130280D02*
X56896000Y-69723000D01*
X56938000Y-58245600D02*
X56938000Y-62061000D01*
D26*
%TO.N,Net-(C10-Pad1)*%
X51710000Y-65066000D02*
X51710000Y-63928720D01*
%TO.N,Net-(U2D--)*%
X47803428Y-65067763D02*
X47803428Y-64464572D01*
D29*
%TO.N,*%
X56938000Y-62061000D02*
X56896000Y-62103000D01*
D26*
%TO.N,Net-(U1C--)*%
X48223000Y-75094000D02*
X47075000Y-75094000D01*
%TO.N,Net-(U1A--)*%
X40027000Y-81830000D02*
X40827000Y-82630000D01*
X54172000Y-80101000D02*
X55773000Y-80101000D01*
%TO.N,Net-(C7-Pad2)*%
X51191280Y-55790000D02*
X53367000Y-55790000D01*
%TO.N,Net-(U2A--)*%
X51191280Y-62140000D02*
X53409170Y-62140000D01*
%TO.N,Net-(U1C--)*%
X46293000Y-75094000D02*
X44028573Y-75094000D01*
%TO.N,Net-(U1A--)*%
X40827000Y-82630000D02*
X48688000Y-82630000D01*
%TO.N,*%
X53828000Y-41345000D02*
X53828000Y-38805000D01*
%TO.N,Net-(U1C--)*%
X46293000Y-75094000D02*
X47277999Y-75094000D01*
%TO.N,Net-(U2C--)*%
X47226279Y-57060000D02*
X47901000Y-56385279D01*
%TO.N,Net-(C9-Pad1)*%
X47075000Y-81444000D02*
X45937000Y-81444000D01*
%TO.N,Net-(U1C--)*%
X47723000Y-72051000D02*
X47723000Y-71746000D01*
%TO.N,Net-(U2B--)*%
X56938000Y-56595600D02*
X55812400Y-56595600D01*
%TO.N,Net-(C7-Pad2)*%
X51191280Y-55657280D02*
X49551000Y-54017000D01*
%TO.N,Net-(C9-Pad1)*%
X42071000Y-81716000D02*
X41677000Y-81322000D01*
X45615000Y-81766000D02*
X44916000Y-81766000D01*
%TO.N,Net-(U2B--)*%
X51191280Y-57060000D02*
X53357000Y-57060000D01*
%TO.N,Net-(U2A--)*%
X54386789Y-63117619D02*
X53411789Y-62142619D01*
D28*
%TO.N,*%
X56993000Y-40480000D02*
X56993000Y-42330000D01*
D26*
%TO.N,Net-(U2B--)*%
X53552000Y-57255000D02*
X55153000Y-57255000D01*
%TO.N,Net-(U2A--)*%
X54386789Y-64295211D02*
X54386789Y-63117619D01*
%TO.N,Net-(U1C--)*%
X48560000Y-72888000D02*
X48560000Y-74757000D01*
X47723000Y-71746000D02*
X46235000Y-70258000D01*
%TO.N,Net-(U2A--)*%
X53425000Y-65257000D02*
X54386789Y-64295211D01*
%TO.N,Net-(U1C--)*%
X48560000Y-74757000D02*
X48223000Y-75094000D01*
X47723000Y-72051000D02*
X48560000Y-72888000D01*
%TO.N,Net-(U2C--)*%
X47901000Y-56385279D02*
X47901000Y-54017000D01*
D27*
X46046280Y-57255000D02*
X46241280Y-57060000D01*
D26*
%TO.N,Net-(C7-Pad2)*%
X53552000Y-55605000D02*
X55153000Y-55605000D01*
D27*
%TO.N,Net-(U2C--)*%
X46241280Y-57060000D02*
X47226279Y-57060000D01*
D28*
%TO.N,*%
X53828000Y-38805000D02*
X56968000Y-38805000D01*
D26*
%TO.N,Net-(U1A--)*%
X51144000Y-80174000D02*
X52025000Y-80174000D01*
%TO.N,Net-(U2C--)*%
X43900000Y-57255000D02*
X46046280Y-57255000D01*
%TO.N,Net-(C9-Pad1)*%
X43265000Y-81716000D02*
X42071000Y-81716000D01*
X45937000Y-81444000D02*
X45615000Y-81766000D01*
X43265000Y-81716000D02*
X44866000Y-81716000D01*
%TO.N,Net-(U1A--)*%
X52025000Y-80174000D02*
X54099000Y-80174000D01*
%TO.N,Net-(U2A--)*%
X49667280Y-64673280D02*
X49667280Y-62679001D01*
X50060000Y-65066000D02*
X49667280Y-64673280D01*
%TO.N,Net-(U2B--)*%
X55812400Y-56595600D02*
X55203000Y-57205000D01*
%TO.N,Net-(U2A--)*%
X49667280Y-62679001D02*
X50206281Y-62140000D01*
D27*
X50206281Y-62140000D02*
X51191280Y-62140000D01*
%TD*%
%TA.AperFunction,NonConductor*%
G36*
X54694834Y-57775185D02*
G01*
X54699555Y-57778412D01*
X54699777Y-57778525D01*
X54699780Y-57778528D01*
X54819874Y-57839719D01*
X54819876Y-57839719D01*
X54819878Y-57839720D01*
X54919507Y-57855500D01*
X54994000Y-57855500D01*
X55061039Y-57875185D01*
X55106794Y-57927989D01*
X55118000Y-57979500D01*
X55118000Y-58849363D01*
X55098315Y-58916402D01*
X55045511Y-58962157D01*
X54977815Y-58972302D01*
X54973356Y-58971715D01*
X54946487Y-58968177D01*
X54864001Y-58957318D01*
X54863999Y-58957318D01*
X54707239Y-58977955D01*
X54707234Y-58977957D01*
X54634385Y-59008132D01*
X54564916Y-59015601D01*
X54516570Y-58991400D01*
X53408400Y-58991400D01*
X53341361Y-58971715D01*
X53295606Y-58918911D01*
X53284400Y-58867400D01*
X53284400Y-58615400D01*
X53304085Y-58548361D01*
X53356889Y-58502606D01*
X53408400Y-58491400D01*
X54509399Y-58491400D01*
X54509399Y-58468092D01*
X54509398Y-58468077D01*
X54499255Y-58368792D01*
X54445947Y-58207918D01*
X54445942Y-58207907D01*
X54356975Y-58063671D01*
X54356972Y-58063667D01*
X54260486Y-57967181D01*
X54227001Y-57905858D01*
X54231985Y-57836166D01*
X54273857Y-57780233D01*
X54339321Y-57755816D01*
X54348167Y-57755500D01*
X54627795Y-57755500D01*
X54694834Y-57775185D01*
G37*
%TD.AperFunction*%
%TA.AperFunction,NonConductor*%
G36*
X39360539Y-53486685D02*
G01*
X39406294Y-53539489D01*
X39417500Y-53591000D01*
X39417500Y-53875530D01*
X39409598Y-53915259D01*
X39410060Y-53915383D01*
X39408171Y-53922431D01*
X39408063Y-53922978D01*
X39407956Y-53923235D01*
X39387318Y-54079998D01*
X39387318Y-54080001D01*
X39407955Y-54236760D01*
X39407956Y-54236762D01*
X39443891Y-54323518D01*
X39468464Y-54382841D01*
X39564718Y-54508282D01*
X39690159Y-54604536D01*
X39836238Y-54665044D01*
X39914619Y-54675363D01*
X39992999Y-54685682D01*
X39993000Y-54685682D01*
X39993001Y-54685682D01*
X40054040Y-54677646D01*
X40149762Y-54665044D01*
X40295841Y-54604536D01*
X40421282Y-54508282D01*
X40517536Y-54382841D01*
X40578044Y-54236762D01*
X40598682Y-54080000D01*
X40578044Y-53923238D01*
X40578043Y-53923235D01*
X40577937Y-53922978D01*
X40577828Y-53922431D01*
X40575940Y-53915383D01*
X40576401Y-53915259D01*
X40568500Y-53875530D01*
X40568500Y-53591000D01*
X40588185Y-53523961D01*
X40640989Y-53478206D01*
X40692500Y-53467000D01*
X47193878Y-53467000D01*
X47260917Y-53486685D01*
X47306672Y-53539489D01*
X47316616Y-53608647D01*
X47316351Y-53610398D01*
X47300500Y-53710475D01*
X47300500Y-54323517D01*
X47309896Y-54382839D01*
X47315354Y-54417304D01*
X47361710Y-54508282D01*
X47372949Y-54530340D01*
X47376819Y-54535666D01*
X47400298Y-54601473D01*
X47400500Y-54608551D01*
X47400500Y-55188805D01*
X47380815Y-55255844D01*
X47328011Y-55301599D01*
X47258853Y-55311543D01*
X47226416Y-55302240D01*
X47203947Y-55292319D01*
X47203942Y-55292318D01*
X47179654Y-55289500D01*
X47179653Y-55289500D01*
X46499956Y-55289500D01*
X46432917Y-55269815D01*
X46412275Y-55253181D01*
X46363596Y-55204502D01*
X46363594Y-55204500D01*
X46298050Y-55166658D01*
X46249467Y-55138608D01*
X46184479Y-55121195D01*
X46122172Y-55104500D01*
X46122171Y-55104500D01*
X44491552Y-55104500D01*
X44424513Y-55084815D01*
X44418671Y-55080821D01*
X44413346Y-55076953D01*
X44413343Y-55076951D01*
X44413342Y-55076950D01*
X44308037Y-55023294D01*
X44300301Y-55019352D01*
X44206524Y-55004500D01*
X43593482Y-55004500D01*
X43516220Y-55016737D01*
X43499696Y-55019354D01*
X43386658Y-55076950D01*
X43386657Y-55076950D01*
X43386653Y-55076953D01*
X43381329Y-55080821D01*
X43315522Y-55104298D01*
X43308448Y-55104500D01*
X42824803Y-55104500D01*
X42766453Y-55087366D01*
X42765663Y-55088918D01*
X42756969Y-55084488D01*
X42756968Y-55084487D01*
X42636874Y-55023296D01*
X42636872Y-55023295D01*
X42636869Y-55023294D01*
X42537241Y-55007515D01*
X42537236Y-55007515D01*
X41970260Y-55007515D01*
X41970255Y-55007515D01*
X41870626Y-55023294D01*
X41750526Y-55084488D01*
X41750523Y-55084490D01*
X41713820Y-55121195D01*
X41652497Y-55154681D01*
X41626138Y-55157515D01*
X41237604Y-55157515D01*
X41170565Y-55137830D01*
X41149922Y-55121195D01*
X41103066Y-55074338D01*
X41103064Y-55074337D01*
X41103062Y-55074335D01*
X40996972Y-55020279D01*
X40990021Y-55016737D01*
X40896244Y-55001885D01*
X40283202Y-55001885D01*
X40202239Y-55014708D01*
X40189416Y-55016739D01*
X40076378Y-55074335D01*
X40076377Y-55074336D01*
X40076372Y-55074339D01*
X39986674Y-55164037D01*
X39986671Y-55164042D01*
X39929072Y-55277083D01*
X39914220Y-55370860D01*
X39914220Y-55833902D01*
X39925012Y-55902042D01*
X39929074Y-55927689D01*
X39986670Y-56040727D01*
X39986672Y-56040729D01*
X39986674Y-56040732D01*
X40076372Y-56130430D01*
X40076374Y-56130431D01*
X40076378Y-56130435D01*
X40170122Y-56178200D01*
X40189418Y-56188032D01*
X40283195Y-56202884D01*
X40283201Y-56202885D01*
X40896238Y-56202884D01*
X40990024Y-56188031D01*
X41021428Y-56172030D01*
X41077722Y-56158515D01*
X41626138Y-56158515D01*
X41693177Y-56178200D01*
X41713820Y-56194835D01*
X41750523Y-56231539D01*
X41750526Y-56231541D01*
X41750528Y-56231543D01*
X41870622Y-56292734D01*
X41870624Y-56292734D01*
X41870626Y-56292735D01*
X41970255Y-56308515D01*
X41970260Y-56308515D01*
X42537241Y-56308515D01*
X42636869Y-56292735D01*
X42636869Y-56292734D01*
X42636874Y-56292734D01*
X42756968Y-56231543D01*
X42846693Y-56141817D01*
X42908014Y-56108334D01*
X42934373Y-56105500D01*
X43308448Y-56105500D01*
X43375487Y-56125185D01*
X43381329Y-56129179D01*
X43386653Y-56133046D01*
X43386655Y-56133047D01*
X43386658Y-56133050D01*
X43494562Y-56188030D01*
X43499698Y-56190647D01*
X43593475Y-56205499D01*
X43593481Y-56205500D01*
X44206518Y-56205499D01*
X44300304Y-56190646D01*
X44413342Y-56133050D01*
X44413346Y-56133046D01*
X44418671Y-56129179D01*
X44484478Y-56105702D01*
X44491552Y-56105500D01*
X44994967Y-56105500D01*
X45062006Y-56125185D01*
X45097268Y-56159425D01*
X45102465Y-56167013D01*
X45102467Y-56167016D01*
X45179264Y-56243813D01*
X45278618Y-56287682D01*
X45302907Y-56290500D01*
X46988603Y-56290499D01*
X47055642Y-56310184D01*
X47101397Y-56362987D01*
X47111341Y-56432146D01*
X47082316Y-56495702D01*
X47076284Y-56502180D01*
X47055283Y-56523181D01*
X46993960Y-56556666D01*
X46967602Y-56559500D01*
X45302914Y-56559500D01*
X45302891Y-56559502D01*
X45278620Y-56562317D01*
X45278617Y-56562318D01*
X45179264Y-56606186D01*
X45102467Y-56682983D01*
X45095974Y-56692463D01*
X45094402Y-56691386D01*
X45058443Y-56733961D01*
X44991657Y-56754490D01*
X44990092Y-56754500D01*
X44491552Y-56754500D01*
X44424513Y-56734815D01*
X44418671Y-56730821D01*
X44413346Y-56726953D01*
X44413343Y-56726951D01*
X44413342Y-56726950D01*
X44337481Y-56688297D01*
X44300301Y-56669352D01*
X44206524Y-56654500D01*
X43593482Y-56654500D01*
X43516220Y-56666737D01*
X43499696Y-56669354D01*
X43386658Y-56726950D01*
X43386657Y-56726950D01*
X43386653Y-56726953D01*
X43381329Y-56730821D01*
X43315522Y-56754298D01*
X43308448Y-56754500D01*
X42928344Y-56754500D01*
X42861305Y-56734815D01*
X42840663Y-56718181D01*
X42756973Y-56634491D01*
X42756969Y-56634488D01*
X42756968Y-56634487D01*
X42636874Y-56573296D01*
X42636872Y-56573295D01*
X42636869Y-56573294D01*
X42537241Y-56557515D01*
X42537236Y-56557515D01*
X41970260Y-56557515D01*
X41970255Y-56557515D01*
X41870626Y-56573294D01*
X41870622Y-56573295D01*
X41870622Y-56573296D01*
X41830756Y-56593609D01*
X41750526Y-56634488D01*
X41750522Y-56634491D01*
X41655224Y-56729789D01*
X41655221Y-56729793D01*
X41594027Y-56849893D01*
X41578248Y-56949521D01*
X41578248Y-57466508D01*
X41594027Y-57566136D01*
X41594028Y-57566139D01*
X41594029Y-57566141D01*
X41653684Y-57683220D01*
X41655221Y-57686236D01*
X41655224Y-57686240D01*
X41750522Y-57781538D01*
X41750525Y-57781540D01*
X41750528Y-57781543D01*
X41870622Y-57842734D01*
X41870624Y-57842734D01*
X41870626Y-57842735D01*
X41970255Y-57858515D01*
X41970260Y-57858515D01*
X42537241Y-57858515D01*
X42636869Y-57842735D01*
X42636869Y-57842734D01*
X42636874Y-57842734D01*
X42756968Y-57781543D01*
X42756973Y-57781537D01*
X42760219Y-57779181D01*
X42764833Y-57777534D01*
X42765663Y-57777112D01*
X42765717Y-57777219D01*
X42826026Y-57755702D01*
X42833103Y-57755500D01*
X43308448Y-57755500D01*
X43375487Y-57775185D01*
X43381329Y-57779179D01*
X43386653Y-57783046D01*
X43386655Y-57783047D01*
X43386658Y-57783050D01*
X43490904Y-57836166D01*
X43499698Y-57840647D01*
X43593475Y-57855499D01*
X43593481Y-57855500D01*
X44206518Y-57855499D01*
X44300304Y-57840646D01*
X44413342Y-57783050D01*
X44413346Y-57783046D01*
X44418671Y-57779179D01*
X44484478Y-57755702D01*
X44491552Y-57755500D01*
X44673070Y-57755500D01*
X44740109Y-57775185D01*
X44785864Y-57827989D01*
X44795808Y-57897147D01*
X44787631Y-57926952D01*
X44771467Y-57965975D01*
X44771466Y-57965979D01*
X44756454Y-58080000D01*
X47726105Y-58080000D01*
X47711093Y-57965979D01*
X47711092Y-57965975D01*
X47651646Y-57822458D01*
X47651646Y-57822457D01*
X47557071Y-57699205D01*
X47516701Y-57668229D01*
X47475498Y-57611801D01*
X47471343Y-57542055D01*
X47505555Y-57481135D01*
X47530185Y-57462467D01*
X47533593Y-57460500D01*
X48301500Y-56692593D01*
X48367392Y-56578465D01*
X48401500Y-56451171D01*
X48401500Y-56319386D01*
X48401500Y-54608551D01*
X48421185Y-54541512D01*
X48425181Y-54535666D01*
X48429044Y-54530347D01*
X48429050Y-54530342D01*
X48486646Y-54417304D01*
X48486646Y-54417302D01*
X48486647Y-54417301D01*
X48501499Y-54323524D01*
X48501500Y-54323519D01*
X48501499Y-53710482D01*
X48486646Y-53616696D01*
X48486645Y-53616694D01*
X48485648Y-53610397D01*
X48494604Y-53541103D01*
X48539601Y-53487652D01*
X48606353Y-53467013D01*
X48608122Y-53467000D01*
X48843878Y-53467000D01*
X48910917Y-53486685D01*
X48956672Y-53539489D01*
X48966616Y-53608647D01*
X48966351Y-53610398D01*
X48950500Y-53710475D01*
X48950500Y-54323517D01*
X48959896Y-54382839D01*
X48965354Y-54417304D01*
X49022950Y-54530342D01*
X49022952Y-54530344D01*
X49022954Y-54530347D01*
X49112652Y-54620045D01*
X49112654Y-54620046D01*
X49112658Y-54620050D01*
X49225696Y-54677646D01*
X49225698Y-54677647D01*
X49319475Y-54692499D01*
X49319481Y-54692500D01*
X49467322Y-54692499D01*
X49534362Y-54712183D01*
X49555004Y-54728818D01*
X50058137Y-55231951D01*
X50091622Y-55293274D01*
X50086638Y-55362966D01*
X50058140Y-55407310D01*
X50052468Y-55412981D01*
X50052467Y-55412983D01*
X50008598Y-55512335D01*
X50008598Y-55512337D01*
X50005780Y-55536625D01*
X50005780Y-56043365D01*
X50005782Y-56043388D01*
X50008597Y-56067659D01*
X50008598Y-56067662D01*
X50052466Y-56167015D01*
X50052467Y-56167016D01*
X50129264Y-56243813D01*
X50228618Y-56287682D01*
X50252907Y-56290500D01*
X51110945Y-56290499D01*
X51110955Y-56290500D01*
X51125388Y-56290500D01*
X53432890Y-56290500D01*
X53432892Y-56290500D01*
X53560186Y-56256392D01*
X53619560Y-56222112D01*
X53681561Y-56205499D01*
X53858517Y-56205499D01*
X53858518Y-56205499D01*
X53952304Y-56190646D01*
X54065342Y-56133050D01*
X54065346Y-56133046D01*
X54070671Y-56129179D01*
X54136478Y-56105702D01*
X54143552Y-56105500D01*
X54525389Y-56105500D01*
X54592428Y-56125185D01*
X54613070Y-56141819D01*
X54699774Y-56228523D01*
X54699778Y-56228526D01*
X54699780Y-56228528D01*
X54819874Y-56289719D01*
X54819876Y-56289719D01*
X54819878Y-56289720D01*
X54919507Y-56305500D01*
X54919512Y-56305500D01*
X54994000Y-56305500D01*
X55061039Y-56325185D01*
X55106794Y-56377989D01*
X55118000Y-56429500D01*
X55118000Y-56430500D01*
X55098315Y-56497539D01*
X55045511Y-56543294D01*
X54994000Y-56554500D01*
X54919507Y-56554500D01*
X54819878Y-56570279D01*
X54699778Y-56631473D01*
X54699774Y-56631476D01*
X54613070Y-56718181D01*
X54551747Y-56751666D01*
X54525389Y-56754500D01*
X54143552Y-56754500D01*
X54076513Y-56734815D01*
X54070671Y-56730821D01*
X54065346Y-56726953D01*
X54065343Y-56726951D01*
X54065342Y-56726950D01*
X53989481Y-56688297D01*
X53952301Y-56669352D01*
X53858524Y-56654500D01*
X53858519Y-56654500D01*
X53688879Y-56654500D01*
X53626879Y-56637887D01*
X53550188Y-56593609D01*
X53550187Y-56593608D01*
X53550186Y-56593608D01*
X53422892Y-56559500D01*
X51125388Y-56559500D01*
X51125386Y-56559500D01*
X50252914Y-56559500D01*
X50252891Y-56559502D01*
X50228620Y-56562317D01*
X50228617Y-56562318D01*
X50129264Y-56606186D01*
X50052467Y-56682983D01*
X50008598Y-56782335D01*
X50008598Y-56782337D01*
X50005780Y-56806625D01*
X50005780Y-57313365D01*
X50005782Y-57313388D01*
X50008596Y-57337658D01*
X50055570Y-57444043D01*
X50064641Y-57513322D01*
X50034817Y-57576506D01*
X50004146Y-57601510D01*
X49998741Y-57604631D01*
X49875487Y-57699207D01*
X49780913Y-57822457D01*
X49780913Y-57822458D01*
X49721467Y-57965975D01*
X49721466Y-57965979D01*
X49706454Y-58080000D01*
X51317280Y-58080000D01*
X51384319Y-58099685D01*
X51430074Y-58152489D01*
X51441280Y-58204000D01*
X51441280Y-58456000D01*
X51421595Y-58523039D01*
X51368791Y-58568794D01*
X51317280Y-58580000D01*
X49706455Y-58580000D01*
X49721466Y-58694020D01*
X49721467Y-58694024D01*
X49780913Y-58837541D01*
X49780913Y-58837542D01*
X49875487Y-58960792D01*
X49998740Y-59055368D01*
X50004140Y-59058486D01*
X50052353Y-59109055D01*
X50065573Y-59177663D01*
X50055570Y-59215956D01*
X50008598Y-59322337D01*
X50005780Y-59346625D01*
X50005780Y-59853365D01*
X50005782Y-59853388D01*
X50008596Y-59877658D01*
X50055570Y-59984043D01*
X50064641Y-60053322D01*
X50034817Y-60116506D01*
X50004146Y-60141510D01*
X49998741Y-60144631D01*
X49875487Y-60239207D01*
X49780913Y-60362457D01*
X49780913Y-60362458D01*
X49721467Y-60505975D01*
X49721466Y-60505979D01*
X49706454Y-60620000D01*
X51317280Y-60620000D01*
X51384319Y-60639685D01*
X51430074Y-60692489D01*
X51441280Y-60744000D01*
X51441280Y-60996000D01*
X51421595Y-61063039D01*
X51368791Y-61108794D01*
X51317280Y-61120000D01*
X49706455Y-61120000D01*
X49721466Y-61234020D01*
X49721467Y-61234024D01*
X49780913Y-61377541D01*
X49780913Y-61377542D01*
X49875488Y-61500794D01*
X49915858Y-61531770D01*
X49957061Y-61588197D01*
X49961216Y-61657943D01*
X49927004Y-61718864D01*
X49902378Y-61737530D01*
X49898970Y-61739497D01*
X49898965Y-61739501D01*
X49266782Y-62371684D01*
X49266780Y-62371687D01*
X49200888Y-62485813D01*
X49166780Y-62613109D01*
X49166780Y-64739171D01*
X49200888Y-64866467D01*
X49204842Y-64873315D01*
X49266780Y-64980594D01*
X49266782Y-64980596D01*
X49423181Y-65136995D01*
X49456666Y-65198318D01*
X49459500Y-65224675D01*
X49459500Y-65372517D01*
X49462176Y-65389410D01*
X49474354Y-65466304D01*
X49531950Y-65579342D01*
X49531952Y-65579344D01*
X49531954Y-65579347D01*
X49621652Y-65669045D01*
X49621654Y-65669046D01*
X49621658Y-65669050D01*
X49734694Y-65726645D01*
X49734698Y-65726647D01*
X49828475Y-65741499D01*
X49828481Y-65741500D01*
X50291518Y-65741499D01*
X50385304Y-65726646D01*
X50498342Y-65669050D01*
X50588050Y-65579342D01*
X50645646Y-65466304D01*
X50645646Y-65466302D01*
X50645647Y-65466301D01*
X50660499Y-65372524D01*
X50660500Y-65372519D01*
X50660499Y-64759482D01*
X50645646Y-64665696D01*
X50588050Y-64552658D01*
X50588046Y-64552654D01*
X50588045Y-64552652D01*
X50498347Y-64462954D01*
X50498344Y-64462952D01*
X50498342Y-64462950D01*
X50394142Y-64409857D01*
X50385301Y-64405352D01*
X50291522Y-64390499D01*
X50286669Y-64390118D01*
X50286755Y-64389024D01*
X50224741Y-64370815D01*
X50178986Y-64318011D01*
X50167780Y-64266500D01*
X50167780Y-64034499D01*
X50187465Y-63967460D01*
X50240269Y-63921705D01*
X50291775Y-63910499D01*
X50932603Y-63910499D01*
X50999642Y-63930184D01*
X51020284Y-63946818D01*
X51173181Y-64099715D01*
X51206666Y-64161038D01*
X51209500Y-64187396D01*
X51209500Y-64474448D01*
X51189815Y-64541487D01*
X51185821Y-64547329D01*
X51181953Y-64552653D01*
X51181950Y-64552657D01*
X51181950Y-64552658D01*
X51166941Y-64582115D01*
X51124352Y-64665698D01*
X51109500Y-64759475D01*
X51109500Y-65372517D01*
X51112176Y-65389410D01*
X51124354Y-65466304D01*
X51166885Y-65549775D01*
X51181949Y-65579340D01*
X51185819Y-65584666D01*
X51209298Y-65650473D01*
X51209500Y-65657551D01*
X51209500Y-66125448D01*
X51189815Y-66192487D01*
X51185821Y-66198329D01*
X51181953Y-66203653D01*
X51124352Y-66316698D01*
X51109500Y-66410475D01*
X51109500Y-67023517D01*
X51120292Y-67091657D01*
X51124354Y-67117304D01*
X51181950Y-67230342D01*
X51181952Y-67230344D01*
X51181954Y-67230347D01*
X51271652Y-67320045D01*
X51271654Y-67320046D01*
X51271658Y-67320050D01*
X51384694Y-67377645D01*
X51384698Y-67377647D01*
X51478475Y-67392499D01*
X51478481Y-67392500D01*
X51941518Y-67392499D01*
X52035304Y-67377646D01*
X52148342Y-67320050D01*
X52238050Y-67230342D01*
X52295646Y-67117304D01*
X52295646Y-67117302D01*
X52295647Y-67117301D01*
X52310499Y-67023524D01*
X52310500Y-67023519D01*
X52310499Y-66410482D01*
X52295646Y-66316696D01*
X52238050Y-66203658D01*
X52238047Y-66203655D01*
X52238046Y-66203653D01*
X52234179Y-66198329D01*
X52210702Y-66132522D01*
X52210500Y-66125448D01*
X52210500Y-65657551D01*
X52230185Y-65590512D01*
X52234181Y-65584666D01*
X52238044Y-65579347D01*
X52238050Y-65579342D01*
X52295646Y-65466304D01*
X52295646Y-65466302D01*
X52295647Y-65466301D01*
X52310499Y-65372524D01*
X52310500Y-65372519D01*
X52310499Y-64759482D01*
X52295646Y-64665696D01*
X52238050Y-64552658D01*
X52238047Y-64552655D01*
X52238046Y-64552653D01*
X52234179Y-64547329D01*
X52210702Y-64481522D01*
X52210500Y-64474448D01*
X52210500Y-63984500D01*
X52230185Y-63917461D01*
X52282989Y-63871706D01*
X52334500Y-63860500D01*
X52616032Y-63860500D01*
X52683071Y-63880185D01*
X52728826Y-63932989D01*
X52738505Y-63965102D01*
X52752068Y-64050740D01*
X52752069Y-64050743D01*
X52752070Y-64050745D01*
X52813261Y-64170839D01*
X52813262Y-64170840D01*
X52813265Y-64170844D01*
X52908563Y-64266142D01*
X52908567Y-64266145D01*
X52908569Y-64266147D01*
X53028663Y-64327338D01*
X53028665Y-64327338D01*
X53028667Y-64327339D01*
X53128296Y-64343119D01*
X53128301Y-64343119D01*
X53331704Y-64343119D01*
X53398743Y-64362804D01*
X53444498Y-64415608D01*
X53454442Y-64484766D01*
X53425417Y-64548322D01*
X53419394Y-64554791D01*
X53371661Y-64602524D01*
X53354003Y-64620182D01*
X53292679Y-64653666D01*
X53266323Y-64656500D01*
X53118482Y-64656500D01*
X53037519Y-64669323D01*
X53024696Y-64671354D01*
X52911658Y-64728950D01*
X52911657Y-64728951D01*
X52911652Y-64728954D01*
X52821954Y-64818652D01*
X52821951Y-64818657D01*
X52821950Y-64818658D01*
X52806524Y-64848934D01*
X52764352Y-64931698D01*
X52749500Y-65025475D01*
X52749500Y-65488517D01*
X52754595Y-65520685D01*
X52764354Y-65582304D01*
X52821950Y-65695342D01*
X52821952Y-65695344D01*
X52821954Y-65695347D01*
X52911652Y-65785045D01*
X52911654Y-65785046D01*
X52911658Y-65785050D01*
X53024694Y-65842645D01*
X53024698Y-65842647D01*
X53118475Y-65857499D01*
X53118481Y-65857500D01*
X53731518Y-65857499D01*
X53825304Y-65842646D01*
X53938342Y-65785050D01*
X54028050Y-65695342D01*
X54085646Y-65582304D01*
X54085646Y-65582302D01*
X54085647Y-65582301D01*
X54100499Y-65488524D01*
X54100500Y-65488519D01*
X54100499Y-65340675D01*
X54120183Y-65273636D01*
X54136813Y-65252999D01*
X54787289Y-64602525D01*
X54853181Y-64488397D01*
X54874225Y-64409855D01*
X54910590Y-64350196D01*
X54973437Y-64319667D01*
X55042812Y-64327962D01*
X55096690Y-64372447D01*
X55117965Y-64438999D01*
X55118000Y-64441950D01*
X55118000Y-65803244D01*
X55098315Y-65870283D01*
X55081681Y-65890925D01*
X54502426Y-66470181D01*
X54441103Y-66503666D01*
X54414745Y-66506500D01*
X54117255Y-66506500D01*
X54050216Y-66486815D01*
X54029574Y-66470181D01*
X53938347Y-66378954D01*
X53938344Y-66378952D01*
X53938342Y-66378950D01*
X53861517Y-66339805D01*
X53825301Y-66321352D01*
X53731524Y-66306500D01*
X53118482Y-66306500D01*
X53037519Y-66319323D01*
X53024696Y-66321354D01*
X52911658Y-66378950D01*
X52911657Y-66378951D01*
X52911652Y-66378954D01*
X52821954Y-66468652D01*
X52821951Y-66468657D01*
X52764352Y-66581698D01*
X52749500Y-66675475D01*
X52749500Y-67138517D01*
X52759091Y-67199075D01*
X52764354Y-67232304D01*
X52821950Y-67345342D01*
X52821952Y-67345344D01*
X52821954Y-67345347D01*
X52911652Y-67435045D01*
X52911654Y-67435046D01*
X52911658Y-67435050D01*
X53024694Y-67492645D01*
X53024698Y-67492647D01*
X53118475Y-67507499D01*
X53118481Y-67507500D01*
X53731518Y-67507499D01*
X53825304Y-67492646D01*
X53938342Y-67435050D01*
X53980893Y-67392499D01*
X54029574Y-67343819D01*
X54090897Y-67310334D01*
X54117255Y-67307500D01*
X54684725Y-67307500D01*
X54684727Y-67307500D01*
X54786588Y-67280207D01*
X54877913Y-67227480D01*
X54906319Y-67199073D01*
X54967640Y-67165589D01*
X55037332Y-67170573D01*
X55093266Y-67212443D01*
X55117684Y-67277907D01*
X55118000Y-67286755D01*
X55118000Y-67501525D01*
X55098315Y-67568564D01*
X55081681Y-67589206D01*
X53469052Y-69201834D01*
X53407729Y-69235319D01*
X53338037Y-69230335D01*
X53282104Y-69188463D01*
X53257687Y-69122999D01*
X53270886Y-69057859D01*
X53296646Y-69007304D01*
X53296646Y-69007301D01*
X53296647Y-69007301D01*
X53311499Y-68913524D01*
X53311500Y-68913519D01*
X53311499Y-68300482D01*
X53296646Y-68206696D01*
X53239050Y-68093658D01*
X53239046Y-68093654D01*
X53239045Y-68093652D01*
X53149347Y-68003954D01*
X53149344Y-68003952D01*
X53149342Y-68003950D01*
X53072517Y-67964805D01*
X53036301Y-67946352D01*
X52942524Y-67931500D01*
X52479482Y-67931500D01*
X52398519Y-67944323D01*
X52385696Y-67946354D01*
X52272658Y-68003950D01*
X52272657Y-68003951D01*
X52272652Y-68003954D01*
X52182954Y-68093652D01*
X52182951Y-68093657D01*
X52125352Y-68206698D01*
X52110500Y-68300475D01*
X52110500Y-68913517D01*
X52125354Y-69007304D01*
X52146985Y-69049756D01*
X52160500Y-69106051D01*
X52160500Y-69884389D01*
X52140815Y-69951428D01*
X52124181Y-69972070D01*
X52087476Y-70008774D01*
X52087473Y-70008778D01*
X52026279Y-70128878D01*
X52010500Y-70228506D01*
X52010500Y-70795487D01*
X52018973Y-70848983D01*
X52020500Y-70868381D01*
X52020500Y-71363500D01*
X52000815Y-71430539D01*
X51948011Y-71476294D01*
X51896501Y-71487500D01*
X51782482Y-71487500D01*
X51688695Y-71502354D01*
X51678088Y-71507759D01*
X51609418Y-71520653D01*
X51544679Y-71494374D01*
X51504424Y-71437266D01*
X51501434Y-71367460D01*
X51514409Y-71335274D01*
X51577392Y-71226186D01*
X51606797Y-71116443D01*
X51638887Y-71060860D01*
X51684528Y-71015220D01*
X51745719Y-70895126D01*
X51745720Y-70895121D01*
X51761500Y-70795493D01*
X51761500Y-70228506D01*
X51745720Y-70128878D01*
X51745719Y-70128876D01*
X51745719Y-70128874D01*
X51684528Y-70008780D01*
X51684526Y-70008778D01*
X51684523Y-70008774D01*
X51647819Y-69972070D01*
X51614334Y-69910747D01*
X51611500Y-69884389D01*
X51611500Y-69106051D01*
X51625015Y-69049756D01*
X51625496Y-69048812D01*
X51646646Y-69007304D01*
X51646646Y-69007302D01*
X51646647Y-69007301D01*
X51661499Y-68913524D01*
X51661500Y-68913519D01*
X51661499Y-68300482D01*
X51646646Y-68206696D01*
X51589050Y-68093658D01*
X51589046Y-68093654D01*
X51589045Y-68093652D01*
X51499347Y-68003954D01*
X51499344Y-68003952D01*
X51499342Y-68003950D01*
X51422517Y-67964805D01*
X51386301Y-67946352D01*
X51292524Y-67931500D01*
X50829482Y-67931500D01*
X50748519Y-67944323D01*
X50735696Y-67946354D01*
X50622658Y-68003950D01*
X50622657Y-68003951D01*
X50622652Y-68003954D01*
X50532954Y-68093652D01*
X50532951Y-68093657D01*
X50475352Y-68206698D01*
X50460500Y-68300475D01*
X50460500Y-68913517D01*
X50463853Y-68934686D01*
X50475354Y-69007304D01*
X50532950Y-69120342D01*
X50532952Y-69120344D01*
X50532953Y-69120346D01*
X50574180Y-69161572D01*
X50607666Y-69222895D01*
X50610500Y-69249254D01*
X50610500Y-69884389D01*
X50590815Y-69951428D01*
X50574181Y-69972070D01*
X50537476Y-70008774D01*
X50537473Y-70008778D01*
X50476279Y-70128878D01*
X50460500Y-70228506D01*
X50460500Y-70795494D01*
X50475253Y-70888645D01*
X50466298Y-70957938D01*
X50440461Y-70995723D01*
X50316587Y-71119597D01*
X50255264Y-71153082D01*
X50185572Y-71148098D01*
X50129639Y-71106226D01*
X50105222Y-71040762D01*
X50118421Y-70975622D01*
X50148646Y-70916304D01*
X50148646Y-70916302D01*
X50148647Y-70916301D01*
X50163499Y-70822524D01*
X50163500Y-70822519D01*
X50163499Y-70359482D01*
X50148646Y-70265696D01*
X50091050Y-70152658D01*
X50091046Y-70152654D01*
X50091045Y-70152652D01*
X50001347Y-70062954D01*
X50001344Y-70062952D01*
X50001342Y-70062950D01*
X49913145Y-70018011D01*
X49888301Y-70005352D01*
X49794524Y-69990500D01*
X49181482Y-69990500D01*
X49100519Y-70003323D01*
X49087696Y-70005354D01*
X48974658Y-70062950D01*
X48974657Y-70062950D01*
X48974653Y-70062953D01*
X48969329Y-70066821D01*
X48903522Y-70090298D01*
X48896448Y-70090500D01*
X48609499Y-70090500D01*
X48542460Y-70070815D01*
X48496705Y-70018011D01*
X48485499Y-69966500D01*
X48485499Y-69951482D01*
X48481928Y-69928934D01*
X48470646Y-69857696D01*
X48413050Y-69744658D01*
X48413047Y-69744655D01*
X48413046Y-69744653D01*
X48409179Y-69739329D01*
X48385702Y-69673522D01*
X48385500Y-69666448D01*
X48385500Y-68858110D01*
X48385500Y-68858108D01*
X48351392Y-68730814D01*
X48285500Y-68616686D01*
X48192314Y-68523500D01*
X47875314Y-68206500D01*
X47818250Y-68173554D01*
X47761187Y-68140608D01*
X47697539Y-68123554D01*
X47633892Y-68106500D01*
X45855893Y-68106500D01*
X45724108Y-68106500D01*
X45596812Y-68140608D01*
X45482686Y-68206500D01*
X45482683Y-68206502D01*
X44754502Y-68934683D01*
X44754500Y-68934686D01*
X44688608Y-69048812D01*
X44654500Y-69176108D01*
X44654500Y-71098891D01*
X44688608Y-71226187D01*
X44689482Y-71227700D01*
X44754500Y-71340314D01*
X44754502Y-71340316D01*
X45486181Y-72071995D01*
X45519666Y-72133318D01*
X45522500Y-72159676D01*
X45522500Y-72334493D01*
X45538279Y-72434121D01*
X45538280Y-72434124D01*
X45538281Y-72434126D01*
X45599472Y-72554220D01*
X45599473Y-72554221D01*
X45599475Y-72554224D01*
X45636180Y-72590928D01*
X45669666Y-72652251D01*
X45672500Y-72678610D01*
X45672500Y-72865891D01*
X45681275Y-72898640D01*
X45685500Y-72930733D01*
X45685500Y-73000892D01*
X45701069Y-73058995D01*
X45719608Y-73128187D01*
X45752554Y-73185250D01*
X45785500Y-73242314D01*
X45785502Y-73242316D01*
X45892658Y-73349472D01*
X45926143Y-73410795D01*
X45921159Y-73480487D01*
X45918412Y-73487238D01*
X45892318Y-73546335D01*
X45892318Y-73546337D01*
X45889500Y-73570625D01*
X45889500Y-74077365D01*
X45889502Y-74077388D01*
X45892317Y-74101659D01*
X45892318Y-74101662D01*
X45936186Y-74201015D01*
X45936187Y-74201016D01*
X46012984Y-74277813D01*
X46112338Y-74321682D01*
X46136627Y-74324500D01*
X46994665Y-74324499D01*
X46994675Y-74324500D01*
X47009108Y-74324500D01*
X47165556Y-74324500D01*
X47165560Y-74324499D01*
X47935500Y-74324499D01*
X48002539Y-74344184D01*
X48048294Y-74396988D01*
X48059500Y-74448499D01*
X48059500Y-74469500D01*
X48039815Y-74536539D01*
X47987011Y-74582294D01*
X47935500Y-74593500D01*
X44620828Y-74593500D01*
X44553789Y-74573815D01*
X44533147Y-74557181D01*
X44532735Y-74556769D01*
X44532732Y-74556767D01*
X44532730Y-74556765D01*
X44455905Y-74517620D01*
X44419689Y-74499167D01*
X44325912Y-74484315D01*
X43712870Y-74484315D01*
X43631907Y-74497138D01*
X43619084Y-74499169D01*
X43506046Y-74556765D01*
X43506045Y-74556766D01*
X43506040Y-74556769D01*
X43416342Y-74646467D01*
X43416339Y-74646472D01*
X43358740Y-74759513D01*
X43343888Y-74853290D01*
X43343888Y-75316332D01*
X43352652Y-75371663D01*
X43358742Y-75410119D01*
X43416338Y-75523157D01*
X43416340Y-75523159D01*
X43416342Y-75523162D01*
X43506040Y-75612860D01*
X43506042Y-75612861D01*
X43506046Y-75612865D01*
X43612270Y-75666989D01*
X43619086Y-75670462D01*
X43712863Y-75685314D01*
X43712869Y-75685315D01*
X44325906Y-75685314D01*
X44419692Y-75670461D01*
X44532730Y-75612865D01*
X44532731Y-75612863D01*
X44541425Y-75608434D01*
X44543162Y-75611844D01*
X44591248Y-75594701D01*
X44598297Y-75594500D01*
X45614194Y-75594500D01*
X45681233Y-75614185D01*
X45726988Y-75666989D01*
X45736932Y-75736147D01*
X45712569Y-75793987D01*
X45664636Y-75856452D01*
X45664633Y-75856458D01*
X45605187Y-75999975D01*
X45605186Y-75999979D01*
X45590174Y-76114000D01*
X48559825Y-76114000D01*
X48544813Y-75999979D01*
X48544812Y-75999975D01*
X48485366Y-75856458D01*
X48485363Y-75856452D01*
X48392770Y-75735784D01*
X48367575Y-75670615D01*
X48381613Y-75602170D01*
X48429145Y-75552910D01*
X48439324Y-75547033D01*
X48530314Y-75494500D01*
X48960500Y-75064314D01*
X49026392Y-74950186D01*
X49060500Y-74822892D01*
X49060500Y-74691108D01*
X49060500Y-72965499D01*
X49080185Y-72898460D01*
X49132989Y-72852705D01*
X49184495Y-72841499D01*
X49329323Y-72841499D01*
X49396362Y-72861184D01*
X49417004Y-72877818D01*
X49698181Y-73158995D01*
X49731666Y-73220318D01*
X49734500Y-73246676D01*
X49734500Y-74354890D01*
X49768608Y-74482186D01*
X49799782Y-74536180D01*
X49834500Y-74596313D01*
X50732687Y-75494499D01*
X50734312Y-75495437D01*
X50736093Y-75496466D01*
X50738388Y-75498873D01*
X50739136Y-75499447D01*
X50739046Y-75499563D01*
X50784308Y-75547033D01*
X50797530Y-75615640D01*
X50771562Y-75680505D01*
X50749580Y-75702226D01*
X50709210Y-75733204D01*
X50614633Y-75856457D01*
X50614633Y-75856458D01*
X50555187Y-75999975D01*
X50555186Y-75999979D01*
X50540174Y-76114000D01*
X52151000Y-76114000D01*
X52218039Y-76133685D01*
X52263794Y-76186489D01*
X52275000Y-76238000D01*
X52275000Y-76490000D01*
X52255315Y-76557039D01*
X52202511Y-76602794D01*
X52151000Y-76614000D01*
X50540175Y-76614000D01*
X50555186Y-76728020D01*
X50555187Y-76728024D01*
X50614633Y-76871541D01*
X50614633Y-76871542D01*
X50709207Y-76994792D01*
X50832460Y-77089368D01*
X50837860Y-77092486D01*
X50886073Y-77143055D01*
X50899293Y-77211663D01*
X50889290Y-77249956D01*
X50842318Y-77356337D01*
X50839500Y-77380625D01*
X50839500Y-77887365D01*
X50839502Y-77887388D01*
X50842316Y-77911658D01*
X50889290Y-78018043D01*
X50898361Y-78087322D01*
X50868537Y-78150506D01*
X50837866Y-78175510D01*
X50832461Y-78178631D01*
X50709207Y-78273207D01*
X50614633Y-78396457D01*
X50614633Y-78396458D01*
X50555187Y-78539975D01*
X50555186Y-78539979D01*
X50540174Y-78654000D01*
X53509825Y-78654000D01*
X53494813Y-78539979D01*
X53494812Y-78539975D01*
X53435365Y-78396456D01*
X53434818Y-78395508D01*
X53434598Y-78394605D01*
X53432254Y-78388944D01*
X53433136Y-78388578D01*
X53418340Y-78327609D01*
X53441187Y-78261581D01*
X53496105Y-78218386D01*
X53542200Y-78209500D01*
X53881764Y-78209500D01*
X53881766Y-78209500D01*
X54028135Y-78170281D01*
X54041417Y-78162612D01*
X54103416Y-78146000D01*
X55114280Y-78146000D01*
X55181319Y-78165685D01*
X55227074Y-78218489D01*
X55238280Y-78270000D01*
X55238280Y-78522000D01*
X55218595Y-78589039D01*
X55165791Y-78634794D01*
X55114280Y-78646000D01*
X54038281Y-78646000D01*
X54038281Y-78694322D01*
X54048424Y-78793607D01*
X54101732Y-78954481D01*
X54101737Y-78954492D01*
X54190704Y-79098728D01*
X54190707Y-79098732D01*
X54310547Y-79218572D01*
X54310551Y-79218575D01*
X54395482Y-79270962D01*
X54442207Y-79322910D01*
X54453428Y-79391873D01*
X54425585Y-79455954D01*
X54367516Y-79494810D01*
X54330385Y-79500500D01*
X53865482Y-79500500D01*
X53784519Y-79513323D01*
X53771696Y-79515354D01*
X53658658Y-79572950D01*
X53658657Y-79572951D01*
X53658656Y-79572951D01*
X53639787Y-79591821D01*
X53594425Y-79637182D01*
X53533105Y-79670666D01*
X53506746Y-79673500D01*
X53485806Y-79673500D01*
X53418767Y-79653815D01*
X53373012Y-79601011D01*
X53363068Y-79531853D01*
X53387431Y-79474013D01*
X53435363Y-79411547D01*
X53435366Y-79411541D01*
X53494812Y-79268024D01*
X53494813Y-79268020D01*
X53509825Y-79154000D01*
X50540175Y-79154000D01*
X50555186Y-79268020D01*
X50555187Y-79268024D01*
X50614633Y-79411541D01*
X50614633Y-79411542D01*
X50709208Y-79534794D01*
X50804228Y-79607705D01*
X50845431Y-79664133D01*
X50849586Y-79733879D01*
X50816423Y-79793762D01*
X48517005Y-82093181D01*
X48455682Y-82126666D01*
X48429324Y-82129500D01*
X48199228Y-82129500D01*
X48132189Y-82109815D01*
X48086434Y-82057011D01*
X48076490Y-81987853D01*
X48105515Y-81924297D01*
X48129151Y-81903201D01*
X48137013Y-81897814D01*
X48137016Y-81897813D01*
X48213813Y-81821016D01*
X48257682Y-81721662D01*
X48260500Y-81697373D01*
X48260499Y-81190628D01*
X48257682Y-81166338D01*
X48213813Y-81066984D01*
X48137016Y-80990187D01*
X48037663Y-80946318D01*
X48013374Y-80943500D01*
X48013373Y-80943500D01*
X47140893Y-80943500D01*
X47140892Y-80943500D01*
X46002893Y-80943500D01*
X45871108Y-80943500D01*
X45743812Y-80977608D01*
X45629686Y-81043500D01*
X45496950Y-81176236D01*
X45435627Y-81209720D01*
X45365935Y-81204736D01*
X45352973Y-81199038D01*
X45350280Y-81197666D01*
X45336466Y-81190627D01*
X45316303Y-81180353D01*
X45316301Y-81180352D01*
X45222524Y-81165500D01*
X44609482Y-81165500D01*
X44515694Y-81180354D01*
X44473243Y-81201985D01*
X44416948Y-81215500D01*
X43892610Y-81215500D01*
X43825571Y-81195815D01*
X43804928Y-81179180D01*
X43768224Y-81142475D01*
X43768221Y-81142473D01*
X43768220Y-81142472D01*
X43648126Y-81081281D01*
X43648124Y-81081280D01*
X43648121Y-81081279D01*
X43548493Y-81065500D01*
X43548488Y-81065500D01*
X42981512Y-81065500D01*
X42981507Y-81065500D01*
X42881878Y-81081279D01*
X42761778Y-81142473D01*
X42761775Y-81142475D01*
X42725072Y-81179180D01*
X42663749Y-81212666D01*
X42637390Y-81215500D01*
X42401499Y-81215500D01*
X42334460Y-81195815D01*
X42288705Y-81143011D01*
X42277499Y-81091500D01*
X42277499Y-81015482D01*
X42273493Y-80990187D01*
X42262646Y-80921696D01*
X42205050Y-80808658D01*
X42205046Y-80808654D01*
X42205045Y-80808652D01*
X42115347Y-80718954D01*
X42115344Y-80718952D01*
X42115342Y-80718950D01*
X42038517Y-80679805D01*
X42002301Y-80661352D01*
X41908524Y-80646500D01*
X41445482Y-80646500D01*
X41364519Y-80659323D01*
X41351696Y-80661354D01*
X41238658Y-80718950D01*
X41238657Y-80718951D01*
X41238652Y-80718954D01*
X41148954Y-80808652D01*
X41148951Y-80808657D01*
X41148950Y-80808658D01*
X41129751Y-80846337D01*
X41091352Y-80921698D01*
X41076500Y-81015475D01*
X41076500Y-81628517D01*
X41079492Y-81647405D01*
X41091354Y-81722304D01*
X41148950Y-81835342D01*
X41148952Y-81835344D01*
X41148954Y-81835347D01*
X41231426Y-81917819D01*
X41264911Y-81979142D01*
X41259927Y-82048834D01*
X41218055Y-82104767D01*
X41152591Y-82129184D01*
X41143745Y-82129500D01*
X41085676Y-82129500D01*
X41018637Y-82109815D01*
X40997995Y-82093181D01*
X40659300Y-81754486D01*
X40625815Y-81693163D01*
X40624508Y-81647408D01*
X40627500Y-81628519D01*
X40627499Y-81015482D01*
X40612646Y-80921696D01*
X40555050Y-80808658D01*
X40555046Y-80808654D01*
X40555045Y-80808652D01*
X40465347Y-80718954D01*
X40465344Y-80718952D01*
X40465342Y-80718950D01*
X40388517Y-80679805D01*
X40352301Y-80661352D01*
X40258524Y-80646500D01*
X39795482Y-80646500D01*
X39714519Y-80659323D01*
X39701696Y-80661354D01*
X39588658Y-80718950D01*
X39588657Y-80718951D01*
X39588652Y-80718954D01*
X39498954Y-80808652D01*
X39498951Y-80808657D01*
X39498950Y-80808658D01*
X39479751Y-80846337D01*
X39441352Y-80921698D01*
X39426500Y-81015475D01*
X39426500Y-81628517D01*
X39429492Y-81647405D01*
X39441354Y-81722304D01*
X39457752Y-81754486D01*
X39498949Y-81835340D01*
X39504352Y-81842776D01*
X39522602Y-81888522D01*
X39524397Y-81888042D01*
X39526500Y-81895890D01*
X39526500Y-81895892D01*
X39534111Y-81924297D01*
X39560608Y-82023187D01*
X39575416Y-82048834D01*
X39626500Y-82137314D01*
X40426500Y-82937314D01*
X40519686Y-83030500D01*
X40633814Y-83096392D01*
X40761108Y-83130500D01*
X40761110Y-83130500D01*
X48753890Y-83130500D01*
X48753892Y-83130500D01*
X48881186Y-83096392D01*
X48995314Y-83030500D01*
X50627821Y-81397991D01*
X50689142Y-81364508D01*
X50758833Y-81369492D01*
X50814767Y-81411364D01*
X50839184Y-81476828D01*
X50839500Y-81485673D01*
X50839500Y-81697365D01*
X50839502Y-81697388D01*
X50842317Y-81721659D01*
X50842318Y-81721662D01*
X50886186Y-81821015D01*
X50886187Y-81821016D01*
X50962984Y-81897813D01*
X51062338Y-81941682D01*
X51086627Y-81944500D01*
X52780323Y-81944499D01*
X52847362Y-81964184D01*
X52868004Y-81980818D01*
X53038686Y-82151500D01*
X53152814Y-82217392D01*
X53280108Y-82251500D01*
X53411893Y-82251500D01*
X53580448Y-82251500D01*
X53647487Y-82271185D01*
X53653329Y-82275179D01*
X53658653Y-82279046D01*
X53658655Y-82279047D01*
X53658658Y-82279050D01*
X53769877Y-82335719D01*
X53771698Y-82336647D01*
X53865475Y-82351499D01*
X53865481Y-82351500D01*
X54478518Y-82351499D01*
X54572304Y-82336646D01*
X54685342Y-82279050D01*
X54685347Y-82279045D01*
X54690671Y-82275179D01*
X54756478Y-82251702D01*
X54763552Y-82251500D01*
X55063889Y-82251500D01*
X55063892Y-82251500D01*
X55178395Y-82220819D01*
X55248240Y-82222482D01*
X55298164Y-82252912D01*
X55319780Y-82274528D01*
X55439874Y-82335719D01*
X55439876Y-82335719D01*
X55439878Y-82335720D01*
X55539507Y-82351500D01*
X55539512Y-82351500D01*
X56106493Y-82351500D01*
X56206121Y-82335720D01*
X56206121Y-82335719D01*
X56206126Y-82335719D01*
X56326220Y-82274528D01*
X56362928Y-82237820D01*
X56424251Y-82204334D01*
X56450610Y-82201500D01*
X56831746Y-82201500D01*
X56898785Y-82221185D01*
X56919428Y-82237820D01*
X56960653Y-82279046D01*
X56960655Y-82279047D01*
X56960658Y-82279050D01*
X57071877Y-82335719D01*
X57073698Y-82336647D01*
X57167475Y-82351499D01*
X57167481Y-82351500D01*
X57780518Y-82351499D01*
X57874304Y-82336646D01*
X57987342Y-82279050D01*
X58077050Y-82189342D01*
X58134646Y-82076304D01*
X58134646Y-82076302D01*
X58134647Y-82076301D01*
X58149499Y-81982524D01*
X58149500Y-81982519D01*
X58149499Y-81519482D01*
X58134646Y-81425696D01*
X58077050Y-81312658D01*
X58077046Y-81312654D01*
X58077045Y-81312652D01*
X57987347Y-81222954D01*
X57987344Y-81222952D01*
X57987342Y-81222950D01*
X57895661Y-81176236D01*
X57874301Y-81165352D01*
X57780524Y-81150500D01*
X57167482Y-81150500D01*
X57073694Y-81165354D01*
X57043352Y-81180815D01*
X57033673Y-81185747D01*
X57031243Y-81186985D01*
X56974948Y-81200500D01*
X56450610Y-81200500D01*
X56383571Y-81180815D01*
X56362928Y-81164180D01*
X56326224Y-81127475D01*
X56326221Y-81127473D01*
X56326220Y-81127472D01*
X56206126Y-81066281D01*
X56206124Y-81066280D01*
X56206121Y-81066279D01*
X56106493Y-81050500D01*
X56106488Y-81050500D01*
X55539512Y-81050500D01*
X55539507Y-81050500D01*
X55439878Y-81066279D01*
X55319778Y-81127473D01*
X55319775Y-81127475D01*
X55283072Y-81164180D01*
X55221749Y-81197666D01*
X55195390Y-81200500D01*
X55008108Y-81200500D01*
X54880814Y-81234608D01*
X54873304Y-81237719D01*
X54872750Y-81236381D01*
X54820063Y-81250500D01*
X54763552Y-81250500D01*
X54696513Y-81230815D01*
X54690671Y-81226821D01*
X54685346Y-81222953D01*
X54685343Y-81222951D01*
X54685342Y-81222950D01*
X54593661Y-81176236D01*
X54572301Y-81165352D01*
X54478524Y-81150500D01*
X53865482Y-81150500D01*
X53784519Y-81163323D01*
X53771696Y-81165354D01*
X53658658Y-81222950D01*
X53658656Y-81222951D01*
X53650893Y-81226907D01*
X53582224Y-81239803D01*
X53517483Y-81213527D01*
X53506917Y-81204103D01*
X53346316Y-81043502D01*
X53346314Y-81043500D01*
X53289250Y-81010554D01*
X53232187Y-80977608D01*
X53168539Y-80960554D01*
X53104892Y-80943500D01*
X52973108Y-80943500D01*
X51381674Y-80943500D01*
X51314635Y-80923815D01*
X51268880Y-80871011D01*
X51258936Y-80801853D01*
X51287961Y-80738297D01*
X51293972Y-80731840D01*
X51314999Y-80710815D01*
X51376324Y-80677333D01*
X51402676Y-80674500D01*
X51959108Y-80674500D01*
X53718089Y-80674500D01*
X53761964Y-80685032D01*
X53762420Y-80683632D01*
X53771694Y-80686645D01*
X53771696Y-80686646D01*
X53865481Y-80701500D01*
X54478518Y-80701499D01*
X54572304Y-80686646D01*
X54685342Y-80629050D01*
X54685347Y-80629045D01*
X54690671Y-80625179D01*
X54756478Y-80601702D01*
X54763552Y-80601500D01*
X55145389Y-80601500D01*
X55212428Y-80621185D01*
X55233070Y-80637819D01*
X55319774Y-80724523D01*
X55319778Y-80724526D01*
X55319780Y-80724528D01*
X55439874Y-80785719D01*
X55439876Y-80785719D01*
X55439878Y-80785720D01*
X55539507Y-80801500D01*
X55539512Y-80801500D01*
X56106493Y-80801500D01*
X56206121Y-80785720D01*
X56206121Y-80785719D01*
X56206126Y-80785719D01*
X56326220Y-80724528D01*
X56421528Y-80629220D01*
X56482719Y-80509126D01*
X56482720Y-80509121D01*
X56498500Y-80409493D01*
X56498500Y-79892506D01*
X56482720Y-79792878D01*
X56482719Y-79792876D01*
X56482719Y-79792874D01*
X56421528Y-79672780D01*
X56421526Y-79672778D01*
X56421523Y-79672774D01*
X56326225Y-79577476D01*
X56326221Y-79577473D01*
X56326220Y-79577472D01*
X56206126Y-79516281D01*
X56206124Y-79516280D01*
X56206121Y-79516279D01*
X56106493Y-79500500D01*
X56106488Y-79500500D01*
X55646175Y-79500500D01*
X55579136Y-79480815D01*
X55533381Y-79428011D01*
X55523437Y-79358853D01*
X55552462Y-79295297D01*
X55581078Y-79270962D01*
X55666008Y-79218575D01*
X55666012Y-79218572D01*
X55785853Y-79098731D01*
X55847886Y-78998160D01*
X55899834Y-78951435D01*
X55968796Y-78940212D01*
X56032879Y-78968056D01*
X56041106Y-78975575D01*
X56060054Y-78994523D01*
X56060058Y-78994526D01*
X56060060Y-78994528D01*
X56180154Y-79055719D01*
X56180156Y-79055719D01*
X56180158Y-79055720D01*
X56279787Y-79071500D01*
X56279792Y-79071500D01*
X56796773Y-79071500D01*
X56867938Y-79060227D01*
X56896406Y-79055719D01*
X56896409Y-79055717D01*
X56905682Y-79052705D01*
X56906386Y-79054873D01*
X56961872Y-79044453D01*
X57026613Y-79070728D01*
X57066871Y-79127833D01*
X57073500Y-79167834D01*
X57073500Y-79439466D01*
X57053815Y-79506505D01*
X57005796Y-79549950D01*
X56960656Y-79572950D01*
X56870954Y-79662652D01*
X56870951Y-79662657D01*
X56870950Y-79662658D01*
X56869502Y-79665500D01*
X56813352Y-79775698D01*
X56798500Y-79869475D01*
X56798500Y-80332517D01*
X56800715Y-80346499D01*
X56813354Y-80426304D01*
X56870950Y-80539342D01*
X56870952Y-80539344D01*
X56870954Y-80539347D01*
X56960652Y-80629045D01*
X56960654Y-80629046D01*
X56960658Y-80629050D01*
X57060682Y-80680015D01*
X57073698Y-80686647D01*
X57167475Y-80701499D01*
X57167481Y-80701500D01*
X57780518Y-80701499D01*
X57874304Y-80686646D01*
X57987342Y-80629050D01*
X58077050Y-80539342D01*
X58134646Y-80426304D01*
X58134646Y-80426302D01*
X58134647Y-80426301D01*
X58149499Y-80332524D01*
X58149500Y-80332519D01*
X58149499Y-79869482D01*
X58134646Y-79775696D01*
X58077050Y-79662658D01*
X58077046Y-79662654D01*
X58077045Y-79662652D01*
X57987343Y-79572950D01*
X57942204Y-79549950D01*
X57891409Y-79501975D01*
X57874500Y-79439466D01*
X57874500Y-78084025D01*
X57894185Y-78016986D01*
X57910819Y-77996344D01*
X58462319Y-77444844D01*
X58523642Y-77411359D01*
X58593334Y-77416343D01*
X58649267Y-77458215D01*
X58673684Y-77523679D01*
X58674000Y-77532525D01*
X58674000Y-83311000D01*
X58654315Y-83378039D01*
X58601511Y-83423794D01*
X58550000Y-83435000D01*
X38892000Y-83435000D01*
X38824961Y-83415315D01*
X38779206Y-83362511D01*
X38768000Y-83311000D01*
X38768000Y-79364475D01*
X39426500Y-79364475D01*
X39426500Y-79977517D01*
X39437292Y-80045657D01*
X39441354Y-80071304D01*
X39498950Y-80184342D01*
X39498952Y-80184344D01*
X39498954Y-80184347D01*
X39588652Y-80274045D01*
X39588654Y-80274046D01*
X39588658Y-80274050D01*
X39701694Y-80331645D01*
X39701698Y-80331647D01*
X39795475Y-80346499D01*
X39795481Y-80346500D01*
X40258518Y-80346499D01*
X40352304Y-80331646D01*
X40465342Y-80274050D01*
X40555050Y-80184342D01*
X40612646Y-80071304D01*
X40612646Y-80071302D01*
X40612647Y-80071301D01*
X40627499Y-79977524D01*
X40627500Y-79977519D01*
X40627499Y-79364482D01*
X40627498Y-79364475D01*
X41076500Y-79364475D01*
X41076500Y-79977517D01*
X41087292Y-80045657D01*
X41091354Y-80071304D01*
X41148950Y-80184342D01*
X41148952Y-80184344D01*
X41148954Y-80184347D01*
X41238652Y-80274045D01*
X41238654Y-80274046D01*
X41238658Y-80274050D01*
X41351694Y-80331645D01*
X41351698Y-80331647D01*
X41445475Y-80346499D01*
X41445481Y-80346500D01*
X41908518Y-80346499D01*
X42002304Y-80331646D01*
X42115342Y-80274050D01*
X42181574Y-80207817D01*
X42242895Y-80174334D01*
X42269254Y-80171500D01*
X42465500Y-80171500D01*
X42532539Y-80191185D01*
X42578294Y-80243989D01*
X42589500Y-80295500D01*
X42589500Y-80424493D01*
X42605279Y-80524121D01*
X42605280Y-80524124D01*
X42605281Y-80524126D01*
X42666472Y-80644220D01*
X42666473Y-80644221D01*
X42666476Y-80644225D01*
X42761774Y-80739523D01*
X42761778Y-80739526D01*
X42761780Y-80739528D01*
X42881874Y-80800719D01*
X42881876Y-80800719D01*
X42881878Y-80800720D01*
X42981507Y-80816500D01*
X42981512Y-80816500D01*
X43548493Y-80816500D01*
X43648121Y-80800720D01*
X43648121Y-80800719D01*
X43648126Y-80800719D01*
X43768220Y-80739528D01*
X43804928Y-80702820D01*
X43866251Y-80669334D01*
X43892610Y-80666500D01*
X44416948Y-80666500D01*
X44473242Y-80680015D01*
X44513591Y-80700573D01*
X44515407Y-80701499D01*
X44515698Y-80701647D01*
X44609475Y-80716499D01*
X44609481Y-80716500D01*
X45222518Y-80716499D01*
X45316304Y-80701646D01*
X45429342Y-80644050D01*
X45429346Y-80644046D01*
X45434671Y-80640179D01*
X45500478Y-80616702D01*
X45507552Y-80616500D01*
X45961206Y-80616500D01*
X46011293Y-80627066D01*
X46012983Y-80627812D01*
X46012984Y-80627813D01*
X46112338Y-80671682D01*
X46136627Y-80674500D01*
X48013372Y-80674499D01*
X48037662Y-80671682D01*
X48137016Y-80627813D01*
X48213813Y-80551016D01*
X48257682Y-80451662D01*
X48260500Y-80427373D01*
X48260499Y-79920628D01*
X48257682Y-79896338D01*
X48213813Y-79796984D01*
X48210710Y-79789956D01*
X48201638Y-79720678D01*
X48231462Y-79657493D01*
X48262143Y-79632484D01*
X48267539Y-79629368D01*
X48390792Y-79534792D01*
X48485366Y-79411542D01*
X48485366Y-79411541D01*
X48544812Y-79268024D01*
X48544813Y-79268020D01*
X48559825Y-79154000D01*
X45590175Y-79154000D01*
X45605186Y-79268020D01*
X45605187Y-79268024D01*
X45664633Y-79411541D01*
X45664638Y-79411550D01*
X45668065Y-79416016D01*
X45693258Y-79481185D01*
X45679218Y-79549630D01*
X45630403Y-79599619D01*
X45569688Y-79615500D01*
X45507552Y-79615500D01*
X45440513Y-79595815D01*
X45434671Y-79591821D01*
X45429346Y-79587953D01*
X45429343Y-79587951D01*
X45429342Y-79587950D01*
X45353481Y-79549297D01*
X45316301Y-79530352D01*
X45222524Y-79515500D01*
X44609482Y-79515500D01*
X44528519Y-79528323D01*
X44515696Y-79530354D01*
X44402658Y-79587950D01*
X44402657Y-79587951D01*
X44402653Y-79587953D01*
X44361428Y-79629180D01*
X44300105Y-79662666D01*
X44273746Y-79665500D01*
X43892610Y-79665500D01*
X43825571Y-79645815D01*
X43804928Y-79629180D01*
X43768224Y-79592475D01*
X43768221Y-79592473D01*
X43768220Y-79592472D01*
X43648126Y-79531281D01*
X43648124Y-79531280D01*
X43648121Y-79531279D01*
X43548493Y-79515500D01*
X43548488Y-79515500D01*
X43373676Y-79515500D01*
X43306637Y-79495815D01*
X43285995Y-79479181D01*
X43077316Y-79270502D01*
X43077314Y-79270500D01*
X43020250Y-79237554D01*
X42963187Y-79204608D01*
X42899539Y-79187554D01*
X42835892Y-79170500D01*
X42835891Y-79170500D01*
X42269254Y-79170500D01*
X42202215Y-79150815D01*
X42181577Y-79134185D01*
X42115342Y-79067950D01*
X42057702Y-79038580D01*
X42002301Y-79010352D01*
X41908524Y-78995500D01*
X41445482Y-78995500D01*
X41364519Y-79008323D01*
X41351696Y-79010354D01*
X41238658Y-79067950D01*
X41238657Y-79067951D01*
X41238652Y-79067954D01*
X41148954Y-79157652D01*
X41148951Y-79157657D01*
X41091352Y-79270698D01*
X41076500Y-79364475D01*
X40627498Y-79364475D01*
X40612646Y-79270696D01*
X40555050Y-79157658D01*
X40555047Y-79157655D01*
X40555046Y-79157653D01*
X40551179Y-79152329D01*
X40527702Y-79086522D01*
X40527500Y-79079448D01*
X40527500Y-78659975D01*
X40547185Y-78592936D01*
X40599989Y-78547181D01*
X40669147Y-78537237D01*
X40692368Y-78544156D01*
X40692661Y-78543275D01*
X40860393Y-78598855D01*
X40959683Y-78608999D01*
X40983000Y-78608998D01*
X40983000Y-76659000D01*
X41483000Y-76659000D01*
X41483000Y-78608999D01*
X41506308Y-78608999D01*
X41506322Y-78608998D01*
X41605607Y-78598855D01*
X41766481Y-78545547D01*
X41766492Y-78545542D01*
X41910728Y-78456575D01*
X41910732Y-78456572D01*
X42030573Y-78336731D01*
X42092606Y-78236160D01*
X42144554Y-78189435D01*
X42213516Y-78178212D01*
X42277599Y-78206056D01*
X42285826Y-78213575D01*
X42304774Y-78232523D01*
X42304778Y-78232526D01*
X42304780Y-78232528D01*
X42424874Y-78293719D01*
X42424876Y-78293719D01*
X42424878Y-78293720D01*
X42524507Y-78309500D01*
X42524512Y-78309500D01*
X43041493Y-78309500D01*
X43141121Y-78293720D01*
X43141121Y-78293719D01*
X43141126Y-78293719D01*
X43261220Y-78232528D01*
X43261221Y-78232526D01*
X43269915Y-78228097D01*
X43270631Y-78229502D01*
X43326128Y-78209702D01*
X43333205Y-78209500D01*
X43949532Y-78209500D01*
X43989263Y-78217402D01*
X43989387Y-78216940D01*
X43996442Y-78218830D01*
X43996981Y-78218937D01*
X43997238Y-78219044D01*
X44066003Y-78228097D01*
X44153999Y-78239682D01*
X44154000Y-78239682D01*
X44154001Y-78239682D01*
X44208340Y-78232528D01*
X44310762Y-78219044D01*
X44311018Y-78218937D01*
X44311557Y-78218830D01*
X44318613Y-78216940D01*
X44318736Y-78217402D01*
X44358468Y-78209500D01*
X45557800Y-78209500D01*
X45624839Y-78229185D01*
X45670594Y-78281989D01*
X45680538Y-78351147D01*
X45667490Y-78388838D01*
X45667746Y-78388944D01*
X45665969Y-78393232D01*
X45665182Y-78395508D01*
X45664634Y-78396456D01*
X45605187Y-78539975D01*
X45605186Y-78539979D01*
X45590174Y-78654000D01*
X48559825Y-78654000D01*
X48544813Y-78539979D01*
X48544812Y-78539975D01*
X48485366Y-78396458D01*
X48485366Y-78396457D01*
X48390792Y-78273207D01*
X48267541Y-78178633D01*
X48262136Y-78175512D01*
X48213924Y-78124941D01*
X48200706Y-78056333D01*
X48210710Y-78018042D01*
X48213811Y-78011017D01*
X48213813Y-78011016D01*
X48257682Y-77911662D01*
X48260500Y-77887373D01*
X48260499Y-77380628D01*
X48257682Y-77356338D01*
X48213813Y-77256984D01*
X48210710Y-77249956D01*
X48201638Y-77180678D01*
X48231462Y-77117493D01*
X48262143Y-77092484D01*
X48267539Y-77089368D01*
X48390792Y-76994792D01*
X48485366Y-76871542D01*
X48485366Y-76871541D01*
X48544812Y-76728024D01*
X48544813Y-76728020D01*
X48559825Y-76614000D01*
X45590175Y-76614000D01*
X45605186Y-76728020D01*
X45605187Y-76728024D01*
X45664634Y-76871543D01*
X45665182Y-76872492D01*
X45665401Y-76873394D01*
X45667746Y-76879056D01*
X45666863Y-76879421D01*
X45681660Y-76940391D01*
X45658813Y-77006419D01*
X45603895Y-77049614D01*
X45557800Y-77058500D01*
X44358468Y-77058500D01*
X44318736Y-77050597D01*
X44318613Y-77051060D01*
X44311557Y-77049169D01*
X44311018Y-77049062D01*
X44310762Y-77048956D01*
X44310760Y-77048955D01*
X44154001Y-77028318D01*
X44153999Y-77028318D01*
X43997239Y-77048955D01*
X43997238Y-77048956D01*
X43996981Y-77049062D01*
X43996442Y-77049169D01*
X43989387Y-77051060D01*
X43989263Y-77050597D01*
X43949532Y-77058500D01*
X43333205Y-77058500D01*
X43266166Y-77038815D01*
X43261444Y-77035587D01*
X43261221Y-77035473D01*
X43261220Y-77035472D01*
X43141126Y-76974281D01*
X43141124Y-76974280D01*
X43141121Y-76974279D01*
X43041493Y-76958500D01*
X43041488Y-76958500D01*
X42524512Y-76958500D01*
X42524507Y-76958500D01*
X42424878Y-76974279D01*
X42424874Y-76974280D01*
X42424874Y-76974281D01*
X42404302Y-76984763D01*
X42304778Y-77035473D01*
X42285825Y-77054426D01*
X42224501Y-77087910D01*
X42154809Y-77082924D01*
X42098876Y-77041052D01*
X42092606Y-77031840D01*
X42030571Y-76931266D01*
X41910732Y-76811427D01*
X41910728Y-76811424D01*
X41766492Y-76722457D01*
X41766481Y-76722452D01*
X41605606Y-76669144D01*
X41506322Y-76659000D01*
X41483000Y-76659000D01*
X40983000Y-76659000D01*
X40983000Y-76658999D01*
X40959693Y-76659000D01*
X40959674Y-76659001D01*
X40860392Y-76669144D01*
X40692661Y-76724725D01*
X40691839Y-76722246D01*
X40634789Y-76730893D01*
X40571014Y-76702353D01*
X40532792Y-76643864D01*
X40527500Y-76608024D01*
X40527500Y-75982050D01*
X40547185Y-75915011D01*
X40599989Y-75869256D01*
X40639346Y-75858647D01*
X40639997Y-75858582D01*
X40640000Y-75858583D01*
X40845934Y-75838300D01*
X41043954Y-75778232D01*
X41226450Y-75680685D01*
X41386410Y-75549410D01*
X41517685Y-75389450D01*
X41615232Y-75206954D01*
X41675300Y-75008934D01*
X41695583Y-74803000D01*
X41675300Y-74597066D01*
X41615232Y-74399046D01*
X41517685Y-74216550D01*
X41423401Y-74101664D01*
X41386408Y-74056587D01*
X41365857Y-74039722D01*
X41354521Y-74023082D01*
X41347014Y-74021449D01*
X41327777Y-74008471D01*
X41226452Y-73925317D01*
X41226453Y-73925317D01*
X41226450Y-73925315D01*
X41043954Y-73827768D01*
X40845934Y-73767700D01*
X40845932Y-73767699D01*
X40845934Y-73767699D01*
X40640000Y-73747417D01*
X40434067Y-73767699D01*
X40236043Y-73827769D01*
X40125898Y-73886643D01*
X40053550Y-73925315D01*
X40053548Y-73925316D01*
X40053547Y-73925317D01*
X39893589Y-74056589D01*
X39775064Y-74201015D01*
X39762315Y-74216550D01*
X39729569Y-74277813D01*
X39664769Y-74399043D01*
X39604699Y-74597067D01*
X39584417Y-74803000D01*
X39604699Y-75008932D01*
X39616441Y-75047639D01*
X39617064Y-75117506D01*
X39605167Y-75145634D01*
X39560609Y-75222810D01*
X39560609Y-75222811D01*
X39526500Y-75350108D01*
X39526500Y-79079448D01*
X39506815Y-79146487D01*
X39502821Y-79152329D01*
X39498953Y-79157653D01*
X39441352Y-79270698D01*
X39426500Y-79364475D01*
X38768000Y-79364475D01*
X38768000Y-72263000D01*
X39584417Y-72263000D01*
X39604699Y-72468932D01*
X39604877Y-72469518D01*
X39664768Y-72666954D01*
X39762315Y-72849450D01*
X39771945Y-72861184D01*
X39893589Y-73009410D01*
X39990209Y-73088702D01*
X40053550Y-73140685D01*
X40236046Y-73238232D01*
X40434066Y-73298300D01*
X40434065Y-73298300D01*
X40452529Y-73300118D01*
X40640000Y-73318583D01*
X40845934Y-73298300D01*
X40868069Y-73291584D01*
X40937936Y-73290959D01*
X40991749Y-73322563D01*
X41494122Y-73824936D01*
X41498145Y-73832304D01*
X41506520Y-73836481D01*
X41618625Y-73901205D01*
X41618626Y-73901205D01*
X41618629Y-73901207D01*
X41745923Y-73935315D01*
X41877708Y-73935315D01*
X43427836Y-73935315D01*
X43494875Y-73955000D01*
X43500717Y-73958994D01*
X43506041Y-73962861D01*
X43506043Y-73962862D01*
X43506046Y-73962865D01*
X43619082Y-74020460D01*
X43619086Y-74020462D01*
X43712863Y-74035314D01*
X43712869Y-74035315D01*
X44325906Y-74035314D01*
X44419692Y-74020461D01*
X44532730Y-73962865D01*
X44622438Y-73873157D01*
X44680034Y-73760119D01*
X44680034Y-73760117D01*
X44680035Y-73760116D01*
X44694887Y-73666339D01*
X44694888Y-73666334D01*
X44694887Y-73203297D01*
X44680034Y-73109511D01*
X44622438Y-72996473D01*
X44622434Y-72996469D01*
X44622433Y-72996467D01*
X44532735Y-72906769D01*
X44532732Y-72906767D01*
X44532730Y-72906765D01*
X44443273Y-72861184D01*
X44419689Y-72849167D01*
X44325912Y-72834315D01*
X43712870Y-72834315D01*
X43631907Y-72847138D01*
X43619084Y-72849169D01*
X43506046Y-72906765D01*
X43506045Y-72906765D01*
X43506041Y-72906768D01*
X43500717Y-72910636D01*
X43434910Y-72934113D01*
X43427836Y-72934315D01*
X42070491Y-72934315D01*
X42003452Y-72914630D01*
X41982810Y-72897996D01*
X41699563Y-72614749D01*
X41666078Y-72553426D01*
X41668585Y-72491069D01*
X41675300Y-72468934D01*
X41695583Y-72263000D01*
X41675300Y-72057066D01*
X41615232Y-71859046D01*
X41517685Y-71676550D01*
X41447607Y-71591159D01*
X41386410Y-71516589D01*
X41268677Y-71419969D01*
X41226450Y-71385315D01*
X41043954Y-71287768D01*
X40845934Y-71227700D01*
X40845932Y-71227699D01*
X40845934Y-71227699D01*
X40640000Y-71207417D01*
X40434067Y-71227699D01*
X40236043Y-71287769D01*
X40220321Y-71296173D01*
X40053550Y-71385315D01*
X40053548Y-71385316D01*
X40053547Y-71385317D01*
X39893589Y-71516589D01*
X39762317Y-71676547D01*
X39762315Y-71676550D01*
X39733244Y-71730938D01*
X39664769Y-71859043D01*
X39604699Y-72057067D01*
X39584417Y-72263000D01*
X38768000Y-72263000D01*
X38768000Y-69723000D01*
X39584417Y-69723000D01*
X39604699Y-69928932D01*
X39623376Y-69990501D01*
X39664768Y-70126954D01*
X39762315Y-70309450D01*
X39762317Y-70309452D01*
X39893589Y-70469410D01*
X39990209Y-70548702D01*
X40053550Y-70600685D01*
X40236046Y-70698232D01*
X40434066Y-70758300D01*
X40434065Y-70758300D01*
X40452529Y-70760118D01*
X40640000Y-70778583D01*
X40845934Y-70758300D01*
X41043954Y-70698232D01*
X41226450Y-70600685D01*
X41386410Y-70469410D01*
X41517685Y-70309450D01*
X41615232Y-70126954D01*
X41675300Y-69928934D01*
X41695583Y-69723000D01*
X41675300Y-69517066D01*
X41668583Y-69494926D01*
X41667959Y-69425060D01*
X41699561Y-69371251D01*
X42482995Y-68587819D01*
X42544318Y-68554334D01*
X42570676Y-68551500D01*
X43436825Y-68551500D01*
X43503864Y-68571185D01*
X43509708Y-68575180D01*
X43513656Y-68578048D01*
X43513658Y-68578050D01*
X43626694Y-68635645D01*
X43626698Y-68635647D01*
X43720475Y-68650499D01*
X43720481Y-68650500D01*
X44333518Y-68650499D01*
X44427304Y-68635646D01*
X44540342Y-68578050D01*
X44630050Y-68488342D01*
X44687646Y-68375304D01*
X44687646Y-68375302D01*
X44687647Y-68375301D01*
X44702499Y-68281524D01*
X44702500Y-68281519D01*
X44702499Y-67818482D01*
X44687646Y-67724696D01*
X44630050Y-67611658D01*
X44630046Y-67611654D01*
X44630045Y-67611652D01*
X44540347Y-67521954D01*
X44540344Y-67521952D01*
X44540342Y-67521950D01*
X44463517Y-67482805D01*
X44427301Y-67464352D01*
X44333524Y-67449500D01*
X43720482Y-67449500D01*
X43639519Y-67462323D01*
X43626696Y-67464354D01*
X43553744Y-67501525D01*
X43513656Y-67521951D01*
X43506955Y-67526820D01*
X43441148Y-67550298D01*
X43434072Y-67550500D01*
X42246107Y-67550500D01*
X42118812Y-67584608D01*
X42004686Y-67650500D01*
X42004683Y-67650502D01*
X41618065Y-68037120D01*
X41556742Y-68070605D01*
X41528239Y-68068566D01*
X41530394Y-68076703D01*
X41508922Y-68143192D01*
X41494119Y-68161065D01*
X40991749Y-68663435D01*
X40930426Y-68696920D01*
X40868077Y-68694416D01*
X40845934Y-68687699D01*
X40640000Y-68667417D01*
X40434067Y-68687699D01*
X40236043Y-68747769D01*
X40125898Y-68806643D01*
X40053550Y-68845315D01*
X40053548Y-68845316D01*
X40053547Y-68845317D01*
X39893589Y-68976589D01*
X39766612Y-69131314D01*
X39762315Y-69136550D01*
X39741171Y-69176108D01*
X39664769Y-69319043D01*
X39604699Y-69517067D01*
X39584417Y-69723000D01*
X38768000Y-69723000D01*
X38768000Y-66725896D01*
X38787685Y-66658857D01*
X38840489Y-66613102D01*
X38909647Y-66603158D01*
X38973203Y-66632183D01*
X38979681Y-66638215D01*
X39559592Y-67218126D01*
X39593077Y-67279449D01*
X39595314Y-67293651D01*
X39604699Y-67388932D01*
X39627578Y-67464354D01*
X39664768Y-67586954D01*
X39762315Y-67769450D01*
X39796969Y-67811677D01*
X39893589Y-67929410D01*
X39952226Y-67977531D01*
X40053550Y-68060685D01*
X40236046Y-68158232D01*
X40434066Y-68218300D01*
X40434065Y-68218300D01*
X40452529Y-68220118D01*
X40640000Y-68238583D01*
X40845934Y-68218300D01*
X41043954Y-68158232D01*
X41226450Y-68060685D01*
X41327775Y-67977530D01*
X41392083Y-67950218D01*
X41407866Y-67952920D01*
X41421552Y-67890012D01*
X41434531Y-67870774D01*
X41517685Y-67769450D01*
X41615232Y-67586954D01*
X41675300Y-67388934D01*
X41695583Y-67183000D01*
X41675300Y-66977066D01*
X41615232Y-66779046D01*
X41517685Y-66596550D01*
X41447734Y-66511314D01*
X41386410Y-66436589D01*
X41268677Y-66339969D01*
X41226450Y-66305315D01*
X41078732Y-66226357D01*
X41028889Y-66177395D01*
X41013429Y-66109257D01*
X41037261Y-66043578D01*
X41092819Y-66001209D01*
X41137187Y-65993000D01*
X41537828Y-65993000D01*
X41537844Y-65992999D01*
X41597372Y-65986598D01*
X41597379Y-65986596D01*
X41732086Y-65936354D01*
X41732093Y-65936350D01*
X41847187Y-65850190D01*
X41847190Y-65850187D01*
X41933350Y-65735093D01*
X41933354Y-65735086D01*
X41983596Y-65600379D01*
X41983598Y-65600372D01*
X41989999Y-65540844D01*
X41990000Y-65540827D01*
X41990000Y-64893000D01*
X41073012Y-64893000D01*
X41105925Y-64835993D01*
X41140000Y-64708826D01*
X41140000Y-64577174D01*
X41105925Y-64450007D01*
X41073012Y-64393000D01*
X41990000Y-64393000D01*
X41990000Y-63745172D01*
X41989999Y-63745155D01*
X41983598Y-63685627D01*
X41983596Y-63685620D01*
X41933354Y-63550913D01*
X41933350Y-63550906D01*
X41847190Y-63435812D01*
X41847187Y-63435809D01*
X41732093Y-63349649D01*
X41732086Y-63349645D01*
X41597379Y-63299403D01*
X41597372Y-63299401D01*
X41537844Y-63293000D01*
X40890000Y-63293000D01*
X40890000Y-64209988D01*
X40832993Y-64177075D01*
X40705826Y-64143000D01*
X40574174Y-64143000D01*
X40447007Y-64177075D01*
X40390000Y-64209988D01*
X40390000Y-63293000D01*
X39877780Y-63293000D01*
X39810741Y-63273315D01*
X39764986Y-63220511D01*
X39753780Y-63169000D01*
X39753780Y-61428322D01*
X41274001Y-61428322D01*
X41284144Y-61527607D01*
X41337452Y-61688481D01*
X41337457Y-61688492D01*
X41426424Y-61832728D01*
X41426427Y-61832732D01*
X41546267Y-61952572D01*
X41546271Y-61952575D01*
X41690507Y-62041542D01*
X41690518Y-62041547D01*
X41851393Y-62094855D01*
X41950683Y-62104999D01*
X41998999Y-62104998D01*
X41999000Y-62104998D01*
X41999000Y-61405000D01*
X42499000Y-61405000D01*
X42499000Y-62104999D01*
X42547308Y-62104999D01*
X42547322Y-62104998D01*
X42646607Y-62094855D01*
X42807481Y-62041547D01*
X42807492Y-62041542D01*
X42951728Y-61952575D01*
X42951732Y-61952572D01*
X43071571Y-61832733D01*
X43127199Y-61742547D01*
X43179147Y-61695823D01*
X43248110Y-61684600D01*
X43312192Y-61712444D01*
X43351048Y-61770512D01*
X43355212Y-61827040D01*
X43351500Y-61850479D01*
X43351500Y-62313517D01*
X43360713Y-62371684D01*
X43366354Y-62407304D01*
X43423950Y-62520342D01*
X43423952Y-62520344D01*
X43423954Y-62520347D01*
X43513652Y-62610045D01*
X43513654Y-62610046D01*
X43513658Y-62610050D01*
X43612051Y-62660184D01*
X43626698Y-62667647D01*
X43720475Y-62682499D01*
X43720481Y-62682500D01*
X44333518Y-62682499D01*
X44427304Y-62667646D01*
X44540342Y-62610050D01*
X44540347Y-62610045D01*
X44545671Y-62606179D01*
X44611478Y-62582702D01*
X44618552Y-62582500D01*
X45127486Y-62582500D01*
X45177573Y-62593066D01*
X45179263Y-62593812D01*
X45179264Y-62593813D01*
X45278618Y-62637682D01*
X45302907Y-62640500D01*
X46967602Y-62640499D01*
X47034641Y-62660184D01*
X47055283Y-62676818D01*
X47076284Y-62697819D01*
X47109769Y-62759142D01*
X47104785Y-62828834D01*
X47062913Y-62884767D01*
X46997449Y-62909184D01*
X46988603Y-62909500D01*
X45302914Y-62909500D01*
X45302891Y-62909502D01*
X45278620Y-62912317D01*
X45278617Y-62912318D01*
X45179264Y-62956186D01*
X45102467Y-63032983D01*
X45058598Y-63132335D01*
X45058598Y-63132337D01*
X45055780Y-63156625D01*
X45055780Y-63663365D01*
X45055782Y-63663388D01*
X45058597Y-63687659D01*
X45058598Y-63687662D01*
X45102466Y-63787015D01*
X45102467Y-63787016D01*
X45179264Y-63863813D01*
X45278618Y-63907682D01*
X45302907Y-63910500D01*
X45628928Y-63910499D01*
X45695967Y-63930183D01*
X45741722Y-63982987D01*
X45752928Y-64034499D01*
X45752928Y-64440153D01*
X45733243Y-64507192D01*
X45716609Y-64527834D01*
X45713499Y-64530944D01*
X45652176Y-64564429D01*
X45625818Y-64567263D01*
X44651500Y-64567263D01*
X44584461Y-64547578D01*
X44538706Y-64494774D01*
X44527500Y-64443263D01*
X44527500Y-64324254D01*
X44547185Y-64257215D01*
X44563814Y-64236577D01*
X44630050Y-64170342D01*
X44687646Y-64057304D01*
X44687646Y-64057302D01*
X44687647Y-64057301D01*
X44702499Y-63963524D01*
X44702500Y-63963519D01*
X44702499Y-63500482D01*
X44687646Y-63406696D01*
X44630050Y-63293658D01*
X44630046Y-63293654D01*
X44630045Y-63293652D01*
X44540347Y-63203954D01*
X44540344Y-63203952D01*
X44540342Y-63203950D01*
X44447462Y-63156625D01*
X44427301Y-63146352D01*
X44333524Y-63131500D01*
X43720482Y-63131500D01*
X43639519Y-63144323D01*
X43626696Y-63146354D01*
X43513658Y-63203950D01*
X43513657Y-63203951D01*
X43513652Y-63203954D01*
X43423954Y-63293652D01*
X43423951Y-63293657D01*
X43366352Y-63406698D01*
X43351500Y-63500475D01*
X43351500Y-63963517D01*
X43359871Y-64016368D01*
X43366354Y-64057304D01*
X43423950Y-64170342D01*
X43490182Y-64236574D01*
X43523666Y-64297895D01*
X43526500Y-64324254D01*
X43526500Y-65807745D01*
X43506815Y-65874784D01*
X43490181Y-65895426D01*
X43423954Y-65961652D01*
X43423951Y-65961657D01*
X43423950Y-65961658D01*
X43410725Y-65987614D01*
X43366352Y-66074698D01*
X43351500Y-66168475D01*
X43351500Y-66631517D01*
X43358463Y-66675481D01*
X43366354Y-66725304D01*
X43423950Y-66838342D01*
X43423952Y-66838344D01*
X43423954Y-66838347D01*
X43513652Y-66928045D01*
X43513654Y-66928046D01*
X43513658Y-66928050D01*
X43609857Y-66977066D01*
X43626698Y-66985647D01*
X43720475Y-67000499D01*
X43720481Y-67000500D01*
X44333518Y-67000499D01*
X44427304Y-66985646D01*
X44540342Y-66928050D01*
X44630050Y-66838342D01*
X44687646Y-66725304D01*
X44687646Y-66725302D01*
X44687647Y-66725301D01*
X44702499Y-66631524D01*
X44702500Y-66631519D01*
X44702499Y-66168482D01*
X44687646Y-66074696D01*
X44630050Y-65961658D01*
X44630046Y-65961654D01*
X44630045Y-65961652D01*
X44563819Y-65895426D01*
X44530334Y-65834103D01*
X44527500Y-65807745D01*
X44527500Y-65692263D01*
X44547185Y-65625224D01*
X44599989Y-65579469D01*
X44651500Y-65568263D01*
X45625818Y-65568263D01*
X45692857Y-65587948D01*
X45713494Y-65604577D01*
X45775208Y-65666291D01*
X45895302Y-65727482D01*
X45895304Y-65727482D01*
X45895306Y-65727483D01*
X45994935Y-65743263D01*
X45994940Y-65743263D01*
X46511921Y-65743263D01*
X46611549Y-65727483D01*
X46611549Y-65727482D01*
X46611554Y-65727482D01*
X46731648Y-65666291D01*
X46826956Y-65570983D01*
X46888147Y-65450889D01*
X46888148Y-65450884D01*
X46903928Y-65351256D01*
X46903928Y-64784269D01*
X46888148Y-64684641D01*
X46888147Y-64684639D01*
X46888147Y-64684637D01*
X46826956Y-64564543D01*
X46826954Y-64564541D01*
X46826951Y-64564537D01*
X46790247Y-64527833D01*
X46756762Y-64466510D01*
X46753928Y-64440152D01*
X46753928Y-64034499D01*
X46773613Y-63967460D01*
X46826417Y-63921705D01*
X46877928Y-63910499D01*
X47179646Y-63910499D01*
X47179652Y-63910499D01*
X47185876Y-63909777D01*
X47203937Y-63907683D01*
X47203938Y-63907682D01*
X47203942Y-63907682D01*
X47214694Y-63902934D01*
X47283968Y-63893862D01*
X47347154Y-63923683D01*
X47384187Y-63982931D01*
X47388780Y-64016368D01*
X47388780Y-64148536D01*
X47372168Y-64210535D01*
X47337036Y-64271385D01*
X47337036Y-64271386D01*
X47302928Y-64398680D01*
X47302928Y-64440152D01*
X47283243Y-64507191D01*
X47266609Y-64527833D01*
X47229904Y-64564537D01*
X47229901Y-64564541D01*
X47168707Y-64684641D01*
X47152928Y-64784269D01*
X47152928Y-65351256D01*
X47168707Y-65450884D01*
X47168708Y-65450887D01*
X47168709Y-65450889D01*
X47229900Y-65570983D01*
X47229901Y-65570984D01*
X47229903Y-65570987D01*
X47266608Y-65607691D01*
X47300094Y-65669014D01*
X47302928Y-65695373D01*
X47302928Y-65860319D01*
X47337036Y-65987615D01*
X47344885Y-66001209D01*
X47402928Y-66101742D01*
X48325500Y-67024314D01*
X48418686Y-67117500D01*
X48532814Y-67183392D01*
X48660108Y-67217500D01*
X49467746Y-67217500D01*
X49534785Y-67237185D01*
X49555422Y-67253814D01*
X49621658Y-67320050D01*
X49734694Y-67377645D01*
X49734698Y-67377647D01*
X49828475Y-67392499D01*
X49828481Y-67392500D01*
X50291518Y-67392499D01*
X50385304Y-67377646D01*
X50498342Y-67320050D01*
X50588050Y-67230342D01*
X50645646Y-67117304D01*
X50645646Y-67117302D01*
X50645647Y-67117301D01*
X50660499Y-67023524D01*
X50660500Y-67023519D01*
X50660499Y-66410482D01*
X50645646Y-66316696D01*
X50588050Y-66203658D01*
X50588046Y-66203654D01*
X50588045Y-66203652D01*
X50498347Y-66113954D01*
X50498344Y-66113952D01*
X50498342Y-66113950D01*
X50421302Y-66074696D01*
X50385301Y-66056352D01*
X50291524Y-66041500D01*
X49828482Y-66041500D01*
X49747519Y-66054323D01*
X49734696Y-66056354D01*
X49621658Y-66113950D01*
X49621657Y-66113951D01*
X49621656Y-66113951D01*
X49603086Y-66132522D01*
X49555425Y-66180182D01*
X49494105Y-66213666D01*
X49467746Y-66216500D01*
X48984676Y-66216500D01*
X48917637Y-66196815D01*
X48896995Y-66180181D01*
X48410565Y-65693751D01*
X48377080Y-65632428D01*
X48382064Y-65562736D01*
X48387754Y-65549789D01*
X48438147Y-65450889D01*
X48438148Y-65450884D01*
X48453928Y-65351256D01*
X48453928Y-64784269D01*
X48438148Y-64684641D01*
X48438147Y-64684639D01*
X48438147Y-64684637D01*
X48385908Y-64582113D01*
X48373013Y-64513445D01*
X48376617Y-64493735D01*
X48389780Y-64444612D01*
X48389780Y-64312828D01*
X48389780Y-62737109D01*
X48355672Y-62609815D01*
X48289780Y-62495687D01*
X48196594Y-62402501D01*
X47533593Y-61739500D01*
X47533591Y-61739499D01*
X47533589Y-61739497D01*
X47530183Y-61737531D01*
X47527884Y-61735120D01*
X47527144Y-61734552D01*
X47527232Y-61734436D01*
X47481969Y-61686962D01*
X47468749Y-61618354D01*
X47494720Y-61553490D01*
X47516702Y-61531769D01*
X47557071Y-61500793D01*
X47651646Y-61377542D01*
X47651646Y-61377541D01*
X47711092Y-61234024D01*
X47711093Y-61234020D01*
X47726105Y-61120000D01*
X44756455Y-61120000D01*
X44771466Y-61234020D01*
X44771467Y-61234024D01*
X44830913Y-61377541D01*
X44830918Y-61377550D01*
X44834345Y-61382016D01*
X44859538Y-61447185D01*
X44845498Y-61515630D01*
X44796683Y-61565619D01*
X44735968Y-61581500D01*
X44618552Y-61581500D01*
X44551513Y-61561815D01*
X44545671Y-61557821D01*
X44540346Y-61553953D01*
X44540343Y-61553951D01*
X44540342Y-61553950D01*
X44464481Y-61515297D01*
X44427301Y-61496352D01*
X44333524Y-61481500D01*
X43720482Y-61481500D01*
X43639519Y-61494323D01*
X43626696Y-61496354D01*
X43513658Y-61553950D01*
X43513657Y-61553951D01*
X43513656Y-61553951D01*
X43421816Y-61645791D01*
X43360492Y-61679275D01*
X43290801Y-61674291D01*
X43234868Y-61632419D01*
X43210451Y-61566954D01*
X43212884Y-61532143D01*
X43213856Y-61527601D01*
X43223999Y-61428322D01*
X43224000Y-61428309D01*
X43224000Y-61405000D01*
X42499000Y-61405000D01*
X41999000Y-61405000D01*
X41274001Y-61405000D01*
X41274001Y-61428322D01*
X39753780Y-61428322D01*
X39753780Y-60881677D01*
X41274000Y-60881677D01*
X41274000Y-60905000D01*
X43223999Y-60905000D01*
X43223999Y-60881692D01*
X43223998Y-60881677D01*
X43213855Y-60782392D01*
X43160547Y-60621518D01*
X43160542Y-60621507D01*
X43071575Y-60477271D01*
X43071572Y-60477267D01*
X42951731Y-60357426D01*
X42907328Y-60330038D01*
X42860604Y-60278090D01*
X42849383Y-60209127D01*
X42877226Y-60145045D01*
X42935295Y-60106190D01*
X42972426Y-60100500D01*
X43777743Y-60100500D01*
X43844782Y-60120185D01*
X43850099Y-60123924D01*
X43851157Y-60124534D01*
X43851159Y-60124536D01*
X43851160Y-60124536D01*
X43851163Y-60124538D01*
X43899677Y-60144633D01*
X43997238Y-60185044D01*
X44075619Y-60195363D01*
X44153999Y-60205682D01*
X44154000Y-60205682D01*
X44154001Y-60205682D01*
X44206254Y-60198802D01*
X44310762Y-60185044D01*
X44456841Y-60124536D01*
X44456845Y-60124532D01*
X44463876Y-60120474D01*
X44464882Y-60122216D01*
X44519932Y-60100931D01*
X44530257Y-60100500D01*
X44780474Y-60100500D01*
X44847513Y-60120185D01*
X44893268Y-60172989D01*
X44903212Y-60242147D01*
X44878849Y-60299987D01*
X44830916Y-60362452D01*
X44830913Y-60362458D01*
X44771467Y-60505975D01*
X44771466Y-60505979D01*
X44756454Y-60620000D01*
X47726105Y-60620000D01*
X47711093Y-60505979D01*
X47711092Y-60505975D01*
X47651646Y-60362458D01*
X47651646Y-60362457D01*
X47557072Y-60239207D01*
X47433821Y-60144633D01*
X47428416Y-60141512D01*
X47380204Y-60090941D01*
X47366986Y-60022333D01*
X47376990Y-59984042D01*
X47380091Y-59977017D01*
X47380093Y-59977016D01*
X47423962Y-59877662D01*
X47426780Y-59853373D01*
X47426779Y-59346628D01*
X47423962Y-59322338D01*
X47380093Y-59222984D01*
X47376990Y-59215956D01*
X47367918Y-59146678D01*
X47397742Y-59083493D01*
X47428423Y-59058484D01*
X47433819Y-59055368D01*
X47557072Y-58960792D01*
X47651646Y-58837542D01*
X47651646Y-58837541D01*
X47711092Y-58694024D01*
X47711093Y-58694020D01*
X47726105Y-58580000D01*
X44756455Y-58580000D01*
X44771466Y-58694020D01*
X44771467Y-58694024D01*
X44830913Y-58837541D01*
X44830916Y-58837547D01*
X44878849Y-58900013D01*
X44904044Y-58965182D01*
X44890006Y-59033627D01*
X44841192Y-59083617D01*
X44780474Y-59099500D01*
X44530257Y-59099500D01*
X44463218Y-59079815D01*
X44457900Y-59076075D01*
X44456836Y-59075461D01*
X44310765Y-59014957D01*
X44310760Y-59014955D01*
X44154001Y-58994318D01*
X44153999Y-58994318D01*
X43997239Y-59014955D01*
X43997234Y-59014957D01*
X43851163Y-59075461D01*
X43844124Y-59079526D01*
X43843117Y-59077783D01*
X43788068Y-59099069D01*
X43777743Y-59099500D01*
X42871610Y-59099500D01*
X42804571Y-59079815D01*
X42783928Y-59063180D01*
X42752224Y-59031475D01*
X42752221Y-59031473D01*
X42752220Y-59031472D01*
X42632126Y-58970281D01*
X42632124Y-58970280D01*
X42632121Y-58970279D01*
X42532493Y-58954500D01*
X42532488Y-58954500D01*
X41965512Y-58954500D01*
X41965507Y-58954500D01*
X41865878Y-58970279D01*
X41745778Y-59031473D01*
X41745774Y-59031476D01*
X41650476Y-59126774D01*
X41650473Y-59126778D01*
X41589279Y-59246878D01*
X41573500Y-59346506D01*
X41573500Y-59863493D01*
X41589279Y-59963121D01*
X41589280Y-59963124D01*
X41589281Y-59963126D01*
X41650472Y-60083220D01*
X41650473Y-60083221D01*
X41650476Y-60083225D01*
X41669424Y-60102173D01*
X41702909Y-60163496D01*
X41697925Y-60233188D01*
X41656053Y-60289121D01*
X41646841Y-60295392D01*
X41546268Y-60357426D01*
X41426427Y-60477267D01*
X41426424Y-60477271D01*
X41337457Y-60621507D01*
X41337452Y-60621518D01*
X41284144Y-60782393D01*
X41274000Y-60881677D01*
X39753780Y-60881677D01*
X39753780Y-58847500D01*
X39773465Y-58780461D01*
X39790095Y-58759823D01*
X40660715Y-57889202D01*
X40722038Y-57855718D01*
X40748396Y-57852884D01*
X40896237Y-57852884D01*
X40896238Y-57852884D01*
X40990024Y-57838031D01*
X41103062Y-57780435D01*
X41192770Y-57690727D01*
X41250366Y-57577689D01*
X41250366Y-57577687D01*
X41250367Y-57577686D01*
X41265219Y-57483909D01*
X41265220Y-57483904D01*
X41265219Y-57020867D01*
X41250366Y-56927081D01*
X41192770Y-56814043D01*
X41192766Y-56814039D01*
X41192765Y-56814037D01*
X41103067Y-56724339D01*
X41103064Y-56724337D01*
X41103062Y-56724335D01*
X41026237Y-56685190D01*
X40990021Y-56666737D01*
X40896244Y-56651885D01*
X40283202Y-56651885D01*
X40202239Y-56664708D01*
X40189416Y-56666739D01*
X40076378Y-56724335D01*
X40076377Y-56724336D01*
X40076372Y-56724339D01*
X39986674Y-56814037D01*
X39986671Y-56814042D01*
X39986670Y-56814043D01*
X39968405Y-56849889D01*
X39929072Y-56927083D01*
X39914220Y-57020860D01*
X39914220Y-57168708D01*
X39894535Y-57235747D01*
X39877901Y-57256389D01*
X38979681Y-58154609D01*
X38918358Y-58188094D01*
X38848666Y-58183110D01*
X38792733Y-58141238D01*
X38768316Y-58075774D01*
X38768000Y-58066928D01*
X38768000Y-53591000D01*
X38787685Y-53523961D01*
X38840489Y-53478206D01*
X38892000Y-53467000D01*
X39293500Y-53467000D01*
X39360539Y-53486685D01*
G37*
%TD.AperFunction*%
%TA.AperFunction,Conductor*%
%TO.N,GND*%
G36*
X57146000Y-76153000D02*
G01*
X57778780Y-76153000D01*
X57845819Y-76172685D01*
X57891574Y-76225489D01*
X57902780Y-76277000D01*
X57902780Y-76457000D01*
X57883095Y-76524039D01*
X57830291Y-76569794D01*
X57778780Y-76581000D01*
X55496000Y-76581000D01*
X55428961Y-76561315D01*
X55383206Y-76508511D01*
X55372000Y-76457000D01*
X55372000Y-75958518D01*
X55391685Y-75891479D01*
X55444489Y-75845724D01*
X55513647Y-75835780D01*
X55577203Y-75864805D01*
X55596429Y-75888664D01*
X55597331Y-75887989D01*
X55688809Y-76010187D01*
X55688812Y-76010190D01*
X55803906Y-76096350D01*
X55803913Y-76096354D01*
X55938620Y-76146596D01*
X55938627Y-76146598D01*
X55998155Y-76152999D01*
X55998172Y-76153000D01*
X56646000Y-76153000D01*
X56646000Y-75236012D01*
X56703007Y-75268925D01*
X56830174Y-75303000D01*
X56961826Y-75303000D01*
X57088993Y-75268925D01*
X57146000Y-75236012D01*
X57146000Y-76153000D01*
G37*
%TD.AperFunction*%
%TA.AperFunction,Conductor*%
G36*
X48282075Y-41152007D02*
G01*
X48248000Y-41279174D01*
X48248000Y-41410826D01*
X48282075Y-41537993D01*
X48314988Y-41595000D01*
X46641012Y-41595000D01*
X46673925Y-41537993D01*
X46708000Y-41410826D01*
X46708000Y-41279174D01*
X46673925Y-41152007D01*
X46641012Y-41095000D01*
X48314988Y-41095000D01*
X48282075Y-41152007D01*
G37*
%TD.AperFunction*%
%TA.AperFunction,Conductor*%
G36*
X50822075Y-41152007D02*
G01*
X50788000Y-41279174D01*
X50788000Y-41410826D01*
X50822075Y-41537993D01*
X50854988Y-41595000D01*
X49181012Y-41595000D01*
X49213925Y-41537993D01*
X49248000Y-41410826D01*
X49248000Y-41279174D01*
X49213925Y-41152007D01*
X49181012Y-41095000D01*
X50854988Y-41095000D01*
X50822075Y-41152007D01*
G37*
%TD.AperFunction*%
%TA.AperFunction,Conductor*%
G36*
X46458000Y-40911988D02*
G01*
X46400993Y-40879075D01*
X46273826Y-40845000D01*
X46142174Y-40845000D01*
X46015007Y-40879075D01*
X45958000Y-40911988D01*
X45958000Y-39238012D01*
X46015007Y-39270925D01*
X46142174Y-39305000D01*
X46273826Y-39305000D01*
X46400993Y-39270925D01*
X46458000Y-39238012D01*
X46458000Y-40911988D01*
G37*
%TD.AperFunction*%
%TA.AperFunction,Conductor*%
G36*
X48998000Y-40911988D02*
G01*
X48940993Y-40879075D01*
X48813826Y-40845000D01*
X48682174Y-40845000D01*
X48555007Y-40879075D01*
X48498000Y-40911988D01*
X48498000Y-39238012D01*
X48555007Y-39270925D01*
X48682174Y-39305000D01*
X48813826Y-39305000D01*
X48940993Y-39270925D01*
X48998000Y-39238012D01*
X48998000Y-40911988D01*
G37*
%TD.AperFunction*%
%TA.AperFunction,Conductor*%
G36*
X51538000Y-40911988D02*
G01*
X51480993Y-40879075D01*
X51353826Y-40845000D01*
X51222174Y-40845000D01*
X51095007Y-40879075D01*
X51038000Y-40911988D01*
X51038000Y-39238012D01*
X51095007Y-39270925D01*
X51222174Y-39305000D01*
X51353826Y-39305000D01*
X51480993Y-39270925D01*
X51538000Y-39238012D01*
X51538000Y-40911988D01*
G37*
%TD.AperFunction*%
%TA.AperFunction,Conductor*%
G36*
X48282075Y-38612007D02*
G01*
X48248000Y-38739174D01*
X48248000Y-38870826D01*
X48282075Y-38997993D01*
X48314988Y-39055000D01*
X46641012Y-39055000D01*
X46673925Y-38997993D01*
X46708000Y-38870826D01*
X46708000Y-38739174D01*
X46673925Y-38612007D01*
X46641012Y-38555000D01*
X48314988Y-38555000D01*
X48282075Y-38612007D01*
G37*
%TD.AperFunction*%
%TA.AperFunction,Conductor*%
G36*
X50822075Y-38612007D02*
G01*
X50788000Y-38739174D01*
X50788000Y-38870826D01*
X50822075Y-38997993D01*
X50854988Y-39055000D01*
X49181012Y-39055000D01*
X49213925Y-38997993D01*
X49248000Y-38870826D01*
X49248000Y-38739174D01*
X49213925Y-38612007D01*
X49181012Y-38555000D01*
X50854988Y-38555000D01*
X50822075Y-38612007D01*
G37*
%TD.AperFunction*%
%TA.AperFunction,Conductor*%
G36*
X58617039Y-35325685D02*
G01*
X58662794Y-35378489D01*
X58674000Y-35430000D01*
X58674000Y-70635245D01*
X58654315Y-70702284D01*
X58601511Y-70748039D01*
X58532353Y-70757983D01*
X58468797Y-70728958D01*
X58462319Y-70722926D01*
X57922649Y-70183256D01*
X57889164Y-70121933D01*
X57891669Y-70059580D01*
X57907079Y-70008780D01*
X57931300Y-69928934D01*
X57951583Y-69723000D01*
X57931300Y-69517066D01*
X57871232Y-69319046D01*
X57773685Y-69136550D01*
X57721702Y-69073209D01*
X57642410Y-68976589D01*
X57482452Y-68845317D01*
X57482453Y-68845317D01*
X57482450Y-68845315D01*
X57299954Y-68747768D01*
X57101934Y-68687700D01*
X57101932Y-68687699D01*
X57101934Y-68687699D01*
X56896000Y-68667417D01*
X56690067Y-68687699D01*
X56492043Y-68747769D01*
X56381898Y-68806643D01*
X56309550Y-68845315D01*
X56309548Y-68845316D01*
X56309547Y-68845317D01*
X56149589Y-68976589D01*
X56018317Y-69136547D01*
X55920769Y-69319043D01*
X55860699Y-69517067D01*
X55840417Y-69723000D01*
X55860699Y-69928932D01*
X55879376Y-69990501D01*
X55920768Y-70126954D01*
X56018315Y-70309450D01*
X56018317Y-70309452D01*
X56149589Y-70469410D01*
X56246209Y-70548702D01*
X56309550Y-70600685D01*
X56492046Y-70698232D01*
X56690066Y-70758300D01*
X56690065Y-70758300D01*
X56708529Y-70760118D01*
X56896000Y-70778583D01*
X57101934Y-70758300D01*
X57232581Y-70718668D01*
X57302447Y-70718046D01*
X57356256Y-70749649D01*
X57866461Y-71259854D01*
X57899946Y-71321177D01*
X57902780Y-71347535D01*
X57902780Y-71487294D01*
X57883095Y-71554333D01*
X57830291Y-71600088D01*
X57761133Y-71610032D01*
X57697577Y-71581007D01*
X57682927Y-71565959D01*
X57642410Y-71516590D01*
X57606965Y-71487501D01*
X57482450Y-71385315D01*
X57299954Y-71287768D01*
X57101934Y-71227700D01*
X57101932Y-71227699D01*
X57101934Y-71227699D01*
X56896000Y-71207417D01*
X56690067Y-71227699D01*
X56492043Y-71287769D01*
X56393740Y-71340314D01*
X56309550Y-71385315D01*
X56309548Y-71385316D01*
X56309547Y-71385317D01*
X56149589Y-71516589D01*
X56025435Y-71667874D01*
X56018315Y-71676550D01*
X55979643Y-71748898D01*
X55920769Y-71859043D01*
X55860699Y-72057067D01*
X55840417Y-72263000D01*
X55860699Y-72468934D01*
X55867416Y-72491077D01*
X55868037Y-72560943D01*
X55836435Y-72614749D01*
X55583681Y-72867504D01*
X55522358Y-72900989D01*
X55452667Y-72896005D01*
X55396733Y-72854134D01*
X55372316Y-72788669D01*
X55372000Y-72779823D01*
X55372000Y-68483034D01*
X55391685Y-68415995D01*
X55408319Y-68395353D01*
X55663064Y-68140608D01*
X55928745Y-67874926D01*
X55990066Y-67841443D01*
X56059757Y-67846427D01*
X56112278Y-67883945D01*
X56149589Y-67929410D01*
X56170236Y-67946354D01*
X56309550Y-68060685D01*
X56492046Y-68158232D01*
X56690066Y-68218300D01*
X56690065Y-68218300D01*
X56708529Y-68220118D01*
X56896000Y-68238583D01*
X57101934Y-68218300D01*
X57299954Y-68158232D01*
X57482450Y-68060685D01*
X57642410Y-67929410D01*
X57773685Y-67769450D01*
X57871232Y-67586954D01*
X57931300Y-67388934D01*
X57951583Y-67183000D01*
X57931300Y-66977066D01*
X57871232Y-66779046D01*
X57773685Y-66596550D01*
X57703734Y-66511314D01*
X57642410Y-66436589D01*
X57524677Y-66339969D01*
X57482450Y-66305315D01*
X57299954Y-66207768D01*
X57101934Y-66147700D01*
X57101932Y-66147699D01*
X57101934Y-66147699D01*
X56896000Y-66127417D01*
X56690067Y-66147699D01*
X56492043Y-66207769D01*
X56381898Y-66266643D01*
X56309550Y-66305315D01*
X56309548Y-66305316D01*
X56309547Y-66305317D01*
X56149589Y-66436589D01*
X56018317Y-66596547D01*
X55923096Y-66774689D01*
X55875756Y-66823612D01*
X55870835Y-66826454D01*
X55869015Y-66827505D01*
X55850245Y-66838342D01*
X55808368Y-66862519D01*
X55808365Y-66862521D01*
X55583681Y-67087206D01*
X55522358Y-67120691D01*
X55452666Y-67115707D01*
X55396733Y-67073835D01*
X55372316Y-67008371D01*
X55372000Y-66999525D01*
X55372000Y-66784754D01*
X55391685Y-66717715D01*
X55408316Y-66697076D01*
X56435745Y-65669646D01*
X56497066Y-65636163D01*
X56559418Y-65638668D01*
X56661544Y-65669648D01*
X56690063Y-65678299D01*
X56690065Y-65678300D01*
X56708529Y-65680118D01*
X56896000Y-65698583D01*
X57101934Y-65678300D01*
X57299954Y-65618232D01*
X57482450Y-65520685D01*
X57642410Y-65389410D01*
X57773685Y-65229450D01*
X57871232Y-65046954D01*
X57931300Y-64848934D01*
X57951583Y-64643000D01*
X57931300Y-64437066D01*
X57871232Y-64239046D01*
X57773685Y-64056550D01*
X57653825Y-63910499D01*
X57642410Y-63896589D01*
X57508893Y-63787016D01*
X57482450Y-63765315D01*
X57299954Y-63667768D01*
X57101934Y-63607700D01*
X57101932Y-63607699D01*
X57101934Y-63607699D01*
X56896000Y-63587417D01*
X56690067Y-63607699D01*
X56492043Y-63667769D01*
X56454827Y-63687662D01*
X56309550Y-63765315D01*
X56309548Y-63765316D01*
X56309547Y-63765317D01*
X56149589Y-63896589D01*
X56018317Y-64056547D01*
X55920769Y-64239043D01*
X55860699Y-64437067D01*
X55840417Y-64643000D01*
X55860699Y-64848932D01*
X55900330Y-64979579D01*
X55900953Y-65049446D01*
X55869350Y-65103255D01*
X55583681Y-65388925D01*
X55522358Y-65422410D01*
X55452667Y-65417426D01*
X55396733Y-65375555D01*
X55372316Y-65310090D01*
X55372000Y-65301244D01*
X55372000Y-62103000D01*
X55840417Y-62103000D01*
X55860699Y-62308932D01*
X55879736Y-62371687D01*
X55920768Y-62506954D01*
X56018315Y-62689450D01*
X56018317Y-62689452D01*
X56149589Y-62849410D01*
X56226244Y-62912318D01*
X56309550Y-62980685D01*
X56492046Y-63078232D01*
X56690066Y-63138300D01*
X56690065Y-63138300D01*
X56708529Y-63140118D01*
X56896000Y-63158583D01*
X57101934Y-63138300D01*
X57299954Y-63078232D01*
X57482450Y-62980685D01*
X57642410Y-62849410D01*
X57773685Y-62689450D01*
X57871232Y-62506954D01*
X57931300Y-62308934D01*
X57951583Y-62103000D01*
X57931300Y-61897066D01*
X57871232Y-61699046D01*
X57773685Y-61516550D01*
X57653825Y-61370499D01*
X57642410Y-61356589D01*
X57482451Y-61225315D01*
X57404045Y-61183405D01*
X57354202Y-61134442D01*
X57338500Y-61074048D01*
X57338500Y-58907133D01*
X57358185Y-58840094D01*
X57406203Y-58796649D01*
X57451342Y-58773650D01*
X57541050Y-58683942D01*
X57598646Y-58570904D01*
X57598646Y-58570902D01*
X57598647Y-58570901D01*
X57613499Y-58477124D01*
X57613500Y-58477119D01*
X57613499Y-58014082D01*
X57598646Y-57920296D01*
X57541050Y-57807258D01*
X57541046Y-57807254D01*
X57541045Y-57807252D01*
X57451347Y-57717554D01*
X57451344Y-57717552D01*
X57451342Y-57717550D01*
X57374517Y-57678405D01*
X57338301Y-57659952D01*
X57244524Y-57645100D01*
X56631482Y-57645100D01*
X56550519Y-57657923D01*
X56537696Y-57659954D01*
X56424658Y-57717550D01*
X56424657Y-57717551D01*
X56424652Y-57717554D01*
X56334954Y-57807252D01*
X56334951Y-57807257D01*
X56277352Y-57920298D01*
X56262500Y-58014075D01*
X56262500Y-58477117D01*
X56269757Y-58522933D01*
X56277354Y-58570904D01*
X56334950Y-58683942D01*
X56334952Y-58683944D01*
X56334954Y-58683947D01*
X56424652Y-58773645D01*
X56424654Y-58773646D01*
X56424658Y-58773650D01*
X56469796Y-58796649D01*
X56520591Y-58844623D01*
X56537500Y-58907133D01*
X56537500Y-61029149D01*
X56517815Y-61096188D01*
X56471954Y-61138507D01*
X56387957Y-61183405D01*
X56309550Y-61225315D01*
X56309548Y-61225316D01*
X56309547Y-61225317D01*
X56149589Y-61356589D01*
X56018317Y-61516547D01*
X55920769Y-61699043D01*
X55860699Y-61897067D01*
X55840417Y-62103000D01*
X55372000Y-62103000D01*
X55372000Y-59927708D01*
X55386452Y-59873776D01*
X55385426Y-59873351D01*
X55417054Y-59796992D01*
X55449044Y-59719762D01*
X55469682Y-59563000D01*
X55449044Y-59406238D01*
X55388536Y-59260159D01*
X55388535Y-59260158D01*
X55385426Y-59252651D01*
X55386451Y-59252226D01*
X55372000Y-59198292D01*
X55372000Y-57979135D01*
X55391685Y-57912096D01*
X55444489Y-57866341D01*
X55481743Y-57856691D01*
X55481676Y-57856263D01*
X55486110Y-57855560D01*
X55486279Y-57855517D01*
X55486491Y-57855500D01*
X55586121Y-57839720D01*
X55586121Y-57839719D01*
X55586126Y-57839719D01*
X55706220Y-57778528D01*
X55801528Y-57683220D01*
X55862719Y-57563126D01*
X55868537Y-57526392D01*
X55878500Y-57463493D01*
X55878500Y-57288676D01*
X55898185Y-57221637D01*
X55914819Y-57200995D01*
X55983395Y-57132419D01*
X56044718Y-57098934D01*
X56071076Y-57096100D01*
X56346448Y-57096100D01*
X56413487Y-57115785D01*
X56419329Y-57119779D01*
X56424653Y-57123646D01*
X56424655Y-57123647D01*
X56424658Y-57123650D01*
X56537694Y-57181245D01*
X56537698Y-57181247D01*
X56631475Y-57196099D01*
X56631481Y-57196100D01*
X57244518Y-57196099D01*
X57338304Y-57181246D01*
X57451342Y-57123650D01*
X57541050Y-57033942D01*
X57598646Y-56920904D01*
X57598646Y-56920902D01*
X57598647Y-56920901D01*
X57613499Y-56827124D01*
X57613500Y-56827119D01*
X57613499Y-56364082D01*
X57598646Y-56270296D01*
X57541050Y-56157258D01*
X57541046Y-56157254D01*
X57541045Y-56157252D01*
X57451347Y-56067554D01*
X57451344Y-56067552D01*
X57451342Y-56067550D01*
X57363145Y-56022611D01*
X57338301Y-56009952D01*
X57244524Y-55995100D01*
X56631482Y-55995100D01*
X56550519Y-56007923D01*
X56537696Y-56009954D01*
X56424658Y-56067550D01*
X56424657Y-56067550D01*
X56424653Y-56067553D01*
X56419329Y-56071421D01*
X56353522Y-56094898D01*
X56346448Y-56095100D01*
X55994921Y-56095100D01*
X55927882Y-56075415D01*
X55882127Y-56022611D01*
X55872183Y-55953453D01*
X55872448Y-55951701D01*
X55878500Y-55913492D01*
X55878500Y-55396506D01*
X55862720Y-55296878D01*
X55862719Y-55296876D01*
X55862719Y-55296874D01*
X55801528Y-55176780D01*
X55801526Y-55176778D01*
X55801523Y-55176774D01*
X55706225Y-55081476D01*
X55706221Y-55081473D01*
X55706220Y-55081472D01*
X55586126Y-55020281D01*
X55586124Y-55020280D01*
X55586121Y-55020279D01*
X55486478Y-55004497D01*
X55486255Y-55004480D01*
X55486175Y-55004449D01*
X55481676Y-55003737D01*
X55481825Y-55002791D01*
X55420970Y-54979588D01*
X55379506Y-54923352D01*
X55372000Y-54880864D01*
X55372000Y-53204500D01*
X55391685Y-53137461D01*
X55444489Y-53091706D01*
X55496000Y-53080500D01*
X56525500Y-53080500D01*
X56592539Y-53100185D01*
X56638294Y-53152989D01*
X56649500Y-53204500D01*
X56649500Y-54614742D01*
X56629815Y-54681781D01*
X56626073Y-54687103D01*
X56625465Y-54688156D01*
X56564956Y-54834237D01*
X56564955Y-54834239D01*
X56544318Y-54990998D01*
X56544318Y-54991001D01*
X56564955Y-55147760D01*
X56564956Y-55147762D01*
X56625464Y-55293841D01*
X56721718Y-55419282D01*
X56847159Y-55515536D01*
X56993238Y-55576044D01*
X57071619Y-55586363D01*
X57149999Y-55596682D01*
X57150000Y-55596682D01*
X57150001Y-55596682D01*
X57202254Y-55589802D01*
X57306762Y-55576044D01*
X57452841Y-55515536D01*
X57578282Y-55419282D01*
X57674536Y-55293841D01*
X57735044Y-55147762D01*
X57753907Y-55004480D01*
X57755682Y-54991001D01*
X57755682Y-54990998D01*
X57735044Y-54834239D01*
X57735044Y-54834238D01*
X57674536Y-54688159D01*
X57674534Y-54688156D01*
X57670472Y-54681119D01*
X57672213Y-54680113D01*
X57650930Y-54625057D01*
X57650500Y-54614742D01*
X57650500Y-53012802D01*
X57670185Y-52945763D01*
X57674714Y-52939190D01*
X57745793Y-52842882D01*
X57771258Y-52770108D01*
X57790646Y-52714701D01*
X57790646Y-52714699D01*
X57793500Y-52684269D01*
X57793500Y-51475730D01*
X57790646Y-51445300D01*
X57790646Y-51445298D01*
X57745793Y-51317119D01*
X57745792Y-51317117D01*
X57665150Y-51207850D01*
X57665146Y-51207847D01*
X57618866Y-51173690D01*
X57576615Y-51118042D01*
X57568500Y-51073920D01*
X57568500Y-46305012D01*
X57588185Y-46237973D01*
X57619621Y-46204689D01*
X57621213Y-46203531D01*
X57621220Y-46203528D01*
X57716528Y-46108220D01*
X57777719Y-45988126D01*
X57777720Y-45988121D01*
X57793500Y-45888493D01*
X57793500Y-45371506D01*
X57777720Y-45271878D01*
X57777719Y-45271876D01*
X57777719Y-45271874D01*
X57716528Y-45151780D01*
X57716526Y-45151778D01*
X57716523Y-45151774D01*
X57621225Y-45056476D01*
X57621221Y-45056473D01*
X57621220Y-45056472D01*
X57501126Y-44995281D01*
X57501124Y-44995280D01*
X57501121Y-44995279D01*
X57401493Y-44979500D01*
X57401488Y-44979500D01*
X56584512Y-44979500D01*
X56584507Y-44979500D01*
X56484878Y-44995279D01*
X56364778Y-45056473D01*
X56364774Y-45056476D01*
X56269476Y-45151774D01*
X56269473Y-45151778D01*
X56208279Y-45271878D01*
X56192500Y-45371506D01*
X56192500Y-45888493D01*
X56208279Y-45988121D01*
X56208280Y-45988124D01*
X56208281Y-45988126D01*
X56246895Y-46063910D01*
X56269473Y-46108221D01*
X56269476Y-46108225D01*
X56364774Y-46203523D01*
X56364777Y-46203525D01*
X56364780Y-46203528D01*
X56364782Y-46203529D01*
X56366379Y-46204689D01*
X56367858Y-46206607D01*
X56371680Y-46210429D01*
X56371186Y-46210922D01*
X56409048Y-46260017D01*
X56417500Y-46305012D01*
X56417500Y-50955500D01*
X56397815Y-51022539D01*
X56345011Y-51068294D01*
X56293500Y-51079500D01*
X55188730Y-51079500D01*
X55158300Y-51082353D01*
X55158298Y-51082353D01*
X55030119Y-51127206D01*
X55030117Y-51127207D01*
X54920850Y-51207850D01*
X54840207Y-51317117D01*
X54840206Y-51317119D01*
X54795353Y-51445298D01*
X54795353Y-51445300D01*
X54792500Y-51475730D01*
X54792500Y-52684269D01*
X54795353Y-52714699D01*
X54795353Y-52714701D01*
X54838123Y-52836926D01*
X54840207Y-52842882D01*
X54920850Y-52952150D01*
X54971092Y-52989230D01*
X55013343Y-53044878D01*
X55018801Y-53114534D01*
X54985733Y-53176083D01*
X54924639Y-53209984D01*
X54897458Y-53213000D01*
X54486771Y-53213000D01*
X54419732Y-53193315D01*
X54373977Y-53140511D01*
X54364033Y-53071353D01*
X54381232Y-53023903D01*
X54427356Y-52949124D01*
X54427358Y-52949119D01*
X54482505Y-52782697D01*
X54482506Y-52782690D01*
X54492999Y-52679986D01*
X54493000Y-52679973D01*
X54493000Y-52330000D01*
X50893001Y-52330000D01*
X50893001Y-52679986D01*
X50903494Y-52782697D01*
X50958641Y-52949119D01*
X50958643Y-52949124D01*
X51004768Y-53023903D01*
X51023208Y-53091295D01*
X51002286Y-53157959D01*
X50948644Y-53202729D01*
X50899229Y-53213000D01*
X46586771Y-53213000D01*
X46519732Y-53193315D01*
X46473977Y-53140511D01*
X46464033Y-53071353D01*
X46481232Y-53023903D01*
X46527356Y-52949124D01*
X46527358Y-52949119D01*
X46582505Y-52782697D01*
X46582506Y-52782690D01*
X46592999Y-52679986D01*
X46593000Y-52679973D01*
X46593000Y-52330000D01*
X42993001Y-52330000D01*
X42993001Y-52679986D01*
X43003494Y-52782697D01*
X43058641Y-52949119D01*
X43058643Y-52949124D01*
X43104768Y-53023903D01*
X43123208Y-53091295D01*
X43102286Y-53157959D01*
X43048644Y-53202729D01*
X42999229Y-53213000D01*
X42588542Y-53213000D01*
X42521503Y-53193315D01*
X42475748Y-53140511D01*
X42465804Y-53071353D01*
X42494829Y-53007797D01*
X42514908Y-52989230D01*
X42565150Y-52952150D01*
X42645793Y-52842882D01*
X42671258Y-52770108D01*
X42690646Y-52714701D01*
X42690646Y-52714699D01*
X42693500Y-52684269D01*
X42693500Y-51480013D01*
X42993000Y-51480013D01*
X42993000Y-51830000D01*
X44543000Y-51830000D01*
X45043000Y-51830000D01*
X46592999Y-51830000D01*
X46592999Y-51480028D01*
X46592998Y-51480013D01*
X50893000Y-51480013D01*
X50893000Y-51830000D01*
X52443000Y-51830000D01*
X52943000Y-51830000D01*
X54492999Y-51830000D01*
X54492999Y-51480028D01*
X54492998Y-51480013D01*
X54482505Y-51377302D01*
X54427358Y-51210880D01*
X54427356Y-51210875D01*
X54335315Y-51061654D01*
X54211345Y-50937684D01*
X54062124Y-50845643D01*
X54062119Y-50845641D01*
X53895697Y-50790494D01*
X53895690Y-50790493D01*
X53792986Y-50780000D01*
X52943000Y-50780000D01*
X52943000Y-51830000D01*
X52443000Y-51830000D01*
X52443000Y-50780000D01*
X51593028Y-50780000D01*
X51593012Y-50780001D01*
X51490302Y-50790494D01*
X51323880Y-50845641D01*
X51323875Y-50845643D01*
X51174654Y-50937684D01*
X51050684Y-51061654D01*
X50958643Y-51210875D01*
X50958641Y-51210880D01*
X50903494Y-51377302D01*
X50903493Y-51377309D01*
X50893000Y-51480013D01*
X46592998Y-51480013D01*
X46582505Y-51377302D01*
X46527358Y-51210880D01*
X46527356Y-51210875D01*
X46435315Y-51061654D01*
X46311345Y-50937684D01*
X46162124Y-50845643D01*
X46162119Y-50845641D01*
X45995697Y-50790494D01*
X45995690Y-50790493D01*
X45892986Y-50780000D01*
X45043000Y-50780000D01*
X45043000Y-51830000D01*
X44543000Y-51830000D01*
X44543000Y-50780000D01*
X43693028Y-50780000D01*
X43693012Y-50780001D01*
X43590302Y-50790494D01*
X43423880Y-50845641D01*
X43423875Y-50845643D01*
X43274654Y-50937684D01*
X43150684Y-51061654D01*
X43058643Y-51210875D01*
X43058641Y-51210880D01*
X43003494Y-51377302D01*
X43003493Y-51377309D01*
X42993000Y-51480013D01*
X42693500Y-51480013D01*
X42693500Y-51475730D01*
X42690646Y-51445300D01*
X42690646Y-51445298D01*
X42645793Y-51317119D01*
X42645792Y-51317117D01*
X42565150Y-51207850D01*
X42455882Y-51127207D01*
X42455880Y-51127206D01*
X42327700Y-51082353D01*
X42297270Y-51079500D01*
X42297266Y-51079500D01*
X41192500Y-51079500D01*
X41125461Y-51059815D01*
X41079706Y-51007011D01*
X41068500Y-50955500D01*
X41068500Y-47499038D01*
X47167500Y-47499038D01*
X47167500Y-47750961D01*
X47206910Y-47999785D01*
X47284760Y-48239383D01*
X47399132Y-48463848D01*
X47547201Y-48667649D01*
X47547205Y-48667654D01*
X47725345Y-48845794D01*
X47725350Y-48845798D01*
X47903117Y-48974952D01*
X47929155Y-48993870D01*
X48072184Y-49066747D01*
X48153616Y-49108239D01*
X48153618Y-49108239D01*
X48153621Y-49108241D01*
X48393215Y-49186090D01*
X48642038Y-49225500D01*
X48642039Y-49225500D01*
X48893961Y-49225500D01*
X48893962Y-49225500D01*
X49142785Y-49186090D01*
X49382379Y-49108241D01*
X49606845Y-48993870D01*
X49810656Y-48845793D01*
X49988793Y-48667656D01*
X50136870Y-48463845D01*
X50251241Y-48239379D01*
X50329090Y-47999785D01*
X50368500Y-47750962D01*
X50368500Y-47499038D01*
X50329090Y-47250215D01*
X50251241Y-47010621D01*
X50251239Y-47010618D01*
X50251239Y-47010616D01*
X50209747Y-46929184D01*
X50136870Y-46786155D01*
X50117952Y-46760117D01*
X49988798Y-46582350D01*
X49988794Y-46582345D01*
X49810654Y-46404205D01*
X49810649Y-46404201D01*
X49606848Y-46256132D01*
X49606847Y-46256131D01*
X49606845Y-46256130D01*
X49509651Y-46206607D01*
X49382383Y-46141760D01*
X49142785Y-46063910D01*
X48893962Y-46024500D01*
X48642038Y-46024500D01*
X48517626Y-46044205D01*
X48393214Y-46063910D01*
X48153616Y-46141760D01*
X47929151Y-46256132D01*
X47725350Y-46404201D01*
X47725345Y-46404205D01*
X47547205Y-46582345D01*
X47547201Y-46582350D01*
X47399132Y-46786151D01*
X47284760Y-47010616D01*
X47206910Y-47250214D01*
X47167500Y-47499038D01*
X41068500Y-47499038D01*
X41068500Y-46305012D01*
X41088185Y-46237973D01*
X41119621Y-46204689D01*
X41121213Y-46203531D01*
X41121220Y-46203528D01*
X41216528Y-46108220D01*
X41277719Y-45988126D01*
X41277720Y-45988121D01*
X41293500Y-45888493D01*
X41293500Y-45371506D01*
X41277720Y-45271878D01*
X41277719Y-45271876D01*
X41277719Y-45271874D01*
X41216528Y-45151780D01*
X41216526Y-45151778D01*
X41216523Y-45151774D01*
X41121225Y-45056476D01*
X41121221Y-45056473D01*
X41121220Y-45056472D01*
X41001126Y-44995281D01*
X41001124Y-44995280D01*
X41001121Y-44995279D01*
X40901493Y-44979500D01*
X40901488Y-44979500D01*
X40084512Y-44979500D01*
X40084507Y-44979500D01*
X39984878Y-44995279D01*
X39864778Y-45056473D01*
X39864774Y-45056476D01*
X39769476Y-45151774D01*
X39769473Y-45151778D01*
X39708279Y-45271878D01*
X39692500Y-45371506D01*
X39692500Y-45888493D01*
X39708279Y-45988121D01*
X39708280Y-45988124D01*
X39708281Y-45988126D01*
X39746895Y-46063910D01*
X39769473Y-46108221D01*
X39769476Y-46108225D01*
X39864774Y-46203523D01*
X39864777Y-46203525D01*
X39864780Y-46203528D01*
X39864782Y-46203529D01*
X39866379Y-46204689D01*
X39867858Y-46206607D01*
X39871680Y-46210429D01*
X39871186Y-46210922D01*
X39909048Y-46260017D01*
X39917500Y-46305012D01*
X39917500Y-51073920D01*
X39897815Y-51140959D01*
X39867134Y-51173690D01*
X39820853Y-51207847D01*
X39820850Y-51207850D01*
X39740207Y-51317117D01*
X39740206Y-51317119D01*
X39695353Y-51445298D01*
X39695353Y-51445300D01*
X39692500Y-51475730D01*
X39692500Y-52684264D01*
X39694118Y-52701524D01*
X39680776Y-52770108D01*
X39658341Y-52800777D01*
X39622195Y-52836924D01*
X39622194Y-52836925D01*
X39622193Y-52836925D01*
X39622194Y-52836926D01*
X39532485Y-52926635D01*
X39456719Y-53057863D01*
X39453105Y-53071353D01*
X39439776Y-53121095D01*
X39403414Y-53180753D01*
X39340567Y-53211283D01*
X39320003Y-53213000D01*
X38892000Y-53213000D01*
X38824961Y-53193315D01*
X38779206Y-53140511D01*
X38768000Y-53089000D01*
X38768000Y-42071506D01*
X39692500Y-42071506D01*
X39692500Y-42588493D01*
X39708279Y-42688121D01*
X39708280Y-42688124D01*
X39708281Y-42688126D01*
X39769472Y-42808220D01*
X39769473Y-42808221D01*
X39769476Y-42808225D01*
X39864774Y-42903523D01*
X39864778Y-42903526D01*
X39864780Y-42903528D01*
X39984874Y-42964719D01*
X39984876Y-42964719D01*
X39984878Y-42964720D01*
X40084507Y-42980500D01*
X40084512Y-42980500D01*
X40901493Y-42980500D01*
X41001121Y-42964720D01*
X41001121Y-42964719D01*
X41001126Y-42964719D01*
X41121220Y-42903528D01*
X41216528Y-42808220D01*
X41277719Y-42688126D01*
X41279698Y-42675633D01*
X41293500Y-42588493D01*
X41293500Y-42071506D01*
X41277720Y-41971878D01*
X41277719Y-41971876D01*
X41277719Y-41971874D01*
X41216528Y-41851780D01*
X41216526Y-41851778D01*
X41216523Y-41851774D01*
X41121223Y-41756474D01*
X41119614Y-41755305D01*
X41118131Y-41753382D01*
X41114320Y-41749571D01*
X41114812Y-41749078D01*
X41076948Y-41699974D01*
X41068500Y-41654987D01*
X41068500Y-40996551D01*
X41088185Y-40929512D01*
X41092181Y-40923666D01*
X41096044Y-40918347D01*
X41096050Y-40918342D01*
X41153646Y-40805304D01*
X41153646Y-40805302D01*
X41153647Y-40805301D01*
X41168499Y-40711524D01*
X41168500Y-40711519D01*
X41168499Y-40248482D01*
X41153646Y-40154696D01*
X41096050Y-40041658D01*
X41096046Y-40041654D01*
X41096045Y-40041652D01*
X41006347Y-39951954D01*
X41006344Y-39951952D01*
X41006342Y-39951950D01*
X40928841Y-39912461D01*
X40893301Y-39894352D01*
X40799524Y-39879500D01*
X40186482Y-39879500D01*
X40105519Y-39892323D01*
X40092696Y-39894354D01*
X39979658Y-39951950D01*
X39979657Y-39951951D01*
X39979652Y-39951954D01*
X39889954Y-40041652D01*
X39889951Y-40041657D01*
X39889950Y-40041658D01*
X39870751Y-40079337D01*
X39832352Y-40154698D01*
X39817500Y-40248475D01*
X39817500Y-40711517D01*
X39828292Y-40779657D01*
X39832354Y-40805304D01*
X39871182Y-40881507D01*
X39889949Y-40918340D01*
X39893819Y-40923666D01*
X39917298Y-40989473D01*
X39917500Y-40996551D01*
X39917500Y-41654987D01*
X39897815Y-41722026D01*
X39866386Y-41755305D01*
X39864776Y-41756474D01*
X39769476Y-41851774D01*
X39769473Y-41851778D01*
X39708279Y-41971878D01*
X39692500Y-42071506D01*
X38768000Y-42071506D01*
X38768000Y-38598475D01*
X39817500Y-38598475D01*
X39817500Y-39061517D01*
X39825011Y-39108939D01*
X39832354Y-39155304D01*
X39889950Y-39268342D01*
X39889952Y-39268344D01*
X39889954Y-39268347D01*
X39979652Y-39358045D01*
X39979654Y-39358046D01*
X39979658Y-39358050D01*
X40086777Y-39412630D01*
X40092698Y-39415647D01*
X40186475Y-39430499D01*
X40186481Y-39430500D01*
X40799518Y-39430499D01*
X40893304Y-39415646D01*
X40893309Y-39415643D01*
X40902587Y-39412630D01*
X40903361Y-39415013D01*
X40942986Y-39405500D01*
X42493500Y-39405500D01*
X42560539Y-39425185D01*
X42606294Y-39477989D01*
X42617500Y-39529500D01*
X42617500Y-39674752D01*
X42629131Y-39733229D01*
X42629132Y-39733230D01*
X42673447Y-39799552D01*
X42739769Y-39843867D01*
X42739770Y-39843868D01*
X42798247Y-39855499D01*
X42798250Y-39855500D01*
X42798252Y-39855500D01*
X42968500Y-39855500D01*
X43035539Y-39875185D01*
X43081294Y-39927989D01*
X43092500Y-39979500D01*
X43092500Y-40399680D01*
X43072815Y-40466719D01*
X43047165Y-40495533D01*
X42921590Y-40598589D01*
X42790317Y-40758547D01*
X42692769Y-40941043D01*
X42632699Y-41139067D01*
X42612417Y-41345000D01*
X42632699Y-41550932D01*
X42632700Y-41550934D01*
X42692768Y-41748954D01*
X42790315Y-41931450D01*
X42790317Y-41931452D01*
X42921589Y-42091410D01*
X43018209Y-42170702D01*
X43081550Y-42222685D01*
X43264046Y-42320232D01*
X43462066Y-42380300D01*
X43462065Y-42380300D01*
X43480529Y-42382118D01*
X43668000Y-42400583D01*
X43873934Y-42380300D01*
X44071954Y-42320232D01*
X44254450Y-42222685D01*
X44414410Y-42091410D01*
X44545685Y-41931450D01*
X44643232Y-41748954D01*
X44663406Y-41682446D01*
X44701702Y-41624010D01*
X44765514Y-41595553D01*
X44834581Y-41606112D01*
X44886975Y-41652336D01*
X44901841Y-41686349D01*
X44934567Y-41808486D01*
X44934570Y-41808492D01*
X45034399Y-42022578D01*
X45169894Y-42216082D01*
X45336917Y-42383105D01*
X45530421Y-42518600D01*
X45744507Y-42618429D01*
X45744516Y-42618433D01*
X45958000Y-42675634D01*
X45958000Y-41778012D01*
X46015007Y-41810925D01*
X46142174Y-41845000D01*
X46273826Y-41845000D01*
X46400993Y-41810925D01*
X46458000Y-41778012D01*
X46458000Y-42675633D01*
X46671483Y-42618433D01*
X46671492Y-42618429D01*
X46885578Y-42518600D01*
X47079082Y-42383105D01*
X47246105Y-42216082D01*
X47376425Y-42029968D01*
X47431002Y-41986344D01*
X47500501Y-41979151D01*
X47562855Y-42010673D01*
X47579575Y-42029968D01*
X47709894Y-42216082D01*
X47876917Y-42383105D01*
X48070421Y-42518600D01*
X48284507Y-42618429D01*
X48284516Y-42618433D01*
X48498000Y-42675634D01*
X48498000Y-41778012D01*
X48555007Y-41810925D01*
X48682174Y-41845000D01*
X48813826Y-41845000D01*
X48940993Y-41810925D01*
X48998000Y-41778012D01*
X48998000Y-42675633D01*
X49211483Y-42618433D01*
X49211492Y-42618429D01*
X49425578Y-42518600D01*
X49619082Y-42383105D01*
X49786105Y-42216082D01*
X49916425Y-42029968D01*
X49971002Y-41986344D01*
X50040501Y-41979151D01*
X50102855Y-42010673D01*
X50119575Y-42029968D01*
X50249894Y-42216082D01*
X50416917Y-42383105D01*
X50610421Y-42518600D01*
X50824507Y-42618429D01*
X50824516Y-42618433D01*
X51038000Y-42675634D01*
X51038000Y-41778012D01*
X51095007Y-41810925D01*
X51222174Y-41845000D01*
X51353826Y-41845000D01*
X51480993Y-41810925D01*
X51538000Y-41778012D01*
X51538000Y-42675633D01*
X51751483Y-42618433D01*
X51751492Y-42618429D01*
X51965578Y-42518600D01*
X52159082Y-42383105D01*
X52326105Y-42216082D01*
X52461600Y-42022578D01*
X52561429Y-41808492D01*
X52561433Y-41808483D01*
X52594158Y-41686350D01*
X52630522Y-41626690D01*
X52693369Y-41596160D01*
X52762745Y-41604454D01*
X52816623Y-41648939D01*
X52832593Y-41682447D01*
X52852768Y-41748954D01*
X52950315Y-41931450D01*
X52950317Y-41931452D01*
X53081589Y-42091410D01*
X53178209Y-42170702D01*
X53241550Y-42222685D01*
X53424046Y-42320232D01*
X53622066Y-42380300D01*
X53622065Y-42380300D01*
X53640529Y-42382118D01*
X53828000Y-42400583D01*
X54033934Y-42380300D01*
X54231954Y-42320232D01*
X54414450Y-42222685D01*
X54574410Y-42091410D01*
X54590745Y-42071506D01*
X56192500Y-42071506D01*
X56192500Y-42588493D01*
X56208279Y-42688121D01*
X56208280Y-42688124D01*
X56208281Y-42688126D01*
X56269472Y-42808220D01*
X56269473Y-42808221D01*
X56269476Y-42808225D01*
X56364774Y-42903523D01*
X56364778Y-42903526D01*
X56364780Y-42903528D01*
X56484874Y-42964719D01*
X56484876Y-42964719D01*
X56484878Y-42964720D01*
X56584507Y-42980500D01*
X56584512Y-42980500D01*
X57401493Y-42980500D01*
X57501121Y-42964720D01*
X57501121Y-42964719D01*
X57501126Y-42964719D01*
X57621220Y-42903528D01*
X57716528Y-42808220D01*
X57777719Y-42688126D01*
X57779698Y-42675633D01*
X57793500Y-42588493D01*
X57793500Y-42071506D01*
X57777720Y-41971878D01*
X57777719Y-41971876D01*
X57777719Y-41971874D01*
X57716528Y-41851780D01*
X57716526Y-41851778D01*
X57716523Y-41851774D01*
X57621223Y-41756474D01*
X57619614Y-41755305D01*
X57618131Y-41753382D01*
X57614320Y-41749571D01*
X57614812Y-41749078D01*
X57576948Y-41699974D01*
X57568500Y-41654987D01*
X57568500Y-40996551D01*
X57588185Y-40929512D01*
X57592181Y-40923666D01*
X57596044Y-40918347D01*
X57596050Y-40918342D01*
X57653646Y-40805304D01*
X57653646Y-40805302D01*
X57653647Y-40805301D01*
X57668499Y-40711524D01*
X57668500Y-40711519D01*
X57668499Y-40248482D01*
X57653646Y-40154696D01*
X57596050Y-40041658D01*
X57596046Y-40041654D01*
X57596045Y-40041652D01*
X57506347Y-39951954D01*
X57506344Y-39951952D01*
X57506342Y-39951950D01*
X57428841Y-39912461D01*
X57393301Y-39894352D01*
X57299524Y-39879500D01*
X56686482Y-39879500D01*
X56605519Y-39892323D01*
X56592696Y-39894354D01*
X56479658Y-39951950D01*
X56479657Y-39951951D01*
X56479652Y-39951954D01*
X56389954Y-40041652D01*
X56389951Y-40041657D01*
X56389950Y-40041658D01*
X56370751Y-40079337D01*
X56332352Y-40154698D01*
X56317500Y-40248475D01*
X56317500Y-40711517D01*
X56328292Y-40779657D01*
X56332354Y-40805304D01*
X56371182Y-40881507D01*
X56389949Y-40918340D01*
X56393819Y-40923666D01*
X56417298Y-40989473D01*
X56417500Y-40996551D01*
X56417500Y-41654987D01*
X56397815Y-41722026D01*
X56366386Y-41755305D01*
X56364776Y-41756474D01*
X56269476Y-41851774D01*
X56269473Y-41851778D01*
X56208279Y-41971878D01*
X56192500Y-42071506D01*
X54590745Y-42071506D01*
X54705685Y-41931450D01*
X54803232Y-41748954D01*
X54863300Y-41550934D01*
X54883583Y-41345000D01*
X54863300Y-41139066D01*
X54803232Y-40941046D01*
X54705685Y-40758550D01*
X54624833Y-40660031D01*
X54574410Y-40598589D01*
X54414451Y-40467315D01*
X54394045Y-40456408D01*
X54344202Y-40407445D01*
X54328500Y-40347051D01*
X54328500Y-39802948D01*
X54348185Y-39735909D01*
X54394047Y-39693590D01*
X54414450Y-39682685D01*
X54574410Y-39551410D01*
X54640669Y-39470673D01*
X54677467Y-39425835D01*
X54735212Y-39386501D01*
X54773320Y-39380500D01*
X56493948Y-39380500D01*
X56550242Y-39394015D01*
X56592698Y-39415647D01*
X56686475Y-39430499D01*
X56686481Y-39430500D01*
X57299518Y-39430499D01*
X57393304Y-39415646D01*
X57506342Y-39358050D01*
X57596050Y-39268342D01*
X57653646Y-39155304D01*
X57653646Y-39155302D01*
X57653647Y-39155301D01*
X57668499Y-39061524D01*
X57668500Y-39061519D01*
X57668499Y-38598482D01*
X57653646Y-38504696D01*
X57596050Y-38391658D01*
X57596046Y-38391654D01*
X57596045Y-38391652D01*
X57506347Y-38301954D01*
X57506344Y-38301952D01*
X57506342Y-38301950D01*
X57413217Y-38254500D01*
X57393301Y-38244352D01*
X57299524Y-38229500D01*
X57299519Y-38229500D01*
X57043767Y-38229500D01*
X57043766Y-38229500D01*
X54773320Y-38229500D01*
X54706281Y-38209815D01*
X54677467Y-38184165D01*
X54574410Y-38058590D01*
X54424121Y-37935252D01*
X54414450Y-37927315D01*
X54231954Y-37829768D01*
X54033934Y-37769700D01*
X54033932Y-37769699D01*
X54033934Y-37769699D01*
X53828000Y-37749417D01*
X53622067Y-37769699D01*
X53424043Y-37829769D01*
X53336114Y-37876769D01*
X53241550Y-37927315D01*
X53241548Y-37927316D01*
X53241547Y-37927317D01*
X53081589Y-38058589D01*
X52950317Y-38218547D01*
X52950315Y-38218550D01*
X52936185Y-38244986D01*
X52852767Y-38401046D01*
X52832593Y-38467552D01*
X52794296Y-38525990D01*
X52730483Y-38554447D01*
X52661416Y-38543886D01*
X52609023Y-38497661D01*
X52594158Y-38463649D01*
X52561433Y-38341516D01*
X52561429Y-38341507D01*
X52461600Y-38127422D01*
X52461599Y-38127420D01*
X52326113Y-37933926D01*
X52326108Y-37933920D01*
X52159082Y-37766894D01*
X51965578Y-37631399D01*
X51751492Y-37531570D01*
X51751486Y-37531567D01*
X51538000Y-37474364D01*
X51538000Y-38371988D01*
X51480993Y-38339075D01*
X51353826Y-38305000D01*
X51222174Y-38305000D01*
X51095007Y-38339075D01*
X51038000Y-38371988D01*
X51038000Y-37474364D01*
X51037999Y-37474364D01*
X50824513Y-37531567D01*
X50824507Y-37531570D01*
X50610422Y-37631399D01*
X50610420Y-37631400D01*
X50416926Y-37766886D01*
X50416920Y-37766891D01*
X50249891Y-37933920D01*
X50249890Y-37933922D01*
X50119575Y-38120031D01*
X50064998Y-38163655D01*
X49995499Y-38170848D01*
X49933145Y-38139326D01*
X49916425Y-38120031D01*
X49786109Y-37933922D01*
X49786108Y-37933920D01*
X49619082Y-37766894D01*
X49425578Y-37631399D01*
X49211492Y-37531570D01*
X49211486Y-37531567D01*
X48998000Y-37474364D01*
X48998000Y-38371988D01*
X48940993Y-38339075D01*
X48813826Y-38305000D01*
X48682174Y-38305000D01*
X48555007Y-38339075D01*
X48498000Y-38371988D01*
X48498000Y-37474364D01*
X48497999Y-37474364D01*
X48284513Y-37531567D01*
X48284507Y-37531570D01*
X48070422Y-37631399D01*
X48070420Y-37631400D01*
X47876926Y-37766886D01*
X47876920Y-37766891D01*
X47709891Y-37933920D01*
X47709890Y-37933922D01*
X47579575Y-38120031D01*
X47524998Y-38163655D01*
X47455499Y-38170848D01*
X47393145Y-38139326D01*
X47376425Y-38120031D01*
X47246109Y-37933922D01*
X47246108Y-37933920D01*
X47079082Y-37766894D01*
X46885578Y-37631399D01*
X46671492Y-37531570D01*
X46671486Y-37531567D01*
X46458000Y-37474364D01*
X46458000Y-38371988D01*
X46400993Y-38339075D01*
X46273826Y-38305000D01*
X46142174Y-38305000D01*
X46015007Y-38339075D01*
X45958000Y-38371988D01*
X45958000Y-37474364D01*
X45957999Y-37474364D01*
X45744513Y-37531567D01*
X45744507Y-37531570D01*
X45530422Y-37631399D01*
X45530420Y-37631400D01*
X45336926Y-37766886D01*
X45336920Y-37766891D01*
X45169891Y-37933920D01*
X45169886Y-37933926D01*
X45034400Y-38127420D01*
X45034399Y-38127422D01*
X44954882Y-38297948D01*
X44908710Y-38350387D01*
X44841516Y-38369539D01*
X44774635Y-38349323D01*
X44729300Y-38296158D01*
X44718500Y-38245543D01*
X44718500Y-37935249D01*
X44718499Y-37935247D01*
X44706868Y-37876770D01*
X44706867Y-37876769D01*
X44662552Y-37810447D01*
X44596230Y-37766132D01*
X44596229Y-37766131D01*
X44537752Y-37754500D01*
X44537748Y-37754500D01*
X42798252Y-37754500D01*
X42798247Y-37754500D01*
X42739770Y-37766131D01*
X42739769Y-37766132D01*
X42673447Y-37810447D01*
X42629132Y-37876769D01*
X42629131Y-37876770D01*
X42617500Y-37935247D01*
X42617500Y-38130500D01*
X42597815Y-38197539D01*
X42545011Y-38243294D01*
X42493500Y-38254500D01*
X40942987Y-38254500D01*
X40903362Y-38244986D01*
X40902588Y-38247370D01*
X40893302Y-38244353D01*
X40799524Y-38229500D01*
X40186482Y-38229500D01*
X40105519Y-38242323D01*
X40092696Y-38244354D01*
X39979658Y-38301950D01*
X39979657Y-38301951D01*
X39979652Y-38301954D01*
X39889954Y-38391652D01*
X39889951Y-38391657D01*
X39889950Y-38391658D01*
X39870751Y-38429337D01*
X39832352Y-38504698D01*
X39817500Y-38598475D01*
X38768000Y-38598475D01*
X38768000Y-35430000D01*
X38787685Y-35362961D01*
X38840489Y-35317206D01*
X38892000Y-35306000D01*
X58550000Y-35306000D01*
X58617039Y-35325685D01*
G37*
%TD.AperFunction*%
%TD*%
M02*
