%TF.GenerationSoftware,KiCad,Pcbnew,8.0.5*%
%TF.CreationDate,2024-11-05T23:16:52+01:00*%
%TF.ProjectId,Leveller,4c657665-6c6c-4657-922e-6b696361645f,rev?*%
%TF.SameCoordinates,Original*%
%TF.FileFunction,Legend,Bot*%
%TF.FilePolarity,Positive*%
%FSLAX46Y46*%
G04 Gerber Fmt 4.6, Leading zero omitted, Abs format (unit mm)*
G04 Created by KiCad (PCBNEW 8.0.5) date 2024-11-05 23:16:52*
%MOMM*%
%LPD*%
G01*
G04 APERTURE LIST*
%ADD10C,0.150000*%
%ADD11C,0.220000*%
%ADD12C,0.300000*%
%ADD13C,0.120000*%
%ADD14C,2.700000*%
%ADD15R,1.700000X1.700000*%
%ADD16O,1.700000X1.700000*%
G04 APERTURE END LIST*
D10*
X39993000Y-77530000D02*
X49243000Y-77530000D01*
X49243000Y-82330000D01*
X39993000Y-82330000D01*
X39993000Y-77530000D01*
G36*
X39993000Y-77530000D02*
G01*
X49243000Y-77530000D01*
X49243000Y-82330000D01*
X39993000Y-82330000D01*
X39993000Y-77530000D01*
G37*
X41640000Y-36639000D02*
X44916000Y-36639000D01*
X44916000Y-43476000D01*
X41640000Y-43476000D01*
X41640000Y-36639000D01*
G36*
X41640000Y-36639000D02*
G01*
X44916000Y-36639000D01*
X44916000Y-43476000D01*
X41640000Y-43476000D01*
X41640000Y-36639000D01*
G37*
X54612819Y-49666779D02*
X53612819Y-49666779D01*
X54612819Y-50095350D02*
X54089009Y-50095350D01*
X54089009Y-50095350D02*
X53993771Y-50047731D01*
X53993771Y-50047731D02*
X53946152Y-49952493D01*
X53946152Y-49952493D02*
X53946152Y-49809636D01*
X53946152Y-49809636D02*
X53993771Y-49714398D01*
X53993771Y-49714398D02*
X54041390Y-49666779D01*
X53946152Y-50428684D02*
X53946152Y-50809636D01*
X53612819Y-50571541D02*
X54469961Y-50571541D01*
X54469961Y-50571541D02*
X54565200Y-50619160D01*
X54565200Y-50619160D02*
X54612819Y-50714398D01*
X54612819Y-50714398D02*
X54612819Y-50809636D01*
X53946152Y-51000113D02*
X53946152Y-51381065D01*
X53612819Y-51142970D02*
X54469961Y-51142970D01*
X54469961Y-51142970D02*
X54565200Y-51190589D01*
X54565200Y-51190589D02*
X54612819Y-51285827D01*
X54612819Y-51285827D02*
X54612819Y-51381065D01*
X53946152Y-51714399D02*
X54946152Y-51714399D01*
X53993771Y-51714399D02*
X53946152Y-51809637D01*
X53946152Y-51809637D02*
X53946152Y-52000113D01*
X53946152Y-52000113D02*
X53993771Y-52095351D01*
X53993771Y-52095351D02*
X54041390Y-52142970D01*
X54041390Y-52142970D02*
X54136628Y-52190589D01*
X54136628Y-52190589D02*
X54422342Y-52190589D01*
X54422342Y-52190589D02*
X54517580Y-52142970D01*
X54517580Y-52142970D02*
X54565200Y-52095351D01*
X54565200Y-52095351D02*
X54612819Y-52000113D01*
X54612819Y-52000113D02*
X54612819Y-51809637D01*
X54612819Y-51809637D02*
X54565200Y-51714399D01*
X54565200Y-52571542D02*
X54612819Y-52666780D01*
X54612819Y-52666780D02*
X54612819Y-52857256D01*
X54612819Y-52857256D02*
X54565200Y-52952494D01*
X54565200Y-52952494D02*
X54469961Y-53000113D01*
X54469961Y-53000113D02*
X54422342Y-53000113D01*
X54422342Y-53000113D02*
X54327104Y-52952494D01*
X54327104Y-52952494D02*
X54279485Y-52857256D01*
X54279485Y-52857256D02*
X54279485Y-52714399D01*
X54279485Y-52714399D02*
X54231866Y-52619161D01*
X54231866Y-52619161D02*
X54136628Y-52571542D01*
X54136628Y-52571542D02*
X54089009Y-52571542D01*
X54089009Y-52571542D02*
X53993771Y-52619161D01*
X53993771Y-52619161D02*
X53946152Y-52714399D01*
X53946152Y-52714399D02*
X53946152Y-52857256D01*
X53946152Y-52857256D02*
X53993771Y-52952494D01*
X54517580Y-53428685D02*
X54565200Y-53476304D01*
X54565200Y-53476304D02*
X54612819Y-53428685D01*
X54612819Y-53428685D02*
X54565200Y-53381066D01*
X54565200Y-53381066D02*
X54517580Y-53428685D01*
X54517580Y-53428685D02*
X54612819Y-53428685D01*
X53993771Y-53428685D02*
X54041390Y-53476304D01*
X54041390Y-53476304D02*
X54089009Y-53428685D01*
X54089009Y-53428685D02*
X54041390Y-53381066D01*
X54041390Y-53381066D02*
X53993771Y-53428685D01*
X53993771Y-53428685D02*
X54089009Y-53428685D01*
X53565200Y-54619160D02*
X54850914Y-53762018D01*
X53565200Y-55666779D02*
X54850914Y-54809637D01*
X53946152Y-56428684D02*
X54755676Y-56428684D01*
X54755676Y-56428684D02*
X54850914Y-56381065D01*
X54850914Y-56381065D02*
X54898533Y-56333446D01*
X54898533Y-56333446D02*
X54946152Y-56238208D01*
X54946152Y-56238208D02*
X54946152Y-56095351D01*
X54946152Y-56095351D02*
X54898533Y-56000113D01*
X54565200Y-56428684D02*
X54612819Y-56333446D01*
X54612819Y-56333446D02*
X54612819Y-56142970D01*
X54612819Y-56142970D02*
X54565200Y-56047732D01*
X54565200Y-56047732D02*
X54517580Y-56000113D01*
X54517580Y-56000113D02*
X54422342Y-55952494D01*
X54422342Y-55952494D02*
X54136628Y-55952494D01*
X54136628Y-55952494D02*
X54041390Y-56000113D01*
X54041390Y-56000113D02*
X53993771Y-56047732D01*
X53993771Y-56047732D02*
X53946152Y-56142970D01*
X53946152Y-56142970D02*
X53946152Y-56333446D01*
X53946152Y-56333446D02*
X53993771Y-56428684D01*
X54612819Y-56904875D02*
X53946152Y-56904875D01*
X53612819Y-56904875D02*
X53660438Y-56857256D01*
X53660438Y-56857256D02*
X53708057Y-56904875D01*
X53708057Y-56904875D02*
X53660438Y-56952494D01*
X53660438Y-56952494D02*
X53612819Y-56904875D01*
X53612819Y-56904875D02*
X53708057Y-56904875D01*
X53946152Y-57238208D02*
X53946152Y-57619160D01*
X53612819Y-57381065D02*
X54469961Y-57381065D01*
X54469961Y-57381065D02*
X54565200Y-57428684D01*
X54565200Y-57428684D02*
X54612819Y-57523922D01*
X54612819Y-57523922D02*
X54612819Y-57619160D01*
X54612819Y-57952494D02*
X53612819Y-57952494D01*
X54612819Y-58381065D02*
X54089009Y-58381065D01*
X54089009Y-58381065D02*
X53993771Y-58333446D01*
X53993771Y-58333446D02*
X53946152Y-58238208D01*
X53946152Y-58238208D02*
X53946152Y-58095351D01*
X53946152Y-58095351D02*
X53993771Y-58000113D01*
X53993771Y-58000113D02*
X54041390Y-57952494D01*
X53946152Y-59285827D02*
X54612819Y-59285827D01*
X53946152Y-58857256D02*
X54469961Y-58857256D01*
X54469961Y-58857256D02*
X54565200Y-58904875D01*
X54565200Y-58904875D02*
X54612819Y-59000113D01*
X54612819Y-59000113D02*
X54612819Y-59142970D01*
X54612819Y-59142970D02*
X54565200Y-59238208D01*
X54565200Y-59238208D02*
X54517580Y-59285827D01*
X54612819Y-59762018D02*
X53612819Y-59762018D01*
X53993771Y-59762018D02*
X53946152Y-59857256D01*
X53946152Y-59857256D02*
X53946152Y-60047732D01*
X53946152Y-60047732D02*
X53993771Y-60142970D01*
X53993771Y-60142970D02*
X54041390Y-60190589D01*
X54041390Y-60190589D02*
X54136628Y-60238208D01*
X54136628Y-60238208D02*
X54422342Y-60238208D01*
X54422342Y-60238208D02*
X54517580Y-60190589D01*
X54517580Y-60190589D02*
X54565200Y-60142970D01*
X54565200Y-60142970D02*
X54612819Y-60047732D01*
X54612819Y-60047732D02*
X54612819Y-59857256D01*
X54612819Y-59857256D02*
X54565200Y-59762018D01*
X54517580Y-60666780D02*
X54565200Y-60714399D01*
X54565200Y-60714399D02*
X54612819Y-60666780D01*
X54612819Y-60666780D02*
X54565200Y-60619161D01*
X54565200Y-60619161D02*
X54517580Y-60666780D01*
X54517580Y-60666780D02*
X54612819Y-60666780D01*
X54565200Y-61571541D02*
X54612819Y-61476303D01*
X54612819Y-61476303D02*
X54612819Y-61285827D01*
X54612819Y-61285827D02*
X54565200Y-61190589D01*
X54565200Y-61190589D02*
X54517580Y-61142970D01*
X54517580Y-61142970D02*
X54422342Y-61095351D01*
X54422342Y-61095351D02*
X54136628Y-61095351D01*
X54136628Y-61095351D02*
X54041390Y-61142970D01*
X54041390Y-61142970D02*
X53993771Y-61190589D01*
X53993771Y-61190589D02*
X53946152Y-61285827D01*
X53946152Y-61285827D02*
X53946152Y-61476303D01*
X53946152Y-61476303D02*
X53993771Y-61571541D01*
X54612819Y-62142970D02*
X54565200Y-62047732D01*
X54565200Y-62047732D02*
X54517580Y-62000113D01*
X54517580Y-62000113D02*
X54422342Y-61952494D01*
X54422342Y-61952494D02*
X54136628Y-61952494D01*
X54136628Y-61952494D02*
X54041390Y-62000113D01*
X54041390Y-62000113D02*
X53993771Y-62047732D01*
X53993771Y-62047732D02*
X53946152Y-62142970D01*
X53946152Y-62142970D02*
X53946152Y-62285827D01*
X53946152Y-62285827D02*
X53993771Y-62381065D01*
X53993771Y-62381065D02*
X54041390Y-62428684D01*
X54041390Y-62428684D02*
X54136628Y-62476303D01*
X54136628Y-62476303D02*
X54422342Y-62476303D01*
X54422342Y-62476303D02*
X54517580Y-62428684D01*
X54517580Y-62428684D02*
X54565200Y-62381065D01*
X54565200Y-62381065D02*
X54612819Y-62285827D01*
X54612819Y-62285827D02*
X54612819Y-62142970D01*
X54612819Y-62904875D02*
X53946152Y-62904875D01*
X54041390Y-62904875D02*
X53993771Y-62952494D01*
X53993771Y-62952494D02*
X53946152Y-63047732D01*
X53946152Y-63047732D02*
X53946152Y-63190589D01*
X53946152Y-63190589D02*
X53993771Y-63285827D01*
X53993771Y-63285827D02*
X54089009Y-63333446D01*
X54089009Y-63333446D02*
X54612819Y-63333446D01*
X54089009Y-63333446D02*
X53993771Y-63381065D01*
X53993771Y-63381065D02*
X53946152Y-63476303D01*
X53946152Y-63476303D02*
X53946152Y-63619160D01*
X53946152Y-63619160D02*
X53993771Y-63714399D01*
X53993771Y-63714399D02*
X54089009Y-63762018D01*
X54089009Y-63762018D02*
X54612819Y-63762018D01*
X53565200Y-64952493D02*
X54850914Y-64095351D01*
X53660438Y-65809636D02*
X53612819Y-65714398D01*
X53612819Y-65714398D02*
X53612819Y-65571541D01*
X53612819Y-65571541D02*
X53660438Y-65428684D01*
X53660438Y-65428684D02*
X53755676Y-65333446D01*
X53755676Y-65333446D02*
X53850914Y-65285827D01*
X53850914Y-65285827D02*
X54041390Y-65238208D01*
X54041390Y-65238208D02*
X54184247Y-65238208D01*
X54184247Y-65238208D02*
X54374723Y-65285827D01*
X54374723Y-65285827D02*
X54469961Y-65333446D01*
X54469961Y-65333446D02*
X54565200Y-65428684D01*
X54565200Y-65428684D02*
X54612819Y-65571541D01*
X54612819Y-65571541D02*
X54612819Y-65666779D01*
X54612819Y-65666779D02*
X54565200Y-65809636D01*
X54565200Y-65809636D02*
X54517580Y-65857255D01*
X54517580Y-65857255D02*
X54184247Y-65857255D01*
X54184247Y-65857255D02*
X54184247Y-65666779D01*
X53946152Y-66714398D02*
X54612819Y-66714398D01*
X53946152Y-66285827D02*
X54469961Y-66285827D01*
X54469961Y-66285827D02*
X54565200Y-66333446D01*
X54565200Y-66333446D02*
X54612819Y-66428684D01*
X54612819Y-66428684D02*
X54612819Y-66571541D01*
X54612819Y-66571541D02*
X54565200Y-66666779D01*
X54565200Y-66666779D02*
X54517580Y-66714398D01*
X53946152Y-67619160D02*
X54755676Y-67619160D01*
X54755676Y-67619160D02*
X54850914Y-67571541D01*
X54850914Y-67571541D02*
X54898533Y-67523922D01*
X54898533Y-67523922D02*
X54946152Y-67428684D01*
X54946152Y-67428684D02*
X54946152Y-67285827D01*
X54946152Y-67285827D02*
X54898533Y-67190589D01*
X54565200Y-67619160D02*
X54612819Y-67523922D01*
X54612819Y-67523922D02*
X54612819Y-67333446D01*
X54612819Y-67333446D02*
X54565200Y-67238208D01*
X54565200Y-67238208D02*
X54517580Y-67190589D01*
X54517580Y-67190589D02*
X54422342Y-67142970D01*
X54422342Y-67142970D02*
X54136628Y-67142970D01*
X54136628Y-67142970D02*
X54041390Y-67190589D01*
X54041390Y-67190589D02*
X53993771Y-67238208D01*
X53993771Y-67238208D02*
X53946152Y-67333446D01*
X53946152Y-67333446D02*
X53946152Y-67523922D01*
X53946152Y-67523922D02*
X53993771Y-67619160D01*
X54565200Y-68476303D02*
X54612819Y-68381065D01*
X54612819Y-68381065D02*
X54612819Y-68190589D01*
X54612819Y-68190589D02*
X54565200Y-68095351D01*
X54565200Y-68095351D02*
X54469961Y-68047732D01*
X54469961Y-68047732D02*
X54089009Y-68047732D01*
X54089009Y-68047732D02*
X53993771Y-68095351D01*
X53993771Y-68095351D02*
X53946152Y-68190589D01*
X53946152Y-68190589D02*
X53946152Y-68381065D01*
X53946152Y-68381065D02*
X53993771Y-68476303D01*
X53993771Y-68476303D02*
X54089009Y-68523922D01*
X54089009Y-68523922D02*
X54184247Y-68523922D01*
X54184247Y-68523922D02*
X54279485Y-68047732D01*
X54612819Y-68952494D02*
X53612819Y-68952494D01*
X53612819Y-68952494D02*
X54612819Y-69523922D01*
X54612819Y-69523922D02*
X53612819Y-69523922D01*
X54565200Y-70381065D02*
X54612819Y-70285827D01*
X54612819Y-70285827D02*
X54612819Y-70095351D01*
X54612819Y-70095351D02*
X54565200Y-70000113D01*
X54565200Y-70000113D02*
X54469961Y-69952494D01*
X54469961Y-69952494D02*
X54089009Y-69952494D01*
X54089009Y-69952494D02*
X53993771Y-70000113D01*
X53993771Y-70000113D02*
X53946152Y-70095351D01*
X53946152Y-70095351D02*
X53946152Y-70285827D01*
X53946152Y-70285827D02*
X53993771Y-70381065D01*
X53993771Y-70381065D02*
X54089009Y-70428684D01*
X54089009Y-70428684D02*
X54184247Y-70428684D01*
X54184247Y-70428684D02*
X54279485Y-69952494D01*
X53946152Y-70714399D02*
X53946152Y-71095351D01*
X53612819Y-70857256D02*
X54469961Y-70857256D01*
X54469961Y-70857256D02*
X54565200Y-70904875D01*
X54565200Y-70904875D02*
X54612819Y-71000113D01*
X54612819Y-71000113D02*
X54612819Y-71095351D01*
X53565200Y-72142970D02*
X54850914Y-71285828D01*
X54612819Y-72952494D02*
X54612819Y-72476304D01*
X54612819Y-72476304D02*
X53612819Y-72476304D01*
X54612819Y-73428685D02*
X54565200Y-73333447D01*
X54565200Y-73333447D02*
X54517580Y-73285828D01*
X54517580Y-73285828D02*
X54422342Y-73238209D01*
X54422342Y-73238209D02*
X54136628Y-73238209D01*
X54136628Y-73238209D02*
X54041390Y-73285828D01*
X54041390Y-73285828D02*
X53993771Y-73333447D01*
X53993771Y-73333447D02*
X53946152Y-73428685D01*
X53946152Y-73428685D02*
X53946152Y-73571542D01*
X53946152Y-73571542D02*
X53993771Y-73666780D01*
X53993771Y-73666780D02*
X54041390Y-73714399D01*
X54041390Y-73714399D02*
X54136628Y-73762018D01*
X54136628Y-73762018D02*
X54422342Y-73762018D01*
X54422342Y-73762018D02*
X54517580Y-73714399D01*
X54517580Y-73714399D02*
X54565200Y-73666780D01*
X54565200Y-73666780D02*
X54612819Y-73571542D01*
X54612819Y-73571542D02*
X54612819Y-73428685D01*
X54612819Y-74333447D02*
X54565200Y-74238209D01*
X54565200Y-74238209D02*
X54517580Y-74190590D01*
X54517580Y-74190590D02*
X54422342Y-74142971D01*
X54422342Y-74142971D02*
X54136628Y-74142971D01*
X54136628Y-74142971D02*
X54041390Y-74190590D01*
X54041390Y-74190590D02*
X53993771Y-74238209D01*
X53993771Y-74238209D02*
X53946152Y-74333447D01*
X53946152Y-74333447D02*
X53946152Y-74476304D01*
X53946152Y-74476304D02*
X53993771Y-74571542D01*
X53993771Y-74571542D02*
X54041390Y-74619161D01*
X54041390Y-74619161D02*
X54136628Y-74666780D01*
X54136628Y-74666780D02*
X54422342Y-74666780D01*
X54422342Y-74666780D02*
X54517580Y-74619161D01*
X54517580Y-74619161D02*
X54565200Y-74571542D01*
X54565200Y-74571542D02*
X54612819Y-74476304D01*
X54612819Y-74476304D02*
X54612819Y-74333447D01*
X53946152Y-75095352D02*
X54946152Y-75095352D01*
X53993771Y-75095352D02*
X53946152Y-75190590D01*
X53946152Y-75190590D02*
X53946152Y-75381066D01*
X53946152Y-75381066D02*
X53993771Y-75476304D01*
X53993771Y-75476304D02*
X54041390Y-75523923D01*
X54041390Y-75523923D02*
X54136628Y-75571542D01*
X54136628Y-75571542D02*
X54422342Y-75571542D01*
X54422342Y-75571542D02*
X54517580Y-75523923D01*
X54517580Y-75523923D02*
X54565200Y-75476304D01*
X54565200Y-75476304D02*
X54612819Y-75381066D01*
X54612819Y-75381066D02*
X54612819Y-75190590D01*
X54612819Y-75190590D02*
X54565200Y-75095352D01*
D11*
X52446571Y-72000072D02*
X52446571Y-70500072D01*
X52446571Y-71071501D02*
X52303714Y-71000072D01*
X52303714Y-71000072D02*
X52017999Y-71000072D01*
X52017999Y-71000072D02*
X51875142Y-71071501D01*
X51875142Y-71071501D02*
X51803714Y-71142929D01*
X51803714Y-71142929D02*
X51732285Y-71285786D01*
X51732285Y-71285786D02*
X51732285Y-71714358D01*
X51732285Y-71714358D02*
X51803714Y-71857215D01*
X51803714Y-71857215D02*
X51875142Y-71928644D01*
X51875142Y-71928644D02*
X52017999Y-72000072D01*
X52017999Y-72000072D02*
X52303714Y-72000072D01*
X52303714Y-72000072D02*
X52446571Y-71928644D01*
X51232285Y-71000072D02*
X50875142Y-72000072D01*
X50517999Y-71000072D02*
X50875142Y-72000072D01*
X50875142Y-72000072D02*
X51017999Y-72357215D01*
X51017999Y-72357215D02*
X51089428Y-72428644D01*
X51089428Y-72428644D02*
X51232285Y-72500072D01*
X48017999Y-70571501D02*
X48160857Y-70500072D01*
X48160857Y-70500072D02*
X48375142Y-70500072D01*
X48375142Y-70500072D02*
X48589428Y-70571501D01*
X48589428Y-70571501D02*
X48732285Y-70714358D01*
X48732285Y-70714358D02*
X48803714Y-70857215D01*
X48803714Y-70857215D02*
X48875142Y-71142929D01*
X48875142Y-71142929D02*
X48875142Y-71357215D01*
X48875142Y-71357215D02*
X48803714Y-71642929D01*
X48803714Y-71642929D02*
X48732285Y-71785786D01*
X48732285Y-71785786D02*
X48589428Y-71928644D01*
X48589428Y-71928644D02*
X48375142Y-72000072D01*
X48375142Y-72000072D02*
X48232285Y-72000072D01*
X48232285Y-72000072D02*
X48017999Y-71928644D01*
X48017999Y-71928644D02*
X47946571Y-71857215D01*
X47946571Y-71857215D02*
X47946571Y-71357215D01*
X47946571Y-71357215D02*
X48232285Y-71357215D01*
X46732285Y-71928644D02*
X46875142Y-72000072D01*
X46875142Y-72000072D02*
X47160857Y-72000072D01*
X47160857Y-72000072D02*
X47303714Y-71928644D01*
X47303714Y-71928644D02*
X47375142Y-71785786D01*
X47375142Y-71785786D02*
X47375142Y-71214358D01*
X47375142Y-71214358D02*
X47303714Y-71071501D01*
X47303714Y-71071501D02*
X47160857Y-71000072D01*
X47160857Y-71000072D02*
X46875142Y-71000072D01*
X46875142Y-71000072D02*
X46732285Y-71071501D01*
X46732285Y-71071501D02*
X46660857Y-71214358D01*
X46660857Y-71214358D02*
X46660857Y-71357215D01*
X46660857Y-71357215D02*
X47375142Y-71500072D01*
X46018000Y-72000072D02*
X46018000Y-71000072D01*
X46018000Y-70500072D02*
X46089428Y-70571501D01*
X46089428Y-70571501D02*
X46018000Y-70642929D01*
X46018000Y-70642929D02*
X45946571Y-70571501D01*
X45946571Y-70571501D02*
X46018000Y-70500072D01*
X46018000Y-70500072D02*
X46018000Y-70642929D01*
X45303714Y-72000072D02*
X45303714Y-71000072D01*
X45303714Y-71285786D02*
X45232285Y-71142929D01*
X45232285Y-71142929D02*
X45160857Y-71071501D01*
X45160857Y-71071501D02*
X45017999Y-71000072D01*
X45017999Y-71000072D02*
X44875142Y-71000072D01*
X51696571Y-74414988D02*
X51768000Y-74414988D01*
X51768000Y-74414988D02*
X51910857Y-74343560D01*
X51910857Y-74343560D02*
X52125142Y-74129274D01*
X52125142Y-74129274D02*
X52482285Y-73700702D01*
X52482285Y-73700702D02*
X52625142Y-73486417D01*
X52625142Y-73486417D02*
X52696571Y-73272131D01*
X52696571Y-73272131D02*
X52696571Y-73129274D01*
X52696571Y-73129274D02*
X52625142Y-72986417D01*
X52625142Y-72986417D02*
X52482285Y-72914988D01*
X52482285Y-72914988D02*
X52410857Y-72914988D01*
X52410857Y-72914988D02*
X52268000Y-72986417D01*
X52268000Y-72986417D02*
X52196571Y-73129274D01*
X52196571Y-73129274D02*
X52196571Y-73200702D01*
X52196571Y-73200702D02*
X52268000Y-73343560D01*
X52268000Y-73343560D02*
X52339428Y-73414988D01*
X52339428Y-73414988D02*
X52768000Y-73700702D01*
X52768000Y-73700702D02*
X52839428Y-73772131D01*
X52839428Y-73772131D02*
X52910857Y-73914988D01*
X52910857Y-73914988D02*
X52910857Y-74129274D01*
X52910857Y-74129274D02*
X52839428Y-74272131D01*
X52839428Y-74272131D02*
X52768000Y-74343560D01*
X52768000Y-74343560D02*
X52625142Y-74414988D01*
X52625142Y-74414988D02*
X52410857Y-74414988D01*
X52410857Y-74414988D02*
X52268000Y-74343560D01*
X52268000Y-74343560D02*
X52196571Y-74272131D01*
X52196571Y-74272131D02*
X51982285Y-73986417D01*
X51982285Y-73986417D02*
X51910857Y-73772131D01*
X51910857Y-73772131D02*
X51910857Y-73629274D01*
X49982285Y-73986417D02*
X49268000Y-73986417D01*
X50125142Y-74414988D02*
X49625142Y-72914988D01*
X49625142Y-72914988D02*
X49125142Y-74414988D01*
X47982286Y-74414988D02*
X47982286Y-72914988D01*
X47982286Y-74343560D02*
X48125143Y-74414988D01*
X48125143Y-74414988D02*
X48410857Y-74414988D01*
X48410857Y-74414988D02*
X48553714Y-74343560D01*
X48553714Y-74343560D02*
X48625143Y-74272131D01*
X48625143Y-74272131D02*
X48696571Y-74129274D01*
X48696571Y-74129274D02*
X48696571Y-73700702D01*
X48696571Y-73700702D02*
X48625143Y-73557845D01*
X48625143Y-73557845D02*
X48553714Y-73486417D01*
X48553714Y-73486417D02*
X48410857Y-73414988D01*
X48410857Y-73414988D02*
X48125143Y-73414988D01*
X48125143Y-73414988D02*
X47982286Y-73486417D01*
X46625143Y-74414988D02*
X46625143Y-73629274D01*
X46625143Y-73629274D02*
X46696571Y-73486417D01*
X46696571Y-73486417D02*
X46839428Y-73414988D01*
X46839428Y-73414988D02*
X47125143Y-73414988D01*
X47125143Y-73414988D02*
X47268000Y-73486417D01*
X46625143Y-74343560D02*
X46768000Y-74414988D01*
X46768000Y-74414988D02*
X47125143Y-74414988D01*
X47125143Y-74414988D02*
X47268000Y-74343560D01*
X47268000Y-74343560D02*
X47339428Y-74200702D01*
X47339428Y-74200702D02*
X47339428Y-74057845D01*
X47339428Y-74057845D02*
X47268000Y-73914988D01*
X47268000Y-73914988D02*
X47125143Y-73843560D01*
X47125143Y-73843560D02*
X46768000Y-73843560D01*
X46768000Y-73843560D02*
X46625143Y-73772131D01*
X45910857Y-74414988D02*
X45910857Y-73414988D01*
X45910857Y-73557845D02*
X45839428Y-73486417D01*
X45839428Y-73486417D02*
X45696571Y-73414988D01*
X45696571Y-73414988D02*
X45482285Y-73414988D01*
X45482285Y-73414988D02*
X45339428Y-73486417D01*
X45339428Y-73486417D02*
X45268000Y-73629274D01*
X45268000Y-73629274D02*
X45268000Y-74414988D01*
X45268000Y-73629274D02*
X45196571Y-73486417D01*
X45196571Y-73486417D02*
X45053714Y-73414988D01*
X45053714Y-73414988D02*
X44839428Y-73414988D01*
X44839428Y-73414988D02*
X44696571Y-73486417D01*
X44696571Y-73486417D02*
X44625142Y-73629274D01*
X44625142Y-73629274D02*
X44625142Y-74414988D01*
X56537549Y-81143560D02*
X56323264Y-81214988D01*
X56323264Y-81214988D02*
X55966121Y-81214988D01*
X55966121Y-81214988D02*
X55823264Y-81143560D01*
X55823264Y-81143560D02*
X55751835Y-81072131D01*
X55751835Y-81072131D02*
X55680406Y-80929274D01*
X55680406Y-80929274D02*
X55680406Y-80786417D01*
X55680406Y-80786417D02*
X55751835Y-80643560D01*
X55751835Y-80643560D02*
X55823264Y-80572131D01*
X55823264Y-80572131D02*
X55966121Y-80500702D01*
X55966121Y-80500702D02*
X56251835Y-80429274D01*
X56251835Y-80429274D02*
X56394692Y-80357845D01*
X56394692Y-80357845D02*
X56466121Y-80286417D01*
X56466121Y-80286417D02*
X56537549Y-80143560D01*
X56537549Y-80143560D02*
X56537549Y-80000702D01*
X56537549Y-80000702D02*
X56466121Y-79857845D01*
X56466121Y-79857845D02*
X56394692Y-79786417D01*
X56394692Y-79786417D02*
X56251835Y-79714988D01*
X56251835Y-79714988D02*
X55894692Y-79714988D01*
X55894692Y-79714988D02*
X55680406Y-79786417D01*
X54466121Y-81143560D02*
X54608978Y-81214988D01*
X54608978Y-81214988D02*
X54894693Y-81214988D01*
X54894693Y-81214988D02*
X55037550Y-81143560D01*
X55037550Y-81143560D02*
X55108978Y-81000702D01*
X55108978Y-81000702D02*
X55108978Y-80429274D01*
X55108978Y-80429274D02*
X55037550Y-80286417D01*
X55037550Y-80286417D02*
X54894693Y-80214988D01*
X54894693Y-80214988D02*
X54608978Y-80214988D01*
X54608978Y-80214988D02*
X54466121Y-80286417D01*
X54466121Y-80286417D02*
X54394693Y-80429274D01*
X54394693Y-80429274D02*
X54394693Y-80572131D01*
X54394693Y-80572131D02*
X55108978Y-80714988D01*
X53751836Y-81214988D02*
X53751836Y-80214988D01*
X53751836Y-80500702D02*
X53680407Y-80357845D01*
X53680407Y-80357845D02*
X53608979Y-80286417D01*
X53608979Y-80286417D02*
X53466121Y-80214988D01*
X53466121Y-80214988D02*
X53323264Y-80214988D01*
X52823265Y-81214988D02*
X52823265Y-80214988D01*
X52823265Y-79714988D02*
X52894693Y-79786417D01*
X52894693Y-79786417D02*
X52823265Y-79857845D01*
X52823265Y-79857845D02*
X52751836Y-79786417D01*
X52751836Y-79786417D02*
X52823265Y-79714988D01*
X52823265Y-79714988D02*
X52823265Y-79857845D01*
X51466122Y-81214988D02*
X51466122Y-80429274D01*
X51466122Y-80429274D02*
X51537550Y-80286417D01*
X51537550Y-80286417D02*
X51680407Y-80214988D01*
X51680407Y-80214988D02*
X51966122Y-80214988D01*
X51966122Y-80214988D02*
X52108979Y-80286417D01*
X51466122Y-81143560D02*
X51608979Y-81214988D01*
X51608979Y-81214988D02*
X51966122Y-81214988D01*
X51966122Y-81214988D02*
X52108979Y-81143560D01*
X52108979Y-81143560D02*
X52180407Y-81000702D01*
X52180407Y-81000702D02*
X52180407Y-80857845D01*
X52180407Y-80857845D02*
X52108979Y-80714988D01*
X52108979Y-80714988D02*
X51966122Y-80643560D01*
X51966122Y-80643560D02*
X51608979Y-80643560D01*
X51608979Y-80643560D02*
X51466122Y-80572131D01*
X50537550Y-81214988D02*
X50680407Y-81143560D01*
X50680407Y-81143560D02*
X50751836Y-81000702D01*
X50751836Y-81000702D02*
X50751836Y-79714988D01*
D12*
X51063238Y-66329750D02*
X52015619Y-66329750D01*
X52015619Y-66329750D02*
X52015619Y-64329750D01*
X50110857Y-66329750D02*
X50301333Y-66234512D01*
X50301333Y-66234512D02*
X50396571Y-66139273D01*
X50396571Y-66139273D02*
X50491809Y-65948797D01*
X50491809Y-65948797D02*
X50491809Y-65377369D01*
X50491809Y-65377369D02*
X50396571Y-65186892D01*
X50396571Y-65186892D02*
X50301333Y-65091654D01*
X50301333Y-65091654D02*
X50110857Y-64996416D01*
X50110857Y-64996416D02*
X49825142Y-64996416D01*
X49825142Y-64996416D02*
X49634666Y-65091654D01*
X49634666Y-65091654D02*
X49539428Y-65186892D01*
X49539428Y-65186892D02*
X49444190Y-65377369D01*
X49444190Y-65377369D02*
X49444190Y-65948797D01*
X49444190Y-65948797D02*
X49539428Y-66139273D01*
X49539428Y-66139273D02*
X49634666Y-66234512D01*
X49634666Y-66234512D02*
X49825142Y-66329750D01*
X49825142Y-66329750D02*
X50110857Y-66329750D01*
X48301333Y-66329750D02*
X48491809Y-66234512D01*
X48491809Y-66234512D02*
X48587047Y-66139273D01*
X48587047Y-66139273D02*
X48682285Y-65948797D01*
X48682285Y-65948797D02*
X48682285Y-65377369D01*
X48682285Y-65377369D02*
X48587047Y-65186892D01*
X48587047Y-65186892D02*
X48491809Y-65091654D01*
X48491809Y-65091654D02*
X48301333Y-64996416D01*
X48301333Y-64996416D02*
X48015618Y-64996416D01*
X48015618Y-64996416D02*
X47825142Y-65091654D01*
X47825142Y-65091654D02*
X47729904Y-65186892D01*
X47729904Y-65186892D02*
X47634666Y-65377369D01*
X47634666Y-65377369D02*
X47634666Y-65948797D01*
X47634666Y-65948797D02*
X47729904Y-66139273D01*
X47729904Y-66139273D02*
X47825142Y-66234512D01*
X47825142Y-66234512D02*
X48015618Y-66329750D01*
X48015618Y-66329750D02*
X48301333Y-66329750D01*
X46777523Y-64996416D02*
X46777523Y-66996416D01*
X46777523Y-65091654D02*
X46587047Y-64996416D01*
X46587047Y-64996416D02*
X46206094Y-64996416D01*
X46206094Y-64996416D02*
X46015618Y-65091654D01*
X46015618Y-65091654D02*
X45920380Y-65186892D01*
X45920380Y-65186892D02*
X45825142Y-65377369D01*
X45825142Y-65377369D02*
X45825142Y-65948797D01*
X45825142Y-65948797D02*
X45920380Y-66139273D01*
X45920380Y-66139273D02*
X46015618Y-66234512D01*
X46015618Y-66234512D02*
X46206094Y-66329750D01*
X46206094Y-66329750D02*
X46587047Y-66329750D01*
X46587047Y-66329750D02*
X46777523Y-66234512D01*
X52729904Y-68216304D02*
X52253714Y-69549638D01*
X52253714Y-69549638D02*
X51777523Y-68216304D01*
X49967999Y-69549638D02*
X51110856Y-69549638D01*
X50539428Y-69549638D02*
X50539428Y-67549638D01*
X50539428Y-67549638D02*
X50729904Y-67835352D01*
X50729904Y-67835352D02*
X50920380Y-68025828D01*
X50920380Y-68025828D02*
X51110856Y-68121066D01*
X49110856Y-69359161D02*
X49015618Y-69454400D01*
X49015618Y-69454400D02*
X49110856Y-69549638D01*
X49110856Y-69549638D02*
X49206094Y-69454400D01*
X49206094Y-69454400D02*
X49110856Y-69359161D01*
X49110856Y-69359161D02*
X49110856Y-69549638D01*
X47777523Y-67549638D02*
X47587046Y-67549638D01*
X47587046Y-67549638D02*
X47396570Y-67644876D01*
X47396570Y-67644876D02*
X47301332Y-67740114D01*
X47301332Y-67740114D02*
X47206094Y-67930590D01*
X47206094Y-67930590D02*
X47110856Y-68311542D01*
X47110856Y-68311542D02*
X47110856Y-68787733D01*
X47110856Y-68787733D02*
X47206094Y-69168685D01*
X47206094Y-69168685D02*
X47301332Y-69359161D01*
X47301332Y-69359161D02*
X47396570Y-69454400D01*
X47396570Y-69454400D02*
X47587046Y-69549638D01*
X47587046Y-69549638D02*
X47777523Y-69549638D01*
X47777523Y-69549638D02*
X47967999Y-69454400D01*
X47967999Y-69454400D02*
X48063237Y-69359161D01*
X48063237Y-69359161D02*
X48158475Y-69168685D01*
X48158475Y-69168685D02*
X48253713Y-68787733D01*
X48253713Y-68787733D02*
X48253713Y-68311542D01*
X48253713Y-68311542D02*
X48158475Y-67930590D01*
X48158475Y-67930590D02*
X48063237Y-67740114D01*
X48063237Y-67740114D02*
X47967999Y-67644876D01*
X47967999Y-67644876D02*
X47777523Y-67549638D01*
X45396570Y-69549638D02*
X45396570Y-67549638D01*
X45396570Y-69454400D02*
X45587046Y-69549638D01*
X45587046Y-69549638D02*
X45967999Y-69549638D01*
X45967999Y-69549638D02*
X46158475Y-69454400D01*
X46158475Y-69454400D02*
X46253713Y-69359161D01*
X46253713Y-69359161D02*
X46348951Y-69168685D01*
X46348951Y-69168685D02*
X46348951Y-68597257D01*
X46348951Y-68597257D02*
X46253713Y-68406780D01*
X46253713Y-68406780D02*
X46158475Y-68311542D01*
X46158475Y-68311542D02*
X45967999Y-68216304D01*
X45967999Y-68216304D02*
X45587046Y-68216304D01*
X45587046Y-68216304D02*
X45396570Y-68311542D01*
D13*
%TO.C,J6*%
X42338000Y-37475000D02*
X42338000Y-38805000D01*
X42338000Y-40075000D02*
X42338000Y-42675000D01*
X42338000Y-42675000D02*
X55158000Y-42675000D01*
X43668000Y-37475000D02*
X42338000Y-37475000D01*
X44938000Y-37475000D02*
X44938000Y-40075000D01*
X44938000Y-37475000D02*
X55158000Y-37475000D01*
X44938000Y-40075000D02*
X42338000Y-40075000D01*
X55158000Y-37475000D02*
X55158000Y-42675000D01*
%TD*%
%LPC*%
D14*
%TO.C,MOUNT1*%
X48768000Y-47625000D03*
%TD*%
D15*
%TO.C,J10*%
X56896000Y-74803000D03*
D16*
X56896000Y-72263000D03*
X56896000Y-69723000D03*
X56896000Y-67183000D03*
X56896000Y-64643000D03*
X56896000Y-62103000D03*
%TD*%
D15*
%TO.C,J8*%
X40640000Y-64643000D03*
D16*
X40640000Y-67183000D03*
X40640000Y-69723000D03*
X40640000Y-72263000D03*
X40640000Y-74803000D03*
%TD*%
D15*
%TO.C,J6*%
X43668000Y-38805000D03*
D16*
X43668000Y-41345000D03*
X46208000Y-38805000D03*
X46208000Y-41345000D03*
X48748000Y-38805000D03*
X48748000Y-41345000D03*
X51288000Y-38805000D03*
X51288000Y-41345000D03*
X53828000Y-38805000D03*
X53828000Y-41345000D03*
%TD*%
%LPD*%
M02*
