%TF.GenerationSoftware,KiCad,Pcbnew,8.0.5*%
%TF.CreationDate,2024-11-05T23:16:52+01:00*%
%TF.ProjectId,Leveller,4c657665-6c6c-4657-922e-6b696361645f,rev?*%
%TF.SameCoordinates,Original*%
%TF.FileFunction,Soldermask,Top*%
%TF.FilePolarity,Negative*%
%FSLAX46Y46*%
G04 Gerber Fmt 4.6, Leading zero omitted, Abs format (unit mm)*
G04 Created by KiCad (PCBNEW 8.0.5) date 2024-11-05 23:16:52*
%MOMM*%
%LPD*%
G01*
G04 APERTURE LIST*
G04 Aperture macros list*
%AMRoundRect*
0 Rectangle with rounded corners*
0 $1 Rounding radius*
0 $2 $3 $4 $5 $6 $7 $8 $9 X,Y pos of 4 corners*
0 Add a 4 corners polygon primitive as box body*
4,1,4,$2,$3,$4,$5,$6,$7,$8,$9,$2,$3,0*
0 Add four circle primitives for the rounded corners*
1,1,$1+$1,$2,$3*
1,1,$1+$1,$4,$5*
1,1,$1+$1,$6,$7*
1,1,$1+$1,$8,$9*
0 Add four rect primitives between the rounded corners*
20,1,$1+$1,$2,$3,$4,$5,0*
20,1,$1+$1,$4,$5,$6,$7,0*
20,1,$1+$1,$6,$7,$8,$9,0*
20,1,$1+$1,$8,$9,$2,$3,0*%
G04 Aperture macros list end*
%ADD10RoundRect,0.200000X-0.275000X0.200000X-0.275000X-0.200000X0.275000X-0.200000X0.275000X0.200000X0*%
%ADD11C,2.700000*%
%ADD12RoundRect,0.200000X0.200000X0.275000X-0.200000X0.275000X-0.200000X-0.275000X0.200000X-0.275000X0*%
%ADD13RoundRect,0.225000X0.375000X-0.225000X0.375000X0.225000X-0.375000X0.225000X-0.375000X-0.225000X0*%
%ADD14RoundRect,0.225000X-0.250000X0.225000X-0.250000X-0.225000X0.250000X-0.225000X0.250000X0.225000X0*%
%ADD15RoundRect,0.200000X-0.200000X-0.275000X0.200000X-0.275000X0.200000X0.275000X-0.200000X0.275000X0*%
%ADD16RoundRect,0.225000X0.225000X0.250000X-0.225000X0.250000X-0.225000X-0.250000X0.225000X-0.250000X0*%
%ADD17R,1.700000X1.700000*%
%ADD18O,1.700000X1.700000*%
%ADD19RoundRect,0.225000X0.250000X-0.225000X0.250000X0.225000X-0.250000X0.225000X-0.250000X-0.225000X0*%
%ADD20RoundRect,0.250000X1.050000X0.550000X-1.050000X0.550000X-1.050000X-0.550000X1.050000X-0.550000X0*%
%ADD21RoundRect,0.200000X0.275000X-0.200000X0.275000X0.200000X-0.275000X0.200000X-0.275000X-0.200000X0*%
%ADD22RoundRect,0.225000X-0.375000X0.225000X-0.375000X-0.225000X0.375000X-0.225000X0.375000X0.225000X0*%
%ADD23RoundRect,0.120600X0.966400X0.281400X-0.966400X0.281400X-0.966400X-0.281400X0.966400X-0.281400X0*%
%ADD24RoundRect,0.225000X-0.225000X-0.250000X0.225000X-0.250000X0.225000X0.250000X-0.225000X0.250000X0*%
G04 APERTURE END LIST*
D10*
%TO.C,R9*%
X44916000Y-80116000D03*
X44916000Y-81766000D03*
%TD*%
D11*
%TO.C,MOUNT1*%
X48768000Y-47625000D03*
%TD*%
D10*
%TO.C,R18*%
X53425000Y-65257000D03*
X53425000Y-66907000D03*
%TD*%
D12*
%TO.C,R5*%
X41677000Y-79671000D03*
X40027000Y-79671000D03*
%TD*%
D10*
%TO.C,R25*%
X54172000Y-80101000D03*
X54172000Y-81751000D03*
%TD*%
D12*
%TO.C,R19*%
X51710000Y-65066000D03*
X50060000Y-65066000D03*
%TD*%
D13*
%TO.C,D4*%
X56993000Y-45630000D03*
X56993000Y-42330000D03*
%TD*%
D14*
%TO.C,C12*%
X53534400Y-58741400D03*
X53534400Y-60291400D03*
%TD*%
D15*
%TO.C,R24*%
X51061000Y-68607000D03*
X52711000Y-68607000D03*
%TD*%
D16*
%TO.C,C8*%
X47723000Y-72051000D03*
X46173000Y-72051000D03*
%TD*%
D10*
%TO.C,R7*%
X44019388Y-73434815D03*
X44019388Y-75084815D03*
%TD*%
D15*
%TO.C,R23*%
X46235000Y-70258000D03*
X47885000Y-70258000D03*
%TD*%
D17*
%TO.C,J10*%
X56896000Y-74803000D03*
D18*
X56896000Y-72263000D03*
X56896000Y-69723000D03*
X56896000Y-67183000D03*
X56896000Y-64643000D03*
X56896000Y-62103000D03*
%TD*%
D10*
%TO.C,R17*%
X56938000Y-56595600D03*
X56938000Y-58245600D03*
%TD*%
D19*
%TO.C,C7*%
X55203000Y-57205000D03*
X55203000Y-55655000D03*
%TD*%
D12*
%TO.C,R8*%
X53664000Y-72163000D03*
X52014000Y-72163000D03*
%TD*%
D19*
%TO.C,C2*%
X55823000Y-81701000D03*
X55823000Y-80151000D03*
%TD*%
D20*
%TO.C,C6*%
X44793000Y-52080000D03*
X41193000Y-52080000D03*
%TD*%
D21*
%TO.C,R13*%
X53552000Y-57255000D03*
X53552000Y-55605000D03*
%TD*%
D20*
%TO.C,C4*%
X56293000Y-52080000D03*
X52693000Y-52080000D03*
%TD*%
D19*
%TO.C,C13*%
X42253748Y-57208015D03*
X42253748Y-55658015D03*
%TD*%
D22*
%TO.C,D1*%
X40493000Y-42330000D03*
X40493000Y-45630000D03*
%TD*%
D21*
%TO.C,R12*%
X57474000Y-81751000D03*
X57474000Y-80101000D03*
%TD*%
D16*
%TO.C,C3*%
X47803428Y-65067763D03*
X46253428Y-65067763D03*
%TD*%
D21*
%TO.C,R16*%
X40589720Y-57252385D03*
X40589720Y-55602385D03*
%TD*%
D12*
%TO.C,R10*%
X41677000Y-81322000D03*
X40027000Y-81322000D03*
%TD*%
D10*
%TO.C,FB1*%
X40493000Y-38830000D03*
X40493000Y-40480000D03*
%TD*%
D19*
%TO.C,C9*%
X43265000Y-81716000D03*
X43265000Y-80166000D03*
%TD*%
D15*
%TO.C,R15*%
X47901000Y-54017000D03*
X49551000Y-54017000D03*
%TD*%
D10*
%TO.C,R6*%
X49488000Y-70591000D03*
X49488000Y-72241000D03*
%TD*%
D16*
%TO.C,C5*%
X42783000Y-77634000D03*
X41233000Y-77634000D03*
%TD*%
D14*
%TO.C,C11*%
X42249000Y-59605000D03*
X42249000Y-61155000D03*
%TD*%
D19*
%TO.C,C10*%
X53411789Y-63692619D03*
X53411789Y-62142619D03*
%TD*%
D17*
%TO.C,J8*%
X40640000Y-64643000D03*
D18*
X40640000Y-67183000D03*
X40640000Y-69723000D03*
X40640000Y-72263000D03*
X40640000Y-74803000D03*
%TD*%
D21*
%TO.C,R22*%
X44027000Y-68050000D03*
X44027000Y-66400000D03*
%TD*%
D23*
%TO.C,U2*%
X51191280Y-63410000D03*
X51191280Y-62140000D03*
X51191280Y-60870000D03*
X51191280Y-59600000D03*
X51191280Y-58330000D03*
X51191280Y-57060000D03*
X51191280Y-55790000D03*
X46241280Y-55790000D03*
X46241280Y-57060000D03*
X46241280Y-58330000D03*
X46241280Y-59600000D03*
X46241280Y-60870000D03*
X46241280Y-62140000D03*
X46241280Y-63410000D03*
%TD*%
D10*
%TO.C,FB2*%
X56993000Y-38830000D03*
X56993000Y-40480000D03*
%TD*%
%TO.C,R14*%
X43900000Y-55605000D03*
X43900000Y-57255000D03*
%TD*%
D17*
%TO.C,J6*%
X43668000Y-38805000D03*
D18*
X43668000Y-41345000D03*
X46208000Y-38805000D03*
X46208000Y-41345000D03*
X48748000Y-38805000D03*
X48748000Y-41345000D03*
X51288000Y-38805000D03*
X51288000Y-41345000D03*
X53828000Y-38805000D03*
X53828000Y-41345000D03*
%TD*%
D24*
%TO.C,C1*%
X54988280Y-78396000D03*
X56538280Y-78396000D03*
%TD*%
D23*
%TO.C,U1*%
X52025000Y-81444000D03*
X52025000Y-80174000D03*
X52025000Y-78904000D03*
X52025000Y-77634000D03*
X52025000Y-76364000D03*
X52025000Y-75094000D03*
X52025000Y-73824000D03*
X47075000Y-73824000D03*
X47075000Y-75094000D03*
X47075000Y-76364000D03*
X47075000Y-77634000D03*
X47075000Y-78904000D03*
X47075000Y-80174000D03*
X47075000Y-81444000D03*
%TD*%
D15*
%TO.C,R20*%
X50060000Y-66717000D03*
X51710000Y-66717000D03*
%TD*%
D21*
%TO.C,R21*%
X44027000Y-63732000D03*
X44027000Y-62082000D03*
%TD*%
D24*
%TO.C,C14*%
X51111000Y-70512000D03*
X52661000Y-70512000D03*
%TD*%
M02*
