M48
; DRILL file {KiCad 8.0.5} date 2024-11-05T23:16:52+0100
; FORMAT={-:-/ absolute / inch / decimal}
; #@! TF.CreationDate,2024-11-05T23:16:52+01:00
; #@! TF.GenerationSoftware,Kicad,Pcbnew,8.0.5
; #@! TF.FileFunction,Plated,1,2,PTH
FMAT,2
INCH
; #@! TA.AperFunction,Plated,PTH,ViaDrill
T1C0.0157
; #@! TA.AperFunction,Plated,PTH,ComponentDrill
T2C0.0394
%
G90
G05
T1
X1.5745Y-2.1291
X1.6633Y-2.475
X1.69Y-3.0065
X1.7383Y-2.3465
X1.7383Y-3.0565
X2.0745Y-1.915
X2.16Y-2.345
X2.25Y-2.165
T2
X1.6Y-2.545
X1.6Y-2.645
X1.6Y-2.745
X1.6Y-2.845
X1.6Y-2.945
X1.7192Y-1.5278
X1.7192Y-1.6278
X1.8192Y-1.5278
X1.8192Y-1.6278
X1.9192Y-1.5278
X1.9192Y-1.6278
X2.0192Y-1.5278
X2.0192Y-1.6278
X2.1192Y-1.5278
X2.1192Y-1.6278
X2.24Y-2.445
X2.24Y-2.545
X2.24Y-2.645
X2.24Y-2.745
X2.24Y-2.845
X2.24Y-2.945
M30
