%TF.GenerationSoftware,KiCad,Pcbnew,7.0.9*%
%TF.CreationDate,2023-12-12T21:56:47+01:00*%
%TF.ProjectId,Leveller,4c657665-6c6c-4657-922e-6b696361645f,rev?*%
%TF.SameCoordinates,Original*%
%TF.FileFunction,Drillmap*%
%TF.FilePolarity,Positive*%
%FSLAX45Y45*%
G04 Gerber Fmt 4.5, Leading zero omitted, Abs format (unit mm)*
G04 Created by KiCad (PCBNEW 7.0.9) date 2023-12-12 21:56:47*
%MOMM*%
%LPD*%
G01*
G04 APERTURE LIST*
%ADD10C,0.100000*%
%ADD11C,0.200000*%
G04 APERTURE END LIST*
D10*
X3255000Y-2767500D02*
X5255000Y-2767500D01*
X5255000Y-5545000D01*
X3255000Y-5545000D01*
X3255000Y-2767500D01*
D11*
D10*
X3742500Y-3310000D02*
X3782500Y-3350000D01*
X3782500Y-3310000D02*
X3742500Y-3350000D01*
X3802500Y-3210000D02*
X3842500Y-3250000D01*
X3842500Y-3210000D02*
X3802500Y-3250000D01*
X4222500Y-2990000D02*
X4262500Y-3030000D01*
X4262500Y-2990000D02*
X4222500Y-3030000D01*
X4722500Y-3170000D02*
X4762500Y-3210000D01*
X4762500Y-3170000D02*
X4722500Y-3210000D01*
X5002500Y-5010000D02*
X5042500Y-5050000D01*
X5042500Y-5010000D02*
X5002500Y-5050000D01*
X3564000Y-3566000D02*
G75*
G03*
X3564000Y-3566000I-50000J0D01*
G01*
X3564000Y-3820000D02*
G75*
G03*
X3564000Y-3820000I-50000J0D01*
G01*
X3564000Y-4074000D02*
G75*
G03*
X3564000Y-4074000I-50000J0D01*
G01*
X3564000Y-4328000D02*
G75*
G03*
X3564000Y-4328000I-50000J0D01*
G01*
X3564000Y-4582000D02*
G75*
G03*
X3564000Y-4582000I-50000J0D01*
G01*
X3564000Y-4836000D02*
G75*
G03*
X3564000Y-4836000I-50000J0D01*
G01*
X5088000Y-3566000D02*
G75*
G03*
X5088000Y-3566000I-50000J0D01*
G01*
X5088000Y-3820000D02*
G75*
G03*
X5088000Y-3820000I-50000J0D01*
G01*
X5088000Y-4074000D02*
G75*
G03*
X5088000Y-4074000I-50000J0D01*
G01*
X5088000Y-4328000D02*
G75*
G03*
X5088000Y-4328000I-50000J0D01*
G01*
X5088000Y-4582000D02*
G75*
G03*
X5088000Y-4582000I-50000J0D01*
G01*
D11*
X3510777Y-5861484D02*
X3510777Y-5661484D01*
X3510777Y-5661484D02*
X3558396Y-5661484D01*
X3558396Y-5661484D02*
X3586967Y-5671008D01*
X3586967Y-5671008D02*
X3606015Y-5690055D01*
X3606015Y-5690055D02*
X3615539Y-5709103D01*
X3615539Y-5709103D02*
X3625062Y-5747198D01*
X3625062Y-5747198D02*
X3625062Y-5775769D01*
X3625062Y-5775769D02*
X3615539Y-5813865D01*
X3615539Y-5813865D02*
X3606015Y-5832912D01*
X3606015Y-5832912D02*
X3586967Y-5851960D01*
X3586967Y-5851960D02*
X3558396Y-5861484D01*
X3558396Y-5861484D02*
X3510777Y-5861484D01*
X3710777Y-5861484D02*
X3710777Y-5728150D01*
X3710777Y-5766246D02*
X3720301Y-5747198D01*
X3720301Y-5747198D02*
X3729824Y-5737674D01*
X3729824Y-5737674D02*
X3748872Y-5728150D01*
X3748872Y-5728150D02*
X3767920Y-5728150D01*
X3834586Y-5861484D02*
X3834586Y-5728150D01*
X3834586Y-5661484D02*
X3825062Y-5671008D01*
X3825062Y-5671008D02*
X3834586Y-5680531D01*
X3834586Y-5680531D02*
X3844110Y-5671008D01*
X3844110Y-5671008D02*
X3834586Y-5661484D01*
X3834586Y-5661484D02*
X3834586Y-5680531D01*
X3958396Y-5861484D02*
X3939348Y-5851960D01*
X3939348Y-5851960D02*
X3929824Y-5832912D01*
X3929824Y-5832912D02*
X3929824Y-5661484D01*
X4063158Y-5861484D02*
X4044110Y-5851960D01*
X4044110Y-5851960D02*
X4034586Y-5832912D01*
X4034586Y-5832912D02*
X4034586Y-5661484D01*
X4291729Y-5861484D02*
X4291729Y-5661484D01*
X4291729Y-5661484D02*
X4358396Y-5804341D01*
X4358396Y-5804341D02*
X4425063Y-5661484D01*
X4425063Y-5661484D02*
X4425063Y-5861484D01*
X4606015Y-5861484D02*
X4606015Y-5756722D01*
X4606015Y-5756722D02*
X4596491Y-5737674D01*
X4596491Y-5737674D02*
X4577444Y-5728150D01*
X4577444Y-5728150D02*
X4539348Y-5728150D01*
X4539348Y-5728150D02*
X4520301Y-5737674D01*
X4606015Y-5851960D02*
X4586967Y-5861484D01*
X4586967Y-5861484D02*
X4539348Y-5861484D01*
X4539348Y-5861484D02*
X4520301Y-5851960D01*
X4520301Y-5851960D02*
X4510777Y-5832912D01*
X4510777Y-5832912D02*
X4510777Y-5813865D01*
X4510777Y-5813865D02*
X4520301Y-5794817D01*
X4520301Y-5794817D02*
X4539348Y-5785293D01*
X4539348Y-5785293D02*
X4586967Y-5785293D01*
X4586967Y-5785293D02*
X4606015Y-5775769D01*
X4701253Y-5728150D02*
X4701253Y-5928150D01*
X4701253Y-5737674D02*
X4720301Y-5728150D01*
X4720301Y-5728150D02*
X4758396Y-5728150D01*
X4758396Y-5728150D02*
X4777444Y-5737674D01*
X4777444Y-5737674D02*
X4786967Y-5747198D01*
X4786967Y-5747198D02*
X4796491Y-5766246D01*
X4796491Y-5766246D02*
X4796491Y-5823388D01*
X4796491Y-5823388D02*
X4786967Y-5842436D01*
X4786967Y-5842436D02*
X4777444Y-5851960D01*
X4777444Y-5851960D02*
X4758396Y-5861484D01*
X4758396Y-5861484D02*
X4720301Y-5861484D01*
X4720301Y-5861484D02*
X4701253Y-5851960D01*
X4882205Y-5842436D02*
X4891729Y-5851960D01*
X4891729Y-5851960D02*
X4882205Y-5861484D01*
X4882205Y-5861484D02*
X4872682Y-5851960D01*
X4872682Y-5851960D02*
X4882205Y-5842436D01*
X4882205Y-5842436D02*
X4882205Y-5861484D01*
X4882205Y-5737674D02*
X4891729Y-5747198D01*
X4891729Y-5747198D02*
X4882205Y-5756722D01*
X4882205Y-5756722D02*
X4872682Y-5747198D01*
X4872682Y-5747198D02*
X4882205Y-5737674D01*
X4882205Y-5737674D02*
X4882205Y-5756722D01*
D10*
X3210000Y-6170000D02*
X3250000Y-6210000D01*
X3250000Y-6170000D02*
X3210000Y-6210000D01*
D11*
X3548872Y-6081484D02*
X3567920Y-6081484D01*
X3567920Y-6081484D02*
X3586967Y-6091008D01*
X3586967Y-6091008D02*
X3596491Y-6100531D01*
X3596491Y-6100531D02*
X3606015Y-6119579D01*
X3606015Y-6119579D02*
X3615539Y-6157674D01*
X3615539Y-6157674D02*
X3615539Y-6205293D01*
X3615539Y-6205293D02*
X3606015Y-6243388D01*
X3606015Y-6243388D02*
X3596491Y-6262436D01*
X3596491Y-6262436D02*
X3586967Y-6271960D01*
X3586967Y-6271960D02*
X3567920Y-6281484D01*
X3567920Y-6281484D02*
X3548872Y-6281484D01*
X3548872Y-6281484D02*
X3529824Y-6271960D01*
X3529824Y-6271960D02*
X3520301Y-6262436D01*
X3520301Y-6262436D02*
X3510777Y-6243388D01*
X3510777Y-6243388D02*
X3501253Y-6205293D01*
X3501253Y-6205293D02*
X3501253Y-6157674D01*
X3501253Y-6157674D02*
X3510777Y-6119579D01*
X3510777Y-6119579D02*
X3520301Y-6100531D01*
X3520301Y-6100531D02*
X3529824Y-6091008D01*
X3529824Y-6091008D02*
X3548872Y-6081484D01*
X3701253Y-6262436D02*
X3710777Y-6271960D01*
X3710777Y-6271960D02*
X3701253Y-6281484D01*
X3701253Y-6281484D02*
X3691729Y-6271960D01*
X3691729Y-6271960D02*
X3701253Y-6262436D01*
X3701253Y-6262436D02*
X3701253Y-6281484D01*
X3882205Y-6148150D02*
X3882205Y-6281484D01*
X3834586Y-6071960D02*
X3786967Y-6214817D01*
X3786967Y-6214817D02*
X3910777Y-6214817D01*
X4025062Y-6081484D02*
X4044110Y-6081484D01*
X4044110Y-6081484D02*
X4063158Y-6091008D01*
X4063158Y-6091008D02*
X4072682Y-6100531D01*
X4072682Y-6100531D02*
X4082205Y-6119579D01*
X4082205Y-6119579D02*
X4091729Y-6157674D01*
X4091729Y-6157674D02*
X4091729Y-6205293D01*
X4091729Y-6205293D02*
X4082205Y-6243388D01*
X4082205Y-6243388D02*
X4072682Y-6262436D01*
X4072682Y-6262436D02*
X4063158Y-6271960D01*
X4063158Y-6271960D02*
X4044110Y-6281484D01*
X4044110Y-6281484D02*
X4025062Y-6281484D01*
X4025062Y-6281484D02*
X4006015Y-6271960D01*
X4006015Y-6271960D02*
X3996491Y-6262436D01*
X3996491Y-6262436D02*
X3986967Y-6243388D01*
X3986967Y-6243388D02*
X3977443Y-6205293D01*
X3977443Y-6205293D02*
X3977443Y-6157674D01*
X3977443Y-6157674D02*
X3986967Y-6119579D01*
X3986967Y-6119579D02*
X3996491Y-6100531D01*
X3996491Y-6100531D02*
X4006015Y-6091008D01*
X4006015Y-6091008D02*
X4025062Y-6081484D01*
X4215539Y-6081484D02*
X4234586Y-6081484D01*
X4234586Y-6081484D02*
X4253634Y-6091008D01*
X4253634Y-6091008D02*
X4263158Y-6100531D01*
X4263158Y-6100531D02*
X4272682Y-6119579D01*
X4272682Y-6119579D02*
X4282205Y-6157674D01*
X4282205Y-6157674D02*
X4282205Y-6205293D01*
X4282205Y-6205293D02*
X4272682Y-6243388D01*
X4272682Y-6243388D02*
X4263158Y-6262436D01*
X4263158Y-6262436D02*
X4253634Y-6271960D01*
X4253634Y-6271960D02*
X4234586Y-6281484D01*
X4234586Y-6281484D02*
X4215539Y-6281484D01*
X4215539Y-6281484D02*
X4196491Y-6271960D01*
X4196491Y-6271960D02*
X4186967Y-6262436D01*
X4186967Y-6262436D02*
X4177443Y-6243388D01*
X4177443Y-6243388D02*
X4167920Y-6205293D01*
X4167920Y-6205293D02*
X4167920Y-6157674D01*
X4167920Y-6157674D02*
X4177443Y-6119579D01*
X4177443Y-6119579D02*
X4186967Y-6100531D01*
X4186967Y-6100531D02*
X4196491Y-6091008D01*
X4196491Y-6091008D02*
X4215539Y-6081484D01*
X4367920Y-6281484D02*
X4367920Y-6148150D01*
X4367920Y-6167198D02*
X4377444Y-6157674D01*
X4377444Y-6157674D02*
X4396491Y-6148150D01*
X4396491Y-6148150D02*
X4425063Y-6148150D01*
X4425063Y-6148150D02*
X4444110Y-6157674D01*
X4444110Y-6157674D02*
X4453634Y-6176722D01*
X4453634Y-6176722D02*
X4453634Y-6281484D01*
X4453634Y-6176722D02*
X4463158Y-6157674D01*
X4463158Y-6157674D02*
X4482205Y-6148150D01*
X4482205Y-6148150D02*
X4510777Y-6148150D01*
X4510777Y-6148150D02*
X4529825Y-6157674D01*
X4529825Y-6157674D02*
X4539348Y-6176722D01*
X4539348Y-6176722D02*
X4539348Y-6281484D01*
X4634586Y-6281484D02*
X4634586Y-6148150D01*
X4634586Y-6167198D02*
X4644110Y-6157674D01*
X4644110Y-6157674D02*
X4663158Y-6148150D01*
X4663158Y-6148150D02*
X4691729Y-6148150D01*
X4691729Y-6148150D02*
X4710777Y-6157674D01*
X4710777Y-6157674D02*
X4720301Y-6176722D01*
X4720301Y-6176722D02*
X4720301Y-6281484D01*
X4720301Y-6176722D02*
X4729825Y-6157674D01*
X4729825Y-6157674D02*
X4748872Y-6148150D01*
X4748872Y-6148150D02*
X4777444Y-6148150D01*
X4777444Y-6148150D02*
X4796491Y-6157674D01*
X4796491Y-6157674D02*
X4806015Y-6176722D01*
X4806015Y-6176722D02*
X4806015Y-6281484D01*
X5196491Y-6071960D02*
X5025063Y-6329103D01*
X5453634Y-6081484D02*
X5472682Y-6081484D01*
X5472682Y-6081484D02*
X5491729Y-6091008D01*
X5491729Y-6091008D02*
X5501253Y-6100531D01*
X5501253Y-6100531D02*
X5510777Y-6119579D01*
X5510777Y-6119579D02*
X5520301Y-6157674D01*
X5520301Y-6157674D02*
X5520301Y-6205293D01*
X5520301Y-6205293D02*
X5510777Y-6243388D01*
X5510777Y-6243388D02*
X5501253Y-6262436D01*
X5501253Y-6262436D02*
X5491729Y-6271960D01*
X5491729Y-6271960D02*
X5472682Y-6281484D01*
X5472682Y-6281484D02*
X5453634Y-6281484D01*
X5453634Y-6281484D02*
X5434587Y-6271960D01*
X5434587Y-6271960D02*
X5425063Y-6262436D01*
X5425063Y-6262436D02*
X5415539Y-6243388D01*
X5415539Y-6243388D02*
X5406015Y-6205293D01*
X5406015Y-6205293D02*
X5406015Y-6157674D01*
X5406015Y-6157674D02*
X5415539Y-6119579D01*
X5415539Y-6119579D02*
X5425063Y-6100531D01*
X5425063Y-6100531D02*
X5434587Y-6091008D01*
X5434587Y-6091008D02*
X5453634Y-6081484D01*
X5606015Y-6262436D02*
X5615539Y-6271960D01*
X5615539Y-6271960D02*
X5606015Y-6281484D01*
X5606015Y-6281484D02*
X5596491Y-6271960D01*
X5596491Y-6271960D02*
X5606015Y-6262436D01*
X5606015Y-6262436D02*
X5606015Y-6281484D01*
X5739348Y-6081484D02*
X5758396Y-6081484D01*
X5758396Y-6081484D02*
X5777444Y-6091008D01*
X5777444Y-6091008D02*
X5786967Y-6100531D01*
X5786967Y-6100531D02*
X5796491Y-6119579D01*
X5796491Y-6119579D02*
X5806015Y-6157674D01*
X5806015Y-6157674D02*
X5806015Y-6205293D01*
X5806015Y-6205293D02*
X5796491Y-6243388D01*
X5796491Y-6243388D02*
X5786967Y-6262436D01*
X5786967Y-6262436D02*
X5777444Y-6271960D01*
X5777444Y-6271960D02*
X5758396Y-6281484D01*
X5758396Y-6281484D02*
X5739348Y-6281484D01*
X5739348Y-6281484D02*
X5720301Y-6271960D01*
X5720301Y-6271960D02*
X5710777Y-6262436D01*
X5710777Y-6262436D02*
X5701253Y-6243388D01*
X5701253Y-6243388D02*
X5691729Y-6205293D01*
X5691729Y-6205293D02*
X5691729Y-6157674D01*
X5691729Y-6157674D02*
X5701253Y-6119579D01*
X5701253Y-6119579D02*
X5710777Y-6100531D01*
X5710777Y-6100531D02*
X5720301Y-6091008D01*
X5720301Y-6091008D02*
X5739348Y-6081484D01*
X5996491Y-6281484D02*
X5882206Y-6281484D01*
X5939348Y-6281484D02*
X5939348Y-6081484D01*
X5939348Y-6081484D02*
X5920301Y-6110055D01*
X5920301Y-6110055D02*
X5901253Y-6129103D01*
X5901253Y-6129103D02*
X5882206Y-6138627D01*
X6177444Y-6081484D02*
X6082206Y-6081484D01*
X6082206Y-6081484D02*
X6072682Y-6176722D01*
X6072682Y-6176722D02*
X6082206Y-6167198D01*
X6082206Y-6167198D02*
X6101253Y-6157674D01*
X6101253Y-6157674D02*
X6148872Y-6157674D01*
X6148872Y-6157674D02*
X6167920Y-6167198D01*
X6167920Y-6167198D02*
X6177444Y-6176722D01*
X6177444Y-6176722D02*
X6186967Y-6195769D01*
X6186967Y-6195769D02*
X6186967Y-6243388D01*
X6186967Y-6243388D02*
X6177444Y-6262436D01*
X6177444Y-6262436D02*
X6167920Y-6271960D01*
X6167920Y-6271960D02*
X6148872Y-6281484D01*
X6148872Y-6281484D02*
X6101253Y-6281484D01*
X6101253Y-6281484D02*
X6082206Y-6271960D01*
X6082206Y-6271960D02*
X6072682Y-6262436D01*
X6253634Y-6081484D02*
X6386967Y-6081484D01*
X6386967Y-6081484D02*
X6301253Y-6281484D01*
X6453634Y-6081484D02*
X6453634Y-6119579D01*
X6529825Y-6081484D02*
X6529825Y-6119579D01*
X6825063Y-6357674D02*
X6815539Y-6348150D01*
X6815539Y-6348150D02*
X6796491Y-6319579D01*
X6796491Y-6319579D02*
X6786968Y-6300531D01*
X6786968Y-6300531D02*
X6777444Y-6271960D01*
X6777444Y-6271960D02*
X6767920Y-6224341D01*
X6767920Y-6224341D02*
X6767920Y-6186246D01*
X6767920Y-6186246D02*
X6777444Y-6138627D01*
X6777444Y-6138627D02*
X6786968Y-6110055D01*
X6786968Y-6110055D02*
X6796491Y-6091008D01*
X6796491Y-6091008D02*
X6815539Y-6062436D01*
X6815539Y-6062436D02*
X6825063Y-6052912D01*
X6996491Y-6081484D02*
X6901253Y-6081484D01*
X6901253Y-6081484D02*
X6891729Y-6176722D01*
X6891729Y-6176722D02*
X6901253Y-6167198D01*
X6901253Y-6167198D02*
X6920301Y-6157674D01*
X6920301Y-6157674D02*
X6967920Y-6157674D01*
X6967920Y-6157674D02*
X6986968Y-6167198D01*
X6986968Y-6167198D02*
X6996491Y-6176722D01*
X6996491Y-6176722D02*
X7006015Y-6195769D01*
X7006015Y-6195769D02*
X7006015Y-6243388D01*
X7006015Y-6243388D02*
X6996491Y-6262436D01*
X6996491Y-6262436D02*
X6986968Y-6271960D01*
X6986968Y-6271960D02*
X6967920Y-6281484D01*
X6967920Y-6281484D02*
X6920301Y-6281484D01*
X6920301Y-6281484D02*
X6901253Y-6271960D01*
X6901253Y-6271960D02*
X6891729Y-6262436D01*
X7244110Y-6281484D02*
X7244110Y-6081484D01*
X7329825Y-6281484D02*
X7329825Y-6176722D01*
X7329825Y-6176722D02*
X7320301Y-6157674D01*
X7320301Y-6157674D02*
X7301253Y-6148150D01*
X7301253Y-6148150D02*
X7272682Y-6148150D01*
X7272682Y-6148150D02*
X7253634Y-6157674D01*
X7253634Y-6157674D02*
X7244110Y-6167198D01*
X7453634Y-6281484D02*
X7434587Y-6271960D01*
X7434587Y-6271960D02*
X7425063Y-6262436D01*
X7425063Y-6262436D02*
X7415539Y-6243388D01*
X7415539Y-6243388D02*
X7415539Y-6186246D01*
X7415539Y-6186246D02*
X7425063Y-6167198D01*
X7425063Y-6167198D02*
X7434587Y-6157674D01*
X7434587Y-6157674D02*
X7453634Y-6148150D01*
X7453634Y-6148150D02*
X7482206Y-6148150D01*
X7482206Y-6148150D02*
X7501253Y-6157674D01*
X7501253Y-6157674D02*
X7510777Y-6167198D01*
X7510777Y-6167198D02*
X7520301Y-6186246D01*
X7520301Y-6186246D02*
X7520301Y-6243388D01*
X7520301Y-6243388D02*
X7510777Y-6262436D01*
X7510777Y-6262436D02*
X7501253Y-6271960D01*
X7501253Y-6271960D02*
X7482206Y-6281484D01*
X7482206Y-6281484D02*
X7453634Y-6281484D01*
X7634587Y-6281484D02*
X7615539Y-6271960D01*
X7615539Y-6271960D02*
X7606015Y-6252912D01*
X7606015Y-6252912D02*
X7606015Y-6081484D01*
X7786968Y-6271960D02*
X7767920Y-6281484D01*
X7767920Y-6281484D02*
X7729825Y-6281484D01*
X7729825Y-6281484D02*
X7710777Y-6271960D01*
X7710777Y-6271960D02*
X7701253Y-6252912D01*
X7701253Y-6252912D02*
X7701253Y-6176722D01*
X7701253Y-6176722D02*
X7710777Y-6157674D01*
X7710777Y-6157674D02*
X7729825Y-6148150D01*
X7729825Y-6148150D02*
X7767920Y-6148150D01*
X7767920Y-6148150D02*
X7786968Y-6157674D01*
X7786968Y-6157674D02*
X7796491Y-6176722D01*
X7796491Y-6176722D02*
X7796491Y-6195769D01*
X7796491Y-6195769D02*
X7701253Y-6214817D01*
X7872682Y-6271960D02*
X7891730Y-6281484D01*
X7891730Y-6281484D02*
X7929825Y-6281484D01*
X7929825Y-6281484D02*
X7948872Y-6271960D01*
X7948872Y-6271960D02*
X7958396Y-6252912D01*
X7958396Y-6252912D02*
X7958396Y-6243388D01*
X7958396Y-6243388D02*
X7948872Y-6224341D01*
X7948872Y-6224341D02*
X7929825Y-6214817D01*
X7929825Y-6214817D02*
X7901253Y-6214817D01*
X7901253Y-6214817D02*
X7882206Y-6205293D01*
X7882206Y-6205293D02*
X7872682Y-6186246D01*
X7872682Y-6186246D02*
X7872682Y-6176722D01*
X7872682Y-6176722D02*
X7882206Y-6157674D01*
X7882206Y-6157674D02*
X7901253Y-6148150D01*
X7901253Y-6148150D02*
X7929825Y-6148150D01*
X7929825Y-6148150D02*
X7948872Y-6157674D01*
X8025063Y-6357674D02*
X8034587Y-6348150D01*
X8034587Y-6348150D02*
X8053634Y-6319579D01*
X8053634Y-6319579D02*
X8063158Y-6300531D01*
X8063158Y-6300531D02*
X8072682Y-6271960D01*
X8072682Y-6271960D02*
X8082206Y-6224341D01*
X8082206Y-6224341D02*
X8082206Y-6186246D01*
X8082206Y-6186246D02*
X8072682Y-6138627D01*
X8072682Y-6138627D02*
X8063158Y-6110055D01*
X8063158Y-6110055D02*
X8053634Y-6091008D01*
X8053634Y-6091008D02*
X8034587Y-6062436D01*
X8034587Y-6062436D02*
X8025063Y-6052912D01*
D10*
X3250000Y-6454000D02*
G75*
G03*
X3250000Y-6454000I-50000J0D01*
G01*
D11*
X3615539Y-6545484D02*
X3501253Y-6545484D01*
X3558396Y-6545484D02*
X3558396Y-6345484D01*
X3558396Y-6345484D02*
X3539348Y-6374055D01*
X3539348Y-6374055D02*
X3520301Y-6393103D01*
X3520301Y-6393103D02*
X3501253Y-6402627D01*
X3701253Y-6526436D02*
X3710777Y-6535960D01*
X3710777Y-6535960D02*
X3701253Y-6545484D01*
X3701253Y-6545484D02*
X3691729Y-6535960D01*
X3691729Y-6535960D02*
X3701253Y-6526436D01*
X3701253Y-6526436D02*
X3701253Y-6545484D01*
X3834586Y-6345484D02*
X3853634Y-6345484D01*
X3853634Y-6345484D02*
X3872682Y-6355008D01*
X3872682Y-6355008D02*
X3882205Y-6364531D01*
X3882205Y-6364531D02*
X3891729Y-6383579D01*
X3891729Y-6383579D02*
X3901253Y-6421674D01*
X3901253Y-6421674D02*
X3901253Y-6469293D01*
X3901253Y-6469293D02*
X3891729Y-6507388D01*
X3891729Y-6507388D02*
X3882205Y-6526436D01*
X3882205Y-6526436D02*
X3872682Y-6535960D01*
X3872682Y-6535960D02*
X3853634Y-6545484D01*
X3853634Y-6545484D02*
X3834586Y-6545484D01*
X3834586Y-6545484D02*
X3815539Y-6535960D01*
X3815539Y-6535960D02*
X3806015Y-6526436D01*
X3806015Y-6526436D02*
X3796491Y-6507388D01*
X3796491Y-6507388D02*
X3786967Y-6469293D01*
X3786967Y-6469293D02*
X3786967Y-6421674D01*
X3786967Y-6421674D02*
X3796491Y-6383579D01*
X3796491Y-6383579D02*
X3806015Y-6364531D01*
X3806015Y-6364531D02*
X3815539Y-6355008D01*
X3815539Y-6355008D02*
X3834586Y-6345484D01*
X4025062Y-6345484D02*
X4044110Y-6345484D01*
X4044110Y-6345484D02*
X4063158Y-6355008D01*
X4063158Y-6355008D02*
X4072682Y-6364531D01*
X4072682Y-6364531D02*
X4082205Y-6383579D01*
X4082205Y-6383579D02*
X4091729Y-6421674D01*
X4091729Y-6421674D02*
X4091729Y-6469293D01*
X4091729Y-6469293D02*
X4082205Y-6507388D01*
X4082205Y-6507388D02*
X4072682Y-6526436D01*
X4072682Y-6526436D02*
X4063158Y-6535960D01*
X4063158Y-6535960D02*
X4044110Y-6545484D01*
X4044110Y-6545484D02*
X4025062Y-6545484D01*
X4025062Y-6545484D02*
X4006015Y-6535960D01*
X4006015Y-6535960D02*
X3996491Y-6526436D01*
X3996491Y-6526436D02*
X3986967Y-6507388D01*
X3986967Y-6507388D02*
X3977443Y-6469293D01*
X3977443Y-6469293D02*
X3977443Y-6421674D01*
X3977443Y-6421674D02*
X3986967Y-6383579D01*
X3986967Y-6383579D02*
X3996491Y-6364531D01*
X3996491Y-6364531D02*
X4006015Y-6355008D01*
X4006015Y-6355008D02*
X4025062Y-6345484D01*
X4215539Y-6345484D02*
X4234586Y-6345484D01*
X4234586Y-6345484D02*
X4253634Y-6355008D01*
X4253634Y-6355008D02*
X4263158Y-6364531D01*
X4263158Y-6364531D02*
X4272682Y-6383579D01*
X4272682Y-6383579D02*
X4282205Y-6421674D01*
X4282205Y-6421674D02*
X4282205Y-6469293D01*
X4282205Y-6469293D02*
X4272682Y-6507388D01*
X4272682Y-6507388D02*
X4263158Y-6526436D01*
X4263158Y-6526436D02*
X4253634Y-6535960D01*
X4253634Y-6535960D02*
X4234586Y-6545484D01*
X4234586Y-6545484D02*
X4215539Y-6545484D01*
X4215539Y-6545484D02*
X4196491Y-6535960D01*
X4196491Y-6535960D02*
X4186967Y-6526436D01*
X4186967Y-6526436D02*
X4177443Y-6507388D01*
X4177443Y-6507388D02*
X4167920Y-6469293D01*
X4167920Y-6469293D02*
X4167920Y-6421674D01*
X4167920Y-6421674D02*
X4177443Y-6383579D01*
X4177443Y-6383579D02*
X4186967Y-6364531D01*
X4186967Y-6364531D02*
X4196491Y-6355008D01*
X4196491Y-6355008D02*
X4215539Y-6345484D01*
X4367920Y-6545484D02*
X4367920Y-6412150D01*
X4367920Y-6431198D02*
X4377444Y-6421674D01*
X4377444Y-6421674D02*
X4396491Y-6412150D01*
X4396491Y-6412150D02*
X4425063Y-6412150D01*
X4425063Y-6412150D02*
X4444110Y-6421674D01*
X4444110Y-6421674D02*
X4453634Y-6440722D01*
X4453634Y-6440722D02*
X4453634Y-6545484D01*
X4453634Y-6440722D02*
X4463158Y-6421674D01*
X4463158Y-6421674D02*
X4482205Y-6412150D01*
X4482205Y-6412150D02*
X4510777Y-6412150D01*
X4510777Y-6412150D02*
X4529825Y-6421674D01*
X4529825Y-6421674D02*
X4539348Y-6440722D01*
X4539348Y-6440722D02*
X4539348Y-6545484D01*
X4634586Y-6545484D02*
X4634586Y-6412150D01*
X4634586Y-6431198D02*
X4644110Y-6421674D01*
X4644110Y-6421674D02*
X4663158Y-6412150D01*
X4663158Y-6412150D02*
X4691729Y-6412150D01*
X4691729Y-6412150D02*
X4710777Y-6421674D01*
X4710777Y-6421674D02*
X4720301Y-6440722D01*
X4720301Y-6440722D02*
X4720301Y-6545484D01*
X4720301Y-6440722D02*
X4729825Y-6421674D01*
X4729825Y-6421674D02*
X4748872Y-6412150D01*
X4748872Y-6412150D02*
X4777444Y-6412150D01*
X4777444Y-6412150D02*
X4796491Y-6421674D01*
X4796491Y-6421674D02*
X4806015Y-6440722D01*
X4806015Y-6440722D02*
X4806015Y-6545484D01*
X5196491Y-6335960D02*
X5025063Y-6593103D01*
X5453634Y-6345484D02*
X5472682Y-6345484D01*
X5472682Y-6345484D02*
X5491729Y-6355008D01*
X5491729Y-6355008D02*
X5501253Y-6364531D01*
X5501253Y-6364531D02*
X5510777Y-6383579D01*
X5510777Y-6383579D02*
X5520301Y-6421674D01*
X5520301Y-6421674D02*
X5520301Y-6469293D01*
X5520301Y-6469293D02*
X5510777Y-6507388D01*
X5510777Y-6507388D02*
X5501253Y-6526436D01*
X5501253Y-6526436D02*
X5491729Y-6535960D01*
X5491729Y-6535960D02*
X5472682Y-6545484D01*
X5472682Y-6545484D02*
X5453634Y-6545484D01*
X5453634Y-6545484D02*
X5434587Y-6535960D01*
X5434587Y-6535960D02*
X5425063Y-6526436D01*
X5425063Y-6526436D02*
X5415539Y-6507388D01*
X5415539Y-6507388D02*
X5406015Y-6469293D01*
X5406015Y-6469293D02*
X5406015Y-6421674D01*
X5406015Y-6421674D02*
X5415539Y-6383579D01*
X5415539Y-6383579D02*
X5425063Y-6364531D01*
X5425063Y-6364531D02*
X5434587Y-6355008D01*
X5434587Y-6355008D02*
X5453634Y-6345484D01*
X5606015Y-6526436D02*
X5615539Y-6535960D01*
X5615539Y-6535960D02*
X5606015Y-6545484D01*
X5606015Y-6545484D02*
X5596491Y-6535960D01*
X5596491Y-6535960D02*
X5606015Y-6526436D01*
X5606015Y-6526436D02*
X5606015Y-6545484D01*
X5739348Y-6345484D02*
X5758396Y-6345484D01*
X5758396Y-6345484D02*
X5777444Y-6355008D01*
X5777444Y-6355008D02*
X5786967Y-6364531D01*
X5786967Y-6364531D02*
X5796491Y-6383579D01*
X5796491Y-6383579D02*
X5806015Y-6421674D01*
X5806015Y-6421674D02*
X5806015Y-6469293D01*
X5806015Y-6469293D02*
X5796491Y-6507388D01*
X5796491Y-6507388D02*
X5786967Y-6526436D01*
X5786967Y-6526436D02*
X5777444Y-6535960D01*
X5777444Y-6535960D02*
X5758396Y-6545484D01*
X5758396Y-6545484D02*
X5739348Y-6545484D01*
X5739348Y-6545484D02*
X5720301Y-6535960D01*
X5720301Y-6535960D02*
X5710777Y-6526436D01*
X5710777Y-6526436D02*
X5701253Y-6507388D01*
X5701253Y-6507388D02*
X5691729Y-6469293D01*
X5691729Y-6469293D02*
X5691729Y-6421674D01*
X5691729Y-6421674D02*
X5701253Y-6383579D01*
X5701253Y-6383579D02*
X5710777Y-6364531D01*
X5710777Y-6364531D02*
X5720301Y-6355008D01*
X5720301Y-6355008D02*
X5739348Y-6345484D01*
X5872682Y-6345484D02*
X5996491Y-6345484D01*
X5996491Y-6345484D02*
X5929825Y-6421674D01*
X5929825Y-6421674D02*
X5958396Y-6421674D01*
X5958396Y-6421674D02*
X5977444Y-6431198D01*
X5977444Y-6431198D02*
X5986967Y-6440722D01*
X5986967Y-6440722D02*
X5996491Y-6459769D01*
X5996491Y-6459769D02*
X5996491Y-6507388D01*
X5996491Y-6507388D02*
X5986967Y-6526436D01*
X5986967Y-6526436D02*
X5977444Y-6535960D01*
X5977444Y-6535960D02*
X5958396Y-6545484D01*
X5958396Y-6545484D02*
X5901253Y-6545484D01*
X5901253Y-6545484D02*
X5882206Y-6535960D01*
X5882206Y-6535960D02*
X5872682Y-6526436D01*
X6091729Y-6545484D02*
X6129825Y-6545484D01*
X6129825Y-6545484D02*
X6148872Y-6535960D01*
X6148872Y-6535960D02*
X6158396Y-6526436D01*
X6158396Y-6526436D02*
X6177444Y-6497865D01*
X6177444Y-6497865D02*
X6186967Y-6459769D01*
X6186967Y-6459769D02*
X6186967Y-6383579D01*
X6186967Y-6383579D02*
X6177444Y-6364531D01*
X6177444Y-6364531D02*
X6167920Y-6355008D01*
X6167920Y-6355008D02*
X6148872Y-6345484D01*
X6148872Y-6345484D02*
X6110777Y-6345484D01*
X6110777Y-6345484D02*
X6091729Y-6355008D01*
X6091729Y-6355008D02*
X6082206Y-6364531D01*
X6082206Y-6364531D02*
X6072682Y-6383579D01*
X6072682Y-6383579D02*
X6072682Y-6431198D01*
X6072682Y-6431198D02*
X6082206Y-6450246D01*
X6082206Y-6450246D02*
X6091729Y-6459769D01*
X6091729Y-6459769D02*
X6110777Y-6469293D01*
X6110777Y-6469293D02*
X6148872Y-6469293D01*
X6148872Y-6469293D02*
X6167920Y-6459769D01*
X6167920Y-6459769D02*
X6177444Y-6450246D01*
X6177444Y-6450246D02*
X6186967Y-6431198D01*
X6358396Y-6412150D02*
X6358396Y-6545484D01*
X6310777Y-6335960D02*
X6263158Y-6478817D01*
X6263158Y-6478817D02*
X6386967Y-6478817D01*
X6453634Y-6345484D02*
X6453634Y-6383579D01*
X6529825Y-6345484D02*
X6529825Y-6383579D01*
X6825063Y-6621674D02*
X6815539Y-6612150D01*
X6815539Y-6612150D02*
X6796491Y-6583579D01*
X6796491Y-6583579D02*
X6786968Y-6564531D01*
X6786968Y-6564531D02*
X6777444Y-6535960D01*
X6777444Y-6535960D02*
X6767920Y-6488341D01*
X6767920Y-6488341D02*
X6767920Y-6450246D01*
X6767920Y-6450246D02*
X6777444Y-6402627D01*
X6777444Y-6402627D02*
X6786968Y-6374055D01*
X6786968Y-6374055D02*
X6796491Y-6355008D01*
X6796491Y-6355008D02*
X6815539Y-6326436D01*
X6815539Y-6326436D02*
X6825063Y-6316912D01*
X7006015Y-6545484D02*
X6891729Y-6545484D01*
X6948872Y-6545484D02*
X6948872Y-6345484D01*
X6948872Y-6345484D02*
X6929825Y-6374055D01*
X6929825Y-6374055D02*
X6910777Y-6393103D01*
X6910777Y-6393103D02*
X6891729Y-6402627D01*
X7196491Y-6545484D02*
X7082206Y-6545484D01*
X7139348Y-6545484D02*
X7139348Y-6345484D01*
X7139348Y-6345484D02*
X7120301Y-6374055D01*
X7120301Y-6374055D02*
X7101253Y-6393103D01*
X7101253Y-6393103D02*
X7082206Y-6402627D01*
X7434587Y-6545484D02*
X7434587Y-6345484D01*
X7520301Y-6545484D02*
X7520301Y-6440722D01*
X7520301Y-6440722D02*
X7510777Y-6421674D01*
X7510777Y-6421674D02*
X7491730Y-6412150D01*
X7491730Y-6412150D02*
X7463158Y-6412150D01*
X7463158Y-6412150D02*
X7444110Y-6421674D01*
X7444110Y-6421674D02*
X7434587Y-6431198D01*
X7644110Y-6545484D02*
X7625063Y-6535960D01*
X7625063Y-6535960D02*
X7615539Y-6526436D01*
X7615539Y-6526436D02*
X7606015Y-6507388D01*
X7606015Y-6507388D02*
X7606015Y-6450246D01*
X7606015Y-6450246D02*
X7615539Y-6431198D01*
X7615539Y-6431198D02*
X7625063Y-6421674D01*
X7625063Y-6421674D02*
X7644110Y-6412150D01*
X7644110Y-6412150D02*
X7672682Y-6412150D01*
X7672682Y-6412150D02*
X7691730Y-6421674D01*
X7691730Y-6421674D02*
X7701253Y-6431198D01*
X7701253Y-6431198D02*
X7710777Y-6450246D01*
X7710777Y-6450246D02*
X7710777Y-6507388D01*
X7710777Y-6507388D02*
X7701253Y-6526436D01*
X7701253Y-6526436D02*
X7691730Y-6535960D01*
X7691730Y-6535960D02*
X7672682Y-6545484D01*
X7672682Y-6545484D02*
X7644110Y-6545484D01*
X7825063Y-6545484D02*
X7806015Y-6535960D01*
X7806015Y-6535960D02*
X7796491Y-6516912D01*
X7796491Y-6516912D02*
X7796491Y-6345484D01*
X7977444Y-6535960D02*
X7958396Y-6545484D01*
X7958396Y-6545484D02*
X7920301Y-6545484D01*
X7920301Y-6545484D02*
X7901253Y-6535960D01*
X7901253Y-6535960D02*
X7891730Y-6516912D01*
X7891730Y-6516912D02*
X7891730Y-6440722D01*
X7891730Y-6440722D02*
X7901253Y-6421674D01*
X7901253Y-6421674D02*
X7920301Y-6412150D01*
X7920301Y-6412150D02*
X7958396Y-6412150D01*
X7958396Y-6412150D02*
X7977444Y-6421674D01*
X7977444Y-6421674D02*
X7986968Y-6440722D01*
X7986968Y-6440722D02*
X7986968Y-6459769D01*
X7986968Y-6459769D02*
X7891730Y-6478817D01*
X8063158Y-6535960D02*
X8082206Y-6545484D01*
X8082206Y-6545484D02*
X8120301Y-6545484D01*
X8120301Y-6545484D02*
X8139349Y-6535960D01*
X8139349Y-6535960D02*
X8148872Y-6516912D01*
X8148872Y-6516912D02*
X8148872Y-6507388D01*
X8148872Y-6507388D02*
X8139349Y-6488341D01*
X8139349Y-6488341D02*
X8120301Y-6478817D01*
X8120301Y-6478817D02*
X8091730Y-6478817D01*
X8091730Y-6478817D02*
X8072682Y-6469293D01*
X8072682Y-6469293D02*
X8063158Y-6450246D01*
X8063158Y-6450246D02*
X8063158Y-6440722D01*
X8063158Y-6440722D02*
X8072682Y-6421674D01*
X8072682Y-6421674D02*
X8091730Y-6412150D01*
X8091730Y-6412150D02*
X8120301Y-6412150D01*
X8120301Y-6412150D02*
X8139349Y-6421674D01*
X8215539Y-6621674D02*
X8225063Y-6612150D01*
X8225063Y-6612150D02*
X8244111Y-6583579D01*
X8244111Y-6583579D02*
X8253634Y-6564531D01*
X8253634Y-6564531D02*
X8263158Y-6535960D01*
X8263158Y-6535960D02*
X8272682Y-6488341D01*
X8272682Y-6488341D02*
X8272682Y-6450246D01*
X8272682Y-6450246D02*
X8263158Y-6402627D01*
X8263158Y-6402627D02*
X8253634Y-6374055D01*
X8253634Y-6374055D02*
X8244111Y-6355008D01*
X8244111Y-6355008D02*
X8225063Y-6326436D01*
X8225063Y-6326436D02*
X8215539Y-6316912D01*
M02*
