G04 #@! TF.GenerationSoftware,KiCad,Pcbnew,7.0.9*
G04 #@! TF.CreationDate,2023-12-12T21:55:39+01:00*
G04 #@! TF.ProjectId,Leveller,4c657665-6c6c-4657-922e-6b696361645f,rev?*
G04 #@! TF.SameCoordinates,Original*
G04 #@! TF.FileFunction,Copper,L1,Top*
G04 #@! TF.FilePolarity,Positive*
%FSLAX46Y46*%
G04 Gerber Fmt 4.6, Leading zero omitted, Abs format (unit mm)*
G04 Created by KiCad (PCBNEW 7.0.9) date 2023-12-12 21:55:39*
%MOMM*%
%LPD*%
G01*
G04 APERTURE LIST*
G04 Aperture macros list*
%AMRoundRect*
0 Rectangle with rounded corners*
0 $1 Rounding radius*
0 $2 $3 $4 $5 $6 $7 $8 $9 X,Y pos of 4 corners*
0 Add a 4 corners polygon primitive as box body*
4,1,4,$2,$3,$4,$5,$6,$7,$8,$9,$2,$3,0*
0 Add four circle primitives for the rounded corners*
1,1,$1+$1,$2,$3*
1,1,$1+$1,$4,$5*
1,1,$1+$1,$6,$7*
1,1,$1+$1,$8,$9*
0 Add four rect primitives between the rounded corners*
20,1,$1+$1,$2,$3,$4,$5,0*
20,1,$1+$1,$4,$5,$6,$7,0*
20,1,$1+$1,$6,$7,$8,$9,0*
20,1,$1+$1,$8,$9,$2,$3,0*%
G04 Aperture macros list end*
G04 #@! TA.AperFunction,SMDPad,CuDef*
%ADD10R,1.198880X0.497840*%
G04 #@! TD*
G04 #@! TA.AperFunction,SMDPad,CuDef*
%ADD11RoundRect,0.225000X-0.250000X0.225000X-0.250000X-0.225000X0.250000X-0.225000X0.250000X0.225000X0*%
G04 #@! TD*
G04 #@! TA.AperFunction,SMDPad,CuDef*
%ADD12RoundRect,0.200000X0.200000X0.275000X-0.200000X0.275000X-0.200000X-0.275000X0.200000X-0.275000X0*%
G04 #@! TD*
G04 #@! TA.AperFunction,SMDPad,CuDef*
%ADD13RoundRect,0.200000X-0.200000X-0.275000X0.200000X-0.275000X0.200000X0.275000X-0.200000X0.275000X0*%
G04 #@! TD*
G04 #@! TA.AperFunction,SMDPad,CuDef*
%ADD14RoundRect,0.200000X0.275000X-0.200000X0.275000X0.200000X-0.275000X0.200000X-0.275000X-0.200000X0*%
G04 #@! TD*
G04 #@! TA.AperFunction,ComponentPad*
%ADD15R,1.700000X1.700000*%
G04 #@! TD*
G04 #@! TA.AperFunction,ComponentPad*
%ADD16O,1.700000X1.700000*%
G04 #@! TD*
G04 #@! TA.AperFunction,SMDPad,CuDef*
%ADD17RoundRect,0.200000X-0.275000X0.200000X-0.275000X-0.200000X0.275000X-0.200000X0.275000X0.200000X0*%
G04 #@! TD*
G04 #@! TA.AperFunction,SMDPad,CuDef*
%ADD18RoundRect,0.225000X0.225000X0.250000X-0.225000X0.250000X-0.225000X-0.250000X0.225000X-0.250000X0*%
G04 #@! TD*
G04 #@! TA.AperFunction,SMDPad,CuDef*
%ADD19RoundRect,0.225000X0.250000X-0.225000X0.250000X0.225000X-0.250000X0.225000X-0.250000X-0.225000X0*%
G04 #@! TD*
G04 #@! TA.AperFunction,SMDPad,CuDef*
%ADD20RoundRect,0.225000X-0.225000X-0.250000X0.225000X-0.250000X0.225000X0.250000X-0.225000X0.250000X0*%
G04 #@! TD*
G04 #@! TA.AperFunction,ViaPad*
%ADD21C,0.800000*%
G04 #@! TD*
G04 #@! TA.AperFunction,Conductor*
%ADD22C,0.250000*%
G04 #@! TD*
G04 #@! TA.AperFunction,Conductor*
%ADD23C,0.500000*%
G04 #@! TD*
G04 APERTURE END LIST*
D10*
X45221560Y-37070000D03*
X45221560Y-35800000D03*
X45221560Y-34530000D03*
X45221560Y-33260000D03*
X45221560Y-31990000D03*
X45221560Y-30720000D03*
X45221560Y-29450000D03*
X39725000Y-29450000D03*
X39725000Y-30720000D03*
X39725000Y-31990000D03*
X39725000Y-33260000D03*
X39725000Y-34530000D03*
X39725000Y-35800000D03*
X39725000Y-37070000D03*
D11*
X40025000Y-38925000D03*
X40025000Y-40475000D03*
D12*
X45450000Y-53700000D03*
X43800000Y-53700000D03*
D13*
X49400000Y-32500000D03*
X51050000Y-32500000D03*
D11*
X37625000Y-29125000D03*
X37625000Y-30675000D03*
D14*
X33625000Y-30725000D03*
X33625000Y-29075000D03*
D11*
X37825000Y-34625000D03*
X37825000Y-36175000D03*
X37825000Y-47625000D03*
X37825000Y-49175000D03*
D14*
X45425000Y-40525000D03*
X45425000Y-38875000D03*
X51425000Y-30525000D03*
X51425000Y-28875000D03*
D15*
X50380000Y-35660000D03*
D16*
X50380000Y-38200000D03*
X50380000Y-40740000D03*
X50380000Y-43280000D03*
X50380000Y-45820000D03*
D17*
X47425000Y-28875000D03*
X47425000Y-30525000D03*
D12*
X37650000Y-51600000D03*
X36000000Y-51600000D03*
D13*
X37800000Y-42300000D03*
X39450000Y-42300000D03*
D18*
X41300000Y-53700000D03*
X39750000Y-53700000D03*
D19*
X47425000Y-40475000D03*
X47425000Y-38925000D03*
D20*
X41450000Y-42300000D03*
X43000000Y-42300000D03*
D17*
X41425000Y-38875000D03*
X41425000Y-40525000D03*
X35625000Y-29075000D03*
X35625000Y-30725000D03*
D13*
X47400000Y-51500000D03*
X49050000Y-51500000D03*
X47400000Y-53700000D03*
X49050000Y-53700000D03*
D11*
X49425000Y-28925000D03*
X49425000Y-30475000D03*
D15*
X35140000Y-35660000D03*
D16*
X35140000Y-38200000D03*
X35140000Y-40740000D03*
X35140000Y-43280000D03*
X35140000Y-45820000D03*
X35140000Y-48360000D03*
D19*
X47425000Y-34875000D03*
X47425000Y-33325000D03*
D13*
X36000000Y-53700000D03*
X37650000Y-53700000D03*
D17*
X38025000Y-38875000D03*
X38025000Y-40525000D03*
D14*
X47425000Y-44525000D03*
X47425000Y-42875000D03*
D13*
X34000000Y-32700000D03*
X35650000Y-32700000D03*
D17*
X43425000Y-38875000D03*
X43425000Y-40525000D03*
D10*
X45273280Y-51710000D03*
X45273280Y-50440000D03*
X45273280Y-49170000D03*
X45273280Y-47900000D03*
X45273280Y-46630000D03*
X45273280Y-45360000D03*
X45273280Y-44090000D03*
X39776720Y-44090000D03*
X39776720Y-45360000D03*
X39776720Y-46630000D03*
X39776720Y-47900000D03*
X39776720Y-49170000D03*
X39776720Y-50440000D03*
X39776720Y-51710000D03*
D11*
X47425000Y-46525000D03*
X47425000Y-48075000D03*
D17*
X37825000Y-44275000D03*
X37825000Y-45925000D03*
D21*
X38225000Y-32300000D03*
X42425000Y-30100000D03*
X50225000Y-50300000D03*
X47425000Y-31900000D03*
X37625000Y-33300000D03*
D22*
X40075520Y-31990000D02*
X40825000Y-32739480D01*
X42500000Y-32158960D02*
X44871040Y-34530000D01*
X49205000Y-44745000D02*
X49205000Y-42793299D01*
X49050000Y-51500000D02*
X49050000Y-53700000D01*
X52005000Y-48545000D02*
X50250000Y-50300000D01*
X40825000Y-34300000D02*
X40595000Y-34530000D01*
X37825000Y-49175000D02*
X36925000Y-50075000D01*
X35025000Y-53948004D02*
X36026996Y-54950000D01*
X50225000Y-50325000D02*
X49050000Y-51500000D01*
X42425000Y-30100000D02*
X42382974Y-30057974D01*
X37825000Y-49175000D02*
X39771720Y-49175000D01*
X40595000Y-34530000D02*
X39725000Y-34530000D01*
X44871040Y-31990000D02*
X42500000Y-31990000D01*
X40825000Y-32739480D02*
X40825000Y-34300000D01*
X50250000Y-50300000D02*
X50225000Y-50300000D01*
X32950000Y-35650000D02*
X35130000Y-35650000D01*
X39415000Y-32300000D02*
X39725000Y-31990000D01*
X38225000Y-32300000D02*
X39415000Y-32300000D01*
X32775000Y-51201996D02*
X32775000Y-35825000D01*
X35025000Y-53451996D02*
X32775000Y-51201996D01*
X35576996Y-52900000D02*
X35025000Y-53451996D01*
X52005000Y-43080000D02*
X52005000Y-48545000D01*
X49205000Y-42793299D02*
X49893299Y-42105000D01*
X49893299Y-42105000D02*
X51030000Y-42105000D01*
X38225000Y-32300000D02*
X38425000Y-32100000D01*
D23*
X47425000Y-34875000D02*
X45566560Y-34875000D01*
D22*
X36925000Y-50075000D02*
X36925000Y-52000000D01*
X47800000Y-54950000D02*
X49050000Y-53700000D01*
X51030000Y-42105000D02*
X52005000Y-43080000D01*
X35140000Y-35660000D02*
X37310000Y-35660000D01*
X50225000Y-50300000D02*
X50225000Y-50325000D01*
X36026996Y-54950000D02*
X47800000Y-54950000D01*
X32775000Y-35825000D02*
X32950000Y-35650000D01*
X42425000Y-31915000D02*
X42425000Y-30100000D01*
X36925000Y-52000000D02*
X36025000Y-52900000D01*
X36025000Y-52900000D02*
X35576996Y-52900000D01*
X42500000Y-31990000D02*
X42500000Y-32158960D01*
X47425000Y-46525000D02*
X49205000Y-44745000D01*
X45273280Y-46630000D02*
X47320000Y-46630000D01*
X37825000Y-36175000D02*
X39470000Y-34530000D01*
X45566560Y-34875000D02*
X45221560Y-34530000D01*
X35025000Y-53451996D02*
X35025000Y-53948004D01*
X42500000Y-31990000D02*
X42425000Y-31915000D01*
X37310000Y-35660000D02*
X37825000Y-36175000D01*
X47525000Y-47975000D02*
X48225000Y-47975000D01*
X47525000Y-47975000D02*
X45348280Y-47975000D01*
X48225000Y-47975000D02*
X50380000Y-45820000D01*
X45221560Y-33260000D02*
X47360000Y-33260000D01*
X47425000Y-33325000D02*
X47425000Y-31900000D01*
X37825000Y-34625000D02*
X37825000Y-33500000D01*
X37665000Y-33260000D02*
X39725000Y-33260000D01*
X35140000Y-48360000D02*
X37090000Y-48360000D01*
X37825000Y-34625000D02*
X39190000Y-33260000D01*
X37090000Y-48360000D02*
X37825000Y-47625000D01*
X37625000Y-33300000D02*
X37665000Y-33260000D01*
X37825000Y-33500000D02*
X37625000Y-33300000D01*
X39190000Y-33260000D02*
X39725000Y-33260000D01*
X38100000Y-47900000D02*
X39776720Y-47900000D01*
X46458800Y-44525000D02*
X47425000Y-44525000D01*
X44365000Y-45360000D02*
X44922760Y-45360000D01*
X43625000Y-46100000D02*
X44365000Y-45360000D01*
X43625000Y-53150000D02*
X43625000Y-46100000D01*
X44510000Y-45360000D02*
X45273280Y-45360000D01*
X41450000Y-42300000D02*
X44510000Y-45360000D01*
X45623800Y-45360000D02*
X46458800Y-44525000D01*
X43000000Y-42300000D02*
X43483280Y-42300000D01*
X45273280Y-44090000D02*
X46210000Y-44090000D01*
X44225000Y-40100000D02*
X43725000Y-39600000D01*
X42150000Y-39600000D02*
X41425000Y-38875000D01*
X44225000Y-41075000D02*
X44225000Y-40100000D01*
X46210000Y-44090000D02*
X47425000Y-42875000D01*
X43000000Y-42300000D02*
X44225000Y-41075000D01*
X43725000Y-39600000D02*
X42150000Y-39600000D01*
X43483280Y-42300000D02*
X45273280Y-44090000D01*
X36800000Y-54500000D02*
X40500000Y-54500000D01*
X40500000Y-54500000D02*
X41300000Y-53700000D01*
X38852280Y-46056080D02*
X38852280Y-47203920D01*
X38974440Y-45933920D02*
X38852280Y-46056080D01*
X40701160Y-43551160D02*
X40701160Y-45933920D01*
X40825000Y-47449920D02*
X40825000Y-50440000D01*
X41265000Y-50440000D02*
X41325000Y-50500000D01*
X38852280Y-47203920D02*
X40579000Y-47203920D01*
X36000000Y-53700000D02*
X36800000Y-54500000D01*
X40701160Y-45933920D02*
X38974440Y-45933920D01*
X40825000Y-50440000D02*
X41265000Y-50440000D01*
X39450000Y-42300000D02*
X40701160Y-43551160D01*
X39776720Y-50440000D02*
X40825000Y-50440000D01*
X41325000Y-50500000D02*
X41325000Y-53675000D01*
X40579000Y-47203920D02*
X40825000Y-47449920D01*
X37650000Y-53700000D02*
X39750000Y-53700000D01*
X37650000Y-53700000D02*
X37650000Y-51600000D01*
X39750000Y-53700000D02*
X39750000Y-51736720D01*
X37650000Y-51600000D02*
X39666720Y-51600000D01*
X39776720Y-53173280D02*
X39776720Y-51710000D01*
X39775000Y-53175000D02*
X39776720Y-53173280D01*
X45273280Y-50440000D02*
X45273280Y-51710000D01*
X45525000Y-53400000D02*
X45525000Y-51961720D01*
X45525000Y-51961720D02*
X45273280Y-51710000D01*
X39590000Y-44090000D02*
X37800000Y-42300000D01*
X39776720Y-44090000D02*
X39776720Y-45360000D01*
X45425000Y-40525000D02*
X47375000Y-40525000D01*
X43425000Y-38875000D02*
X43425000Y-37246040D01*
X43425000Y-37246040D02*
X44871040Y-35800000D01*
X43775000Y-38875000D02*
X45425000Y-40525000D01*
X47425000Y-38925000D02*
X47425000Y-36285000D01*
X45425000Y-37273440D02*
X45221560Y-37070000D01*
X45425000Y-38875000D02*
X45425000Y-37273440D01*
X47425000Y-36285000D02*
X51050000Y-32660000D01*
X45425000Y-38875000D02*
X47375000Y-38875000D01*
X45221560Y-29450000D02*
X45796560Y-28875000D01*
X47425000Y-28875000D02*
X49375000Y-28875000D01*
X49425000Y-28925000D02*
X51375000Y-28925000D01*
X45796560Y-28875000D02*
X47425000Y-28875000D01*
X47425000Y-30525000D02*
X49375000Y-30525000D01*
X45221560Y-30720000D02*
X47230000Y-30720000D01*
X49400000Y-32500000D02*
X49400000Y-30500000D01*
X35625000Y-29120000D02*
X37575000Y-29120000D01*
X39445000Y-29170000D02*
X39725000Y-29450000D01*
X37625000Y-29170000D02*
X39445000Y-29170000D01*
X33625000Y-29075000D02*
X35625000Y-29075000D01*
X34000000Y-32350000D02*
X35625000Y-30725000D01*
X37625000Y-30720000D02*
X39725000Y-30720000D01*
X35625000Y-30770000D02*
X37575000Y-30770000D01*
X41275000Y-32150000D02*
X41275000Y-35850000D01*
X38059052Y-31500000D02*
X38142972Y-31416080D01*
X41275000Y-35850000D02*
X40055000Y-37070000D01*
X36225000Y-31500000D02*
X38059052Y-31500000D01*
X35650000Y-32700000D02*
X35650000Y-32075000D01*
X38025000Y-38875000D02*
X39975000Y-38875000D01*
X35650000Y-32075000D02*
X36225000Y-31500000D01*
X38142972Y-31416080D02*
X40541080Y-31416080D01*
X40025000Y-37370000D02*
X39725000Y-37070000D01*
X40025000Y-38925000D02*
X40025000Y-37370000D01*
X40541080Y-31416080D02*
X41275000Y-32150000D01*
X34825000Y-39565000D02*
X35626701Y-39565000D01*
X33965000Y-42793299D02*
X34843299Y-41915000D01*
X40025000Y-40475000D02*
X38075000Y-40475000D01*
X34653299Y-44455000D02*
X33965000Y-43766701D01*
X38234052Y-37025000D02*
X34500000Y-37025000D01*
X36586701Y-40525000D02*
X38025000Y-40525000D01*
X35810000Y-41915000D02*
X37200000Y-40525000D01*
X33965000Y-38705000D02*
X34825000Y-39565000D01*
X33965000Y-37560000D02*
X33965000Y-38705000D01*
X34500000Y-37025000D02*
X33965000Y-37560000D01*
X37645000Y-44455000D02*
X34653299Y-44455000D01*
X35626701Y-39565000D02*
X36586701Y-40525000D01*
X33965000Y-43766701D02*
X33965000Y-42793299D01*
X37200000Y-40525000D02*
X38025000Y-40525000D01*
X39374480Y-35884572D02*
X38234052Y-37025000D01*
X34843299Y-41915000D02*
X35810000Y-41915000D01*
X47400000Y-51500000D02*
X47400000Y-50075000D01*
X46495000Y-49170000D02*
X45273280Y-49170000D01*
X47400000Y-50075000D02*
X46495000Y-49170000D01*
X47400000Y-53700000D02*
X46600000Y-54500000D01*
X42425000Y-53550000D02*
X42425000Y-48100000D01*
X43375000Y-54500000D02*
X42425000Y-53550000D01*
X46600000Y-54500000D02*
X43375000Y-54500000D01*
X40955000Y-46630000D02*
X40127240Y-46630000D01*
X42425000Y-48100000D02*
X40955000Y-46630000D01*
X33225000Y-44700000D02*
X33225000Y-42655000D01*
X33965000Y-49565000D02*
X33965000Y-45440000D01*
X33965000Y-45440000D02*
X33225000Y-44700000D01*
X36000000Y-51600000D02*
X33965000Y-49565000D01*
X33225000Y-42655000D02*
X35140000Y-40740000D01*
X37825000Y-45925000D02*
X35245000Y-45925000D01*
G04 #@! TA.AperFunction,Conductor*
G36*
X52504099Y-31022706D02*
G01*
X52543473Y-31080425D01*
X52549500Y-31118613D01*
X52549500Y-55325500D01*
X52529815Y-55392539D01*
X52477011Y-55438294D01*
X52425500Y-55449500D01*
X32749000Y-55449500D01*
X32681961Y-55429815D01*
X32636206Y-55377011D01*
X32625000Y-55325500D01*
X32625000Y-45283952D01*
X32644685Y-45216913D01*
X32697489Y-45171158D01*
X32766647Y-45161214D01*
X32830203Y-45190239D01*
X32836681Y-45196271D01*
X33303181Y-45662771D01*
X33336666Y-45724094D01*
X33339500Y-45750452D01*
X33339500Y-49482255D01*
X33337775Y-49497872D01*
X33338061Y-49497899D01*
X33337326Y-49505665D01*
X33339500Y-49574814D01*
X33339500Y-49604343D01*
X33339501Y-49604360D01*
X33340368Y-49611231D01*
X33340826Y-49617050D01*
X33342290Y-49663624D01*
X33342291Y-49663627D01*
X33347880Y-49682867D01*
X33351824Y-49701911D01*
X33354336Y-49721792D01*
X33357066Y-49728687D01*
X33371490Y-49765119D01*
X33373382Y-49770647D01*
X33385970Y-49813974D01*
X33386382Y-49815390D01*
X33391834Y-49824610D01*
X33396580Y-49832634D01*
X33405138Y-49850103D01*
X33412514Y-49868732D01*
X33439898Y-49906423D01*
X33443106Y-49911307D01*
X33466827Y-49951416D01*
X33466833Y-49951424D01*
X33480990Y-49965580D01*
X33493628Y-49980376D01*
X33505405Y-49996586D01*
X33505406Y-49996587D01*
X33541309Y-50026288D01*
X33545620Y-50030210D01*
X34305220Y-50789810D01*
X35063181Y-51547771D01*
X35096666Y-51609094D01*
X35099500Y-51635452D01*
X35099500Y-51931613D01*
X35105913Y-52002192D01*
X35105913Y-52002194D01*
X35105914Y-52002196D01*
X35156522Y-52164606D01*
X35238272Y-52299837D01*
X35244530Y-52310188D01*
X35364811Y-52430469D01*
X35364813Y-52430470D01*
X35364815Y-52430472D01*
X35510394Y-52518478D01*
X35510397Y-52518479D01*
X35510396Y-52518479D01*
X35552551Y-52531615D01*
X35610699Y-52570352D01*
X35638673Y-52634377D01*
X35627591Y-52703363D01*
X35580973Y-52755406D01*
X35552551Y-52768385D01*
X35510397Y-52781520D01*
X35364811Y-52869530D01*
X35244530Y-52989811D01*
X35156522Y-53135393D01*
X35105913Y-53297807D01*
X35099500Y-53368386D01*
X35099500Y-54031613D01*
X35105913Y-54102192D01*
X35105913Y-54102194D01*
X35105914Y-54102196D01*
X35156522Y-54264606D01*
X35238058Y-54399483D01*
X35244530Y-54410188D01*
X35364811Y-54530469D01*
X35364813Y-54530470D01*
X35364815Y-54530472D01*
X35510394Y-54618478D01*
X35672804Y-54669086D01*
X35743384Y-54675500D01*
X36039547Y-54675500D01*
X36106586Y-54695185D01*
X36127228Y-54711819D01*
X36299197Y-54883788D01*
X36309022Y-54896051D01*
X36309243Y-54895869D01*
X36314214Y-54901878D01*
X36335043Y-54921437D01*
X36364635Y-54949226D01*
X36385529Y-54970120D01*
X36391011Y-54974373D01*
X36395443Y-54978157D01*
X36429418Y-55010062D01*
X36446976Y-55019714D01*
X36463233Y-55030393D01*
X36479064Y-55042673D01*
X36498737Y-55051186D01*
X36521833Y-55061182D01*
X36527077Y-55063750D01*
X36567908Y-55086197D01*
X36580523Y-55089435D01*
X36587305Y-55091177D01*
X36605719Y-55097481D01*
X36624104Y-55105438D01*
X36670157Y-55112732D01*
X36675826Y-55113906D01*
X36720981Y-55125500D01*
X36741016Y-55125500D01*
X36760413Y-55127026D01*
X36780196Y-55130160D01*
X36826584Y-55125775D01*
X36832422Y-55125500D01*
X40417257Y-55125500D01*
X40432877Y-55127224D01*
X40432904Y-55126939D01*
X40440660Y-55127671D01*
X40440667Y-55127673D01*
X40509814Y-55125500D01*
X40539350Y-55125500D01*
X40546228Y-55124630D01*
X40552041Y-55124172D01*
X40598627Y-55122709D01*
X40617869Y-55117117D01*
X40636912Y-55113174D01*
X40656792Y-55110664D01*
X40700122Y-55093507D01*
X40705646Y-55091617D01*
X40709396Y-55090527D01*
X40750390Y-55078618D01*
X40767629Y-55068422D01*
X40785103Y-55059862D01*
X40803727Y-55052488D01*
X40803727Y-55052487D01*
X40803732Y-55052486D01*
X40841449Y-55025082D01*
X40846305Y-55021892D01*
X40886420Y-54998170D01*
X40900589Y-54983999D01*
X40915379Y-54971368D01*
X40931587Y-54959594D01*
X40961299Y-54923676D01*
X40965212Y-54919376D01*
X41172771Y-54711818D01*
X41234094Y-54678333D01*
X41260452Y-54675499D01*
X41573338Y-54675499D01*
X41573344Y-54675499D01*
X41573352Y-54675498D01*
X41573355Y-54675498D01*
X41640980Y-54668590D01*
X41672708Y-54665349D01*
X41833697Y-54612003D01*
X41978044Y-54522968D01*
X42097968Y-54403044D01*
X42128368Y-54353758D01*
X42180314Y-54307036D01*
X42249277Y-54295813D01*
X42313359Y-54323657D01*
X42321586Y-54331176D01*
X42874197Y-54883788D01*
X42884022Y-54896051D01*
X42884243Y-54895869D01*
X42889214Y-54901878D01*
X42910043Y-54921437D01*
X42939635Y-54949226D01*
X42960529Y-54970120D01*
X42966011Y-54974373D01*
X42970443Y-54978157D01*
X43004418Y-55010062D01*
X43021976Y-55019714D01*
X43038233Y-55030393D01*
X43054064Y-55042673D01*
X43073737Y-55051186D01*
X43096833Y-55061182D01*
X43102077Y-55063750D01*
X43142908Y-55086197D01*
X43155523Y-55089435D01*
X43162305Y-55091177D01*
X43180719Y-55097481D01*
X43199104Y-55105438D01*
X43245157Y-55112732D01*
X43250826Y-55113906D01*
X43295981Y-55125500D01*
X43316016Y-55125500D01*
X43335413Y-55127026D01*
X43355196Y-55130160D01*
X43401584Y-55125775D01*
X43407422Y-55125500D01*
X46517257Y-55125500D01*
X46532877Y-55127224D01*
X46532904Y-55126939D01*
X46540660Y-55127671D01*
X46540667Y-55127673D01*
X46609814Y-55125500D01*
X46639350Y-55125500D01*
X46646228Y-55124630D01*
X46652041Y-55124172D01*
X46698627Y-55122709D01*
X46717869Y-55117117D01*
X46736912Y-55113174D01*
X46756792Y-55110664D01*
X46800122Y-55093507D01*
X46805646Y-55091617D01*
X46809396Y-55090527D01*
X46850390Y-55078618D01*
X46867629Y-55068422D01*
X46885103Y-55059862D01*
X46903727Y-55052488D01*
X46903727Y-55052487D01*
X46903732Y-55052486D01*
X46941449Y-55025082D01*
X46946305Y-55021892D01*
X46986420Y-54998170D01*
X47000589Y-54983999D01*
X47015379Y-54971368D01*
X47031587Y-54959594D01*
X47061299Y-54923676D01*
X47065212Y-54919376D01*
X47272772Y-54711816D01*
X47334094Y-54678334D01*
X47360452Y-54675500D01*
X47656613Y-54675500D01*
X47656616Y-54675500D01*
X47727196Y-54669086D01*
X47889606Y-54618478D01*
X48035185Y-54530472D01*
X48137673Y-54427983D01*
X48198994Y-54394499D01*
X48268685Y-54399483D01*
X48313034Y-54427984D01*
X48415122Y-54530072D01*
X48560604Y-54618019D01*
X48560603Y-54618019D01*
X48722894Y-54668590D01*
X48722893Y-54668590D01*
X48793408Y-54674998D01*
X48793426Y-54674999D01*
X48799999Y-54674998D01*
X48800000Y-54674998D01*
X48800000Y-53950000D01*
X49300000Y-53950000D01*
X49300000Y-54674999D01*
X49306581Y-54674999D01*
X49377102Y-54668591D01*
X49377107Y-54668590D01*
X49539396Y-54618018D01*
X49684877Y-54530072D01*
X49805072Y-54409877D01*
X49893019Y-54264395D01*
X49943590Y-54102106D01*
X49950000Y-54031572D01*
X49950000Y-53950000D01*
X49300000Y-53950000D01*
X48800000Y-53950000D01*
X48800000Y-52725000D01*
X49300000Y-52725000D01*
X49300000Y-53450000D01*
X49949999Y-53450000D01*
X49949999Y-53368417D01*
X49943591Y-53297897D01*
X49943590Y-53297892D01*
X49893018Y-53135603D01*
X49805072Y-52990122D01*
X49684877Y-52869927D01*
X49539395Y-52781980D01*
X49539396Y-52781980D01*
X49377105Y-52731409D01*
X49377106Y-52731409D01*
X49306572Y-52725000D01*
X49300000Y-52725000D01*
X48800000Y-52725000D01*
X48799999Y-52724999D01*
X48793436Y-52725000D01*
X48793417Y-52725001D01*
X48722897Y-52731408D01*
X48722892Y-52731409D01*
X48560603Y-52781981D01*
X48415122Y-52869927D01*
X48415121Y-52869928D01*
X48313035Y-52972015D01*
X48251712Y-53005500D01*
X48182020Y-53000516D01*
X48137673Y-52972015D01*
X48035188Y-52869530D01*
X48025499Y-52863673D01*
X47889606Y-52781522D01*
X47727196Y-52730914D01*
X47727194Y-52730913D01*
X47727192Y-52730913D01*
X47677778Y-52726423D01*
X47656616Y-52724500D01*
X47143384Y-52724500D01*
X47124145Y-52726248D01*
X47072807Y-52730913D01*
X46910393Y-52781522D01*
X46764811Y-52869530D01*
X46644530Y-52989811D01*
X46556520Y-53135397D01*
X46543385Y-53177551D01*
X46504648Y-53235699D01*
X46440623Y-53263673D01*
X46371637Y-53252591D01*
X46319594Y-53205973D01*
X46306615Y-53177551D01*
X46293479Y-53135397D01*
X46293478Y-53135396D01*
X46293478Y-53135394D01*
X46205472Y-52989815D01*
X46205470Y-52989813D01*
X46205469Y-52989811D01*
X46186819Y-52971161D01*
X46153334Y-52909838D01*
X46150500Y-52883480D01*
X46150500Y-52438247D01*
X46170185Y-52371208D01*
X46200188Y-52338981D01*
X46230266Y-52316466D01*
X46316516Y-52201251D01*
X46317176Y-52199483D01*
X46349989Y-52111504D01*
X46391859Y-52055570D01*
X46457323Y-52031152D01*
X46525596Y-52046003D01*
X46572287Y-52090685D01*
X46638058Y-52199483D01*
X46644530Y-52210188D01*
X46764811Y-52330469D01*
X46764813Y-52330470D01*
X46764815Y-52330472D01*
X46910394Y-52418478D01*
X47072804Y-52469086D01*
X47143384Y-52475500D01*
X47143387Y-52475500D01*
X47656613Y-52475500D01*
X47656616Y-52475500D01*
X47727196Y-52469086D01*
X47889606Y-52418478D01*
X48035185Y-52330472D01*
X48137673Y-52227983D01*
X48198994Y-52194499D01*
X48268685Y-52199483D01*
X48313034Y-52227984D01*
X48415122Y-52330072D01*
X48560604Y-52418019D01*
X48560603Y-52418019D01*
X48722894Y-52468590D01*
X48722893Y-52468590D01*
X48793408Y-52474998D01*
X48793426Y-52474999D01*
X48799999Y-52474998D01*
X48800000Y-52474998D01*
X48800000Y-51750000D01*
X49300000Y-51750000D01*
X49300000Y-52474999D01*
X49306581Y-52474999D01*
X49377102Y-52468591D01*
X49377107Y-52468590D01*
X49539396Y-52418018D01*
X49684877Y-52330072D01*
X49805072Y-52209877D01*
X49893019Y-52064395D01*
X49943590Y-51902106D01*
X49950000Y-51831572D01*
X49950000Y-51750000D01*
X49300000Y-51750000D01*
X48800000Y-51750000D01*
X48800000Y-50525000D01*
X49300000Y-50525000D01*
X49300000Y-51250000D01*
X49949999Y-51250000D01*
X49949999Y-51168417D01*
X49943591Y-51097897D01*
X49943590Y-51097892D01*
X49893018Y-50935603D01*
X49805072Y-50790122D01*
X49684877Y-50669927D01*
X49539395Y-50581980D01*
X49539396Y-50581980D01*
X49377105Y-50531409D01*
X49377106Y-50531409D01*
X49306572Y-50525000D01*
X49300000Y-50525000D01*
X48800000Y-50525000D01*
X48799999Y-50524999D01*
X48793436Y-50525000D01*
X48793417Y-50525001D01*
X48722897Y-50531408D01*
X48722892Y-50531409D01*
X48560603Y-50581981D01*
X48415122Y-50669927D01*
X48415121Y-50669928D01*
X48313035Y-50772015D01*
X48251712Y-50805500D01*
X48182020Y-50800516D01*
X48137673Y-50772015D01*
X48061819Y-50696161D01*
X48028334Y-50634838D01*
X48025500Y-50608480D01*
X48025500Y-50157737D01*
X48027224Y-50142123D01*
X48026938Y-50142096D01*
X48027672Y-50134333D01*
X48025500Y-50065203D01*
X48025500Y-50035651D01*
X48025500Y-50035650D01*
X48024629Y-50028759D01*
X48024172Y-50022945D01*
X48022709Y-49976372D01*
X48017122Y-49957144D01*
X48013174Y-49938084D01*
X48012145Y-49929938D01*
X48010664Y-49918208D01*
X47993507Y-49874875D01*
X47991619Y-49869359D01*
X47978619Y-49824612D01*
X47968418Y-49807363D01*
X47959860Y-49789894D01*
X47952486Y-49771268D01*
X47952483Y-49771264D01*
X47952483Y-49771263D01*
X47925098Y-49733571D01*
X47921890Y-49728687D01*
X47898172Y-49688582D01*
X47898163Y-49688571D01*
X47884005Y-49674413D01*
X47871370Y-49659620D01*
X47859593Y-49643412D01*
X47823693Y-49613713D01*
X47819381Y-49609790D01*
X47446771Y-49237180D01*
X47413286Y-49175857D01*
X47418270Y-49106165D01*
X47460142Y-49050232D01*
X47525606Y-49025815D01*
X47534452Y-49025499D01*
X47723338Y-49025499D01*
X47723344Y-49025499D01*
X47723352Y-49025498D01*
X47723355Y-49025498D01*
X47777760Y-49019940D01*
X47822708Y-49015349D01*
X47983697Y-48962003D01*
X48128044Y-48872968D01*
X48247968Y-48753044D01*
X48319716Y-48636724D01*
X48371664Y-48589999D01*
X48379606Y-48586529D01*
X48381790Y-48585664D01*
X48381792Y-48585664D01*
X48425117Y-48568510D01*
X48430647Y-48566617D01*
X48445581Y-48562278D01*
X48475390Y-48553618D01*
X48492629Y-48543422D01*
X48510103Y-48534862D01*
X48528727Y-48527488D01*
X48528727Y-48527487D01*
X48528732Y-48527486D01*
X48566449Y-48500082D01*
X48571305Y-48496892D01*
X48611420Y-48473170D01*
X48625589Y-48458999D01*
X48640379Y-48446368D01*
X48656587Y-48434594D01*
X48686299Y-48398676D01*
X48690212Y-48394376D01*
X49924353Y-47160235D01*
X49985674Y-47126752D01*
X50044125Y-47128143D01*
X50068414Y-47134651D01*
X50144592Y-47155063D01*
X50332918Y-47171539D01*
X50379999Y-47175659D01*
X50380000Y-47175659D01*
X50380001Y-47175659D01*
X50419234Y-47172226D01*
X50615408Y-47155063D01*
X50843663Y-47093903D01*
X51057830Y-46994035D01*
X51251401Y-46858495D01*
X51418495Y-46691401D01*
X51554035Y-46497830D01*
X51653903Y-46283663D01*
X51715063Y-46055408D01*
X51735659Y-45820000D01*
X51715063Y-45584592D01*
X51653903Y-45356337D01*
X51554035Y-45142171D01*
X51485153Y-45043796D01*
X51418494Y-44948597D01*
X51251402Y-44781506D01*
X51251396Y-44781501D01*
X51065842Y-44651575D01*
X51022217Y-44596998D01*
X51015023Y-44527500D01*
X51046546Y-44465145D01*
X51065842Y-44448425D01*
X51088026Y-44432891D01*
X51251401Y-44318495D01*
X51418495Y-44151401D01*
X51554035Y-43957830D01*
X51653903Y-43743663D01*
X51715063Y-43515408D01*
X51735659Y-43280000D01*
X51715063Y-43044592D01*
X51653903Y-42816337D01*
X51554035Y-42602171D01*
X51428515Y-42422908D01*
X51418494Y-42408597D01*
X51251402Y-42241506D01*
X51251396Y-42241501D01*
X51065842Y-42111575D01*
X51022217Y-42056998D01*
X51015023Y-41987500D01*
X51046546Y-41925145D01*
X51065842Y-41908425D01*
X51112548Y-41875721D01*
X51251401Y-41778495D01*
X51418495Y-41611401D01*
X51554035Y-41417830D01*
X51653903Y-41203663D01*
X51715063Y-40975408D01*
X51735659Y-40740000D01*
X51715063Y-40504592D01*
X51653903Y-40276337D01*
X51554035Y-40062171D01*
X51469397Y-39941294D01*
X51418494Y-39868597D01*
X51251402Y-39701506D01*
X51251396Y-39701501D01*
X51065842Y-39571575D01*
X51022217Y-39516998D01*
X51015023Y-39447500D01*
X51046546Y-39385145D01*
X51065842Y-39368425D01*
X51088026Y-39352891D01*
X51251401Y-39238495D01*
X51418495Y-39071401D01*
X51554035Y-38877830D01*
X51653903Y-38663663D01*
X51715063Y-38435408D01*
X51735659Y-38200000D01*
X51715063Y-37964592D01*
X51653903Y-37736337D01*
X51554035Y-37522171D01*
X51552805Y-37520415D01*
X51418496Y-37328600D01*
X51362519Y-37272623D01*
X51296567Y-37206671D01*
X51263084Y-37145351D01*
X51268068Y-37075659D01*
X51309939Y-37019725D01*
X51340915Y-37002810D01*
X51472331Y-36953796D01*
X51587546Y-36867546D01*
X51673796Y-36752331D01*
X51724091Y-36617483D01*
X51730500Y-36557873D01*
X51730499Y-34762128D01*
X51724091Y-34702517D01*
X51706338Y-34654920D01*
X51673797Y-34567671D01*
X51673793Y-34567664D01*
X51587547Y-34452455D01*
X51587544Y-34452452D01*
X51472335Y-34366206D01*
X51472328Y-34366202D01*
X51337482Y-34315908D01*
X51337483Y-34315908D01*
X51277883Y-34309501D01*
X51277881Y-34309500D01*
X51277873Y-34309500D01*
X51277865Y-34309500D01*
X50584452Y-34309500D01*
X50517413Y-34289815D01*
X50471658Y-34237011D01*
X50461714Y-34167853D01*
X50490739Y-34104297D01*
X50496771Y-34097819D01*
X50703806Y-33890785D01*
X51082772Y-33511819D01*
X51144095Y-33478334D01*
X51170453Y-33475500D01*
X51306613Y-33475500D01*
X51306616Y-33475500D01*
X51377196Y-33469086D01*
X51539606Y-33418478D01*
X51685185Y-33330472D01*
X51805472Y-33210185D01*
X51893478Y-33064606D01*
X51944086Y-32902196D01*
X51950500Y-32831616D01*
X51950500Y-32168384D01*
X51944086Y-32097804D01*
X51893478Y-31935394D01*
X51805472Y-31789815D01*
X51805470Y-31789813D01*
X51805469Y-31789811D01*
X51685189Y-31669531D01*
X51685185Y-31669528D01*
X51662172Y-31655616D01*
X51614985Y-31604088D01*
X51603147Y-31535229D01*
X51630416Y-31470900D01*
X51688135Y-31431527D01*
X51726323Y-31425500D01*
X51756613Y-31425500D01*
X51756616Y-31425500D01*
X51827196Y-31419086D01*
X51989606Y-31368478D01*
X52135185Y-31280472D01*
X52255472Y-31160185D01*
X52319384Y-31054462D01*
X52370911Y-31007275D01*
X52439771Y-30995437D01*
X52504099Y-31022706D01*
G37*
G04 #@! TD.AperFunction*
G04 #@! TA.AperFunction,Conductor*
G36*
X36868333Y-52299837D02*
G01*
X36912681Y-52328338D01*
X36988181Y-52403838D01*
X37021666Y-52465161D01*
X37024500Y-52491519D01*
X37024500Y-52808480D01*
X37004815Y-52875519D01*
X36988181Y-52896161D01*
X36912681Y-52971661D01*
X36851358Y-53005146D01*
X36781666Y-53000162D01*
X36737319Y-52971661D01*
X36635188Y-52869530D01*
X36628575Y-52865532D01*
X36489606Y-52781522D01*
X36447447Y-52768385D01*
X36389300Y-52729648D01*
X36361326Y-52665623D01*
X36372407Y-52596638D01*
X36419026Y-52544595D01*
X36447446Y-52531615D01*
X36489606Y-52518478D01*
X36635185Y-52430472D01*
X36737320Y-52328336D01*
X36798641Y-52294853D01*
X36868333Y-52299837D01*
G37*
G04 #@! TD.AperFunction*
G04 #@! TA.AperFunction,Conductor*
G36*
X39968679Y-48940765D02*
G01*
X40014434Y-48993569D01*
X40025640Y-49045080D01*
X40025640Y-49294920D01*
X40005955Y-49361959D01*
X39953151Y-49407714D01*
X39901640Y-49418920D01*
X38814861Y-49418920D01*
X38808916Y-49422166D01*
X38782558Y-49425000D01*
X38075000Y-49425000D01*
X38075000Y-50124999D01*
X38123308Y-50124999D01*
X38123322Y-50124998D01*
X38222607Y-50114855D01*
X38383481Y-50061547D01*
X38383488Y-50061544D01*
X38491568Y-49994879D01*
X38558961Y-49976438D01*
X38625624Y-49997360D01*
X38670394Y-50051002D01*
X38679955Y-50113669D01*
X38676780Y-50143207D01*
X38676780Y-50143212D01*
X38676780Y-50143213D01*
X38676780Y-50736790D01*
X38676781Y-50736796D01*
X38683189Y-50796404D01*
X38687204Y-50807170D01*
X38692186Y-50876862D01*
X38658700Y-50938184D01*
X38597376Y-50971667D01*
X38571021Y-50974500D01*
X38526602Y-50974500D01*
X38459563Y-50954815D01*
X38420486Y-50914651D01*
X38405471Y-50889814D01*
X38405468Y-50889810D01*
X38285188Y-50769530D01*
X38231046Y-50736800D01*
X38139606Y-50681522D01*
X37977196Y-50630914D01*
X37977194Y-50630913D01*
X37977192Y-50630913D01*
X37927778Y-50626423D01*
X37906616Y-50624500D01*
X37393384Y-50624500D01*
X37374145Y-50626248D01*
X37322807Y-50630913D01*
X37160393Y-50681522D01*
X37014811Y-50769530D01*
X37014810Y-50769531D01*
X36912681Y-50871661D01*
X36851358Y-50905146D01*
X36781666Y-50900162D01*
X36737319Y-50871661D01*
X36635188Y-50769530D01*
X36581046Y-50736800D01*
X36489606Y-50681522D01*
X36327196Y-50630914D01*
X36327194Y-50630913D01*
X36327192Y-50630913D01*
X36277778Y-50626423D01*
X36256616Y-50624500D01*
X36256613Y-50624500D01*
X35960452Y-50624500D01*
X35893413Y-50604815D01*
X35872771Y-50588181D01*
X35199525Y-49914934D01*
X35166040Y-49853611D01*
X35171024Y-49783919D01*
X35212896Y-49727986D01*
X35276397Y-49703725D01*
X35375408Y-49695063D01*
X35603663Y-49633903D01*
X35817830Y-49534035D01*
X35973548Y-49425000D01*
X36850001Y-49425000D01*
X36850001Y-49448322D01*
X36860144Y-49547607D01*
X36913452Y-49708481D01*
X36913457Y-49708492D01*
X37002424Y-49852728D01*
X37002427Y-49852732D01*
X37122267Y-49972572D01*
X37122271Y-49972575D01*
X37266507Y-50061542D01*
X37266518Y-50061547D01*
X37427393Y-50114855D01*
X37526683Y-50124999D01*
X37574999Y-50124998D01*
X37575000Y-50124998D01*
X37575000Y-49425000D01*
X36850001Y-49425000D01*
X35973548Y-49425000D01*
X36011401Y-49398495D01*
X36178495Y-49231401D01*
X36313652Y-49038377D01*
X36368229Y-48994752D01*
X36415227Y-48985500D01*
X37007257Y-48985500D01*
X37022877Y-48987224D01*
X37022904Y-48986939D01*
X37030660Y-48987671D01*
X37030667Y-48987673D01*
X37099814Y-48985500D01*
X37129350Y-48985500D01*
X37136228Y-48984630D01*
X37142041Y-48984172D01*
X37188627Y-48982709D01*
X37207869Y-48977117D01*
X37226912Y-48973174D01*
X37246792Y-48970664D01*
X37290122Y-48953507D01*
X37295646Y-48951617D01*
X37298080Y-48950909D01*
X37340390Y-48938618D01*
X37340394Y-48938615D01*
X37347552Y-48935519D01*
X37348750Y-48938288D01*
X37397340Y-48925000D01*
X38664215Y-48925000D01*
X38666204Y-48923914D01*
X38692562Y-48921080D01*
X39901640Y-48921080D01*
X39968679Y-48940765D01*
G37*
G04 #@! TD.AperFunction*
G04 #@! TA.AperFunction,Conductor*
G36*
X48948833Y-35748268D02*
G01*
X49004767Y-35790140D01*
X49029184Y-35855604D01*
X49029500Y-35864450D01*
X49029500Y-36557870D01*
X49029501Y-36557876D01*
X49035908Y-36617483D01*
X49086202Y-36752328D01*
X49086206Y-36752335D01*
X49172452Y-36867544D01*
X49172455Y-36867547D01*
X49287664Y-36953793D01*
X49287671Y-36953797D01*
X49419081Y-37002810D01*
X49475015Y-37044681D01*
X49499432Y-37110145D01*
X49484580Y-37178418D01*
X49463430Y-37206673D01*
X49341503Y-37328600D01*
X49205965Y-37522169D01*
X49205964Y-37522171D01*
X49106098Y-37736335D01*
X49106094Y-37736344D01*
X49044938Y-37964586D01*
X49044936Y-37964596D01*
X49024341Y-38199999D01*
X49024341Y-38200000D01*
X49044936Y-38435403D01*
X49044938Y-38435413D01*
X49106094Y-38663655D01*
X49106096Y-38663659D01*
X49106097Y-38663663D01*
X49180331Y-38822858D01*
X49205965Y-38877830D01*
X49205967Y-38877834D01*
X49341501Y-39071395D01*
X49341506Y-39071402D01*
X49508597Y-39238493D01*
X49508603Y-39238498D01*
X49694158Y-39368425D01*
X49737783Y-39423002D01*
X49744977Y-39492500D01*
X49713454Y-39554855D01*
X49694158Y-39571575D01*
X49508597Y-39701505D01*
X49341505Y-39868597D01*
X49205965Y-40062169D01*
X49205964Y-40062171D01*
X49106098Y-40276335D01*
X49106094Y-40276344D01*
X49044938Y-40504586D01*
X49044936Y-40504596D01*
X49024341Y-40739999D01*
X49024341Y-40740000D01*
X49044936Y-40975403D01*
X49044938Y-40975413D01*
X49106094Y-41203655D01*
X49106096Y-41203659D01*
X49106097Y-41203663D01*
X49195756Y-41395936D01*
X49205965Y-41417830D01*
X49205967Y-41417834D01*
X49306060Y-41560780D01*
X49331390Y-41596956D01*
X49341501Y-41611395D01*
X49341506Y-41611402D01*
X49508597Y-41778493D01*
X49508603Y-41778498D01*
X49694158Y-41908425D01*
X49737783Y-41963002D01*
X49744977Y-42032500D01*
X49713454Y-42094855D01*
X49694158Y-42111575D01*
X49508597Y-42241505D01*
X49341505Y-42408597D01*
X49205965Y-42602169D01*
X49205964Y-42602171D01*
X49106098Y-42816335D01*
X49106094Y-42816344D01*
X49044938Y-43044586D01*
X49044936Y-43044596D01*
X49024341Y-43279999D01*
X49024341Y-43280000D01*
X49044936Y-43515403D01*
X49044938Y-43515413D01*
X49106094Y-43743655D01*
X49106096Y-43743659D01*
X49106097Y-43743663D01*
X49174247Y-43889811D01*
X49205965Y-43957830D01*
X49205967Y-43957834D01*
X49341501Y-44151395D01*
X49341506Y-44151402D01*
X49508597Y-44318493D01*
X49508603Y-44318498D01*
X49694158Y-44448425D01*
X49737783Y-44503002D01*
X49744977Y-44572500D01*
X49713454Y-44634855D01*
X49694158Y-44651575D01*
X49508597Y-44781505D01*
X49341505Y-44948597D01*
X49205965Y-45142169D01*
X49205964Y-45142171D01*
X49106098Y-45356335D01*
X49106094Y-45356344D01*
X49044938Y-45584586D01*
X49044936Y-45584596D01*
X49024341Y-45819999D01*
X49024341Y-45820000D01*
X49044937Y-46055408D01*
X49071855Y-46155873D01*
X49070192Y-46225723D01*
X49039761Y-46275646D01*
X48557884Y-46757522D01*
X48496561Y-46791007D01*
X48426869Y-46786023D01*
X48409717Y-46775000D01*
X46450001Y-46775000D01*
X46441653Y-46783347D01*
X46430316Y-46821959D01*
X46377512Y-46867714D01*
X46326001Y-46878920D01*
X45148360Y-46878920D01*
X45081321Y-46859235D01*
X45035566Y-46806431D01*
X45024360Y-46754920D01*
X45024360Y-46505080D01*
X45044045Y-46438041D01*
X45096849Y-46392286D01*
X45148360Y-46381080D01*
X46372720Y-46381080D01*
X46380169Y-46373630D01*
X46392405Y-46331961D01*
X46445209Y-46286206D01*
X46496720Y-46275000D01*
X48399999Y-46275000D01*
X48399999Y-46251692D01*
X48399998Y-46251677D01*
X48389855Y-46152392D01*
X48336547Y-45991518D01*
X48336542Y-45991507D01*
X48247575Y-45847271D01*
X48247572Y-45847267D01*
X48127732Y-45727427D01*
X48127728Y-45727424D01*
X47983492Y-45638457D01*
X47983481Y-45638452D01*
X47932727Y-45621634D01*
X47875282Y-45581861D01*
X47848459Y-45517345D01*
X47860774Y-45448569D01*
X47908317Y-45397370D01*
X47934835Y-45385544D01*
X47989606Y-45368478D01*
X48135185Y-45280472D01*
X48255472Y-45160185D01*
X48343478Y-45014606D01*
X48394086Y-44852196D01*
X48400500Y-44781616D01*
X48400500Y-44268384D01*
X48394086Y-44197804D01*
X48343478Y-44035394D01*
X48255472Y-43889815D01*
X48255470Y-43889813D01*
X48255469Y-43889811D01*
X48153339Y-43787681D01*
X48119854Y-43726358D01*
X48124838Y-43656666D01*
X48153339Y-43612319D01*
X48255468Y-43510189D01*
X48255469Y-43510188D01*
X48255472Y-43510185D01*
X48343478Y-43364606D01*
X48394086Y-43202196D01*
X48400500Y-43131616D01*
X48400500Y-42618384D01*
X48394086Y-42547804D01*
X48343478Y-42385394D01*
X48255472Y-42239815D01*
X48255470Y-42239813D01*
X48255469Y-42239811D01*
X48135188Y-42119530D01*
X47989606Y-42031522D01*
X47918776Y-42009451D01*
X47827196Y-41980914D01*
X47827194Y-41980913D01*
X47827192Y-41980913D01*
X47777778Y-41976423D01*
X47756616Y-41974500D01*
X47093384Y-41974500D01*
X47074145Y-41976248D01*
X47022807Y-41980913D01*
X46860393Y-42031522D01*
X46714811Y-42119530D01*
X46594530Y-42239811D01*
X46506522Y-42385393D01*
X46455913Y-42547807D01*
X46449500Y-42618386D01*
X46449500Y-42914546D01*
X46429815Y-42981585D01*
X46413181Y-43002227D01*
X46100456Y-43314951D01*
X46039133Y-43348436D01*
X45984269Y-43347949D01*
X45980204Y-43346988D01*
X45920603Y-43340581D01*
X45920601Y-43340580D01*
X45920593Y-43340580D01*
X45920585Y-43340580D01*
X45459813Y-43340580D01*
X45392774Y-43320895D01*
X45372132Y-43304261D01*
X44213911Y-42146040D01*
X44180426Y-42084717D01*
X44185410Y-42015025D01*
X44213911Y-41970678D01*
X44406096Y-41778493D01*
X44608786Y-41575802D01*
X44621048Y-41565980D01*
X44620865Y-41565759D01*
X44626867Y-41560792D01*
X44626877Y-41560786D01*
X44674241Y-41510348D01*
X44695120Y-41489470D01*
X44699373Y-41483986D01*
X44703150Y-41479563D01*
X44735062Y-41445582D01*
X44740766Y-41435205D01*
X44790311Y-41385941D01*
X44858626Y-41371283D01*
X44886315Y-41376555D01*
X45022804Y-41419086D01*
X45093384Y-41425500D01*
X45093387Y-41425500D01*
X45756613Y-41425500D01*
X45756616Y-41425500D01*
X45827196Y-41419086D01*
X45989606Y-41368478D01*
X46135185Y-41280472D01*
X46142690Y-41272967D01*
X46228839Y-41186819D01*
X46290162Y-41153334D01*
X46316520Y-41150500D01*
X46548126Y-41150500D01*
X46615165Y-41170185D01*
X46635807Y-41186819D01*
X46721955Y-41272967D01*
X46721959Y-41272970D01*
X46866294Y-41361998D01*
X46866297Y-41361999D01*
X46866303Y-41362003D01*
X47027292Y-41415349D01*
X47126655Y-41425500D01*
X47723344Y-41425499D01*
X47723352Y-41425498D01*
X47723355Y-41425498D01*
X47786134Y-41419085D01*
X47822708Y-41415349D01*
X47983697Y-41362003D01*
X48128044Y-41272968D01*
X48247968Y-41153044D01*
X48337003Y-41008697D01*
X48390349Y-40847708D01*
X48400500Y-40748345D01*
X48400499Y-40201656D01*
X48390349Y-40102292D01*
X48337003Y-39941303D01*
X48336999Y-39941297D01*
X48336998Y-39941294D01*
X48247970Y-39796959D01*
X48247967Y-39796955D01*
X48238693Y-39787681D01*
X48205208Y-39726358D01*
X48210192Y-39656666D01*
X48238693Y-39612319D01*
X48238694Y-39612318D01*
X48247968Y-39603044D01*
X48337003Y-39458697D01*
X48390349Y-39297708D01*
X48400500Y-39198345D01*
X48400499Y-38651656D01*
X48397100Y-38618386D01*
X48390349Y-38552292D01*
X48390348Y-38552289D01*
X48351619Y-38435413D01*
X48337003Y-38391303D01*
X48336999Y-38391297D01*
X48336998Y-38391294D01*
X48247970Y-38246959D01*
X48247969Y-38246958D01*
X48247968Y-38246956D01*
X48128044Y-38127032D01*
X48109399Y-38115531D01*
X48062677Y-38063582D01*
X48050500Y-38009995D01*
X48050500Y-36595451D01*
X48070185Y-36528412D01*
X48086815Y-36507774D01*
X48817821Y-35776767D01*
X48879142Y-35743284D01*
X48948833Y-35748268D01*
G37*
G04 #@! TD.AperFunction*
G04 #@! TA.AperFunction,Conductor*
G36*
X32830203Y-31396307D02*
G01*
X32836681Y-31402339D01*
X32914811Y-31480469D01*
X32914813Y-31480470D01*
X32914815Y-31480472D01*
X33060394Y-31568478D01*
X33222804Y-31619086D01*
X33293384Y-31625500D01*
X33323677Y-31625500D01*
X33390716Y-31645185D01*
X33436471Y-31697989D01*
X33446415Y-31767147D01*
X33417390Y-31830703D01*
X33387828Y-31855616D01*
X33364814Y-31869528D01*
X33364810Y-31869531D01*
X33244530Y-31989811D01*
X33156522Y-32135393D01*
X33105913Y-32297807D01*
X33099500Y-32368386D01*
X33099500Y-33031613D01*
X33105913Y-33102192D01*
X33105913Y-33102194D01*
X33105914Y-33102196D01*
X33117235Y-33138527D01*
X33156522Y-33264606D01*
X33244530Y-33410188D01*
X33364811Y-33530469D01*
X33364813Y-33530470D01*
X33364815Y-33530472D01*
X33510394Y-33618478D01*
X33672804Y-33669086D01*
X33743384Y-33675500D01*
X33743387Y-33675500D01*
X34256613Y-33675500D01*
X34256616Y-33675500D01*
X34327196Y-33669086D01*
X34489606Y-33618478D01*
X34635185Y-33530472D01*
X34677401Y-33488256D01*
X34737319Y-33428339D01*
X34798642Y-33394854D01*
X34868334Y-33399838D01*
X34912681Y-33428339D01*
X35014811Y-33530469D01*
X35014813Y-33530470D01*
X35014815Y-33530472D01*
X35160394Y-33618478D01*
X35322804Y-33669086D01*
X35393384Y-33675500D01*
X35393387Y-33675500D01*
X35906613Y-33675500D01*
X35906616Y-33675500D01*
X35977196Y-33669086D01*
X36139606Y-33618478D01*
X36285185Y-33530472D01*
X36405472Y-33410185D01*
X36492019Y-33267018D01*
X36543544Y-33219835D01*
X36612403Y-33207996D01*
X36676732Y-33235265D01*
X36716106Y-33292983D01*
X36721453Y-33318209D01*
X36739326Y-33488256D01*
X36739327Y-33488259D01*
X36797818Y-33668277D01*
X36797821Y-33668284D01*
X36892467Y-33832216D01*
X36916308Y-33858694D01*
X36937343Y-33882056D01*
X36967573Y-33945048D01*
X36958948Y-34014383D01*
X36950732Y-34030124D01*
X36913000Y-34091296D01*
X36912996Y-34091305D01*
X36859651Y-34252290D01*
X36849500Y-34351647D01*
X36849500Y-34898337D01*
X36849501Y-34898355D01*
X36859650Y-34997707D01*
X36859651Y-34997710D01*
X36912996Y-35158694D01*
X36913001Y-35158705D01*
X37002029Y-35303040D01*
X37002032Y-35303044D01*
X37011660Y-35312672D01*
X37045145Y-35373995D01*
X37040161Y-35443687D01*
X37011663Y-35488031D01*
X37002428Y-35497265D01*
X37002424Y-35497271D01*
X36913457Y-35641507D01*
X36913452Y-35641518D01*
X36860144Y-35802393D01*
X36850000Y-35901677D01*
X36850000Y-35925000D01*
X37951000Y-35925000D01*
X38018039Y-35944685D01*
X38063794Y-35997489D01*
X38075000Y-36049000D01*
X38075000Y-36248099D01*
X38055315Y-36315138D01*
X38038681Y-36335780D01*
X38011280Y-36363181D01*
X37949957Y-36396666D01*
X37923599Y-36399500D01*
X36614000Y-36399500D01*
X36546961Y-36379815D01*
X36501206Y-36327011D01*
X36490000Y-36275500D01*
X36490000Y-35910000D01*
X35573686Y-35910000D01*
X35599493Y-35869844D01*
X35640000Y-35731889D01*
X35640000Y-35588111D01*
X35599493Y-35450156D01*
X35573686Y-35410000D01*
X36490000Y-35410000D01*
X36490000Y-34762172D01*
X36489999Y-34762155D01*
X36483598Y-34702627D01*
X36483596Y-34702620D01*
X36433354Y-34567913D01*
X36433350Y-34567906D01*
X36347190Y-34452812D01*
X36347187Y-34452809D01*
X36232093Y-34366649D01*
X36232086Y-34366645D01*
X36097379Y-34316403D01*
X36097372Y-34316401D01*
X36037844Y-34310000D01*
X35390000Y-34310000D01*
X35390000Y-35224498D01*
X35282315Y-35175320D01*
X35175763Y-35160000D01*
X35104237Y-35160000D01*
X34997685Y-35175320D01*
X34890000Y-35224498D01*
X34890000Y-34310000D01*
X34242155Y-34310000D01*
X34182627Y-34316401D01*
X34182620Y-34316403D01*
X34047913Y-34366645D01*
X34047906Y-34366649D01*
X33932812Y-34452809D01*
X33932809Y-34452812D01*
X33846649Y-34567906D01*
X33846645Y-34567913D01*
X33796403Y-34702620D01*
X33796401Y-34702627D01*
X33790000Y-34762155D01*
X33790000Y-35410000D01*
X34706314Y-35410000D01*
X34680507Y-35450156D01*
X34640000Y-35588111D01*
X34640000Y-35731889D01*
X34680507Y-35869844D01*
X34706314Y-35910000D01*
X33790000Y-35910000D01*
X33790000Y-36557844D01*
X33796401Y-36617372D01*
X33796402Y-36617376D01*
X33830119Y-36707774D01*
X33835103Y-36777466D01*
X33801618Y-36838789D01*
X33581207Y-37059200D01*
X33568951Y-37069020D01*
X33569134Y-37069241D01*
X33563123Y-37074213D01*
X33515772Y-37124636D01*
X33494889Y-37145519D01*
X33494877Y-37145532D01*
X33490621Y-37151017D01*
X33486837Y-37155447D01*
X33454937Y-37189418D01*
X33454936Y-37189420D01*
X33445284Y-37206976D01*
X33434610Y-37223226D01*
X33422329Y-37239061D01*
X33422324Y-37239068D01*
X33403815Y-37281838D01*
X33401245Y-37287084D01*
X33378803Y-37327906D01*
X33373822Y-37347307D01*
X33367521Y-37365710D01*
X33359562Y-37384102D01*
X33359561Y-37384105D01*
X33352271Y-37430127D01*
X33351087Y-37435846D01*
X33339501Y-37480972D01*
X33339500Y-37480982D01*
X33339500Y-37501016D01*
X33337973Y-37520415D01*
X33334840Y-37540194D01*
X33334840Y-37540195D01*
X33339225Y-37586583D01*
X33339500Y-37592421D01*
X33339500Y-38622255D01*
X33337775Y-38637872D01*
X33338061Y-38637899D01*
X33337326Y-38645665D01*
X33339500Y-38714814D01*
X33339500Y-38744343D01*
X33339501Y-38744360D01*
X33340368Y-38751231D01*
X33340826Y-38757050D01*
X33342290Y-38803624D01*
X33342291Y-38803627D01*
X33347880Y-38822867D01*
X33351824Y-38841911D01*
X33354336Y-38861792D01*
X33371490Y-38905119D01*
X33373382Y-38910647D01*
X33386381Y-38955388D01*
X33396580Y-38972634D01*
X33405138Y-38990103D01*
X33412514Y-39008732D01*
X33439898Y-39046423D01*
X33443106Y-39051307D01*
X33466827Y-39091416D01*
X33466833Y-39091424D01*
X33480990Y-39105580D01*
X33493627Y-39120375D01*
X33505406Y-39136587D01*
X33522428Y-39150669D01*
X33541309Y-39166288D01*
X33545620Y-39170210D01*
X33822910Y-39447500D01*
X34086619Y-39711209D01*
X34120104Y-39772532D01*
X34115120Y-39842224D01*
X34100513Y-39870013D01*
X33965965Y-40062169D01*
X33965964Y-40062171D01*
X33866098Y-40276335D01*
X33866094Y-40276344D01*
X33804938Y-40504586D01*
X33804936Y-40504596D01*
X33784341Y-40739999D01*
X33784341Y-40740000D01*
X33804936Y-40975403D01*
X33804938Y-40975413D01*
X33831856Y-41075872D01*
X33830193Y-41145722D01*
X33799762Y-41195646D01*
X32841208Y-42154199D01*
X32828900Y-42164061D01*
X32829083Y-42164283D01*
X32827994Y-42165183D01*
X32826933Y-42165637D01*
X32819995Y-42171198D01*
X32816557Y-42173381D01*
X32814912Y-42170791D01*
X32763778Y-42192717D01*
X32694870Y-42181163D01*
X32643149Y-42134188D01*
X32625000Y-42069601D01*
X32625000Y-31490020D01*
X32644685Y-31422981D01*
X32697489Y-31377226D01*
X32766647Y-31367282D01*
X32830203Y-31396307D01*
G37*
G04 #@! TD.AperFunction*
G04 #@! TA.AperFunction,Conductor*
G36*
X52492539Y-27719685D02*
G01*
X52538294Y-27772489D01*
X52549500Y-27824000D01*
X52549500Y-28281386D01*
X52529815Y-28348425D01*
X52477011Y-28394180D01*
X52407853Y-28404124D01*
X52344297Y-28375099D01*
X52319384Y-28345537D01*
X52279653Y-28279815D01*
X52255472Y-28239815D01*
X52255471Y-28239814D01*
X52255468Y-28239810D01*
X52135188Y-28119530D01*
X51989606Y-28031522D01*
X51827196Y-27980914D01*
X51827194Y-27980913D01*
X51827192Y-27980913D01*
X51777778Y-27976423D01*
X51756616Y-27974500D01*
X51093384Y-27974500D01*
X51074145Y-27976248D01*
X51022807Y-27980913D01*
X50860393Y-28031522D01*
X50714811Y-28119530D01*
X50594531Y-28239810D01*
X50589906Y-28245715D01*
X50588882Y-28244912D01*
X50543096Y-28286840D01*
X50488511Y-28299500D01*
X50349547Y-28299500D01*
X50282508Y-28279815D01*
X50252276Y-28252405D01*
X50247967Y-28246955D01*
X50214193Y-28213181D01*
X50128044Y-28127032D01*
X50128041Y-28127030D01*
X50128040Y-28127029D01*
X49983705Y-28038001D01*
X49983699Y-28037998D01*
X49983697Y-28037997D01*
X49964157Y-28031522D01*
X49822709Y-27984651D01*
X49723346Y-27974500D01*
X49126662Y-27974500D01*
X49126644Y-27974501D01*
X49027292Y-27984650D01*
X49027289Y-27984651D01*
X48866305Y-28037996D01*
X48866294Y-28038001D01*
X48721959Y-28127029D01*
X48721955Y-28127032D01*
X48635807Y-28213181D01*
X48574484Y-28246666D01*
X48548126Y-28249500D01*
X48316520Y-28249500D01*
X48249481Y-28229815D01*
X48228839Y-28213181D01*
X48135188Y-28119530D01*
X47989606Y-28031522D01*
X47827196Y-27980914D01*
X47827194Y-27980913D01*
X47827192Y-27980913D01*
X47777778Y-27976423D01*
X47756616Y-27974500D01*
X47093384Y-27974500D01*
X47074145Y-27976248D01*
X47022807Y-27980913D01*
X46860393Y-28031522D01*
X46714811Y-28119530D01*
X46714810Y-28119531D01*
X46621161Y-28213181D01*
X46559838Y-28246666D01*
X46533480Y-28249500D01*
X45879303Y-28249500D01*
X45863682Y-28247775D01*
X45863656Y-28248061D01*
X45855894Y-28247327D01*
X45855893Y-28247327D01*
X45786746Y-28249500D01*
X45757209Y-28249500D01*
X45750326Y-28250369D01*
X45744509Y-28250826D01*
X45697933Y-28252290D01*
X45678689Y-28257881D01*
X45659639Y-28261825D01*
X45639771Y-28264334D01*
X45596444Y-28281488D01*
X45590918Y-28283379D01*
X45546174Y-28296379D01*
X45546170Y-28296381D01*
X45528926Y-28306579D01*
X45511465Y-28315133D01*
X45492834Y-28322510D01*
X45492822Y-28322517D01*
X45455130Y-28349902D01*
X45450247Y-28353109D01*
X45410140Y-28376829D01*
X45395974Y-28390995D01*
X45381184Y-28403627D01*
X45364974Y-28415404D01*
X45364971Y-28415407D01*
X45335270Y-28451309D01*
X45331337Y-28455631D01*
X45122707Y-28664261D01*
X45061384Y-28697746D01*
X45035026Y-28700580D01*
X44574249Y-28700580D01*
X44574243Y-28700581D01*
X44514636Y-28706988D01*
X44379791Y-28757282D01*
X44379784Y-28757286D01*
X44264575Y-28843532D01*
X44264572Y-28843535D01*
X44178326Y-28958744D01*
X44178322Y-28958751D01*
X44128030Y-29093593D01*
X44128029Y-29093597D01*
X44121620Y-29153207D01*
X44121620Y-29153214D01*
X44121620Y-29153215D01*
X44121620Y-29746790D01*
X44121621Y-29746796D01*
X44128028Y-29806403D01*
X44178322Y-29941248D01*
X44178324Y-29941251D01*
X44230305Y-30010689D01*
X44254722Y-30076154D01*
X44239870Y-30144427D01*
X44230305Y-30159311D01*
X44178324Y-30228748D01*
X44178322Y-30228751D01*
X44128030Y-30363593D01*
X44128029Y-30363597D01*
X44121620Y-30423207D01*
X44121620Y-30423214D01*
X44121620Y-30423215D01*
X44121620Y-31016790D01*
X44121621Y-31016796D01*
X44128028Y-31076403D01*
X44178322Y-31211248D01*
X44178323Y-31211250D01*
X44193094Y-31230981D01*
X44224525Y-31272968D01*
X44230617Y-31281105D01*
X44255034Y-31346569D01*
X44240183Y-31414842D01*
X44230617Y-31429726D01*
X44178769Y-31498986D01*
X44178765Y-31498993D01*
X44128523Y-31633700D01*
X44128521Y-31633707D01*
X44122120Y-31693235D01*
X44122120Y-31741080D01*
X45346480Y-31741080D01*
X45413519Y-31760765D01*
X45459274Y-31813569D01*
X45470480Y-31865080D01*
X45470480Y-32114920D01*
X45450795Y-32181959D01*
X45397991Y-32227714D01*
X45346480Y-32238920D01*
X44122120Y-32238920D01*
X44122120Y-32286764D01*
X44128521Y-32346292D01*
X44128523Y-32346299D01*
X44178765Y-32481006D01*
X44178767Y-32481009D01*
X44230617Y-32550272D01*
X44255034Y-32615737D01*
X44240182Y-32684010D01*
X44230617Y-32698894D01*
X44178324Y-32768748D01*
X44178322Y-32768751D01*
X44128030Y-32903593D01*
X44128029Y-32903597D01*
X44121620Y-32963207D01*
X44121620Y-32963214D01*
X44121620Y-32963215D01*
X44121620Y-33556790D01*
X44121621Y-33556796D01*
X44128028Y-33616403D01*
X44178322Y-33751248D01*
X44178323Y-33751250D01*
X44230617Y-33821105D01*
X44255034Y-33886569D01*
X44240183Y-33954842D01*
X44230617Y-33969726D01*
X44178769Y-34038986D01*
X44178765Y-34038993D01*
X44128523Y-34173700D01*
X44128521Y-34173707D01*
X44122120Y-34233235D01*
X44122120Y-34281080D01*
X45346480Y-34281080D01*
X45413519Y-34300765D01*
X45459274Y-34353569D01*
X45470480Y-34405080D01*
X45470480Y-34654920D01*
X45450795Y-34721959D01*
X45397991Y-34767714D01*
X45346480Y-34778920D01*
X44122120Y-34778920D01*
X44122120Y-34826764D01*
X44128521Y-34886292D01*
X44128523Y-34886299D01*
X44178765Y-35021006D01*
X44178767Y-35021009D01*
X44230617Y-35090272D01*
X44255034Y-35155737D01*
X44240182Y-35224010D01*
X44230617Y-35238894D01*
X44178324Y-35308748D01*
X44178322Y-35308751D01*
X44128028Y-35443597D01*
X44121621Y-35503196D01*
X44121620Y-35503215D01*
X44121620Y-35613466D01*
X44101935Y-35680505D01*
X44085301Y-35701147D01*
X43041208Y-36745239D01*
X43028951Y-36755060D01*
X43029134Y-36755281D01*
X43023123Y-36760253D01*
X42975772Y-36810676D01*
X42954889Y-36831559D01*
X42954877Y-36831572D01*
X42950621Y-36837057D01*
X42946837Y-36841487D01*
X42914937Y-36875458D01*
X42914936Y-36875460D01*
X42905284Y-36893016D01*
X42894610Y-36909266D01*
X42882329Y-36925101D01*
X42882324Y-36925108D01*
X42863815Y-36967878D01*
X42861245Y-36973124D01*
X42838803Y-37013946D01*
X42833822Y-37033347D01*
X42827521Y-37051750D01*
X42819562Y-37070142D01*
X42819561Y-37070145D01*
X42812271Y-37116167D01*
X42811087Y-37121886D01*
X42799501Y-37167012D01*
X42799500Y-37167022D01*
X42799500Y-37187056D01*
X42797973Y-37206455D01*
X42794840Y-37226234D01*
X42794840Y-37226235D01*
X42799225Y-37272623D01*
X42799500Y-37278461D01*
X42799500Y-37998397D01*
X42779815Y-38065436D01*
X42739652Y-38104513D01*
X42714813Y-38119529D01*
X42714811Y-38119530D01*
X42594531Y-38239810D01*
X42594528Y-38239814D01*
X42531116Y-38344710D01*
X42479588Y-38391897D01*
X42410729Y-38403735D01*
X42346400Y-38376466D01*
X42318884Y-38344710D01*
X42284972Y-38288615D01*
X42255472Y-38239815D01*
X42255471Y-38239814D01*
X42255468Y-38239810D01*
X42135188Y-38119530D01*
X42050498Y-38068333D01*
X41989606Y-38031522D01*
X41827196Y-37980914D01*
X41827194Y-37980913D01*
X41827192Y-37980913D01*
X41777778Y-37976423D01*
X41756616Y-37974500D01*
X41093384Y-37974500D01*
X41074145Y-37976248D01*
X41022807Y-37980913D01*
X40860393Y-38031522D01*
X40838647Y-38044668D01*
X40771092Y-38062502D01*
X40704619Y-38040982D01*
X40660332Y-37986941D01*
X40650500Y-37938549D01*
X40650500Y-37759315D01*
X40670185Y-37692276D01*
X40677003Y-37683814D01*
X40676671Y-37683566D01*
X40699798Y-37652672D01*
X40768236Y-37561251D01*
X40818531Y-37426403D01*
X40824940Y-37366793D01*
X40824939Y-37236011D01*
X40844623Y-37168972D01*
X40861253Y-37148335D01*
X41658786Y-36350802D01*
X41671048Y-36340980D01*
X41670865Y-36340759D01*
X41676867Y-36335792D01*
X41676877Y-36335786D01*
X41724241Y-36285348D01*
X41745120Y-36264470D01*
X41749373Y-36258986D01*
X41753150Y-36254563D01*
X41785062Y-36220582D01*
X41794714Y-36203023D01*
X41805389Y-36186772D01*
X41817674Y-36170936D01*
X41836186Y-36128152D01*
X41838742Y-36122935D01*
X41861197Y-36082092D01*
X41866180Y-36062680D01*
X41872477Y-36044291D01*
X41880438Y-36025895D01*
X41887729Y-35979853D01*
X41888908Y-35974162D01*
X41900500Y-35929019D01*
X41900500Y-35908983D01*
X41902027Y-35889582D01*
X41905160Y-35869804D01*
X41900775Y-35823415D01*
X41900500Y-35817577D01*
X41900500Y-32232742D01*
X41902224Y-32217122D01*
X41901939Y-32217095D01*
X41902673Y-32209333D01*
X41900500Y-32140172D01*
X41900500Y-32110656D01*
X41900500Y-32110650D01*
X41899631Y-32103779D01*
X41899173Y-32097952D01*
X41897710Y-32051373D01*
X41892119Y-32032130D01*
X41888173Y-32013078D01*
X41885664Y-31993208D01*
X41868504Y-31949867D01*
X41866624Y-31944379D01*
X41853618Y-31899610D01*
X41843422Y-31882370D01*
X41834861Y-31864894D01*
X41827487Y-31846270D01*
X41827486Y-31846268D01*
X41800079Y-31808545D01*
X41796888Y-31803686D01*
X41773172Y-31763583D01*
X41773165Y-31763574D01*
X41759006Y-31749415D01*
X41746368Y-31734619D01*
X41734594Y-31718413D01*
X41709905Y-31697989D01*
X41698688Y-31688709D01*
X41694376Y-31684786D01*
X41041883Y-31032292D01*
X41032060Y-31020030D01*
X41031839Y-31020214D01*
X41026866Y-31014203D01*
X41021003Y-31008697D01*
X40976444Y-30966853D01*
X40965999Y-30956408D01*
X40955555Y-30945963D01*
X40950066Y-30941705D01*
X40945641Y-30937927D01*
X40911662Y-30906018D01*
X40911660Y-30906016D01*
X40911657Y-30906015D01*
X40894109Y-30896368D01*
X40877840Y-30885681D01*
X40872935Y-30881876D01*
X40832030Y-30825232D01*
X40824939Y-30783900D01*
X40824939Y-30423209D01*
X40824938Y-30423203D01*
X40818531Y-30363596D01*
X40768237Y-30228751D01*
X40768235Y-30228748D01*
X40747954Y-30201656D01*
X40716254Y-30159310D01*
X40691837Y-30093847D01*
X40706688Y-30025574D01*
X40716252Y-30010692D01*
X40768236Y-29941251D01*
X40818531Y-29806403D01*
X40824940Y-29746793D01*
X40824939Y-29153208D01*
X40818531Y-29093597D01*
X40768236Y-28958749D01*
X40768235Y-28958748D01*
X40768233Y-28958744D01*
X40681987Y-28843535D01*
X40681984Y-28843532D01*
X40566775Y-28757286D01*
X40566768Y-28757282D01*
X40431922Y-28706988D01*
X40431923Y-28706988D01*
X40372323Y-28700581D01*
X40372321Y-28700580D01*
X40372313Y-28700580D01*
X40372305Y-28700580D01*
X39907957Y-28700580D01*
X39840918Y-28680895D01*
X39823073Y-28666972D01*
X39815585Y-28659940D01*
X39815577Y-28659935D01*
X39798029Y-28650288D01*
X39781763Y-28639604D01*
X39765933Y-28627325D01*
X39723168Y-28608818D01*
X39717922Y-28606248D01*
X39677093Y-28583803D01*
X39677092Y-28583802D01*
X39657693Y-28578822D01*
X39639281Y-28572518D01*
X39620898Y-28564562D01*
X39620892Y-28564560D01*
X39574874Y-28557272D01*
X39569152Y-28556087D01*
X39524021Y-28544500D01*
X39524019Y-28544500D01*
X39503984Y-28544500D01*
X39484586Y-28542973D01*
X39477162Y-28541797D01*
X39464805Y-28539840D01*
X39464804Y-28539840D01*
X39418416Y-28544225D01*
X39412578Y-28544500D01*
X38577340Y-28544500D01*
X38510301Y-28524815D01*
X38471801Y-28485596D01*
X38465151Y-28474815D01*
X38447968Y-28446956D01*
X38328044Y-28327032D01*
X38328040Y-28327029D01*
X38183705Y-28238001D01*
X38183699Y-28237998D01*
X38183697Y-28237997D01*
X38108807Y-28213181D01*
X38022709Y-28184651D01*
X37923346Y-28174500D01*
X37326662Y-28174500D01*
X37326644Y-28174501D01*
X37227292Y-28184650D01*
X37227289Y-28184651D01*
X37066305Y-28237996D01*
X37066294Y-28238001D01*
X36921959Y-28327029D01*
X36802030Y-28446957D01*
X36801676Y-28447406D01*
X36801354Y-28447634D01*
X36796925Y-28452063D01*
X36796168Y-28451306D01*
X36744656Y-28487786D01*
X36704406Y-28494500D01*
X36558467Y-28494500D01*
X36491428Y-28474815D01*
X36461817Y-28444379D01*
X36460102Y-28445724D01*
X36455475Y-28439819D01*
X36455473Y-28439817D01*
X36455472Y-28439815D01*
X36335185Y-28319528D01*
X36189606Y-28231522D01*
X36027196Y-28180914D01*
X36027194Y-28180913D01*
X36027192Y-28180913D01*
X35977778Y-28176423D01*
X35956616Y-28174500D01*
X35293384Y-28174500D01*
X35274145Y-28176248D01*
X35222807Y-28180913D01*
X35060393Y-28231522D01*
X34914811Y-28319530D01*
X34914810Y-28319531D01*
X34821161Y-28413181D01*
X34759838Y-28446666D01*
X34733480Y-28449500D01*
X34516520Y-28449500D01*
X34449481Y-28429815D01*
X34428839Y-28413181D01*
X34335188Y-28319530D01*
X34334023Y-28318826D01*
X34189606Y-28231522D01*
X34027196Y-28180914D01*
X34027194Y-28180913D01*
X34027192Y-28180913D01*
X33977778Y-28176423D01*
X33956616Y-28174500D01*
X33293384Y-28174500D01*
X33274145Y-28176248D01*
X33222807Y-28180913D01*
X33060393Y-28231522D01*
X32914811Y-28319530D01*
X32914810Y-28319531D01*
X32836681Y-28397661D01*
X32775358Y-28431146D01*
X32705666Y-28426162D01*
X32649733Y-28384290D01*
X32625316Y-28318826D01*
X32625000Y-28309980D01*
X32625000Y-27824000D01*
X32644685Y-27756961D01*
X32697489Y-27711206D01*
X32749000Y-27700000D01*
X52425500Y-27700000D01*
X52492539Y-27719685D01*
G37*
G04 #@! TD.AperFunction*
G04 #@! TA.AperFunction,Conductor*
G36*
X38568599Y-32061265D02*
G01*
X38614354Y-32114069D01*
X38625560Y-32165580D01*
X38625560Y-32286764D01*
X38631961Y-32346292D01*
X38631963Y-32346299D01*
X38677044Y-32467167D01*
X38682028Y-32536858D01*
X38648543Y-32598181D01*
X38587220Y-32631666D01*
X38560862Y-32634500D01*
X38281329Y-32634500D01*
X38214290Y-32614815D01*
X38208462Y-32610831D01*
X38079299Y-32516989D01*
X38077729Y-32515848D01*
X37904807Y-32438857D01*
X37904802Y-32438855D01*
X37759001Y-32407865D01*
X37719646Y-32399500D01*
X37530354Y-32399500D01*
X37497897Y-32406398D01*
X37345197Y-32438855D01*
X37345192Y-32438857D01*
X37172270Y-32515848D01*
X37172265Y-32515851D01*
X37019129Y-32627111D01*
X36892466Y-32767785D01*
X36797821Y-32931715D01*
X36797819Y-32931719D01*
X36792431Y-32948304D01*
X36752993Y-33005979D01*
X36688634Y-33033177D01*
X36619788Y-33021262D01*
X36568312Y-32974017D01*
X36550500Y-32909985D01*
X36550500Y-32368386D01*
X36548492Y-32346292D01*
X36544086Y-32297804D01*
X36540528Y-32286388D01*
X36539377Y-32216532D01*
X36576177Y-32157139D01*
X36639245Y-32127070D01*
X36658914Y-32125500D01*
X37976309Y-32125500D01*
X37991929Y-32127224D01*
X37991956Y-32126939D01*
X37999712Y-32127671D01*
X37999719Y-32127673D01*
X38068866Y-32125500D01*
X38098402Y-32125500D01*
X38105280Y-32124630D01*
X38111093Y-32124172D01*
X38157679Y-32122709D01*
X38176921Y-32117117D01*
X38195964Y-32113174D01*
X38215844Y-32110664D01*
X38259174Y-32093507D01*
X38264698Y-32091617D01*
X38266655Y-32091048D01*
X38309442Y-32078618D01*
X38326681Y-32068422D01*
X38344157Y-32059861D01*
X38368340Y-32050287D01*
X38413984Y-32041580D01*
X38501560Y-32041580D01*
X38568599Y-32061265D01*
G37*
G04 #@! TD.AperFunction*
M02*
