G04 #@! TF.GenerationSoftware,KiCad,Pcbnew,7.0.9*
G04 #@! TF.CreationDate,2023-12-12T21:55:40+01:00*
G04 #@! TF.ProjectId,Leveller,4c657665-6c6c-4657-922e-6b696361645f,rev?*
G04 #@! TF.SameCoordinates,Original*
G04 #@! TF.FileFunction,Legend,Top*
G04 #@! TF.FilePolarity,Positive*
%FSLAX46Y46*%
G04 Gerber Fmt 4.6, Leading zero omitted, Abs format (unit mm)*
G04 Created by KiCad (PCBNEW 7.0.9) date 2023-12-12 21:55:40*
%MOMM*%
%LPD*%
G01*
G04 APERTURE LIST*
G04 Aperture macros list*
%AMRoundRect*
0 Rectangle with rounded corners*
0 $1 Rounding radius*
0 $2 $3 $4 $5 $6 $7 $8 $9 X,Y pos of 4 corners*
0 Add a 4 corners polygon primitive as box body*
4,1,4,$2,$3,$4,$5,$6,$7,$8,$9,$2,$3,0*
0 Add four circle primitives for the rounded corners*
1,1,$1+$1,$2,$3*
1,1,$1+$1,$4,$5*
1,1,$1+$1,$6,$7*
1,1,$1+$1,$8,$9*
0 Add four rect primitives between the rounded corners*
20,1,$1+$1,$2,$3,$4,$5,0*
20,1,$1+$1,$4,$5,$6,$7,0*
20,1,$1+$1,$6,$7,$8,$9,0*
20,1,$1+$1,$8,$9,$2,$3,0*%
G04 Aperture macros list end*
%ADD10C,0.066040*%
%ADD11C,0.120000*%
%ADD12R,1.198880X0.497840*%
%ADD13RoundRect,0.225000X-0.250000X0.225000X-0.250000X-0.225000X0.250000X-0.225000X0.250000X0.225000X0*%
%ADD14RoundRect,0.200000X0.200000X0.275000X-0.200000X0.275000X-0.200000X-0.275000X0.200000X-0.275000X0*%
%ADD15RoundRect,0.200000X-0.200000X-0.275000X0.200000X-0.275000X0.200000X0.275000X-0.200000X0.275000X0*%
%ADD16RoundRect,0.200000X0.275000X-0.200000X0.275000X0.200000X-0.275000X0.200000X-0.275000X-0.200000X0*%
%ADD17R,1.700000X1.700000*%
%ADD18O,1.700000X1.700000*%
%ADD19RoundRect,0.200000X-0.275000X0.200000X-0.275000X-0.200000X0.275000X-0.200000X0.275000X0.200000X0*%
%ADD20RoundRect,0.225000X0.225000X0.250000X-0.225000X0.250000X-0.225000X-0.250000X0.225000X-0.250000X0*%
%ADD21RoundRect,0.225000X0.250000X-0.225000X0.250000X0.225000X-0.250000X0.225000X-0.250000X-0.225000X0*%
%ADD22RoundRect,0.225000X-0.225000X-0.250000X0.225000X-0.250000X0.225000X0.250000X-0.225000X0.250000X0*%
G04 APERTURE END LIST*
D10*
X39473540Y-37268120D02*
X39473540Y-36869340D01*
X40075520Y-37268120D02*
X39473540Y-37268120D01*
X40075520Y-37268120D02*
X40075520Y-36869340D01*
X44871040Y-37268120D02*
X44871040Y-36869340D01*
X45473020Y-37268120D02*
X44871040Y-37268120D01*
X45473020Y-37268120D02*
X45473020Y-36869340D01*
X40075520Y-36869340D02*
X39473540Y-36869340D01*
X45473020Y-36869340D02*
X44871040Y-36869340D01*
X39473540Y-35998120D02*
X39473540Y-35599340D01*
X40075520Y-35998120D02*
X39473540Y-35998120D01*
X40075520Y-35998120D02*
X40075520Y-35599340D01*
X44871040Y-35998120D02*
X44871040Y-35599340D01*
X45473020Y-35998120D02*
X44871040Y-35998120D01*
X45473020Y-35998120D02*
X45473020Y-35599340D01*
X40075520Y-35599340D02*
X39473540Y-35599340D01*
X45473020Y-35599340D02*
X44871040Y-35599340D01*
X39473540Y-34728120D02*
X39473540Y-34329340D01*
X40075520Y-34728120D02*
X39473540Y-34728120D01*
X40075520Y-34728120D02*
X40075520Y-34329340D01*
X44871040Y-34728120D02*
X44871040Y-34329340D01*
X45473020Y-34728120D02*
X44871040Y-34728120D01*
X45473020Y-34728120D02*
X45473020Y-34329340D01*
X40075520Y-34329340D02*
X39473540Y-34329340D01*
X45473020Y-34329340D02*
X44871040Y-34329340D01*
X39473540Y-33458120D02*
X39473540Y-33061880D01*
X40075520Y-33458120D02*
X39473540Y-33458120D01*
X40075520Y-33458120D02*
X40075520Y-33061880D01*
X44871040Y-33458120D02*
X44871040Y-33061880D01*
X45473020Y-33458120D02*
X44871040Y-33458120D01*
X45473020Y-33458120D02*
X45473020Y-33061880D01*
X40075520Y-33061880D02*
X39473540Y-33061880D01*
X45473020Y-33061880D02*
X44871040Y-33061880D01*
X39473540Y-32190660D02*
X39473540Y-31791880D01*
X40075520Y-32190660D02*
X39473540Y-32190660D01*
X40075520Y-32190660D02*
X40075520Y-31791880D01*
X44871040Y-32190660D02*
X44871040Y-31791880D01*
X45473020Y-32190660D02*
X44871040Y-32190660D01*
X45473020Y-32190660D02*
X45473020Y-31791880D01*
X40075520Y-31791880D02*
X39473540Y-31791880D01*
X45473020Y-31791880D02*
X44871040Y-31791880D01*
X39473540Y-30920660D02*
X39473540Y-30521880D01*
X40075520Y-30920660D02*
X39473540Y-30920660D01*
X40075520Y-30920660D02*
X40075520Y-30521880D01*
X44871040Y-30920660D02*
X44871040Y-30521880D01*
X45473020Y-30920660D02*
X44871040Y-30920660D01*
X45473020Y-30920660D02*
X45473020Y-30521880D01*
X40075520Y-30521880D02*
X39473540Y-30521880D01*
X45473020Y-30521880D02*
X44871040Y-30521880D01*
X39473540Y-29650660D02*
X39473540Y-29251880D01*
X40075520Y-29650660D02*
X39473540Y-29650660D01*
X40075520Y-29650660D02*
X40075520Y-29251880D01*
X44871040Y-29650660D02*
X44871040Y-29251880D01*
X45473020Y-29650660D02*
X44871040Y-29650660D01*
X45473020Y-29650660D02*
X45473020Y-29251880D01*
X40075520Y-29251880D02*
X39473540Y-29251880D01*
X45473020Y-29251880D02*
X44871040Y-29251880D01*
D11*
X40535000Y-39559420D02*
X40535000Y-39840580D01*
X39515000Y-39559420D02*
X39515000Y-39840580D01*
X44862258Y-54222500D02*
X44387742Y-54222500D01*
X44862258Y-53177500D02*
X44387742Y-53177500D01*
X49987742Y-31977500D02*
X50462258Y-31977500D01*
X49987742Y-33022500D02*
X50462258Y-33022500D01*
X38135000Y-29759420D02*
X38135000Y-30040580D01*
X37115000Y-29759420D02*
X37115000Y-30040580D01*
X33102500Y-30137258D02*
X33102500Y-29662742D01*
X34147500Y-30137258D02*
X34147500Y-29662742D01*
X38335000Y-35259420D02*
X38335000Y-35540580D01*
X37315000Y-35259420D02*
X37315000Y-35540580D01*
X38335000Y-48259420D02*
X38335000Y-48540580D01*
X37315000Y-48259420D02*
X37315000Y-48540580D01*
X44902500Y-39937258D02*
X44902500Y-39462742D01*
X45947500Y-39937258D02*
X45947500Y-39462742D01*
X50902500Y-29937258D02*
X50902500Y-29462742D01*
X51947500Y-29937258D02*
X51947500Y-29462742D01*
X49050000Y-36930000D02*
X49050000Y-47150000D01*
X49050000Y-36930000D02*
X51710000Y-36930000D01*
X49050000Y-47150000D02*
X51710000Y-47150000D01*
X50380000Y-34330000D02*
X51710000Y-34330000D01*
X51710000Y-34330000D02*
X51710000Y-35660000D01*
X51710000Y-36930000D02*
X51710000Y-47150000D01*
X47947500Y-29462742D02*
X47947500Y-29937258D01*
X46902500Y-29462742D02*
X46902500Y-29937258D01*
X37062258Y-52122500D02*
X36587742Y-52122500D01*
X37062258Y-51077500D02*
X36587742Y-51077500D01*
X38387742Y-41777500D02*
X38862258Y-41777500D01*
X38387742Y-42822500D02*
X38862258Y-42822500D01*
X40665580Y-54210000D02*
X40384420Y-54210000D01*
X40665580Y-53190000D02*
X40384420Y-53190000D01*
X46915000Y-39840580D02*
X46915000Y-39559420D01*
X47935000Y-39840580D02*
X47935000Y-39559420D01*
X42084420Y-41790000D02*
X42365580Y-41790000D01*
X42084420Y-42810000D02*
X42365580Y-42810000D01*
X41947500Y-39462742D02*
X41947500Y-39937258D01*
X40902500Y-39462742D02*
X40902500Y-39937258D01*
X36147500Y-29662742D02*
X36147500Y-30137258D01*
X35102500Y-29662742D02*
X35102500Y-30137258D01*
X47987742Y-50977500D02*
X48462258Y-50977500D01*
X47987742Y-52022500D02*
X48462258Y-52022500D01*
X47987742Y-53177500D02*
X48462258Y-53177500D01*
X47987742Y-54222500D02*
X48462258Y-54222500D01*
X49935000Y-29559420D02*
X49935000Y-29840580D01*
X48915000Y-29559420D02*
X48915000Y-29840580D01*
X33810000Y-36930000D02*
X33810000Y-49690000D01*
X33810000Y-36930000D02*
X36470000Y-36930000D01*
X33810000Y-49690000D02*
X36470000Y-49690000D01*
X35140000Y-34330000D02*
X36470000Y-34330000D01*
X36470000Y-34330000D02*
X36470000Y-35660000D01*
X36470000Y-36930000D02*
X36470000Y-49690000D01*
X46915000Y-34240580D02*
X46915000Y-33959420D01*
X47935000Y-34240580D02*
X47935000Y-33959420D01*
X36587742Y-53177500D02*
X37062258Y-53177500D01*
X36587742Y-54222500D02*
X37062258Y-54222500D01*
X38547500Y-39462742D02*
X38547500Y-39937258D01*
X37502500Y-39462742D02*
X37502500Y-39937258D01*
X46902500Y-43937258D02*
X46902500Y-43462742D01*
X47947500Y-43937258D02*
X47947500Y-43462742D01*
X34587742Y-32177500D02*
X35062258Y-32177500D01*
X34587742Y-33222500D02*
X35062258Y-33222500D01*
X43947500Y-39462742D02*
X43947500Y-39937258D01*
X42902500Y-39462742D02*
X42902500Y-39937258D01*
D10*
X39525260Y-51908120D02*
X39525260Y-51509340D01*
X40127240Y-51908120D02*
X39525260Y-51908120D01*
X40127240Y-51908120D02*
X40127240Y-51509340D01*
X44922760Y-51908120D02*
X44922760Y-51509340D01*
X45524740Y-51908120D02*
X44922760Y-51908120D01*
X45524740Y-51908120D02*
X45524740Y-51509340D01*
X40127240Y-51509340D02*
X39525260Y-51509340D01*
X45524740Y-51509340D02*
X44922760Y-51509340D01*
X39525260Y-50638120D02*
X39525260Y-50239340D01*
X40127240Y-50638120D02*
X39525260Y-50638120D01*
X40127240Y-50638120D02*
X40127240Y-50239340D01*
X44922760Y-50638120D02*
X44922760Y-50239340D01*
X45524740Y-50638120D02*
X44922760Y-50638120D01*
X45524740Y-50638120D02*
X45524740Y-50239340D01*
X40127240Y-50239340D02*
X39525260Y-50239340D01*
X45524740Y-50239340D02*
X44922760Y-50239340D01*
X39525260Y-49368120D02*
X39525260Y-48969340D01*
X40127240Y-49368120D02*
X39525260Y-49368120D01*
X40127240Y-49368120D02*
X40127240Y-48969340D01*
X44922760Y-49368120D02*
X44922760Y-48969340D01*
X45524740Y-49368120D02*
X44922760Y-49368120D01*
X45524740Y-49368120D02*
X45524740Y-48969340D01*
X40127240Y-48969340D02*
X39525260Y-48969340D01*
X45524740Y-48969340D02*
X44922760Y-48969340D01*
X39525260Y-48098120D02*
X39525260Y-47701880D01*
X40127240Y-48098120D02*
X39525260Y-48098120D01*
X40127240Y-48098120D02*
X40127240Y-47701880D01*
X44922760Y-48098120D02*
X44922760Y-47701880D01*
X45524740Y-48098120D02*
X44922760Y-48098120D01*
X45524740Y-48098120D02*
X45524740Y-47701880D01*
X40127240Y-47701880D02*
X39525260Y-47701880D01*
X45524740Y-47701880D02*
X44922760Y-47701880D01*
X39525260Y-46830660D02*
X39525260Y-46431880D01*
X40127240Y-46830660D02*
X39525260Y-46830660D01*
X40127240Y-46830660D02*
X40127240Y-46431880D01*
X44922760Y-46830660D02*
X44922760Y-46431880D01*
X45524740Y-46830660D02*
X44922760Y-46830660D01*
X45524740Y-46830660D02*
X45524740Y-46431880D01*
X40127240Y-46431880D02*
X39525260Y-46431880D01*
X45524740Y-46431880D02*
X44922760Y-46431880D01*
X39525260Y-45560660D02*
X39525260Y-45161880D01*
X40127240Y-45560660D02*
X39525260Y-45560660D01*
X40127240Y-45560660D02*
X40127240Y-45161880D01*
X44922760Y-45560660D02*
X44922760Y-45161880D01*
X45524740Y-45560660D02*
X44922760Y-45560660D01*
X45524740Y-45560660D02*
X45524740Y-45161880D01*
X40127240Y-45161880D02*
X39525260Y-45161880D01*
X45524740Y-45161880D02*
X44922760Y-45161880D01*
X39525260Y-44290660D02*
X39525260Y-43891880D01*
X40127240Y-44290660D02*
X39525260Y-44290660D01*
X40127240Y-44290660D02*
X40127240Y-43891880D01*
X44922760Y-44290660D02*
X44922760Y-43891880D01*
X45524740Y-44290660D02*
X44922760Y-44290660D01*
X45524740Y-44290660D02*
X45524740Y-43891880D01*
X40127240Y-43891880D02*
X39525260Y-43891880D01*
X45524740Y-43891880D02*
X44922760Y-43891880D01*
D11*
X47935000Y-47159420D02*
X47935000Y-47440580D01*
X46915000Y-47159420D02*
X46915000Y-47440580D01*
X38347500Y-44862742D02*
X38347500Y-45337258D01*
X37302500Y-44862742D02*
X37302500Y-45337258D01*
%LPC*%
D12*
X45221560Y-37070000D03*
X45221560Y-35800000D03*
X45221560Y-34530000D03*
X45221560Y-33260000D03*
X45221560Y-31990000D03*
X45221560Y-30720000D03*
X45221560Y-29450000D03*
X39725000Y-29450000D03*
X39725000Y-30720000D03*
X39725000Y-31990000D03*
X39725000Y-33260000D03*
X39725000Y-34530000D03*
X39725000Y-35800000D03*
X39725000Y-37070000D03*
D13*
X40025000Y-38925000D03*
X40025000Y-40475000D03*
D14*
X45450000Y-53700000D03*
X43800000Y-53700000D03*
D15*
X49400000Y-32500000D03*
X51050000Y-32500000D03*
D13*
X37625000Y-29125000D03*
X37625000Y-30675000D03*
D16*
X33625000Y-30725000D03*
X33625000Y-29075000D03*
D13*
X37825000Y-34625000D03*
X37825000Y-36175000D03*
X37825000Y-47625000D03*
X37825000Y-49175000D03*
D16*
X45425000Y-40525000D03*
X45425000Y-38875000D03*
X51425000Y-30525000D03*
X51425000Y-28875000D03*
D17*
X50380000Y-35660000D03*
D18*
X50380000Y-38200000D03*
X50380000Y-40740000D03*
X50380000Y-43280000D03*
X50380000Y-45820000D03*
D19*
X47425000Y-28875000D03*
X47425000Y-30525000D03*
D14*
X37650000Y-51600000D03*
X36000000Y-51600000D03*
D15*
X37800000Y-42300000D03*
X39450000Y-42300000D03*
D20*
X41300000Y-53700000D03*
X39750000Y-53700000D03*
D21*
X47425000Y-40475000D03*
X47425000Y-38925000D03*
D22*
X41450000Y-42300000D03*
X43000000Y-42300000D03*
D19*
X41425000Y-38875000D03*
X41425000Y-40525000D03*
X35625000Y-29075000D03*
X35625000Y-30725000D03*
D15*
X47400000Y-51500000D03*
X49050000Y-51500000D03*
X47400000Y-53700000D03*
X49050000Y-53700000D03*
D13*
X49425000Y-28925000D03*
X49425000Y-30475000D03*
D17*
X35140000Y-35660000D03*
D18*
X35140000Y-38200000D03*
X35140000Y-40740000D03*
X35140000Y-43280000D03*
X35140000Y-45820000D03*
X35140000Y-48360000D03*
D21*
X47425000Y-34875000D03*
X47425000Y-33325000D03*
D15*
X36000000Y-53700000D03*
X37650000Y-53700000D03*
D19*
X38025000Y-38875000D03*
X38025000Y-40525000D03*
D16*
X47425000Y-44525000D03*
X47425000Y-42875000D03*
D15*
X34000000Y-32700000D03*
X35650000Y-32700000D03*
D19*
X43425000Y-38875000D03*
X43425000Y-40525000D03*
D12*
X45273280Y-51710000D03*
X45273280Y-50440000D03*
X45273280Y-49170000D03*
X45273280Y-47900000D03*
X45273280Y-46630000D03*
X45273280Y-45360000D03*
X45273280Y-44090000D03*
X39776720Y-44090000D03*
X39776720Y-45360000D03*
X39776720Y-46630000D03*
X39776720Y-47900000D03*
X39776720Y-49170000D03*
X39776720Y-50440000D03*
X39776720Y-51710000D03*
D13*
X47425000Y-46525000D03*
X47425000Y-48075000D03*
D19*
X37825000Y-44275000D03*
X37825000Y-45925000D03*
%LPD*%
M02*
