G04 #@! TF.GenerationSoftware,KiCad,Pcbnew,7.0.9*
G04 #@! TF.CreationDate,2023-12-12T21:55:39+01:00*
G04 #@! TF.ProjectId,Leveller,4c657665-6c6c-4657-922e-6b696361645f,rev?*
G04 #@! TF.SameCoordinates,Original*
G04 #@! TF.FileFunction,Paste,Top*
G04 #@! TF.FilePolarity,Positive*
%FSLAX46Y46*%
G04 Gerber Fmt 4.6, Leading zero omitted, Abs format (unit mm)*
G04 Created by KiCad (PCBNEW 7.0.9) date 2023-12-12 21:55:39*
%MOMM*%
%LPD*%
G01*
G04 APERTURE LIST*
G04 Aperture macros list*
%AMRoundRect*
0 Rectangle with rounded corners*
0 $1 Rounding radius*
0 $2 $3 $4 $5 $6 $7 $8 $9 X,Y pos of 4 corners*
0 Add a 4 corners polygon primitive as box body*
4,1,4,$2,$3,$4,$5,$6,$7,$8,$9,$2,$3,0*
0 Add four circle primitives for the rounded corners*
1,1,$1+$1,$2,$3*
1,1,$1+$1,$4,$5*
1,1,$1+$1,$6,$7*
1,1,$1+$1,$8,$9*
0 Add four rect primitives between the rounded corners*
20,1,$1+$1,$2,$3,$4,$5,0*
20,1,$1+$1,$4,$5,$6,$7,0*
20,1,$1+$1,$6,$7,$8,$9,0*
20,1,$1+$1,$8,$9,$2,$3,0*%
G04 Aperture macros list end*
%ADD10R,1.198880X0.497840*%
%ADD11RoundRect,0.225000X-0.250000X0.225000X-0.250000X-0.225000X0.250000X-0.225000X0.250000X0.225000X0*%
%ADD12RoundRect,0.200000X0.200000X0.275000X-0.200000X0.275000X-0.200000X-0.275000X0.200000X-0.275000X0*%
%ADD13RoundRect,0.200000X-0.200000X-0.275000X0.200000X-0.275000X0.200000X0.275000X-0.200000X0.275000X0*%
%ADD14RoundRect,0.200000X0.275000X-0.200000X0.275000X0.200000X-0.275000X0.200000X-0.275000X-0.200000X0*%
%ADD15RoundRect,0.200000X-0.275000X0.200000X-0.275000X-0.200000X0.275000X-0.200000X0.275000X0.200000X0*%
%ADD16RoundRect,0.225000X0.225000X0.250000X-0.225000X0.250000X-0.225000X-0.250000X0.225000X-0.250000X0*%
%ADD17RoundRect,0.225000X0.250000X-0.225000X0.250000X0.225000X-0.250000X0.225000X-0.250000X-0.225000X0*%
%ADD18RoundRect,0.225000X-0.225000X-0.250000X0.225000X-0.250000X0.225000X0.250000X-0.225000X0.250000X0*%
G04 APERTURE END LIST*
D10*
X45221560Y-37070000D03*
X45221560Y-35800000D03*
X45221560Y-34530000D03*
X45221560Y-33260000D03*
X45221560Y-31990000D03*
X45221560Y-30720000D03*
X45221560Y-29450000D03*
X39725000Y-29450000D03*
X39725000Y-30720000D03*
X39725000Y-31990000D03*
X39725000Y-33260000D03*
X39725000Y-34530000D03*
X39725000Y-35800000D03*
X39725000Y-37070000D03*
D11*
X40025000Y-38925000D03*
X40025000Y-40475000D03*
D12*
X45450000Y-53700000D03*
X43800000Y-53700000D03*
D13*
X49400000Y-32500000D03*
X51050000Y-32500000D03*
D11*
X37625000Y-29125000D03*
X37625000Y-30675000D03*
D14*
X33625000Y-30725000D03*
X33625000Y-29075000D03*
D11*
X37825000Y-34625000D03*
X37825000Y-36175000D03*
X37825000Y-47625000D03*
X37825000Y-49175000D03*
D14*
X45425000Y-40525000D03*
X45425000Y-38875000D03*
X51425000Y-30525000D03*
X51425000Y-28875000D03*
D15*
X47425000Y-28875000D03*
X47425000Y-30525000D03*
D12*
X37650000Y-51600000D03*
X36000000Y-51600000D03*
D13*
X37800000Y-42300000D03*
X39450000Y-42300000D03*
D16*
X41300000Y-53700000D03*
X39750000Y-53700000D03*
D17*
X47425000Y-40475000D03*
X47425000Y-38925000D03*
D18*
X41450000Y-42300000D03*
X43000000Y-42300000D03*
D15*
X41425000Y-38875000D03*
X41425000Y-40525000D03*
X35625000Y-29075000D03*
X35625000Y-30725000D03*
D13*
X47400000Y-51500000D03*
X49050000Y-51500000D03*
X47400000Y-53700000D03*
X49050000Y-53700000D03*
D11*
X49425000Y-28925000D03*
X49425000Y-30475000D03*
D17*
X47425000Y-34875000D03*
X47425000Y-33325000D03*
D13*
X36000000Y-53700000D03*
X37650000Y-53700000D03*
D15*
X38025000Y-38875000D03*
X38025000Y-40525000D03*
D14*
X47425000Y-44525000D03*
X47425000Y-42875000D03*
D13*
X34000000Y-32700000D03*
X35650000Y-32700000D03*
D15*
X43425000Y-38875000D03*
X43425000Y-40525000D03*
D10*
X45273280Y-51710000D03*
X45273280Y-50440000D03*
X45273280Y-49170000D03*
X45273280Y-47900000D03*
X45273280Y-46630000D03*
X45273280Y-45360000D03*
X45273280Y-44090000D03*
X39776720Y-44090000D03*
X39776720Y-45360000D03*
X39776720Y-46630000D03*
X39776720Y-47900000D03*
X39776720Y-49170000D03*
X39776720Y-50440000D03*
X39776720Y-51710000D03*
D11*
X47425000Y-46525000D03*
X47425000Y-48075000D03*
D15*
X37825000Y-44275000D03*
X37825000Y-45925000D03*
M02*
