%TF.GenerationSoftware,KiCad,Pcbnew,7.0.9*%
%TF.CreationDate,2023-12-12T21:56:47+01:00*%
%TF.ProjectId,Leveller,4c657665-6c6c-4657-922e-6b696361645f,rev?*%
%TF.SameCoordinates,Original*%
%TF.FileFunction,Drillmap*%
%TF.FilePolarity,Positive*%
%FSLAX45Y45*%
G04 Gerber Fmt 4.5, Leading zero omitted, Abs format (unit mm)*
G04 Created by KiCad (PCBNEW 7.0.9) date 2023-12-12 21:56:47*
%MOMM*%
%LPD*%
G01*
G04 APERTURE LIST*
%ADD10C,0.100000*%
%ADD11C,0.200000*%
G04 APERTURE END LIST*
D10*
X3255000Y-2767500D02*
X5255000Y-2767500D01*
X5255000Y-5545000D01*
X3255000Y-5545000D01*
X3255000Y-2767500D01*
D11*
X3510777Y-5861484D02*
X3510777Y-5661484D01*
X3510777Y-5661484D02*
X3558396Y-5661484D01*
X3558396Y-5661484D02*
X3586967Y-5671008D01*
X3586967Y-5671008D02*
X3606015Y-5690055D01*
X3606015Y-5690055D02*
X3615539Y-5709103D01*
X3615539Y-5709103D02*
X3625062Y-5747198D01*
X3625062Y-5747198D02*
X3625062Y-5775769D01*
X3625062Y-5775769D02*
X3615539Y-5813865D01*
X3615539Y-5813865D02*
X3606015Y-5832912D01*
X3606015Y-5832912D02*
X3586967Y-5851960D01*
X3586967Y-5851960D02*
X3558396Y-5861484D01*
X3558396Y-5861484D02*
X3510777Y-5861484D01*
X3710777Y-5861484D02*
X3710777Y-5728150D01*
X3710777Y-5766246D02*
X3720301Y-5747198D01*
X3720301Y-5747198D02*
X3729824Y-5737674D01*
X3729824Y-5737674D02*
X3748872Y-5728150D01*
X3748872Y-5728150D02*
X3767920Y-5728150D01*
X3834586Y-5861484D02*
X3834586Y-5728150D01*
X3834586Y-5661484D02*
X3825062Y-5671008D01*
X3825062Y-5671008D02*
X3834586Y-5680531D01*
X3834586Y-5680531D02*
X3844110Y-5671008D01*
X3844110Y-5671008D02*
X3834586Y-5661484D01*
X3834586Y-5661484D02*
X3834586Y-5680531D01*
X3958396Y-5861484D02*
X3939348Y-5851960D01*
X3939348Y-5851960D02*
X3929824Y-5832912D01*
X3929824Y-5832912D02*
X3929824Y-5661484D01*
X4063158Y-5861484D02*
X4044110Y-5851960D01*
X4044110Y-5851960D02*
X4034586Y-5832912D01*
X4034586Y-5832912D02*
X4034586Y-5661484D01*
X4291729Y-5861484D02*
X4291729Y-5661484D01*
X4291729Y-5661484D02*
X4358396Y-5804341D01*
X4358396Y-5804341D02*
X4425063Y-5661484D01*
X4425063Y-5661484D02*
X4425063Y-5861484D01*
X4606015Y-5861484D02*
X4606015Y-5756722D01*
X4606015Y-5756722D02*
X4596491Y-5737674D01*
X4596491Y-5737674D02*
X4577444Y-5728150D01*
X4577444Y-5728150D02*
X4539348Y-5728150D01*
X4539348Y-5728150D02*
X4520301Y-5737674D01*
X4606015Y-5851960D02*
X4586967Y-5861484D01*
X4586967Y-5861484D02*
X4539348Y-5861484D01*
X4539348Y-5861484D02*
X4520301Y-5851960D01*
X4520301Y-5851960D02*
X4510777Y-5832912D01*
X4510777Y-5832912D02*
X4510777Y-5813865D01*
X4510777Y-5813865D02*
X4520301Y-5794817D01*
X4520301Y-5794817D02*
X4539348Y-5785293D01*
X4539348Y-5785293D02*
X4586967Y-5785293D01*
X4586967Y-5785293D02*
X4606015Y-5775769D01*
X4701253Y-5728150D02*
X4701253Y-5928150D01*
X4701253Y-5737674D02*
X4720301Y-5728150D01*
X4720301Y-5728150D02*
X4758396Y-5728150D01*
X4758396Y-5728150D02*
X4777444Y-5737674D01*
X4777444Y-5737674D02*
X4786967Y-5747198D01*
X4786967Y-5747198D02*
X4796491Y-5766246D01*
X4796491Y-5766246D02*
X4796491Y-5823388D01*
X4796491Y-5823388D02*
X4786967Y-5842436D01*
X4786967Y-5842436D02*
X4777444Y-5851960D01*
X4777444Y-5851960D02*
X4758396Y-5861484D01*
X4758396Y-5861484D02*
X4720301Y-5861484D01*
X4720301Y-5861484D02*
X4701253Y-5851960D01*
X4882205Y-5842436D02*
X4891729Y-5851960D01*
X4891729Y-5851960D02*
X4882205Y-5861484D01*
X4882205Y-5861484D02*
X4872682Y-5851960D01*
X4872682Y-5851960D02*
X4882205Y-5842436D01*
X4882205Y-5842436D02*
X4882205Y-5861484D01*
X4882205Y-5737674D02*
X4891729Y-5747198D01*
X4891729Y-5747198D02*
X4882205Y-5756722D01*
X4882205Y-5756722D02*
X4872682Y-5747198D01*
X4872682Y-5747198D02*
X4882205Y-5737674D01*
X4882205Y-5737674D02*
X4882205Y-5756722D01*
M02*
